<?xml version="1.0" encoding="UTF-8" standalone="no"?>
<!-- Created with Inkscape (http://www.inkscape.org/) -->

<svg
   xmlns:dc="http://purl.org/dc/elements/1.1/"
   xmlns:cc="http://creativecommons.org/ns#"
   xmlns:rdf="http://www.w3.org/1999/02/22-rdf-syntax-ns#"
   xmlns:svg="http://www.w3.org/2000/svg"
   xmlns="http://www.w3.org/2000/svg"
   xmlns:sodipodi="http://sodipodi.sourceforge.net/DTD/sodipodi-0.dtd"
   xmlns:inkscape="http://www.inkscape.org/namespaces/inkscape"
   width="210mm"
   height="297mm"
   viewBox="0 0 210 297"
   version="1.1"
   id="svg3750"
   inkscape:version="0.92.5 (0.92.5+68)"
   sodipodi:docname="nuevoMicrofludicSystem.svg">
  <defs
     id="defs3744" />
  <sodipodi:namedview
     id="base"
     pagecolor="#ffffff"
     bordercolor="#666666"
     borderopacity="1.0"
     inkscape:pageopacity="0.0"
     inkscape:pageshadow="2"
     inkscape:zoom="0.49497475"
     inkscape:cx="115.55486"
     inkscape:cy="576.74355"
     inkscape:document-units="mm"
     inkscape:current-layer="layer1"
     showgrid="false"
     inkscape:window-width="1301"
     inkscape:window-height="744"
     inkscape:window-x="65"
     inkscape:window-y="24"
     inkscape:window-maximized="1" />
  <metadata
     id="metadata3747">
    <rdf:RDF>
      <cc:Work
         rdf:about="">
        <dc:format>image/svg+xml</dc:format>
        <dc:type
           rdf:resource="http://purl.org/dc/dcmitype/StillImage" />
        <dc:title></dc:title>
      </cc:Work>
    </rdf:RDF>
  </metadata>
  <g
     inkscape:label="Layer 1"
     inkscape:groupmode="layer"
     id="layer1">
    <path
       style="fill:#ffffff;stroke:#000000;stroke-width:0.46698537"
       d="m 32.325943,21.09764 -0.0341,28.695922 99.498827,0.833025 0.0336,-28.696441 z M 60.0581,24.416817 a 1.4451381,1.4451381 0 0 1 1.445389,1.44539 1.4451381,1.4451381 0 0 1 -1.445389,1.444873 1.4451381,1.4451381 0 0 1 -1.444871,-1.444873 1.4451381,1.4451381 0 0 1 1.444871,-1.44539 z m 43.99989,0 a 1.4451383,1.4451383 0 0 1 1.44539,1.44539 1.4451383,1.4451383 0 0 1 -1.44539,1.444873 1.4451383,1.4451383 0 0 1 -1.44487,-1.444873 1.4451383,1.4451383 0 0 1 1.44487,-1.44539 z m -62.999762,0.722437 a 0.72256922,0.72256922 0 0 1 0.722437,0.722953 0.72256922,0.72256922 0 0 1 -0.722437,0.722436 0.72256922,0.72256922 0 0 1 -0.722437,-0.722436 0.72256922,0.72256922 0 0 1 0.722437,-0.722953 z m 8.000029,0 a 0.72256922,0.72256922 0 0 1 0.722434,0.722953 0.72256922,0.72256922 0 0 1 -0.722434,0.722436 0.72256922,0.72256922 0 0 1 -0.722437,-0.722436 0.72256922,0.72256922 0 0 1 0.722437,-0.722953 z m 66.000103,0 a 0.72256922,0.72256922 0 0 1 0.72243,0.722953 0.72256922,0.72256922 0 0 1 -0.72243,0.722436 0.72256922,0.72256922 0 0 1 -0.72296,-0.722436 0.72256922,0.72256922 0 0 1 0.72296,-0.722953 z m 8.00002,0 a 0.72256922,0.72256922 0 0 1 0.72244,0.722953 0.72256922,0.72256922 0 0 1 -0.72244,0.722436 0.72256922,0.72256922 0 0 1 -0.72295,-0.722436 0.72256922,0.72256922 0 0 1 0.72295,-0.722953 z M 60.0581,44.416631 a 1.4451382,1.4451382 0 0 1 1.445389,1.44539 1.4451382,1.4451382 0 0 1 -1.445389,1.444871 1.4451382,1.4451382 0 0 1 -1.444871,-1.444871 1.4451382,1.4451382 0 0 1 1.444871,-1.44539 z m 43.99989,0 a 1.4451383,1.4451383 0 0 1 1.44539,1.44539 1.4451383,1.4451383 0 0 1 -1.44539,1.444871 1.4451383,1.4451383 0 0 1 -1.44487,-1.444871 1.4451383,1.4451383 0 0 1 1.44487,-1.44539 z m -62.999762,0.722953 a 0.72256922,0.72256922 0 0 1 0.722437,0.722437 0.72256922,0.72256922 0 0 1 -0.722437,0.722437 0.72256922,0.72256922 0 0 1 -0.722437,-0.722437 0.72256922,0.72256922 0 0 1 0.722437,-0.722437 z m 8.000029,0 a 0.72256922,0.72256922 0 0 1 0.722434,0.722437 0.72256922,0.72256922 0 0 1 -0.722434,0.722437 0.72256922,0.72256922 0 0 1 -0.722437,-0.722437 0.72256922,0.72256922 0 0 1 0.722437,-0.722437 z m 66.000103,0 a 0.72256922,0.72256922 0 0 1 0.72243,0.722437 0.72256922,0.72256922 0 0 1 -0.72243,0.722437 0.72256922,0.72256922 0 0 1 -0.72296,-0.722437 0.72256922,0.72256922 0 0 1 0.72296,-0.722437 z m 8.00002,0 a 0.72256922,0.72256922 0 0 1 0.72244,0.722437 0.72256922,0.72256922 0 0 1 -0.72244,0.722437 0.72256922,0.72256922 0 0 1 -0.72295,-0.722437 0.72256922,0.72256922 0 0 1 0.72295,-0.722437 z"
       id="rect575"
       inkscape:connector-curvature="0" />
    <path
       inkscape:connector-curvature="0"
       style="fill:#ffffff;stroke:#000000;stroke-width:0.46698537"
       d="m 32.32608,61.097551 -0.0341,28.69592 99.49884,0.83303 0.0336,-28.69644 z m 27.732156,3.31918 a 1.4451382,1.4451382 0 0 1 1.445389,1.44539 1.4451382,1.4451382 0 0 1 -1.445389,1.44487 1.4451382,1.4451382 0 0 1 -1.444871,-1.44487 1.4451382,1.4451382 0 0 1 1.444871,-1.44539 z m 43.999894,0 a 1.4451383,1.4451383 0 0 1 1.44539,1.44539 1.4451383,1.4451383 0 0 1 -1.44539,1.44487 1.4451383,1.4451383 0 0 1 -1.44487,-1.44487 1.4451383,1.4451383 0 0 1 1.44487,-1.44539 z m -62.999766,0.72244 a 0.72256923,0.72256923 0 0 1 0.722437,0.72295 0.72256923,0.72256923 0 0 1 -0.722437,0.72243 0.72256923,0.72256923 0 0 1 -0.722437,-0.72243 0.72256923,0.72256923 0 0 1 0.722437,-0.72295 z m 8.000029,0 a 0.72256923,0.72256923 0 0 1 0.722435,0.72295 0.72256923,0.72256923 0 0 1 -0.722435,0.72243 0.72256923,0.72256923 0 0 1 -0.722436,-0.72243 0.72256923,0.72256923 0 0 1 0.722436,-0.72295 z m 66.000107,0 a 0.72256923,0.72256923 0 0 1 0.72243,0.72295 0.72256923,0.72256923 0 0 1 -0.72243,0.72243 0.72256923,0.72256923 0 0 1 -0.72296,-0.72243 0.72256923,0.72256923 0 0 1 0.72296,-0.72295 z m 8.00002,0 a 0.72256923,0.72256923 0 0 1 0.72244,0.72295 0.72256923,0.72256923 0 0 1 -0.72244,0.72243 0.72256923,0.72256923 0 0 1 -0.72295,-0.72243 0.72256923,0.72256923 0 0 1 0.72295,-0.72295 z m -63.000284,19.27737 a 1.4451382,1.4451382 0 0 1 1.445389,1.44539 1.4451382,1.4451382 0 0 1 -1.445389,1.44487 1.4451382,1.4451382 0 0 1 -1.444871,-1.44487 1.4451382,1.4451382 0 0 1 1.444871,-1.44539 z m 43.999894,0 a 1.4451383,1.4451383 0 0 1 1.44539,1.44539 1.4451383,1.4451383 0 0 1 -1.44539,1.44487 1.4451383,1.4451383 0 0 1 -1.44487,-1.44487 1.4451383,1.4451383 0 0 1 1.44487,-1.44539 z m -62.999766,0.72296 a 0.72256923,0.72256923 0 0 1 0.722437,0.72243 0.72256923,0.72256923 0 0 1 -0.722437,0.72244 0.72256923,0.72256923 0 0 1 -0.722437,-0.72244 0.72256923,0.72256923 0 0 1 0.722437,-0.72243 z m 8.000029,0 a 0.72256923,0.72256923 0 0 1 0.722435,0.72243 0.72256923,0.72256923 0 0 1 -0.722435,0.72244 0.72256923,0.72256923 0 0 1 -0.722436,-0.72244 0.72256923,0.72256923 0 0 1 0.722436,-0.72243 z m 66.000107,0 a 0.72256923,0.72256923 0 0 1 0.72243,0.72243 0.72256923,0.72256923 0 0 1 -0.72243,0.72244 0.72256923,0.72256923 0 0 1 -0.72296,-0.72244 0.72256923,0.72256923 0 0 1 0.72296,-0.72243 z m 8.00002,0 a 0.72256923,0.72256923 0 0 1 0.72244,0.72243 0.72256923,0.72256923 0 0 1 -0.72244,0.72244 0.72256923,0.72256923 0 0 1 -0.72295,-0.72244 0.72256923,0.72256923 0 0 1 0.72295,-0.72243 z"
       id="rect575-3" />
    <path
       style="fill:#ffffff;stroke:#000000;stroke-width:0.46698537"
       d="m 32.325943,101.09741 -0.01654,13.83429 h 99.499867 l 0.015,-13.00179 z m 27.732157,3.31917 a 1.4451382,1.4451382 0 0 1 1.445389,1.44539 1.4451382,1.4451382 0 0 1 -1.445389,1.44488 1.4451382,1.4451382 0 0 1 -1.444871,-1.44488 1.4451382,1.4451382 0 0 1 1.444871,-1.44539 z m 43.99989,0 a 1.4451383,1.4451383 0 0 1 1.44539,1.44539 1.4451383,1.4451383 0 0 1 -1.44539,1.44488 1.4451383,1.4451383 0 0 1 -1.44487,-1.44488 1.4451383,1.4451383 0 0 1 1.44487,-1.44539 z m -62.999762,0.72244 a 0.72256922,0.72256922 0 0 1 0.722437,0.72295 0.72256922,0.72256922 0 0 1 -0.722437,0.72244 0.72256922,0.72256922 0 0 1 -0.722437,-0.72244 0.72256922,0.72256922 0 0 1 0.722437,-0.72295 z m 8.000029,0 a 0.72256922,0.72256922 0 0 1 0.722434,0.72295 0.72256922,0.72256922 0 0 1 -0.722434,0.72244 0.72256922,0.72256922 0 0 1 -0.722437,-0.72244 0.72256922,0.72256922 0 0 1 0.722437,-0.72295 z m 66.000103,0 a 0.72256922,0.72256922 0 0 1 0.72243,0.72295 0.72256922,0.72256922 0 0 1 -0.72243,0.72244 0.72256922,0.72256922 0 0 1 -0.72296,-0.72244 0.72256922,0.72256922 0 0 1 0.72296,-0.72295 z m 8.00002,0 a 0.72256922,0.72256922 0 0 1 0.72244,0.72295 0.72256922,0.72256922 0 0 1 -0.72244,0.72244 0.72256922,0.72256922 0 0 1 -0.72295,-0.72244 0.72256922,0.72256922 0 0 1 0.72295,-0.72295 z m -90.751039,11.65304 -0.0155,13.00127 99.498829,0.83302 0.016,-13.83429 z M 60.0581,124.4164 a 1.4451382,1.4451382 0 0 1 1.445389,1.44538 1.4451382,1.4451382 0 0 1 -1.445389,1.44488 1.4451382,1.4451382 0 0 1 -1.444871,-1.44488 1.4451382,1.4451382 0 0 1 1.444871,-1.44538 z m 43.99989,0 a 1.4451383,1.4451383 0 0 1 1.44539,1.44538 1.4451383,1.4451383 0 0 1 -1.44539,1.44488 1.4451383,1.4451383 0 0 1 -1.44487,-1.44488 1.4451383,1.4451383 0 0 1 1.44487,-1.44538 z m -62.999762,0.72295 a 0.72256922,0.72256922 0 0 1 0.722437,0.72243 0.72256922,0.72256922 0 0 1 -0.722437,0.72244 0.72256922,0.72256922 0 0 1 -0.722437,-0.72244 0.72256922,0.72256922 0 0 1 0.722437,-0.72243 z m 8.000029,0 a 0.72256922,0.72256922 0 0 1 0.722434,0.72243 0.72256922,0.72256922 0 0 1 -0.722434,0.72244 0.72256922,0.72256922 0 0 1 -0.722437,-0.72244 0.72256922,0.72256922 0 0 1 0.722437,-0.72243 z m 66.000103,0 a 0.72256922,0.72256922 0 0 1 0.72243,0.72243 0.72256922,0.72256922 0 0 1 -0.72243,0.72244 0.72256922,0.72256922 0 0 1 -0.72296,-0.72244 0.72256922,0.72256922 0 0 1 0.72296,-0.72243 z m 8.00002,0 a 0.72256922,0.72256922 0 0 1 0.72244,0.72243 0.72256922,0.72256922 0 0 1 -0.72244,0.72244 0.72256922,0.72256922 0 0 1 -0.72295,-0.72244 0.72256922,0.72256922 0 0 1 0.72295,-0.72243 z"
       id="rect575-6"
       inkscape:connector-curvature="0" />
  </g>
</svg>
