<?xml version="1.0" encoding="UTF-8" standalone="no"?>
<svg
   xmlns:dc="http://purl.org/dc/elements/1.1/"
   xmlns:cc="http://creativecommons.org/ns#"
   xmlns:rdf="http://www.w3.org/1999/02/22-rdf-syntax-ns#"
   xmlns:svg="http://www.w3.org/2000/svg"
   xmlns="http://www.w3.org/2000/svg"
   xmlns:sodipodi="http://sodipodi.sourceforge.net/DTD/sodipodi-0.dtd"
   xmlns:inkscape="http://www.inkscape.org/namespaces/inkscape"
   width="210mm"
   height="297mm"
   viewBox="0 0 210 297"
   version="1.1"
   id="svg8"
   inkscape:version="1.0.1 (3bc2e813f5, 2020-09-07)"
   sodipodi:docname="CarcasaFinal.svg"
   inkscape:export-filename="C:\Users\juanv\Downloads\Tesis\Calibracion\AMG88xxUFluidico\Carcasa.pdf.png"
   inkscape:export-xdpi="96"
   inkscape:export-ydpi="96">
  <defs
     id="defs2" />
  <sodipodi:namedview
     id="base"
     pagecolor="#ffffff"
     bordercolor="#666666"
     borderopacity="1.0"
     inkscape:pageopacity="0.0"
     inkscape:pageshadow="2"
     inkscape:zoom="0.75"
     inkscape:cx="517.5351"
     inkscape:cy="477.61726"
     inkscape:document-units="mm"
     inkscape:current-layer="layer1"
     inkscape:document-rotation="0"
     showgrid="false"
     inkscape:snap-intersection-paths="true"
     inkscape:window-width="1920"
     inkscape:window-height="1001"
     inkscape:window-x="1911"
     inkscape:window-y="-9"
     inkscape:window-maximized="1"
     showguides="false"
     inkscape:guide-bbox="true"
     inkscape:object-paths="true" />
  <metadata
     id="metadata5">
    <rdf:RDF>
      <cc:Work
         rdf:about="">
        <dc:format>image/svg+xml</dc:format>
        <dc:type
           rdf:resource="http://purl.org/dc/dcmitype/StillImage" />
        <dc:title />
      </cc:Work>
    </rdf:RDF>
  </metadata>
  <g
     inkscape:label="Capa 1"
     inkscape:groupmode="layer"
     id="layer1">
    <path
       id="rect34-6"
       style="fill:#ffffff;stroke:#280b0b;stroke-width:0.266946"
       d="m 199.90749,189.61649 -14.03222,0.0119 -3.40186,0.003 -4.89376,0.004 -59.13541,0.0522 -9.06094,0.008 -9.24078,0.008 0.0816,92.87547 18.30172,-0.016 59.13541,-0.0517 4.89376,-0.004 3.40186,-0.003 14.03222,-0.0124 z m -3.5047,12.75116 0.009,10.00662 -4.94182,0.004 -0.009,-10.00663 z m -86.32083,0.0786 0.009,10.00713 -4.94182,0.004 -5.2e-4,-0.20567 -0.009,-9.80147 2.00143,-0.002 z m 6.40478,16.30287 a 1.4324584,1.4324581 0 0 1 0.0243,0 1.4324584,1.4324581 0 0 1 1.43247,1.43248 1.4324584,1.4324581 0 0 1 -1.43247,1.43247 1.4324584,1.4324581 0 0 1 -1.43247,-1.43247 1.4324584,1.4324581 0 0 1 1.40818,-1.43248 z m 80.02819,3.32642 0.009,10.00662 -4.94182,0.004 -0.009,-10.00663 z m -86.32083,0.0791 0.009,10.00714 -4.94233,0.004 v -0.20567 l -0.009,-9.80147 2.00143,-0.002 z m 50.7907,7.25434 0.001,1.24695 -5.9247,0.005 -0.84129,0.56276 -0.40463,0.84232 0.003,3.58583 0.56224,0.65423 1.24747,0.46664 4.11551,-0.0346 1.37253,0.55966 0.84335,1.65209 0.0662,3.95997 -0.65319,1.30999 -1.37149,0.84336 -8.41912,0.0388 0.03,-1.15393 6.86004,0.0253 0.99736,-0.7183 0.37362,-0.84181 0.0594,-3.24322 -0.53072,-0.84129 -0.96687,-0.40462 -3.67936,-0.0904 -1.4981,-0.84077 -0.65577,-1.18391 0.0899,-4.24109 0.6537,-1.24746 1.55856,-0.87489 z m 23.17274,0.0413 3.20136,2.53576 -0.0419,4.08348 -3.22667,2.50372 -2.34508,0.002 5.49372,5.4131 0.001,1.08418 -1.07022,0.001 -5.60482,-5.52266 0.005,5.5392 -1.52342,0.001 v -0.001 l -0.006,-6.51278 -0.001,-1.23094 -0.007,-7.89151 1.52342,-5.1e-4 0.47749,-5.2e-4 0.001,1.23042 -0.47749,5.1e-4 0.006,6.6611 3.20652,-0.003 2.38384,-1.84949 0.0305,-2.94659 -2.35542,-1.86501 -0.65319,5.2e-4 -5.1e-4,-1.23042 z m -7.32306,0.007 5.1e-4,1.27744 -2.5032,0.002 0.0119,13.07982 2.50321,-0.002 0.001,1.27796 -2.5032,0.002 -1.59061,10e-4 -2.64583,0.002 -0.001,-1.27796 2.64583,-0.002 -0.0119,-13.07982 -2.64584,0.002 -5.1e-4,-1.27744 2.64583,-0.002 1.5906,-0.001 z m -37.48919,0.0646 4.1553,9.38186 4.04523,-9.26455 1.21595,-0.0946 0.0382,7.48378 0.59221,-0.094 0.37414,0.71675 0.007,7.5768 -2.24483,0.002 0.0512,-13.03383 -4.01474,8.89041 -4.12378,-8.9457 0.0739,13.09584 -2.36988,0.002 0.0243,-7.63932 0.62322,-0.71779 0.37414,0.0625 -0.0692,-7.39025 z m -14.64613,0.15452 1.08055,0.0145 0.001,1.28519 0.001,1.05833 0.004,4.85139 5.44567,0.0393 0.59479,-0.46354 0.0186,-4.21111 -1.21388,-1.23352 -2.27272,-0.0186 -0.001,-1.27072 2.25103,0.0315 1.78645,0.77049 0.64079,1.54255 -0.10594,4.98315 0.8816,-0.0222 1.05989,1.43247 0.005,5.40174 -1.85106,1.43506 -3.18068,0.0284 -10e-4,-1.17202 1.74769,-0.002 1.23352,-1.08159 0.0191,-3.48351 -1.12551,-1.3441 -4.85087,0.004 -0.0165,5.90971 0.001,1.19528 -2.20503,0.0191 z m -11.08925,6.874 a 1.4324585,1.4324582 0 0 1 0.0243,0 1.4324585,1.4324582 0 0 1 1.43247,1.43247 1.4324585,1.4324582 0 0 1 -1.43247,1.43247 1.4324585,1.4324582 0 0 1 -1.43247,-1.43247 1.4324585,1.4324582 0 0 1 1.40818,-1.43247 z m 82.94171,5.6782 0.009,10.00663 -4.94182,0.004 -0.009,-10.00663 z m -86.32083,0.0791 0.009,10.00714 -4.94181,0.004 -5.2e-4,-0.20567 -0.009,-9.80147 2.00143,-0.002 z m 86.30016,19.72799 0.009,10.00663 -4.94181,0.004 -0.009,-10.00663 z m -86.32031,0.0791 0.009,10.00714 -4.94181,0.004 v -0.20567 l -0.009,-9.80147 2.00143,-0.002 z" />
    <path
       id="rect34-3-7-8-5"
       style="fill:#ffffff;stroke:#280b0b;stroke-width:0.231416"
       d="m 87.812209,86.134798 v 19.675312 h 4.840015 v 9.96478 h -4.804875 v 16.76022 h 4.804875 v 9.92962 h -4.804875 v 19.67529 h -3.021002 v -3.22254 -16.45275 H 79.53468 v -36.65462 h 5.291667 V 86.169938 H 37.281445 v 45.110462 1.37563 3.41116 h -8.951391 v -3.41323 -1.37356 -45.110462 h -3.498495 v 9.476425 h -2.52336 v 9.776697 h 2.52336 v 0.076 1.25471 8.87387 h -2.52336 v 9.79579 h 2.52336 v 0.0568 1.43247 8.69663 h -2.52336 v 1.20303 7.42848 1.18236 h 2.52336 v 0.0388 0.5457 9.93066 23.14329 h 70.819448 v -13.58212 h 2.535764 v -9.85727 h -2.535764 v -10.14254 h 2.533697 v -9.85728 h -2.533697 v -10.14252 h 2.533697 v -9.85728 h -2.533697 v -10.14358 h 2.533697 v -9.857309 h -2.533697 v -9.471773 h -2.963643 v -0.03514 z m -32.945275,10.082072 4.083473,0.04547 2.500622,3.228745 v 2.345605 l 5.417756,-5.489601 h 1.084173 v 1.070221 l -5.527313,5.60019 h 5.539714 v 1.52343 h -0.0016 -6.512779 -1.230416 -7.892026 v -1.52343 -0.53744 h 1.230934 v 0.53744 h 6.661092 v -3.204988 l -1.848466,-2.386934 -2.94504,-0.03307 -1.867586,2.353861 v 0.675411 h -1.230934 v -1.005625 z m -2.538347,10.52239 h 1.277443 v 2.50321 h 13.080338 v -2.50321 h 1.27744 v 2.50321 1.59112 2.64532 h -1.27744 v -2.64532 H 53.60603 v 2.64532 h -1.277443 v -2.64532 -1.59112 z m 13.470496,17.0615 1.309481,0.65526 0.842327,1.372 0.031,8.41861 -1.153935,-0.031 0.03153,-6.86004 -0.717269,-0.99787 -0.841809,-0.37414 -3.243212,-0.0625 -0.841812,0.5302 -0.405143,0.96687 -0.09353,3.67936 -0.841809,1.49655 -1.184942,0.65474 -4.240567,-0.0935 -1.24747,-0.65474 -0.873332,-1.55907 -0.031,-6.11126 h 1.247468 v 5.92419 l 0.561205,0.84181 0.841809,0.40566 h 3.585829 l 0.654741,-0.56121 0.467672,-1.24747 -0.03101,-4.11603 0.561205,-1.37201 1.652614,-0.8418 z m -5.269444,12.25455 h 7.576798 v 2.24534 l -13.03383,-0.0625 8.886796,4.02249 -8.948809,4.11551 13.095843,-0.062 v 2.36988 l -7.639327,-0.0315 -0.71727,-0.62373 0.06253,-0.37414 -7.390246,0.0625 -0.03101,-1.24696 9.385475,-4.14755 -9.260933,-4.05349 -0.09354,-1.21595 7.483782,-0.031 -0.09354,-0.59273 z m -30.645674,2.04121 h 9.981303 v 4.99557 h -9.981303 z m 31.447173,12.85503 h 5.401739 l 1.433504,1.85209 0.02791,3.48092 h -1.174089 v -2.04742 l -1.080555,-1.23455 -3.483507,-0.0222 -1.345139,1.12448 v 4.85087 l 2.672188,0.0103 v 0.004 h 1.076421 0.05012 l 0.125058,5.1e-4 h 0.0067 l 1.978691,0.008 v -0.008 h 1.195277 l 0.01757,2.21227 -15.698782,-0.0661 0.0155,-1.08055 h 1.285192 1.544093 4.365109 l 0.04392,-5.44566 -0.463021,-0.59531 -4.21111,-0.0222 -1.234552,1.21388 -0.01757,1.92392 h -1.26814 l 0.02791,-1.90324 0.772043,-1.78594 1.543061,-0.63872 4.983157,0.11007 -0.0217,-0.8816 z" />
    <path
       id="rect29"
       style="fill:#ffffff;stroke:#280b0b;stroke-width:0.235336"
       d="m 187.93327,80.136714 -64.76453,0.10077 0.0155,9.730155 0.016,10.476881 0.0186,11.97346 0.006,4.13153 v 0.0946 8.43307 h 0.003 v 0.44442 h 0.0114 l 0.002,1.43712 0.0227,14.91899 0.009,5.90041 0.0202,13.09585 5.2e-4,0.34519 v 0.11111 l 0.0129,8.52506 10e-4,0.3731 0.0155,9.77408 h 64.74436 v -0.10128 h 0.0207 l -0.015,-9.77408 -0.006,-3.35949 v -0.0935 l -0.005,-2.65514 -5.2e-4,-0.32763 v -0.0253 -2.46961 l 2.34508,-0.004 h 0.0258 l 7.35666,-0.0114 -0.0217,-13.95367 -0.002,-0.85834 -0.0227,-14.56139 -0.008,-5.10046 -5.1e-4,-0.0693 -0.0124,-8.16229 -0.004,-2.45515 -0.0341,5.2e-4 -0.006,-3.90622 -0.016,-10.10277 -0.0191,-12.459712 -9.69708,0.01499 z m -55.82605,3.47989 h 10.00714 v 4.941816 h -10.00714 v -3.883482 z m 20.34397,5.16e-4 h 10.00714 v 4.941819 h -10.00714 v -3.790985 z m 19.61793,0 h 10.00714 v 4.941819 h -10.00714 v -4.066937 z m 5.56813,8.911085 a 1.3879312,1.3879313 0 0 1 1.38752,1.387512 1.3879312,1.3879313 0 0 1 -1.38752,1.388028 1.3879312,1.3879313 0 0 1 -1.38803,-1.388028 1.3879312,1.3879313 0 0 1 1.38803,-1.387512 z m -44.00403,0.01654 a 1.3879312,1.3879313 0 0 1 1.38803,1.388028 1.3879312,1.3879313 0 0 1 -1.38803,1.387512 1.3879312,1.3879313 0 0 1 -1.38751,-1.387512 1.3879312,1.3879313 0 0 1 1.38751,-1.388028 z m 11.09803,0.640789 h 22.17022 l 0.0481,30.781616 h 18.01647 3.33934 v 27.37972 h -0.2434 -24.02592 v 9.84591 2.49855 h 0.0212 l 0.005,2.8882 h -19.40294 l -0.009,-5.73918 -0.0155,-9.49348 h -12.19616 v -1.05782 -21.84156 -3.08973 -0.28061 -1.11 h 12.34292 v -5.43533 -1.98231 -5.2e-4 h -0.0145 z m -13.41313,11.840646 h 10.00714 v 4.94182 h -10.00714 v -1.18391 h -0.0202 l -0.003,-2.00143 h 0.0233 z m 40.00066,0 h 10.00714 v 4.94182 h -10.00714 v -1.35289 h -0.0207 l -0.003,-2.00143 h 0.0238 z m 6.33708,7.51221 a 1.3879313,1.3879313 0 0 1 1.38803,1.38751 1.3879313,1.3879313 0 0 1 -1.38803,1.38803 1.3879313,1.3879313 0 0 1 -1.38803,-1.38803 1.3879313,1.3879313 0 0 1 1.38803,-1.38751 z m -44.00352,0.0165 a 1.3879313,1.3879313 0 0 1 1.38803,1.38803 1.3879313,1.3879313 0 0 1 -1.38803,1.38751 1.3879313,1.3879313 0 0 1 -1.38803,-1.38751 1.3879313,1.3879313 0 0 1 1.38803,-1.38803 z m 56.97999,23.69365 a 1.3208405,1.3208405 0 0 1 1.32085,1.32085 1.3208405,1.3208405 0 0 1 -1.32085,1.32084 1.3208405,1.3208405 0 0 1 -1.32085,-1.32084 1.3208405,1.3208405 0 0 1 1.32085,-1.32085 z m -61.02315,0.12815 a 1.3208403,1.3208403 0 0 1 1.32085,1.32085 1.3208403,1.3208403 0 0 1 -1.32085,1.32085 1.3208403,1.3208403 0 0 1 -1.32085,-1.32085 1.3208403,1.3208403 0 0 1 1.32085,-1.32085 z m 1.70894,19.07946 h 10.00714 v 4.94233 h -10.00714 z m 40.00066,0 h 10.00714 v 4.94233 h -10.00714 z m 0.90123,14.80013 h 10.00714 v 4.94233 h -10.00714 z m -39.96138,5.1e-4 h 10.00714 v 4.94234 h -10.00714 z m 20.34449,0 h 10.00714 v 4.94234 h -10.00714 z" />
    <rect
       style="fill:#ffffff;stroke:#000000;stroke-width:0.258053"
       id="rect575"
       width="9.4664135"
       height="92.102722"
       x="68.861549"
       y="-108.08167"
       transform="matrix(-0.00329794,0.99999456,-0.99999555,-0.00298338,0,0)" />
    <path
       id="rect381"
       style="fill:#ffffff;stroke:#280b0b;stroke-width:0.283091"
       d="m 114.63383,18.814566 -99.717497,0.0884 0.03204,36.216913 99.716987,-0.0884 z m -83.618705,5.803263 a 1.4399108,1.4399111 0 0 1 1.43971,1.44022 1.4399108,1.4399111 0 0 1 -1.43971,1.43971 1.4399108,1.4399111 0 0 1 -1.44024,-1.43971 1.4399108,1.4399111 0 0 1 1.44024,-1.44022 z m 79.856665,3.72329 0.015,16.76073 -4.80488,0.004 -0.0155,-16.76073 z m -85.725072,0.0367 0.0155,16.76073 -4.804877,0.005 -0.0155,-16.76073 z m 2.968307,14.03997 a 1.4399109,1.4399111 0 0 1 1.43971,1.44022 1.4399109,1.4399111 0 0 1 -1.43971,1.4397 1.4399109,1.4399111 0 0 1 -1.43971,-1.4397 1.4399109,1.4399111 0 0 1 1.43971,-1.44022 z" />
    <path
       id="rect324-2-28-43-0-8-01"
       style="fill:#ffffff;stroke:#280b0b;stroke-width:0.283493"
       d="m 138.836,17.626834 v 0.0031 h -4.16409 v 9.550839 h 4.13257 l -5.2e-4,0.110587 14.74846,0.04909 -0.0997,30.471008 -10.943,-0.03669 -3.30781,-0.01499 v -0.02429 h -4.48655 v 9.556522 h 3.95738 l 14.74846,0.04857 2.89078,0.0088 v 0.0217 l 1.82366,0.0083 V 17.671275 l -1.60455,-0.0072 -5.2e-4,0.0217 -16.71474,-0.05529 h -0.0403 z m 7.44451,42.381391 10.003,0.04341 -0.0227,5.192964 -10.00301,-0.04341 z" />
    <path
       id="rect324-2-28-43-0-8-01-4"
       style="fill:#ffffff;stroke:#280b0b;stroke-width:0.283493"
       d="m 174.81835,17.721588 v 0.0031 h -4.16409 v 9.550839 h 4.13257 l -5.3e-4,0.110588 14.74845,0.04909 -0.0997,30.471008 -10.943,-0.03669 -3.30781,-0.01497 v -0.02429 h -4.48655 v 9.556524 h 3.95738 l 14.74846,0.04857 2.89078,0.0088 v 0.0217 l 1.82365,0.0083 V 17.76603 l -1.60455,-0.0072 -5.3e-4,0.0217 -16.71474,-0.05529 h -0.0403 z m 7.44451,42.381392 10.003,0.04341 -0.0227,5.192964 -10.003,-0.04341 z" />
    <path
       id="rect34-3-7-8-5-47"
       style="fill:#ffffff;stroke:#280b0b;stroke-width:0.231416"
       d="m 78.240831,190.36991 v 19.67528 h 4.840015 v 9.96477 H 78.27597 v 16.76022 h 4.804876 v 9.92962 H 78.27597 v 19.67529 h -3.021005 v -3.22255 -16.45274 h -5.291666 v -36.65461 h 5.291666 v -19.64014 h -9.11262 -29.185817 -9.246462 v 45.11042 1.37563 3.41116 h -8.951392 v -3.41323 -1.37356 -45.11042 h -3.498495 v 9.47642 h -2.52336 v 9.77667 h 2.52336 v 0.076 1.25471 8.87387 h -2.52336 v 9.79579 h 2.52336 v 0.0568 1.43247 8.69663 h -2.52336 v 1.20302 7.42849 1.18236 h 2.52336 v 0.0387 0.54571 9.93066 23.14329 h 70.819449 v -13.58212 h 2.535764 v -9.85728 h -2.535764 v -10.14253 h 2.533695 v -9.85728 H 86.079628 V 229.7349 h 2.533695 v -9.85728 h -2.533695 v -10.14357 h 2.533695 v -9.85728 H 86.079628 V 190.405 h -2.963643 v -0.0351 z m -57.928247,51.96168 h 9.981302 v 4.99556 h -9.981302 z" />
  </g>
</svg>
