<?xml version="1.0" encoding="UTF-8" standalone="no"?>
<svg
   xmlns:dc="http://purl.org/dc/elements/1.1/"
   xmlns:cc="http://creativecommons.org/ns#"
   xmlns:rdf="http://www.w3.org/1999/02/22-rdf-syntax-ns#"
   xmlns:svg="http://www.w3.org/2000/svg"
   xmlns="http://www.w3.org/2000/svg"
   xmlns:sodipodi="http://sodipodi.sourceforge.net/DTD/sodipodi-0.dtd"
   xmlns:inkscape="http://www.inkscape.org/namespaces/inkscape"
   width="210mm"
   height="297mm"
   viewBox="0 0 210 297"
   version="1.1"
   id="svg8"
   inkscape:version="1.0.1 (3bc2e813f5, 2020-09-07)"
   sodipodi:docname="CarcasaInicial.svg"
   inkscape:export-filename="C:\Users\juanv\Downloads\Tesis\Calibracion\AMG88xxUFluidico\Carcasa.pdf.png"
   inkscape:export-xdpi="96"
   inkscape:export-ydpi="96">
  <defs
     id="defs2" />
  <sodipodi:namedview
     id="base"
     pagecolor="#ffffff"
     bordercolor="#666666"
     borderopacity="1.0"
     inkscape:pageopacity="0.0"
     inkscape:pageshadow="2"
     inkscape:zoom="0.75"
     inkscape:cx="492.10254"
     inkscape:cy="433.21887"
     inkscape:document-units="mm"
     inkscape:current-layer="layer1"
     inkscape:document-rotation="0"
     showgrid="false"
     inkscape:snap-intersection-paths="true"
     inkscape:window-width="1920"
     inkscape:window-height="1001"
     inkscape:window-x="1911"
     inkscape:window-y="-9"
     inkscape:window-maximized="1"
     showguides="true"
     inkscape:guide-bbox="true"
     inkscape:object-paths="true"
     inkscape:snap-global="true" />
  <metadata
     id="metadata5">
    <rdf:RDF>
      <cc:Work
         rdf:about="">
        <dc:format>image/svg+xml</dc:format>
        <dc:type
           rdf:resource="http://purl.org/dc/dcmitype/StillImage" />
        <dc:title />
      </cc:Work>
    </rdf:RDF>
  </metadata>
  <g
     inkscape:label="Capa 1"
     inkscape:groupmode="layer"
     id="layer1">
    <path
       id="rect34"
       style="fill:#ffffff;stroke:#280b0b;stroke-width:0.231416"
       d="m 127.47053,93.11784 69.76876,0.208144 0.2561,-85.7677708 -22.30971,-0.066602 -13.86786,-0.041538 -3.80127,-0.020648 -5e-5,0.009 -6.43991,-0.019788 -2.55588,-0.014075 9e-5,-0.0155 -10.91338,-0.059171 -9e-5,0.0155 -5.30089,-0.028726 -2.5e-4,0.0455 -4.57904,-0.013093 z m 60.31982,-4.600989 -9.853,-0.05336 0.0106,-1.954893 9.853,0.05336 -0.008,1.429348 -2.1e-4,0.0377 z m -19.98712,-0.108389 -9.853,-0.05337 0.0104,-1.930083 9.85299,0.05337 z m -19.99849,-0.108412 -9.85299,-0.05337 0.0101,-1.857224 9.85299,0.05337 z m 5.69059,-5.605071 -0.0951,-5.19e-4 -17.39714,-0.09425 0.19321,-64.724634 51.7673,0.154997 -0.19343,64.766494 -16.05459,-0.08698 -2.2e-4,0.0393 -0.0248,-1.39e-4 -17.6922,-0.09593 -2.3e-4,0.0434 z M 131.97946,51.625792 a 1.3784296,1.3784299 0.17112253 0 1 -1.37453,-1.349512 1.3784296,1.3784299 0.17112253 0 1 1e-5,-5.2e-4 1.3784296,1.3784299 0.17112253 0 1 1.7e-4,-0.0331 1.3784296,1.3784299 0.17112253 0 1 1.38257,-1.373827 1.3784296,1.3784299 0.17112253 0 1 1.37436,1.382052 1.3784296,1.3784299 0.17112253 0 1 -1.38258,1.374877 z m 60.99981,0.181831 a 1.3784296,1.3784299 0.17112253 0 1 -1.37488,-1.382583 1.3784296,1.3784299 0.17112253 0 1 1.3831,-1.374356 1.3784296,1.3784299 0.17112253 0 1 1.37401,1.350021 1.3784296,1.3784299 0.17112253 0 1 -1.7e-4,0.0326 1.3784296,1.3784299 0.17112253 0 1 -1.38206,1.374359 z m -44.94769,-39.109002 -9.853,-0.05337 0.0106,-1.947143 9.85301,0.05337 z m 19.99836,0.03571 -9.853,-0.05337 0.0102,-1.883573 9.853,0.05337 z m 19.98776,0.08349 -9.85299,-0.05336 0.0103,-1.895464 9.853,0.05337 z" />
    <path
       id="rect34-6"
       style="fill:#ffffff;stroke:#280b0b;stroke-width:0.266946"
       d="m 118.20725,199.4034 v 4.92269 h -5.2e-4 v 78.99673 h 5.2e-4 v 4.23902 4.71754 h 8.29562 68.19635 9.24078 v -4.71754 -83.23575 -4.92269 h -9.24078 -68.19635 z m 4.74493,9.7348 h 1.86655 v 9.85315 h -1.86655 z m 74.49726,5.2e-4 h 1.86759 v 9.85263 h -1.86759 z m 0.0729,19.99775 h 1.79472 v 9.85314 h -1.79472 z m -74.57013,5.1e-4 h 1.9389 v 9.85315 h -1.9389 z m 0,19.98689 h 1.96371 v 9.85315 h -1.96371 z m 74.59493,5.2e-4 h 1.76992 v 9.85315 h -1.76992 z m -74.59496,20.01377 h 1.96371 v 9.85314 h -1.96371 z m 74.59493,5.1e-4 h 1.76992 v 9.85263 h -1.76992 z" />
    <path
       id="rect34-3-7-8"
       style="fill:#ffffff;stroke:#280b0b;stroke-width:0.874643"
       d="M 446.62695 376.48828 L 446.62695 412.30469 L 437.08984 412.30469 L 437.08984 449.54297 L 446.62695 449.54297 L 446.62695 487.82422 L 437.08984 487.82422 L 437.08984 525.0625 L 446.62695 525.0625 L 446.62695 563.3457 L 437.08984 563.3457 L 437.08984 600.58398 L 446.62695 600.58398 L 446.62695 640.17969 L 446.62695 727.65039 L 770.79688 727.65039 L 770.79688 676.31641 L 780.63086 676.31641 L 780.63086 639.06055 L 775.28516 639.06055 L 770.79688 639.06055 L 770.78906 639.06055 L 770.78906 600.72656 L 780.62305 600.72656 L 780.62305 563.4707 L 770.78906 563.4707 L 770.78906 525.13672 L 780.62305 525.13672 L 780.62305 487.88086 L 770.78906 487.88086 L 770.78906 449.54297 L 780.62305 449.54297 L 780.62305 412.28711 L 770.78906 412.28711 L 770.78906 376.48828 L 684.79688 376.48828 L 684.79688 475.64648 L 691.35156 475.64648 L 691.35156 523.22656 L 684.57227 523.22656 L 684.57227 616.93555 L 691.35156 616.93555 L 691.35156 663.61914 L 684.79688 663.61914 L 673.37891 663.61914 L 673.37891 651.43945 L 673.37891 376.48828 L 493.68164 376.48828 L 493.68164 546.98438 L 493.68164 552.18359 L 493.68164 578.67773 L 459.84961 578.67773 L 459.84961 552.17578 L 459.84961 546.98438 L 459.84961 376.48828 L 446.62695 376.48828 z "
       transform="scale(0.26458333)" />
    <path
       id="rect34-3-7-8-3"
       style="fill:#ffffff;stroke:#280b0b;stroke-width:0.231416"
       d="m 16.535425,189.85508 v 9.47642 h -2.523361 v 9.85263 h 2.523361 v 10.12858 h -2.523361 v 9.85263 h 2.523361 v 10.12909 h -2.523361 v 9.85263 h 2.523361 v 10.47636 23.14329 h 85.769955 v -13.58212 h 2.60191 v -9.85726 h -1.41438 -1.18753 -0.002 v -10.14254 h 2.60191 v -9.85728 h -2.60191 v -10.14254 h 2.60191 v -9.85727 h -2.60139 v -10.14357 h 2.60191 v -9.85728 h -2.60191 v -9.47177 H 79.551733 v 26.2356 h 1.734262 v 12.5889 h -1.79369 v 24.79384 h 1.79369 v 12.35171 h -1.734262 -3.021521 v -3.22255 -72.7475 H 28.985311 v 45.11042 1.37563 7.0099 h -8.951392 v -7.01197 -1.37356 -45.11042 z" />
    <path
       style="fill:#ffffff;stroke:#000000;stroke-width:0.466984"
       d="m 7.7857009,112.86045 0.203015,28.69522 99.5024341,0.0108 -0.20353,-28.69574 z m 27.7586371,3.08991 a 1.4451381,1.4451381 0 0 1 1.457289,1.4334 1.4451381,1.4451381 0 0 1 -1.433396,1.45676 1.4451381,1.4451381 0 0 1 -1.456758,-1.43288 1.4451381,1.4451381 0 0 1 1.432865,-1.45728 z m 43.998393,-0.36358 a 1.4451383,1.4451383 0 0 1 1.457285,1.4334 1.4451383,1.4451383 0 0 1 -1.433402,1.45676 1.4451383,1.4451383 0 0 1 -1.456757,-1.43288 1.4451383,1.4451383 0 0 1 1.432874,-1.45728 z m -62.991643,1.24299 a 0.72256923,0.72256923 0 0 1 0.728375,0.71696 0.72256923,0.72256923 0 0 1 -0.716428,0.72838 0.72256923,0.72256923 0 0 1 -0.728384,-0.71644 0.72256923,0.72256923 0 0 1 0.716437,-0.7289 z m 7.99976,-0.0661 a 0.72256923,0.72256923 0 0 1 0.728385,0.71696 0.72256923,0.72256923 0 0 1 -0.716438,0.72837 0.72256923,0.72256923 0 0 1 -0.728394,-0.71643 0.72256923,0.72256923 0 0 1 0.716447,-0.7289 z m 65.997869,-0.54538 a 0.72256923,0.72256923 0 0 1 0.728387,0.71697 0.72256923,0.72256923 0 0 1 -0.716443,0.72837 0.72256923,0.72256923 0 0 1 -0.728906,-0.71643 0.72256923,0.72256923 0 0 1 0.716962,-0.72891 z m 7.999795,-0.0661 a 0.72256923,0.72256923 0 0 1 0.72839,0.71697 0.72256923,0.72256923 0 0 1 -0.71644,0.72837 0.72256923,0.72256923 0 0 1 -0.72891,-0.71643 0.72256923,0.72256923 0 0 1 0.71696,-0.72891 z M 35.709604,135.9495 a 1.4451382,1.4451382 0 0 1 1.457288,1.43339 1.4451382,1.4451382 0 0 1 -1.433406,1.45677 1.4451382,1.4451382 0 0 1 -1.456758,-1.43288 1.4451382,1.4451382 0 0 1 1.432876,-1.45728 z m 43.998391,-0.36358 a 1.4451383,1.4451383 0 0 1 1.457283,1.4334 1.4451383,1.4451383 0 0 1 -1.433401,1.45676 1.4451383,1.4451383 0 0 1 -1.456758,-1.43288 1.4451383,1.4451383 0 0 1 1.432876,-1.45728 z m -62.991641,1.2435 a 0.72256923,0.72256923 0 0 1 0.728374,0.71645 0.72256923,0.72256923 0 0 1 -0.716438,0.72838 0.72256923,0.72256923 0 0 1 -0.728384,-0.71644 0.72256923,0.72256923 0 0 1 0.716448,-0.72839 z m 7.999761,-0.0661 a 0.72256923,0.72256923 0 0 1 0.728374,0.71645 0.72256923,0.72256923 0 0 1 -0.716429,0.72838 0.72256923,0.72256923 0 0 1 -0.728393,-0.71644 0.72256923,0.72256923 0 0 1 0.716448,-0.72839 z m 65.997868,-0.54538 a 0.72256923,0.72256923 0 0 1 0.728385,0.71645 0.72256923,0.72256923 0 0 1 -0.716445,0.72838 0.72256923,0.72256923 0 0 1 -0.728906,-0.71644 0.72256923,0.72256923 0 0 1 0.716966,-0.72839 z m 7.999799,-0.0661 a 0.72256923,0.72256923 0 0 1 0.728382,0.71645 0.72256923,0.72256923 0 0 1 -0.716442,0.72838 0.72256923,0.72256923 0 0 1 -0.72891,-0.71644 0.72256923,0.72256923 0 0 1 0.71697,-0.72839 z"
       id="rect575-36"
       inkscape:connector-curvature="0" />
    <path
       inkscape:connector-curvature="0"
       style="fill:#ffffff;stroke:#000000;stroke-width:0.466984"
       d="m 7.8228646,76.462617 -0.0341,28.695873 99.4988554,0.83303 0.0336,-28.696393 z m 27.7321644,3.31918 a 1.4451382,1.4451382 0 0 1 1.445379,1.44539 1.4451382,1.4451382 0 0 1 -1.445379,1.444869 1.4451382,1.4451382 0 0 1 -1.444882,-1.444869 1.4451382,1.4451382 0 0 1 1.444882,-1.44539 z m 43.99989,0 a 1.4451383,1.4451383 0 0 1 1.44539,1.44539 1.4451383,1.4451383 0 0 1 -1.44539,1.444869 1.4451383,1.4451383 0 0 1 -1.444871,-1.444869 1.4451383,1.4451383 0 0 1 1.444871,-1.44539 z m -62.999771,0.72244 a 0.72256923,0.72256923 0 0 1 0.72244,0.72295 0.72256923,0.72256923 0 0 1 -0.72244,0.722419 0.72256923,0.72256923 0 0 1 -0.72243,-0.722419 0.72256923,0.72256923 0 0 1 0.72243,-0.72295 z m 8.00003,0 a 0.72256923,0.72256923 0 0 1 0.72244,0.72295 0.72256923,0.72256923 0 0 1 -0.72244,0.722419 0.72256923,0.72256923 0 0 1 -0.72243,-0.722419 0.72256923,0.72256923 0 0 1 0.72243,-0.72295 z m 66.000111,0 a 0.72256923,0.72256923 0 0 1 0.722429,0.72295 0.72256923,0.72256923 0 0 1 -0.722429,0.722419 0.72256923,0.72256923 0 0 1 -0.722961,-0.722419 0.72256923,0.72256923 0 0 1 0.722961,-0.72295 z m 8.000017,0 a 0.72256923,0.72256923 0 0 1 0.72245,0.72295 0.72256923,0.72256923 0 0 1 -0.72245,0.722419 0.72256923,0.72256923 0 0 1 -0.72294,-0.722419 0.72256923,0.72256923 0 0 1 0.72294,-0.72295 z m -63.000277,19.27732 a 1.4451382,1.4451382 0 0 1 1.445379,1.445393 1.4451382,1.4451382 0 0 1 -1.445379,1.44487 1.4451382,1.4451382 0 0 1 -1.444882,-1.44487 1.4451382,1.4451382 0 0 1 1.444882,-1.445393 z m 43.99989,0 a 1.4451383,1.4451383 0 0 1 1.44539,1.445393 1.4451383,1.4451383 0 0 1 -1.44539,1.44487 1.4451383,1.4451383 0 0 1 -1.444871,-1.44487 1.4451383,1.4451383 0 0 1 1.444871,-1.445393 z m -62.999771,0.722963 a 0.72256923,0.72256923 0 0 1 0.72244,0.72243 0.72256923,0.72256923 0 0 1 -0.72244,0.72244 0.72256923,0.72256923 0 0 1 -0.72243,-0.72244 0.72256923,0.72256923 0 0 1 0.72243,-0.72243 z m 8.00003,0 a 0.72256923,0.72256923 0 0 1 0.72244,0.72243 0.72256923,0.72256923 0 0 1 -0.72244,0.72244 0.72256923,0.72256923 0 0 1 -0.72243,-0.72244 0.72256923,0.72256923 0 0 1 0.72243,-0.72243 z m 66.000111,0 a 0.72256923,0.72256923 0 0 1 0.722429,0.72243 0.72256923,0.72256923 0 0 1 -0.722429,0.72244 0.72256923,0.72256923 0 0 1 -0.722961,-0.72244 0.72256923,0.72256923 0 0 1 0.722961,-0.72243 z m 8.000017,0 a 0.72256923,0.72256923 0 0 1 0.72245,0.72243 0.72256923,0.72256923 0 0 1 -0.72245,0.72244 0.72256923,0.72256923 0 0 1 -0.72294,-0.72244 0.72256923,0.72256923 0 0 1 0.72294,-0.72243 z"
       id="rect575-3" />
    <path
       style="fill:#ffffff;stroke:#000000;stroke-width:0.466984"
       d="m 7.9887159,151.08073 0.07628,13.83409 99.4976941,-0.66701 -0.0724,-13.00159 z m 27.7538051,3.13321 a 1.4451382,1.4451382 0 0 1 1.455038,1.43566 1.4451382,1.4451382 0 0 1 -1.43568,1.45453 1.4451382,1.4451382 0 0 1 -1.454507,-1.43517 1.4451382,1.4451382 0 0 1 1.435149,-1.45502 z m 43.998893,-0.29501 a 1.4451383,1.4451383 0 0 1 1.45504,1.43565 1.4451383,1.4451383 0 0 1 -1.435659,1.45456 1.4451383,1.4451383 0 0 1 -1.454517,-1.43517 1.4451383,1.4451383 0 0 1 1.435136,-1.45504 z m -62.993511,1.14475 a 0.72256923,0.72256923 0 0 1 0.727269,0.71809 0.72256923,0.72256923 0 0 1 -0.71757,0.72728 0.72256923,0.72256923 0 0 1 -0.727288,-0.71758 0.72256923,0.72256923 0 0 1 0.717579,-0.72778 z m 7.99985,-0.0538 a 0.72256923,0.72256923 0 0 1 0.72727,0.71809 0.72256923,0.72256923 0 0 1 -0.71758,0.72727 0.72256923,0.72256923 0 0 1 -0.727279,-0.71758 0.72256923,0.72256923 0 0 1 0.717569,-0.72777 z m 65.998653,-0.44251 a 0.72256923,0.72256923 0 0 1 0.727271,0.71808 0.72256923,0.72256923 0 0 1 -0.717568,0.72728 0.72256923,0.72256923 0 0 1 -0.727781,-0.7176 0.72256923,0.72256923 0 0 1 0.718107,-0.72778 z m 7.99985,-0.0538 a 0.72256923,0.72256923 0 0 1 0.727268,0.71807 0.72256923,0.72256923 0 0 1 -0.717598,0.72727 0.72256923,0.72256923 0 0 1 -0.72776,-0.71757 0.72256923,0.72256923 0 0 1 0.7181,-0.72779 z m -90.6709151,12.26111 0.07173,13.00106 99.5022391,0.16604 -0.0772,-13.83408 z m 27.8012461,7.43815 a 1.4451382,1.4451382 0 0 1 1.455048,1.43566 1.4451382,1.4451382 0 0 1 -1.435679,1.45454 1.4451382,1.4451382 0 0 1 -1.454517,-1.43516 1.4451382,1.4451382 0 0 1 1.435148,-1.45504 z m 43.998899,-0.295 a 1.4451383,1.4451383 0 0 1 1.455049,1.43564 1.4451383,1.4451383 0 0 1 -1.43566,1.45455 1.4451383,1.4451383 0 0 1 -1.454545,-1.43517 1.4451383,1.4451383 0 0 1 1.435156,-1.45502 z m -62.993497,1.14526 a 0.72256923,0.72256923 0 0 1 0.727249,0.71756 0.72256923,0.72256923 0 0 1 -0.717559,0.72726 0.72256923,0.72256923 0 0 1 -0.727269,-0.71756 0.72256923,0.72256923 0 0 1 0.717569,-0.72725 z m 7.999841,-0.0538 a 0.72256923,0.72256923 0 0 1 0.727269,0.71756 0.72256923,0.72256923 0 0 1 -0.71755,0.72726 0.72256923,0.72256923 0 0 1 -0.727298,-0.71756 0.72256923,0.72256923 0 0 1 0.717589,-0.72727 z m 65.99865,-0.44249 a 0.72256923,0.72256923 0 0 1 0.72726,0.71754 0.72256923,0.72256923 0 0 1 -0.717571,0.72729 0.72256923,0.72256923 0 0 1 -0.727768,-0.7176 0.72256923,0.72256923 0 0 1 0.7181,-0.72727 z m 7.999826,-0.0538 a 0.72256923,0.72256923 0 0 1 0.727298,0.71756 0.72256923,0.72256923 0 0 1 -0.717598,0.72727 0.72256923,0.72256923 0 0 1 -0.72776,-0.71758 0.72256923,0.72256923 0 0 1 0.71807,-0.72726 z"
       id="rect575-6"
       inkscape:connector-curvature="0" />
    <text
       xml:space="preserve"
       style="font-style:normal;font-weight:normal;font-size:6.35px;line-height:1.25;font-family:sans-serif;fill:#000000;fill-opacity:1;stroke:none;stroke-width:0.255248"
       x="-140.70392"
       y="24.258392"
       id="text16"
       transform="scale(0.96471777,1.0365726)"><tspan
         sodipodi:role="line"
         x="-140.70392"
         y="24.258392"
         style="font-size:6.35px;stroke-width:0.255248"
         id="tspan22">2mm Acetate </tspan><tspan
         sodipodi:role="line"
         x="-140.70392"
         y="32.195892"
         style="font-size:6.35px;stroke-width:0.255248"
         id="tspan24">Initial Casing + MicroFluidic System</tspan></text>
    <path
       id="rect64"
       style="fill:#ffffff;stroke:#280b0b;stroke-width:0.278355"
       d="M 21.511865,9.5370585 V 59.258569 H 106.23331 V 9.5370585 Z M 33.086352,14.905721 H 95.748678 V 53.660462 H 33.086352 Z m -6.814571,6.978904 h 1.793689 v 24.793834 h -1.793689 z m 74.498289,0.0041 h 1.79369 v 24.793834 h -1.79369 z" />
  </g>
</svg>
