<?xml version="1.0" encoding="UTF-8" standalone="no"?>
<svg
   xmlns:dc="http://purl.org/dc/elements/1.1/"
   xmlns:cc="http://creativecommons.org/ns#"
   xmlns:rdf="http://www.w3.org/1999/02/22-rdf-syntax-ns#"
   xmlns:svg="http://www.w3.org/2000/svg"
   xmlns="http://www.w3.org/2000/svg"
   xmlns:sodipodi="http://sodipodi.sourceforge.net/DTD/sodipodi-0.dtd"
   xmlns:inkscape="http://www.inkscape.org/namespaces/inkscape"
   width="210mm"
   height="297mm"
   viewBox="0 0 210 297"
   version="1.1"
   id="svg8"
   inkscape:version="1.0.1 (3bc2e813f5, 2020-09-07)"
   sodipodi:docname="CalibradorDistancias2.svg"
   inkscape:export-filename="C:\Users\juanv\Downloads\Tesis\Calibracion\AMG88xxUFluidico\CalibradorDistancias.png"
   inkscape:export-xdpi="96"
   inkscape:export-ydpi="96">
  <defs
     id="defs2">
    <inkscape:perspective
       sodipodi:type="inkscape:persp3d"
       inkscape:vp_x="0 : 148.5 : 1"
       inkscape:vp_y="0 : 1000 : 0"
       inkscape:vp_z="210 : 148.5 : 1"
       inkscape:persp3d-origin="105 : 99 : 1"
       id="perspective303" />
  </defs>
  <sodipodi:namedview
     id="base"
     pagecolor="#ffffff"
     bordercolor="#666666"
     borderopacity="1.0"
     inkscape:pageopacity="0.0"
     inkscape:pageshadow="2"
     inkscape:zoom="0.70737046"
     inkscape:cx="481.86587"
     inkscape:cy="633.89132"
     inkscape:document-units="mm"
     inkscape:current-layer="layer1"
     inkscape:document-rotation="0"
     showgrid="false"
     inkscape:snap-intersection-paths="true"
     inkscape:window-width="1920"
     inkscape:window-height="1001"
     inkscape:window-x="1911"
     inkscape:window-y="-9"
     inkscape:window-maximized="1"
     showguides="false"
     inkscape:guide-bbox="true"
     inkscape:object-paths="true" />
  <metadata
     id="metadata5">
    <rdf:RDF>
      <cc:Work
         rdf:about="">
        <dc:format>image/svg+xml</dc:format>
        <dc:type
           rdf:resource="http://purl.org/dc/dcmitype/StillImage" />
        <dc:title />
      </cc:Work>
    </rdf:RDF>
  </metadata>
  <g
     inkscape:label="Capa 1"
     inkscape:groupmode="layer"
     id="layer1">
    <path
       id="rect11"
       style="fill:#ffffff;stroke:#280b0b;stroke-width:0.277365"
       d="m 109.62465,3.2851045 -0.0367,209.7226055 74.72257,0.0134 0.0372,-209.7226055 z m 13.90354,8.8950605 0.0176,9.72499 -4.7811,0.009 -0.0181,-9.72499 z m 52.09708,0.0181 0.0181,9.72499 -4.78162,0.009 -0.0176,-9.72499 z m -52.11568,36.98224 0.0181,9.72499 -4.78161,0.009 -0.0176,-9.72499 z m 52.10896,0.0181 0.0176,9.7255 -4.7811,0.009 -0.0181,-9.7255 z m -52.10896,36.98172 0.0181,9.72499 -4.78161,0.009 -0.0176,-9.72499 z m 52.10173,0.0186 0.0181,9.72499 -4.78162,0.009 -0.0176,-9.72499 z m -52.10328,36.980695 0.0181,9.7255 -4.78161,0.009 -0.0181,-9.72551 z m 52.11103,0.0191 0.0176,9.72499 -4.78162,0.009 -0.0176,-9.72499 z m -25.69456,17.31057 0.0176,9.72499 -4.7811,0.009 -0.0181,-9.72499 z m -26.42371,24.19232 0.0181,9.72551 -4.78162,0.009 -0.0176,-9.72551 z m 52.11827,0.0191 0.0176,9.7255 -4.78162,0.009 -0.0176,-9.7255 z m -25.67492,1.81746 0.0181,9.72499 -4.78162,0.009 -0.0176,-9.72498 z m -26.44593,14.16399 0.0176,9.72499 -4.78111,0.009 -0.0181,-9.72499 z m 52.12085,0.0186 0.0176,9.72551 -4.78162,0.009 -0.0176,-9.7255 z m -25.65528,11.84683 0.0176,9.72498 -4.78111,0.009 -0.0181,-9.72499 z m -26.46764,4.12119 0.0176,9.72499 -4.78111,0.009 -0.0181,-9.72499 z m 52.12292,0.0186 0.0176,9.72499 -4.78162,0.009 -0.0176,-9.72499 z" />
    <path
       id="rect13"
       style="fill:#ffffff;stroke:#280b0b;stroke-width:0.235778"
       d="m 131.13657,220.5243 -126.2883995,5.3e-4 -0.27751,74.81662 H 121.26534 v -0.006 h 9.448 7.46724 l 67.02124,0.38034 0.002,-0.38034 h 0.27595 v -74.3843 l -74.34316,-0.42064 z m 29.74237,8.91574 h 9.72499 v 4.7811 h -9.72499 z m 15.99954,0.0909 h 9.72499 v 4.7811 h -9.72499 z m 15.99954,0.0894 h 9.72499 v 4.78162 h -9.72499 z m -23.32829,17.98185 h 18.39216 v 5.2002 h -18.39216 z m 24.29361,8.44754 h 9.72498 v 4.78111 h -9.72498 z m -24.3179,8.49458 h 18.39216 v 5.19968 h -18.39216 z m -8.96948,16.99172 h 9.72499 v 4.78163 h -9.72499 z m 15.99954,0.0899 h 9.72499 v 4.7816 h -9.72499 z m 16.00006,0.0915 h 9.72499 v 4.7811 h -9.72499 z" />
    <path
       id="path15-8"
       style="fill:#ffffff;stroke:#280b0b;stroke-width:0.242621"
       inkscape:transform-center-x="-1.1262981"
       inkscape:transform-center-y="0.99598435"
       d="M 69.453122,160.24965 A 49.803377,52.124099 89.838031 0 0 19.83703,210.14221 l 3.440618,-0.009 0.0072,2.34715 v 0.0279 1.33739 h 9.874848 v -1.36529 l -0.0072,-2.37505 6.125207,-0.0176 0.0072,2.34714 v 0.0279 1.3379 h 9.874848 v -1.36581 l -0.0072,-2.37505 6.125208,-0.0176 0.0072,2.34663 v 0.0284 1.33739 h 9.874851 v -1.36581 l -0.0072,-2.37505 4.441074,-0.0124 -0.01137,-4.07934 2.344044,-0.007 h 0.031 l 1.334804,5.1e-4 0.0031,-9.87484 -1.365806,-5.2e-4 -2.375051,0.007 -0.01447,-5.05757 -0.0031,-1.06763 2.344042,-0.007 h 0.03101 l 1.334802,5.2e-4 0.0031,-9.87485 -1.365809,-5.2e-4 -2.375048,0.007 -0.01705,-6.12521 2.344045,-0.007 h 0.03101 l 1.334802,5.2e-4 0.0031,-9.87485 -1.365809,-5.2e-4 -2.375048,0.007 z" />
    <path
       id="rect353-3-1"
       style="fill:#ffffff;stroke:#280b0b;stroke-width:0.327073"
       d="m 79.827293,186.06355 0.0222,0.14728 h 7.06524 v 8.67802 h 9.91983 v -8.67802 h 6.370647 v -8.48785 h 2.37505 v -9.87485 h -2.37505 v -16.12512 h 2.37505 v -9.87484 h -2.37505 v -16.12515 h 2.37505 v -9.87545 h -2.37505 V 99.722775 h 2.37505 v -9.87544 h -2.37505 v -29.04071 z"
       inkscape:connector-curvature="0" />
    <path
       id="rect353-3-1-5"
       style="fill:#ffffff;stroke:#280b0b;stroke-width:0.327073"
       d="m 107.68344,15.483195 -0.0215,-0.14737 -7.06517,-0.0345 0.0423,-8.6779305 -9.919747,-0.0483 -0.0423,8.6779405 -6.37063,-0.031 -0.0414,8.48774 -2.37502,-0.0115 -0.0482,9.87473 2.37502,0.0116 -0.0786,16.12495 -2.37501,-0.0115 -0.0482,9.87475 2.37502,0.0115 -0.0787,16.12491 -2.37502,-0.0115 -0.0482,9.87526 2.37502,0.0115 -0.0785,16.124555 -2.37503,-0.0115 -0.0482,9.87535 2.37502,0.0115 -0.14157,29.04033 z"
       inkscape:connector-curvature="0" />
    <path
       style="fill:#ffffff;stroke:#280b0b;stroke-width:0.29941"
       d="m 11.142553,198.71634 47.51402,-74.82897 0.0415,-0.14253 -5.4204,-2.36525 0.82217,-1.88749 -7.61052,-3.32105 -0.82217,1.8875 -4.88738,-2.13268 -3.39417,7.7898 -1.82202,-0.7954 -3.94909,9.0632 1.82202,0.7954 -6.44839,14.79936 -1.82205,-0.79531 -3.94909,9.0632 1.82205,0.79531 -6.44838,14.79933 -1.822,-0.79539 -3.94911,9.06322 1.82201,0.7954 -2.9583097,6.78923 -3.4901796,8.01008 -0.45873,1.05319 z"
       id="rect353-3-1-3"
       inkscape:connector-curvature="0" />
    <rect
       style="fill:#ffffff;stroke:#000000;stroke-width:0.417873"
       id="rect122-9"
       width="17.988127"
       height="217.58212"
       x="187.49022"
       y="1.6050797" />
    <path
       id="rect11-3-5-9-3-3"
       style="fill:#ffffff;stroke:#280b0b;stroke-width:1.04831"
       d="M 15.890625 24.988281 L 15.890625 25.361328 L 15.621094 125.80469 L 14.507812 542.95898 L 14.400391 583.24414 L 53.585938 583.34766 L 53.386719 407.40625 L 259.23633 407.17383 L 259.43555 583.89648 L 296.81641 583.99414 L 296.92383 543.71289 L 297.26953 414.36914 L 298.06836 414.36914 L 298.30469 25.533203 L 15.890625 24.988281 z M 49.894531 50.695312 L 67.964844 50.705078 L 67.941406 87.462891 L 49.871094 87.453125 L 49.894531 50.695312 z M 246.42969 51.257812 L 264.5 51.267578 L 264.47656 88.023438 L 246.40625 88.013672 L 246.42969 51.257812 z M 115.85352 92.482422 L 135.50781 92.494141 L 135.46484 162.00781 L 115.81055 161.99609 L 115.85352 92.482422 z M 179.88477 92.523438 L 199.53711 92.535156 L 199.49414 162.04883 L 179.8418 162.03711 L 179.88477 92.523438 z M 49.833984 148.96289 L 67.904297 148.97266 L 67.882812 185.72852 L 49.8125 185.71875 L 49.833984 148.96289 z M 246.36914 149.52344 L 264.43945 149.5332 L 264.41602 186.29102 L 246.3457 186.28125 L 246.36914 149.52344 z M 49.775391 247.23047 L 67.845703 247.24023 L 67.822266 283.99805 L 49.751953 283.98828 L 49.775391 247.23047 z M 246.30859 247.79102 L 264.37891 247.80078 L 264.35742 284.55859 L 246.28711 284.54883 L 246.30859 247.79102 z M 49.712891 345.21875 L 67.785156 345.22852 L 67.761719 381.98633 L 49.689453 381.97656 L 49.712891 345.21875 z M 246.25 346.05664 L 264.32031 346.06641 L 264.29688 382.82422 L 246.22656 382.81445 L 246.25 346.05664 z M 39.380859 548.64062 A 5.4683308 5.4683312 0.15280939 0 1 44.835938 554.125 A 5.4683308 5.4683312 0.15280939 0 1 39.484375 559.57812 A 5.4683308 5.4683312 0.15280939 0 1 39.349609 559.57617 A 5.4683308 5.4683312 0.15280939 0 1 33.898438 554.09766 A 5.4683308 5.4683312 0.15280939 0 1 39.380859 548.64062 z M 269.83008 549.03711 A 5.4683308 5.4683312 0.15280939 0 1 275.28516 554.51758 A 5.4683308 5.4683312 0.15280939 0 1 269.80078 559.97266 A 5.4683308 5.4683312 0.15280939 0 1 264.34961 554.62305 A 5.4683308 5.4683312 0.15280939 0 1 264.34961 554.62109 A 5.4683308 5.4683312 0.15280939 0 1 264.34961 554.48633 A 5.4683308 5.4683312 0.15280939 0 1 269.83008 549.03711 z "
       transform="scale(0.26458333)" />
  </g>
</svg>
