<?xml version="1.0" encoding="UTF-8" standalone="no"?>
<svg
   xmlns:dc="http://purl.org/dc/elements/1.1/"
   xmlns:cc="http://creativecommons.org/ns#"
   xmlns:rdf="http://www.w3.org/1999/02/22-rdf-syntax-ns#"
   xmlns:svg="http://www.w3.org/2000/svg"
   xmlns="http://www.w3.org/2000/svg"
   xmlns:sodipodi="http://sodipodi.sourceforge.net/DTD/sodipodi-0.dtd"
   xmlns:inkscape="http://www.inkscape.org/namespaces/inkscape"
   width="210mm"
   height="297mm"
   viewBox="0 0 210 297"
   version="1.1"
   id="svg149"
   inkscape:version="1.0.1 (3bc2e813f5, 2020-09-07)"
   sodipodi:docname="CalibradorDistancias1.svg">
  <defs
     id="defs143" />
  <sodipodi:namedview
     id="base"
     pagecolor="#ffffff"
     bordercolor="#666666"
     borderopacity="1.0"
     inkscape:pageopacity="0.0"
     inkscape:pageshadow="2"
     inkscape:zoom="0.7"
     inkscape:cx="304.93111"
     inkscape:cy="576.05335"
     inkscape:document-units="mm"
     inkscape:current-layer="layer1"
     showgrid="false"
     inkscape:window-width="1920"
     inkscape:window-height="1001"
     inkscape:window-x="1911"
     inkscape:window-y="-9"
     inkscape:window-maximized="1"
     inkscape:document-rotation="0" />
  <metadata
     id="metadata146">
    <rdf:RDF>
      <cc:Work
         rdf:about="">
        <dc:format>image/svg+xml</dc:format>
        <dc:type
           rdf:resource="http://purl.org/dc/dcmitype/StillImage" />
        <dc:title />
      </cc:Work>
    </rdf:RDF>
  </metadata>
  <g
     inkscape:label="Layer 1"
     inkscape:groupmode="layer"
     id="layer1">
    <path
       id="rect11-3-5-9-3"
       style="fill:#ffffff;stroke:#280b0b;stroke-width:1.04831"
       d="M 19.919922 256.67188 L 19.841797 295.17773 L 195.86328 295.17773 L 195.86328 501.0293 L 19.417969 501.0293 L 19.339844 539.08789 L 59.623047 539.17188 L 188.9668 539.4375 L 188.9668 540.23633 L 577.80273 540.23633 L 578.17578 257.82227 L 577.80273 257.82227 L 477.35938 257.61523 L 60.205078 256.75586 L 19.919922 256.67188 z M 49.078125 276.15234 A 5.4683312 5.4683309 0.11797341 0 1 54.537109 281.63086 A 5.4683312 5.4683309 0.11797341 0 1 49.056641 287.08984 A 5.4683312 5.4683309 0.11797341 0 1 43.599609 281.74219 A 5.4683312 5.4683309 0.11797341 0 1 43.601562 281.60742 A 5.4683312 5.4683309 0.11797341 0 1 49.078125 276.15234 z M 221.20898 291.83984 L 257.9668 291.83984 L 257.9668 309.91211 L 221.20898 309.91211 L 221.20898 291.83984 z M 319.19727 291.8418 L 355.95508 291.8418 L 355.95508 309.91211 L 319.19727 309.91211 L 319.19727 291.8418 z M 417.4668 291.8418 L 454.22266 291.8418 L 454.22266 309.91211 L 417.4668 309.91211 L 417.4668 291.8418 z M 515.73242 291.8418 L 552.49023 291.8418 L 552.49023 309.91211 L 515.73242 309.91211 L 515.73242 291.8418 z M 441.22852 357.82617 L 510.74219 357.82617 L 510.74219 377.48047 L 441.22852 377.48047 L 441.22852 357.82617 z M 441.22656 421.85742 L 510.74023 421.85742 L 510.74023 441.50977 L 441.22656 441.50977 L 441.22656 421.85742 z M 220.49023 488.37695 L 257.24805 488.37695 L 257.24805 506.44727 L 220.49023 506.44727 L 220.49023 488.37695 z M 318.75586 488.37695 L 355.51367 488.37695 L 355.51367 506.44727 L 318.75586 506.44727 L 318.75586 488.37695 z M 417.02344 488.37695 L 453.78125 488.37695 L 453.78125 506.44727 L 417.02344 506.44727 L 417.02344 488.37695 z M 515.29102 488.37695 L 552.04688 488.37695 L 552.04688 506.44727 L 515.29102 506.44727 L 515.29102 488.37695 z M 48.691406 506.60352 A 5.4683312 5.4683309 0.11797341 0 1 48.693359 506.60352 A 5.4683312 5.4683309 0.11797341 0 1 48.828125 506.60352 A 5.4683312 5.4683309 0.11797341 0 1 54.28125 512.08203 A 5.4683312 5.4683309 0.11797341 0 1 48.804688 517.53906 A 5.4683312 5.4683309 0.11797341 0 1 43.345703 512.05859 A 5.4683312 5.4683309 0.11797341 0 1 48.691406 506.60352 z "
       transform="scale(0.26458333)" />
    <path
       id="rect353-3-1-7"
       style="fill:#ffffff;stroke:#280b0b;stroke-width:0.32707301"
       d="m 12.87483,39.819501 -0.147372,0.02159 -0.02954,7.065178 -8.6779449,-0.03628 -0.04148,9.919747 8.6779429,0.03629 -0.02664,6.370614 8.487776,0.03549 -0.0099,2.37503 9.874764,0.04129 0.0099,-2.37503 16.124978,0.06742 -0.0099,2.375029 9.874754,0.04129 0.0099,-2.37503 16.124969,0.06742 -0.0099,2.375029 9.875304,0.0413 0.0099,-2.375031 16.124548,0.06742 -0.01,2.37503 9.875361,0.04129 0.01,-2.37503 29.04045,0.121429 z"
       inkscape:connector-curvature="0" />
    <path
       id="rect353-3-1-5-0"
       style="fill:#ffffff;stroke:#280b0b;stroke-width:0.32707301"
       d="m 136.46579,61.480063 0.14746,-0.02089 0.064,-7.064934 8.67766,0.0786 0.0897,-9.919472 -8.67767,-0.0786 0.0577,-6.370445 -8.4875,-0.07689 0.0214,-2.374951 -9.87444,-0.08949 -0.0215,2.374951 -16.12449,-0.146023 0.0214,-2.374941 -9.87446,-0.08949 -0.0214,2.374951 -16.124439,-0.146122 0.0214,-2.374951 -9.87498,-0.08949 -0.0214,2.374951 -16.124028,-0.145916 0.02144,-2.374961 -9.875036,-0.08949 -0.0214,2.374951 -29.039484,-0.262995 z"
       inkscape:connector-curvature="0" />
    <path
       id="rect353-3-1-7-3"
       style="fill:#ffffff;stroke:#280b0b;stroke-width:0.32707301"
       d="m 11.60394,6.7759032 -0.147372,0.02159 -0.02954,7.0651788 -8.6779461,-0.03628 -0.04148,9.919747 8.6779441,0.03629 -0.02664,6.370614 8.487776,0.03549 -0.0099,2.375032 9.874767,0.04129 0.01,-2.375029 16.12498,0.06742 -0.01,2.375027 9.87475,0.04129 0.01,-2.37503 16.12497,0.06742 -0.01,2.375027 9.8753,0.0413 0.01,-2.375033 16.12455,0.06742 -0.01,2.375029 9.875361,0.04129 0.01,-2.37503 29.04045,0.121428 z"
       inkscape:connector-curvature="0" />
    <path
       id="rect353-3-1-5-0-6"
       style="fill:#ffffff;stroke:#280b0b;stroke-width:0.32707301"
       d="m 135.1949,28.436466 0.14746,-0.0209 0.064,-7.064932 8.67765,0.0786 0.0897,-9.919473 -8.67768,-0.0786 0.0577,-6.3704448 -8.4875,-0.07689 0.0214,-2.374951 -9.87444,-0.08949 -0.0215,2.374951 -16.12449,-0.146023 0.0214,-2.374941 -9.874451,-0.08949 -0.0214,2.374951 -16.12444,-0.146122 0.0214,-2.374951 -9.87498,-0.08949 -0.0214,2.374951 -16.12403,-0.145916 0.0214,-2.374961 -9.87502,-0.08948 -0.0214,2.374951 -29.039486,-0.262997 z"
       inkscape:connector-curvature="0" />
    <path
       id="rect353-3-1-1"
       style="fill:#ffffff;stroke:#280b0b;stroke-width:0.32707301"
       d="m 179.51453,282.57752 0.0222,0.14728 h 7.06524 v 8.67802 h 9.91983 v -8.67802 h 6.37067 v -8.48785 h 2.37505 v -9.87485 h -2.37505 v -16.12513 h 2.37505 v -9.87484 h -2.37505 v -16.12511 h 2.37505 v -9.87539 h -2.37505 v -16.12469 h 2.37505 v -9.87544 h -2.37505 v -29.04071 z"
       inkscape:connector-curvature="0" />
    <path
       id="rect353-3-1-5-2"
       style="fill:#ffffff;stroke:#280b0b;stroke-width:0.32707301"
       d="m 206.61343,98.099061 -0.0215,-0.14737 -7.06514,-0.0345 0.0423,-8.67792 -9.91976,-0.0483 -0.0423,8.67793 -6.37063,-0.031 -0.0414,8.487729 -2.37502,-0.0115 -0.0482,9.87473 2.37502,0.0116 -0.0786,16.12496 -2.37501,-0.0115 -0.0482,9.87475 2.37502,0.0115 -0.0787,16.1249 -2.37502,-0.0115 -0.0482,9.87527 2.37502,0.0115 -0.0785,16.12452 -2.37503,-0.0115 -0.0482,9.87531 2.37502,0.0115 -0.14157,29.04033 z"
       inkscape:connector-curvature="0" />
    <path
       id="rect11-3-5-9-3-7"
       style="fill:#ffffff;stroke:#280b0b;stroke-width:1.04831"
       d="M 19.173828 821.5 L 19.095703 860.00586 L 195.11719 860.00586 L 195.11719 1065.8574 L 18.671875 1065.8574 L 18.59375 1103.916 L 58.876953 1104 L 188.2207 1104.2656 L 188.2207 1105.0645 L 577.05664 1105.0645 L 577.42969 822.65039 L 577.05664 822.65039 L 476.61328 822.44336 L 59.458984 821.58398 L 19.173828 821.5 z M 48.332031 840.98047 A 5.4683312 5.4683308 0.11797341 0 1 53.791016 846.45898 A 5.4683312 5.4683308 0.11797341 0 1 48.310547 851.91797 A 5.4683312 5.4683308 0.11797341 0 1 42.853516 846.57031 A 5.4683312 5.4683308 0.11797341 0 1 42.855469 846.43555 A 5.4683312 5.4683308 0.11797341 0 1 48.332031 840.98047 z M 220.46289 856.66797 L 257.2207 856.66797 L 257.2207 874.74023 L 220.46289 874.74023 L 220.46289 856.66797 z M 318.45117 856.66992 L 355.20898 856.66992 L 355.20898 874.74023 L 318.45117 874.74023 L 318.45117 856.66992 z M 416.7207 856.66992 L 453.47656 856.66992 L 453.47656 874.74023 L 416.7207 874.74023 L 416.7207 856.66992 z M 514.98633 856.66992 L 551.74414 856.66992 L 551.74414 874.74023 L 514.98633 874.74023 L 514.98633 856.66992 z M 440.48242 922.6543 L 509.99609 922.6543 L 509.99609 942.30859 L 440.48242 942.30859 L 440.48242 922.6543 z M 440.48047 986.68555 L 509.99414 986.68555 L 509.99414 1006.3379 L 440.48047 1006.3379 L 440.48047 986.68555 z M 219.74414 1053.2051 L 256.50195 1053.2051 L 256.50195 1071.2754 L 219.74414 1071.2754 L 219.74414 1053.2051 z M 318.00977 1053.2051 L 354.76758 1053.2051 L 354.76758 1071.2754 L 318.00977 1071.2754 L 318.00977 1053.2051 z M 416.27734 1053.2051 L 453.03516 1053.2051 L 453.03516 1071.2754 L 416.27734 1071.2754 L 416.27734 1053.2051 z M 514.54492 1053.2051 L 551.30078 1053.2051 L 551.30078 1071.2754 L 514.54492 1071.2754 L 514.54492 1053.2051 z M 47.945312 1071.4316 A 5.4683312 5.4683308 0.11797341 0 1 47.947266 1071.4316 A 5.4683312 5.4683308 0.11797341 0 1 48.082031 1071.4316 A 5.4683312 5.4683308 0.11797341 0 1 53.535156 1076.9102 A 5.4683312 5.4683308 0.11797341 0 1 48.058594 1082.3672 A 5.4683312 5.4683308 0.11797341 0 1 42.599609 1076.8867 A 5.4683312 5.4683308 0.11797341 0 1 47.945312 1071.4316 z "
       transform="scale(0.26458333)" />
    <path
       id="rect11-3-5-9-3-1"
       style="fill:#ffffff;stroke:#280b0b;stroke-width:1.04831"
       d="M 19.546875 539.08594 L 19.46875 577.5918 L 195.49023 577.5918 L 195.49023 783.44336 L 19.044922 783.44336 L 18.966797 821.50195 L 59.25 821.58594 L 188.59375 821.85156 L 188.59375 822.65039 L 577.42969 822.65039 L 577.80273 540.23633 L 577.42969 540.23633 L 476.98633 540.0293 L 59.832031 539.16992 L 19.546875 539.08594 z M 48.705078 558.56641 A 5.4683312 5.4683308 0.11797341 0 1 54.164062 564.04492 A 5.4683312 5.4683308 0.11797341 0 1 48.683594 569.50391 A 5.4683312 5.4683308 0.11797341 0 1 43.226562 564.15625 A 5.4683312 5.4683308 0.11797341 0 1 43.228516 564.02148 A 5.4683312 5.4683308 0.11797341 0 1 48.705078 558.56641 z M 220.83594 574.25391 L 257.59375 574.25391 L 257.59375 592.32617 L 220.83594 592.32617 L 220.83594 574.25391 z M 318.82422 574.25586 L 355.58203 574.25586 L 355.58203 592.32617 L 318.82422 592.32617 L 318.82422 574.25586 z M 417.09375 574.25586 L 453.84961 574.25586 L 453.84961 592.32617 L 417.09375 592.32617 L 417.09375 574.25586 z M 515.35938 574.25586 L 552.11719 574.25586 L 552.11719 592.32617 L 515.35938 592.32617 L 515.35938 574.25586 z M 440.85547 640.24023 L 510.36914 640.24023 L 510.36914 659.89453 L 440.85547 659.89453 L 440.85547 640.24023 z M 440.85352 704.27148 L 510.36719 704.27148 L 510.36719 723.92383 L 440.85352 723.92383 L 440.85352 704.27148 z M 220.11719 770.79102 L 256.875 770.79102 L 256.875 788.86133 L 220.11719 788.86133 L 220.11719 770.79102 z M 318.38281 770.79102 L 355.14062 770.79102 L 355.14062 788.86133 L 318.38281 788.86133 L 318.38281 770.79102 z M 416.65039 770.79102 L 453.4082 770.79102 L 453.4082 788.86133 L 416.65039 788.86133 L 416.65039 770.79102 z M 514.91797 770.79102 L 551.67383 770.79102 L 551.67383 788.86133 L 514.91797 788.86133 L 514.91797 770.79102 z M 48.318359 789.01758 A 5.4683312 5.4683308 0.11797341 0 1 48.320312 789.01758 A 5.4683312 5.4683308 0.11797341 0 1 48.455078 789.01758 A 5.4683312 5.4683308 0.11797341 0 1 53.908203 794.49609 A 5.4683312 5.4683308 0.11797341 0 1 48.431641 799.95312 A 5.4683312 5.4683308 0.11797341 0 1 42.972656 794.47266 A 5.4683312 5.4683308 0.11797341 0 1 48.318359 789.01758 z "
       transform="scale(0.26458333)" />
    <rect
       style="fill:#ffffff;stroke:#000000;stroke-width:0.417874"
       id="rect122-9"
       width="17.988127"
       height="217.58212"
       x="157.97591"
       y="74.086441" />
    <path
       id="path15-8"
       style="fill:#ffffff;stroke:#280b0b;stroke-width:0.242621"
       inkscape:transform-center-x="-1.1262981"
       inkscape:transform-center-y="0.99598435"
       d="m 200.79188,5.6386104 a 49.803378,52.124099 89.838031 0 0 -49.6161,49.8925626 l 3.44062,-0.0088 0.007,2.347143 v 0.02791 1.337387 h 9.87485 v -1.365292 l -0.007,-2.375049 6.12521,-0.01757 0.007,2.347145 v 0.02791 1.337903 h 9.87484 v -1.365809 l -0.007,-2.37505 6.12521,-0.01757 0.007,2.346627 v 0.02842 1.337387 h 9.87485 v -1.365808 l -0.007,-2.375048 4.44108,-0.01241 -0.0114,-4.079338 2.34404,-0.0072 h 0.031 l 1.3348,5.29e-4 0.003,-9.874848 -1.3658,-5.29e-4 -2.37505,0.0072 -0.0145,-5.057574 -0.003,-1.067633 2.34404,-0.0073 h 0.031 l 1.3348,5.3e-4 0.003,-9.874852 -1.36581,-5.29e-4 -2.37504,0.0072 -0.0171,-6.125207 2.34404,-0.0072 h 0.031 l 1.3348,5.29e-4 0.003,-9.8748516 -1.36581,-5.29e-4 -2.37504,0.0072 z" />
  </g>
</svg>
