M48
FMAT,2
INCH,TZ,000.000
T10C0.024
T9C0.032
T8C0.036
T7C0.039
T6C0.040
T5C0.044
T4C0.047
T3C0.059
T2C0.118
T1C0.130
%
G90
M72
T1
X2900Y4340
T2
X150Y4350
X3450Y4350
X3450Y3100
X150Y150
X1850Y150
X3450Y150
T3
X303Y3526
X697Y3526
X697Y3927
X303Y3927
X1703Y3927
X500Y4026
X1003Y3526
X1397Y3526
X1900Y4026
X2097Y3927
X2097Y3526
X1703Y3526
X1397Y3927
X1003Y3927
X1200Y4026
T4
X2153Y500
X2350Y500
X2547Y500
T5
X3000Y3650
X2800Y3650
X2900Y3650
T6
X2400Y2100
X2400Y2300
X700Y1550
X600Y1550
X500Y1550
X2400Y2200
T7
X3050Y800
X3050Y500
X3050Y400
X600Y1150
X3050Y1200
X3050Y1300
X600Y850
X600Y750
X600Y1250
X3050Y900
T8
X1250Y1750
X950Y1750
X1450Y1700
X500Y2650
X500Y2350
X400Y1800
X400Y2100
X1750Y1700
X2100Y2700
X2100Y2400
X700Y2050
X700Y2350
X1250Y2000
X1550Y2000
X1850Y2500
X1850Y2200
T9
X2200Y3000
X2200Y2900
X750Y3200
X750Y3100
X1050Y3100
X1050Y3200
X750Y3000
X750Y2900
X1050Y3000
X1050Y2900
X3200Y2750
X3200Y3050
X2700Y1150
X2700Y850
X1900Y3200
X1900Y3100
X2200Y3100
X2200Y3200
X1900Y3000
X1900Y2900
T10
X1400Y2250
X1400Y2350
X1400Y2450
X1400Y2750
X1400Y2850
X1400Y2950
X500Y400
X600Y400
X700Y400
X1100Y400
X1200Y400
X1300Y400
M30