G04 EAGLE Gerber RS-274X export*
G75*
%MOIN*%
%FSLAX34Y34*%
%LPD*%
%INBottom Copper*%
%IPPOS*%
%AMOC8*
5,1,8,0,0,1.08239X$1,22.5*%
G01*
%ADD10R,0.059055X0.078740*%
%ADD11R,0.062992X0.070866*%
%ADD12C,0.060000*%
%ADD13R,0.070866X0.062992*%
%ADD14R,0.100000X0.100000*%
%ADD15C,0.010000*%
%ADD16C,0.029780*%
%ADD17C,0.020000*%
%ADD18C,0.006000*%

G36*
X4833Y401D02*
X4833Y401D01*
X4835Y401D01*
X4838Y402D01*
X4841Y402D01*
X4843Y403D01*
X4845Y404D01*
X4847Y406D01*
X4849Y407D01*
X4851Y408D01*
X4852Y409D01*
X4854Y412D01*
X4856Y414D01*
X4857Y416D01*
X4858Y417D01*
X4859Y420D01*
X4860Y423D01*
X4860Y425D01*
X4861Y426D01*
X4860Y429D01*
X4861Y432D01*
X4860Y434D01*
X4860Y436D01*
X4858Y441D01*
X4789Y608D01*
X4789Y1392D01*
X4859Y1561D01*
X4989Y1691D01*
X5158Y1761D01*
X5342Y1761D01*
X5511Y1691D01*
X5641Y1561D01*
X5711Y1392D01*
X5711Y608D01*
X5642Y441D01*
X5641Y439D01*
X5640Y437D01*
X5640Y435D01*
X5639Y432D01*
X5640Y430D01*
X5639Y428D01*
X5640Y425D01*
X5640Y422D01*
X5641Y421D01*
X5642Y419D01*
X5643Y416D01*
X5644Y414D01*
X5646Y412D01*
X5647Y411D01*
X5649Y409D01*
X5651Y407D01*
X5653Y406D01*
X5654Y405D01*
X5657Y404D01*
X5659Y402D01*
X5661Y402D01*
X5663Y401D01*
X5669Y401D01*
X5915Y401D01*
X5916Y401D01*
X5920Y402D01*
X5924Y402D01*
X5925Y403D01*
X5929Y405D01*
X5933Y407D01*
X5934Y408D01*
X5936Y411D01*
X5939Y414D01*
X5940Y415D01*
X5941Y419D01*
X5943Y423D01*
X5943Y424D01*
X5943Y428D01*
X5944Y432D01*
X5944Y433D01*
X5943Y437D01*
X5942Y441D01*
X5941Y442D01*
X5941Y443D01*
X5938Y447D01*
X5907Y490D01*
X5879Y546D01*
X5859Y606D01*
X5849Y668D01*
X5849Y941D01*
X6220Y941D01*
X6221Y941D01*
X6222Y941D01*
X6226Y942D01*
X6229Y942D01*
X6230Y943D01*
X6231Y943D01*
X6235Y945D01*
X6238Y947D01*
X6239Y948D01*
X6242Y951D01*
X6244Y954D01*
X6245Y955D01*
X6245Y956D01*
X6247Y959D01*
X6248Y963D01*
X6248Y964D01*
X6249Y965D01*
X6249Y970D01*
X6249Y1001D01*
X6251Y1001D01*
X6251Y970D01*
X6251Y969D01*
X6251Y968D01*
X6252Y964D01*
X6252Y961D01*
X6253Y960D01*
X6253Y959D01*
X6255Y955D01*
X6257Y952D01*
X6258Y951D01*
X6261Y948D01*
X6264Y946D01*
X6265Y945D01*
X6266Y945D01*
X6269Y943D01*
X6273Y942D01*
X6274Y942D01*
X6275Y941D01*
X6280Y941D01*
X6651Y941D01*
X6651Y668D01*
X6641Y606D01*
X6621Y546D01*
X6593Y490D01*
X6562Y447D01*
X6561Y447D01*
X6561Y446D01*
X6559Y442D01*
X6557Y439D01*
X6557Y438D01*
X6557Y437D01*
X6557Y433D01*
X6556Y429D01*
X6556Y428D01*
X6557Y424D01*
X6558Y420D01*
X6558Y419D01*
X6561Y415D01*
X6563Y411D01*
X6564Y411D01*
X6567Y408D01*
X6570Y405D01*
X6571Y405D01*
X6575Y403D01*
X6579Y402D01*
X6579Y401D01*
X6580Y401D01*
X6585Y401D01*
X6831Y401D01*
X6833Y401D01*
X6835Y401D01*
X6838Y402D01*
X6841Y402D01*
X6843Y403D01*
X6845Y404D01*
X6847Y406D01*
X6849Y407D01*
X6851Y408D01*
X6852Y409D01*
X6854Y412D01*
X6856Y414D01*
X6857Y416D01*
X6858Y417D01*
X6859Y420D01*
X6860Y423D01*
X6860Y425D01*
X6861Y426D01*
X6860Y429D01*
X6861Y432D01*
X6860Y434D01*
X6860Y436D01*
X6858Y441D01*
X6789Y608D01*
X6789Y1392D01*
X6859Y1561D01*
X6989Y1691D01*
X7158Y1761D01*
X7306Y1761D01*
X7311Y1762D01*
X7315Y1762D01*
X7319Y1765D01*
X7324Y1767D01*
X7327Y1770D01*
X7330Y1774D01*
X7333Y1779D01*
X7341Y1799D01*
X7801Y2259D01*
X7878Y2291D01*
X8944Y2291D01*
X8945Y2291D01*
X8946Y2291D01*
X8950Y2292D01*
X8953Y2292D01*
X8954Y2293D01*
X8955Y2293D01*
X8958Y2295D01*
X8962Y2297D01*
X8962Y2298D01*
X8963Y2298D01*
X8966Y2301D01*
X8968Y2304D01*
X8969Y2305D01*
X8969Y2306D01*
X8971Y2309D01*
X8972Y2313D01*
X8972Y2314D01*
X8973Y2315D01*
X8973Y2320D01*
X8973Y2560D01*
X8973Y2561D01*
X8973Y2562D01*
X8972Y2566D01*
X8972Y2569D01*
X8971Y2570D01*
X8971Y2571D01*
X8969Y2575D01*
X8967Y2578D01*
X8966Y2579D01*
X8963Y2582D01*
X8960Y2584D01*
X8959Y2585D01*
X8958Y2585D01*
X8955Y2587D01*
X8951Y2588D01*
X8950Y2588D01*
X8949Y2589D01*
X8944Y2589D01*
X8918Y2589D01*
X8841Y2621D01*
X8221Y3241D01*
X8189Y3318D01*
X8189Y3841D01*
X8189Y3845D01*
X8188Y3849D01*
X8188Y3850D01*
X8186Y3854D01*
X8184Y3857D01*
X8183Y3858D01*
X8183Y3859D01*
X8181Y3861D01*
X8137Y3905D01*
X8090Y4018D01*
X8090Y4079D01*
X8090Y4083D01*
X8089Y4087D01*
X8089Y4088D01*
X8089Y4089D01*
X8087Y4092D01*
X8085Y4096D01*
X8085Y4097D01*
X8084Y4097D01*
X8084Y4098D01*
X8082Y4100D01*
X6941Y5241D01*
X6909Y5318D01*
X6909Y5426D01*
X6909Y5428D01*
X6909Y5430D01*
X6908Y5433D01*
X6908Y5436D01*
X6907Y5438D01*
X6906Y5439D01*
X6904Y5442D01*
X6903Y5444D01*
X6902Y5446D01*
X6901Y5447D01*
X6898Y5449D01*
X6896Y5451D01*
X6894Y5452D01*
X6893Y5453D01*
X6890Y5453D01*
X6887Y5455D01*
X6885Y5455D01*
X6884Y5455D01*
X6881Y5455D01*
X6878Y5455D01*
X6876Y5455D01*
X6874Y5455D01*
X6869Y5453D01*
X6862Y5450D01*
X6738Y5450D01*
X6625Y5497D01*
X6537Y5585D01*
X6490Y5698D01*
X6490Y5822D01*
X6537Y5935D01*
X6581Y5979D01*
X6583Y5982D01*
X6585Y5985D01*
X6586Y5986D01*
X6587Y5990D01*
X6589Y5994D01*
X6589Y5995D01*
X6589Y5996D01*
X6589Y5999D01*
X6589Y6941D01*
X6589Y6945D01*
X6588Y6948D01*
X6588Y6949D01*
X6588Y6950D01*
X6586Y6954D01*
X6584Y6957D01*
X6583Y6958D01*
X6583Y6959D01*
X6581Y6961D01*
X6315Y7227D01*
X6313Y7229D01*
X6310Y7231D01*
X6309Y7231D01*
X6307Y7233D01*
X6304Y7233D01*
X6302Y7235D01*
X6300Y7235D01*
X6298Y7235D01*
X6295Y7235D01*
X6292Y7235D01*
X6290Y7235D01*
X6289Y7235D01*
X6286Y7234D01*
X6283Y7233D01*
X6281Y7232D01*
X6280Y7232D01*
X6277Y7230D01*
X6275Y7228D01*
X6274Y7227D01*
X6272Y7225D01*
X6271Y7223D01*
X6269Y7221D01*
X6268Y7219D01*
X6267Y7217D01*
X6267Y7214D01*
X6266Y7212D01*
X6265Y7209D01*
X6265Y7208D01*
X6265Y7207D01*
X6265Y7206D01*
X6265Y7170D01*
X6171Y7075D01*
X5693Y7075D01*
X5690Y7075D01*
X5687Y7075D01*
X5686Y7074D01*
X5684Y7074D01*
X5681Y7073D01*
X5678Y7071D01*
X5677Y7070D01*
X5675Y7069D01*
X5673Y7067D01*
X5671Y7065D01*
X5670Y7064D01*
X5669Y7062D01*
X5668Y7060D01*
X5666Y7057D01*
X5666Y7055D01*
X5665Y7054D01*
X5665Y7051D01*
X5664Y7048D01*
X5664Y7046D01*
X5664Y7044D01*
X5665Y7041D01*
X5665Y7038D01*
X5666Y7037D01*
X5666Y7035D01*
X5668Y7032D01*
X5669Y7030D01*
X5671Y7027D01*
X5672Y7026D01*
X5673Y7026D01*
X5765Y6933D01*
X5768Y6931D01*
X5771Y6928D01*
X5772Y6928D01*
X5773Y6928D01*
X5777Y6926D01*
X5780Y6925D01*
X5781Y6925D01*
X5782Y6925D01*
X5783Y6925D01*
X5786Y6925D01*
X6171Y6925D01*
X6265Y6830D01*
X6265Y6067D01*
X6171Y5973D01*
X5329Y5973D01*
X5235Y6067D01*
X5235Y6831D01*
X5236Y6833D01*
X5238Y6836D01*
X5238Y6837D01*
X5239Y6838D01*
X5240Y6841D01*
X5241Y6845D01*
X5241Y6846D01*
X5241Y6847D01*
X5241Y6851D01*
X5241Y6855D01*
X5240Y6855D01*
X5240Y6857D01*
X5238Y6860D01*
X5237Y6863D01*
X5236Y6864D01*
X5236Y6865D01*
X5233Y6869D01*
X4861Y7241D01*
X4829Y7318D01*
X4829Y7341D01*
X4829Y7345D01*
X4828Y7348D01*
X4828Y7349D01*
X4828Y7350D01*
X4826Y7354D01*
X4824Y7357D01*
X4823Y7358D01*
X4823Y7359D01*
X4821Y7361D01*
X4781Y7401D01*
X4749Y7478D01*
X4749Y7841D01*
X4749Y7845D01*
X4748Y7849D01*
X4748Y7850D01*
X4746Y7854D01*
X4744Y7857D01*
X4743Y7858D01*
X4743Y7859D01*
X4741Y7861D01*
X4697Y7905D01*
X4650Y8018D01*
X4650Y8142D01*
X4686Y8229D01*
X4687Y8231D01*
X4688Y8232D01*
X4688Y8233D01*
X4688Y8235D01*
X4689Y8238D01*
X4688Y8240D01*
X4689Y8242D01*
X4688Y8245D01*
X4688Y8248D01*
X4687Y8249D01*
X4686Y8251D01*
X4685Y8254D01*
X4684Y8256D01*
X4682Y8258D01*
X4681Y8259D01*
X4679Y8261D01*
X4677Y8263D01*
X4675Y8264D01*
X4674Y8265D01*
X4671Y8266D01*
X4669Y8268D01*
X4667Y8268D01*
X4665Y8269D01*
X4659Y8269D01*
X4239Y8269D01*
X4235Y8269D01*
X4231Y8268D01*
X4230Y8268D01*
X4226Y8266D01*
X4223Y8264D01*
X4222Y8263D01*
X4221Y8263D01*
X4221Y8262D01*
X4219Y8261D01*
X4175Y8217D01*
X4062Y8170D01*
X4048Y8170D01*
X4045Y8170D01*
X4042Y8170D01*
X4041Y8169D01*
X4039Y8169D01*
X4036Y8167D01*
X4034Y8166D01*
X4032Y8165D01*
X4030Y8164D01*
X4028Y8162D01*
X4026Y8160D01*
X4025Y8159D01*
X4024Y8157D01*
X4023Y8155D01*
X4021Y8152D01*
X4021Y8150D01*
X4020Y8149D01*
X4020Y8146D01*
X4019Y8143D01*
X4019Y8141D01*
X4019Y8139D01*
X4020Y8136D01*
X4020Y8133D01*
X4021Y8132D01*
X4021Y8130D01*
X4023Y8127D01*
X4024Y8125D01*
X4026Y8122D01*
X4027Y8121D01*
X4028Y8120D01*
X4615Y7533D01*
X4679Y7469D01*
X4711Y7392D01*
X4711Y7298D01*
X4711Y7294D01*
X4712Y7290D01*
X4712Y7289D01*
X4714Y7285D01*
X4716Y7282D01*
X4717Y7281D01*
X4717Y7280D01*
X4719Y7277D01*
X4763Y7234D01*
X4810Y7120D01*
X4810Y6997D01*
X4763Y6883D01*
X4719Y6840D01*
X4717Y6837D01*
X4715Y6834D01*
X4714Y6833D01*
X4713Y6829D01*
X4711Y6825D01*
X4711Y6824D01*
X4711Y6823D01*
X4711Y6820D01*
X4711Y6507D01*
X4679Y6429D01*
X4615Y6366D01*
X4250Y6001D01*
X4249Y5999D01*
X4248Y5998D01*
X4246Y5996D01*
X4245Y5993D01*
X4244Y5991D01*
X4243Y5990D01*
X4243Y5987D01*
X4242Y5984D01*
X4242Y5982D01*
X4242Y5980D01*
X4242Y5977D01*
X4242Y5975D01*
X4243Y5973D01*
X4243Y5971D01*
X4245Y5968D01*
X4246Y5966D01*
X4247Y5964D01*
X4248Y5962D01*
X4250Y5960D01*
X4252Y5958D01*
X4254Y5957D01*
X4255Y5956D01*
X4260Y5953D01*
X4319Y5929D01*
X4430Y5818D01*
X4433Y5816D01*
X4436Y5813D01*
X4437Y5813D01*
X4438Y5813D01*
X4441Y5812D01*
X4445Y5810D01*
X4446Y5810D01*
X4447Y5810D01*
X4448Y5810D01*
X4451Y5810D01*
X4512Y5810D01*
X4625Y5763D01*
X4713Y5675D01*
X4760Y5562D01*
X4760Y5438D01*
X4713Y5325D01*
X4625Y5237D01*
X4512Y5190D01*
X4388Y5190D01*
X4275Y5237D01*
X4201Y5311D01*
X4200Y5312D01*
X4199Y5313D01*
X4196Y5315D01*
X4193Y5317D01*
X4192Y5317D01*
X4191Y5318D01*
X4187Y5319D01*
X4184Y5320D01*
X4183Y5320D01*
X4182Y5320D01*
X4178Y5320D01*
X4174Y5319D01*
X4173Y5319D01*
X4172Y5319D01*
X4169Y5317D01*
X4165Y5316D01*
X4164Y5315D01*
X4163Y5315D01*
X4159Y5311D01*
X4083Y5235D01*
X3320Y5235D01*
X3225Y5329D01*
X3225Y6171D01*
X3320Y6265D01*
X3906Y6265D01*
X3910Y6266D01*
X3914Y6266D01*
X3915Y6267D01*
X3916Y6267D01*
X3919Y6269D01*
X3923Y6270D01*
X3923Y6271D01*
X3924Y6271D01*
X3925Y6272D01*
X3927Y6274D01*
X4281Y6628D01*
X4283Y6631D01*
X4285Y6634D01*
X4286Y6635D01*
X4287Y6639D01*
X4289Y6643D01*
X4289Y6644D01*
X4289Y6645D01*
X4289Y6648D01*
X4289Y6820D01*
X4289Y6824D01*
X4288Y6827D01*
X4288Y6828D01*
X4288Y6829D01*
X4286Y6833D01*
X4284Y6836D01*
X4283Y6837D01*
X4283Y6838D01*
X4281Y6840D01*
X4237Y6883D01*
X4190Y6997D01*
X4190Y7120D01*
X4237Y7234D01*
X4257Y7254D01*
X4258Y7255D01*
X4259Y7257D01*
X4261Y7258D01*
X4261Y7260D01*
X4262Y7261D01*
X4263Y7262D01*
X4263Y7263D01*
X4264Y7265D01*
X4264Y7267D01*
X4265Y7269D01*
X4265Y7271D01*
X4265Y7272D01*
X4265Y7273D01*
X4265Y7275D01*
X4265Y7276D01*
X4265Y7278D01*
X4265Y7280D01*
X4264Y7281D01*
X4264Y7282D01*
X4264Y7284D01*
X4263Y7286D01*
X4262Y7287D01*
X4261Y7289D01*
X4261Y7290D01*
X4260Y7291D01*
X4258Y7293D01*
X4258Y7294D01*
X4257Y7295D01*
X2120Y9432D01*
X2117Y9434D01*
X2114Y9437D01*
X2113Y9437D01*
X2112Y9437D01*
X2109Y9438D01*
X2105Y9440D01*
X2104Y9440D01*
X2103Y9440D01*
X2102Y9440D01*
X2099Y9440D01*
X2038Y9440D01*
X1925Y9487D01*
X1837Y9575D01*
X1790Y9688D01*
X1790Y9812D01*
X1837Y9925D01*
X1925Y10013D01*
X2038Y10060D01*
X2162Y10060D01*
X2275Y10013D01*
X2363Y9925D01*
X2410Y9812D01*
X2410Y9751D01*
X2410Y9747D01*
X2411Y9743D01*
X2411Y9742D01*
X2411Y9741D01*
X2413Y9738D01*
X2415Y9734D01*
X2415Y9733D01*
X2416Y9733D01*
X2416Y9732D01*
X2418Y9730D01*
X2463Y9685D01*
X2466Y9683D01*
X2468Y9681D01*
X2470Y9680D01*
X2471Y9679D01*
X2474Y9678D01*
X2477Y9677D01*
X2479Y9677D01*
X2480Y9676D01*
X2483Y9676D01*
X2486Y9676D01*
X2488Y9677D01*
X2490Y9677D01*
X2493Y9678D01*
X2496Y9678D01*
X2497Y9679D01*
X2499Y9680D01*
X2501Y9682D01*
X2504Y9683D01*
X2505Y9685D01*
X2506Y9686D01*
X2508Y9689D01*
X2510Y9691D01*
X2510Y9693D01*
X2511Y9694D01*
X2512Y9697D01*
X2513Y9700D01*
X2513Y9703D01*
X2513Y9704D01*
X2513Y9705D01*
X2513Y9891D01*
X2850Y9891D01*
X2850Y9456D01*
X2763Y9456D01*
X2760Y9455D01*
X2757Y9455D01*
X2756Y9454D01*
X2754Y9454D01*
X2751Y9453D01*
X2748Y9452D01*
X2747Y9450D01*
X2745Y9449D01*
X2743Y9447D01*
X2741Y9445D01*
X2740Y9444D01*
X2739Y9442D01*
X2738Y9440D01*
X2736Y9437D01*
X2736Y9435D01*
X2735Y9434D01*
X2735Y9431D01*
X2734Y9428D01*
X2734Y9426D01*
X2734Y9424D01*
X2735Y9421D01*
X2735Y9418D01*
X2736Y9417D01*
X2736Y9415D01*
X2738Y9412D01*
X2739Y9410D01*
X2741Y9408D01*
X2741Y9407D01*
X2742Y9406D01*
X3640Y8508D01*
X3643Y8506D01*
X3645Y8504D01*
X3647Y8503D01*
X3648Y8502D01*
X3651Y8501D01*
X3654Y8500D01*
X3656Y8500D01*
X3657Y8499D01*
X3660Y8499D01*
X3663Y8499D01*
X3665Y8500D01*
X3667Y8500D01*
X3670Y8501D01*
X3673Y8501D01*
X3674Y8502D01*
X3676Y8503D01*
X3678Y8505D01*
X3681Y8506D01*
X3682Y8508D01*
X3683Y8509D01*
X3685Y8512D01*
X3687Y8514D01*
X3687Y8516D01*
X3688Y8517D01*
X3689Y8520D01*
X3690Y8523D01*
X3690Y8526D01*
X3690Y8527D01*
X3690Y8528D01*
X3690Y8542D01*
X3737Y8655D01*
X3825Y8743D01*
X3938Y8790D01*
X4062Y8790D01*
X4175Y8743D01*
X4219Y8699D01*
X4222Y8697D01*
X4225Y8695D01*
X4226Y8694D01*
X4230Y8693D01*
X4234Y8691D01*
X4235Y8691D01*
X4236Y8691D01*
X4239Y8691D01*
X5322Y8691D01*
X5399Y8659D01*
X5720Y8338D01*
X5723Y8336D01*
X5725Y8334D01*
X5727Y8333D01*
X5728Y8332D01*
X5731Y8331D01*
X5734Y8330D01*
X5736Y8330D01*
X5737Y8329D01*
X5740Y8329D01*
X5743Y8329D01*
X5745Y8330D01*
X5747Y8330D01*
X5750Y8331D01*
X5753Y8331D01*
X5754Y8332D01*
X5756Y8333D01*
X5758Y8335D01*
X5761Y8336D01*
X5762Y8338D01*
X5763Y8339D01*
X5765Y8342D01*
X5767Y8344D01*
X5767Y8346D01*
X5768Y8347D01*
X5769Y8350D01*
X5770Y8353D01*
X5770Y8356D01*
X5770Y8357D01*
X5770Y8358D01*
X5770Y8462D01*
X5817Y8575D01*
X5905Y8663D01*
X6018Y8710D01*
X6142Y8710D01*
X6229Y8673D01*
X6233Y8673D01*
X6236Y8672D01*
X6237Y8672D01*
X6238Y8671D01*
X6242Y8672D01*
X6246Y8672D01*
X6247Y8672D01*
X6248Y8672D01*
X6251Y8674D01*
X6255Y8675D01*
X6256Y8676D01*
X6259Y8679D01*
X6262Y8681D01*
X6263Y8682D01*
X6263Y8683D01*
X6265Y8686D01*
X6267Y8690D01*
X6268Y8691D01*
X6268Y8695D01*
X6269Y8699D01*
X6269Y8700D01*
X6269Y8701D01*
X6269Y8705D01*
X6268Y8708D01*
X6268Y8709D01*
X6268Y8710D01*
X6266Y8714D01*
X6264Y8717D01*
X6263Y8718D01*
X6263Y8719D01*
X6262Y8719D01*
X6261Y8721D01*
X6081Y8901D01*
X6078Y8903D01*
X6075Y8905D01*
X6074Y8906D01*
X6073Y8906D01*
X6070Y8907D01*
X6066Y8909D01*
X6065Y8909D01*
X6064Y8909D01*
X6061Y8909D01*
X3958Y8909D01*
X3881Y8941D01*
X3501Y9321D01*
X3469Y9398D01*
X3469Y10301D01*
X3469Y10305D01*
X3468Y10308D01*
X3468Y10309D01*
X3468Y10310D01*
X3466Y10314D01*
X3464Y10317D01*
X3463Y10318D01*
X3463Y10319D01*
X3461Y10321D01*
X3281Y10501D01*
X3278Y10503D01*
X3275Y10505D01*
X3274Y10506D01*
X3273Y10506D01*
X3270Y10507D01*
X3266Y10509D01*
X3265Y10509D01*
X3264Y10509D01*
X3261Y10509D01*
X3078Y10509D01*
X3001Y10541D01*
X2461Y11081D01*
X2429Y11158D01*
X2429Y13162D01*
X2461Y13239D01*
X3864Y14643D01*
X3865Y14643D01*
X3866Y14644D01*
X3868Y14647D01*
X3870Y14650D01*
X3870Y14651D01*
X3871Y14652D01*
X3872Y14656D01*
X3873Y14659D01*
X3873Y14661D01*
X3873Y14662D01*
X3873Y14665D01*
X3872Y14669D01*
X3872Y14670D01*
X3872Y14671D01*
X3870Y14674D01*
X3869Y14678D01*
X3868Y14679D01*
X3868Y14680D01*
X3864Y14684D01*
X3859Y14689D01*
X3789Y14858D01*
X3789Y15642D01*
X3859Y15811D01*
X3989Y15941D01*
X4158Y16011D01*
X4342Y16011D01*
X4511Y15941D01*
X4641Y15811D01*
X4711Y15642D01*
X4711Y14858D01*
X4641Y14689D01*
X4511Y14559D01*
X4342Y14489D01*
X4319Y14489D01*
X4315Y14489D01*
X4312Y14488D01*
X4311Y14488D01*
X4310Y14488D01*
X4306Y14486D01*
X4303Y14484D01*
X4302Y14483D01*
X4301Y14483D01*
X4299Y14481D01*
X2859Y13041D01*
X2857Y13038D01*
X2855Y13035D01*
X2854Y13034D01*
X2854Y13033D01*
X2853Y13030D01*
X2851Y13026D01*
X2851Y13025D01*
X2851Y13024D01*
X2851Y13021D01*
X2851Y11873D01*
X2851Y11869D01*
X2852Y11865D01*
X2852Y11864D01*
X2854Y11860D01*
X2856Y11857D01*
X2856Y11856D01*
X2857Y11855D01*
X2860Y11853D01*
X2862Y11850D01*
X2863Y11849D01*
X2864Y11849D01*
X2867Y11847D01*
X2871Y11845D01*
X2872Y11845D01*
X2873Y11845D01*
X2876Y11844D01*
X2880Y11844D01*
X2881Y11844D01*
X2882Y11844D01*
X2886Y11845D01*
X2890Y11845D01*
X2890Y11846D01*
X2891Y11846D01*
X2895Y11848D01*
X2898Y11850D01*
X2899Y11851D01*
X2902Y11854D01*
X2905Y11857D01*
X2905Y11858D01*
X2905Y11859D01*
X2906Y11859D01*
X2907Y11862D01*
X2937Y11935D01*
X2976Y11974D01*
X2979Y11977D01*
X2981Y11981D01*
X2982Y11982D01*
X2983Y11986D01*
X2984Y11990D01*
X2985Y11991D01*
X2985Y11992D01*
X2985Y11995D01*
X2985Y12683D01*
X3079Y12777D01*
X3921Y12777D01*
X4015Y12683D01*
X4015Y12624D01*
X4016Y12621D01*
X4016Y12618D01*
X4016Y12616D01*
X4017Y12614D01*
X4018Y12612D01*
X4019Y12609D01*
X4020Y12608D01*
X4021Y12606D01*
X4023Y12604D01*
X4025Y12602D01*
X4027Y12601D01*
X4028Y12599D01*
X4031Y12598D01*
X4033Y12597D01*
X4035Y12596D01*
X4037Y12595D01*
X4040Y12595D01*
X4043Y12595D01*
X4045Y12595D01*
X4046Y12595D01*
X4049Y12595D01*
X4052Y12596D01*
X4054Y12596D01*
X4056Y12597D01*
X4058Y12598D01*
X4061Y12600D01*
X4063Y12601D01*
X4064Y12602D01*
X4065Y12603D01*
X4441Y12979D01*
X4518Y13011D01*
X5082Y13011D01*
X5159Y12979D01*
X5459Y12679D01*
X5491Y12602D01*
X5491Y11219D01*
X5491Y11216D01*
X5492Y11212D01*
X5492Y11211D01*
X5492Y11210D01*
X5494Y11206D01*
X5496Y11203D01*
X5497Y11202D01*
X5497Y11201D01*
X5499Y11199D01*
X5739Y10959D01*
X5742Y10957D01*
X5744Y10955D01*
X5746Y10954D01*
X5747Y10953D01*
X5750Y10952D01*
X5753Y10951D01*
X5754Y10951D01*
X5756Y10950D01*
X5759Y10951D01*
X5762Y10950D01*
X5764Y10951D01*
X5766Y10951D01*
X5769Y10952D01*
X5771Y10952D01*
X5773Y10953D01*
X5775Y10954D01*
X5777Y10956D01*
X5779Y10958D01*
X5781Y10959D01*
X5782Y10960D01*
X5784Y10963D01*
X5785Y10965D01*
X5786Y10967D01*
X5787Y10968D01*
X5788Y10971D01*
X5789Y10974D01*
X5789Y10977D01*
X5789Y10978D01*
X5789Y10979D01*
X5789Y13581D01*
X5789Y13585D01*
X5788Y13588D01*
X5788Y13589D01*
X5788Y13590D01*
X5786Y13594D01*
X5784Y13597D01*
X5783Y13598D01*
X5783Y13599D01*
X5781Y13601D01*
X5101Y14281D01*
X5069Y14358D01*
X5069Y14507D01*
X5068Y14511D01*
X5068Y14516D01*
X5065Y14520D01*
X5063Y14524D01*
X5063Y14525D01*
X5060Y14528D01*
X5056Y14531D01*
X5051Y14534D01*
X4989Y14559D01*
X4859Y14689D01*
X4789Y14858D01*
X4789Y15642D01*
X4859Y15811D01*
X4989Y15941D01*
X5158Y16011D01*
X5342Y16011D01*
X5511Y15941D01*
X5641Y15811D01*
X5711Y15642D01*
X5711Y14858D01*
X5641Y14689D01*
X5511Y14559D01*
X5509Y14558D01*
X5505Y14556D01*
X5501Y14553D01*
X5498Y14550D01*
X5495Y14546D01*
X5493Y14541D01*
X5491Y14537D01*
X5491Y14531D01*
X5491Y14499D01*
X5491Y14496D01*
X5492Y14492D01*
X5492Y14491D01*
X5492Y14490D01*
X5493Y14488D01*
X5494Y14486D01*
X5496Y14483D01*
X5497Y14482D01*
X5497Y14481D01*
X5498Y14480D01*
X5499Y14480D01*
X5499Y14479D01*
X6179Y13799D01*
X6211Y13722D01*
X6211Y12574D01*
X6211Y12572D01*
X6211Y12570D01*
X6212Y12567D01*
X6212Y12564D01*
X6213Y12562D01*
X6214Y12561D01*
X6216Y12558D01*
X6217Y12556D01*
X6218Y12554D01*
X6219Y12553D01*
X6222Y12551D01*
X6224Y12549D01*
X6226Y12548D01*
X6227Y12547D01*
X6230Y12547D01*
X6233Y12545D01*
X6235Y12545D01*
X6236Y12545D01*
X6239Y12545D01*
X6242Y12545D01*
X6244Y12545D01*
X6246Y12545D01*
X6251Y12547D01*
X6258Y12550D01*
X6382Y12550D01*
X6495Y12503D01*
X6583Y12415D01*
X6630Y12302D01*
X6630Y12178D01*
X6628Y12175D01*
X6627Y12170D01*
X6626Y12166D01*
X6627Y12161D01*
X6627Y12156D01*
X6629Y12152D01*
X6631Y12148D01*
X6635Y12143D01*
X6696Y12082D01*
X6697Y12081D01*
X6700Y12079D01*
X6703Y12077D01*
X6704Y12077D01*
X6705Y12076D01*
X6709Y12075D01*
X6713Y12074D01*
X6714Y12074D01*
X6715Y12074D01*
X6718Y12074D01*
X6722Y12074D01*
X6723Y12075D01*
X6724Y12075D01*
X6728Y12077D01*
X6731Y12078D01*
X6732Y12079D01*
X6733Y12079D01*
X6737Y12082D01*
X6829Y12175D01*
X7661Y12175D01*
X7662Y12175D01*
X7663Y12175D01*
X7667Y12175D01*
X7671Y12176D01*
X7671Y12177D01*
X7673Y12177D01*
X7676Y12179D01*
X7679Y12181D01*
X7680Y12181D01*
X7681Y12182D01*
X7683Y12185D01*
X7685Y12188D01*
X7686Y12189D01*
X7687Y12189D01*
X7688Y12193D01*
X7689Y12196D01*
X7689Y12197D01*
X7690Y12198D01*
X7690Y12204D01*
X7690Y12296D01*
X7690Y12297D01*
X7690Y12298D01*
X7689Y12302D01*
X7689Y12306D01*
X7688Y12307D01*
X7688Y12308D01*
X7686Y12311D01*
X7684Y12314D01*
X7683Y12315D01*
X7683Y12316D01*
X7680Y12318D01*
X7677Y12321D01*
X7676Y12321D01*
X7675Y12322D01*
X7672Y12323D01*
X7669Y12325D01*
X7667Y12325D01*
X7666Y12325D01*
X7661Y12325D01*
X6829Y12325D01*
X6735Y12420D01*
X6735Y13183D01*
X6829Y13277D01*
X7671Y13277D01*
X7765Y13183D01*
X7765Y13120D01*
X7765Y13119D01*
X7765Y13118D01*
X7766Y13114D01*
X7767Y13111D01*
X7767Y13110D01*
X7767Y13109D01*
X7769Y13105D01*
X7771Y13102D01*
X7772Y13101D01*
X7773Y13101D01*
X7775Y13098D01*
X7778Y13096D01*
X7779Y13095D01*
X7780Y13095D01*
X7783Y13093D01*
X7787Y13092D01*
X7788Y13092D01*
X7789Y13091D01*
X7794Y13091D01*
X7901Y13091D01*
X7904Y13091D01*
X7908Y13092D01*
X7909Y13092D01*
X7910Y13092D01*
X7914Y13094D01*
X7917Y13096D01*
X7918Y13097D01*
X7919Y13097D01*
X7921Y13099D01*
X8241Y13419D01*
X8242Y13420D01*
X8243Y13421D01*
X8245Y13424D01*
X8247Y13427D01*
X8247Y13428D01*
X8248Y13429D01*
X8249Y13433D01*
X8250Y13436D01*
X8250Y13437D01*
X8250Y13438D01*
X8249Y13442D01*
X8249Y13446D01*
X8249Y13447D01*
X8249Y13448D01*
X8247Y13451D01*
X8246Y13455D01*
X8245Y13456D01*
X8245Y13457D01*
X8241Y13461D01*
X7860Y13842D01*
X7857Y13844D01*
X7854Y13847D01*
X7853Y13847D01*
X7852Y13847D01*
X7849Y13848D01*
X7845Y13850D01*
X7844Y13850D01*
X7843Y13850D01*
X7842Y13850D01*
X7839Y13850D01*
X7778Y13850D01*
X7665Y13897D01*
X7577Y13985D01*
X7530Y14098D01*
X7530Y14222D01*
X7577Y14335D01*
X7665Y14423D01*
X7778Y14470D01*
X7902Y14470D01*
X8015Y14423D01*
X8103Y14335D01*
X8150Y14222D01*
X8150Y14161D01*
X8150Y14157D01*
X8151Y14153D01*
X8151Y14152D01*
X8151Y14151D01*
X8153Y14148D01*
X8155Y14144D01*
X8155Y14143D01*
X8156Y14143D01*
X8156Y14142D01*
X8158Y14140D01*
X8539Y13759D01*
X8540Y13758D01*
X8541Y13757D01*
X8544Y13755D01*
X8547Y13753D01*
X8548Y13753D01*
X8549Y13752D01*
X8553Y13751D01*
X8556Y13750D01*
X8557Y13750D01*
X8558Y13750D01*
X8562Y13751D01*
X8566Y13751D01*
X8567Y13751D01*
X8568Y13751D01*
X8571Y13753D01*
X8575Y13754D01*
X8576Y13755D01*
X8577Y13755D01*
X8581Y13759D01*
X9841Y15019D01*
X9843Y15022D01*
X9845Y15024D01*
X9846Y15026D01*
X9847Y15027D01*
X9848Y15030D01*
X9849Y15033D01*
X9849Y15034D01*
X9850Y15036D01*
X9849Y15039D01*
X9850Y15042D01*
X9849Y15044D01*
X9849Y15046D01*
X9848Y15049D01*
X9848Y15051D01*
X9847Y15053D01*
X9846Y15055D01*
X9844Y15057D01*
X9842Y15059D01*
X9841Y15061D01*
X9840Y15062D01*
X9837Y15064D01*
X9835Y15065D01*
X9833Y15066D01*
X9832Y15067D01*
X9829Y15068D01*
X9826Y15069D01*
X9823Y15069D01*
X9822Y15069D01*
X9821Y15069D01*
X8079Y15069D01*
X8075Y15069D01*
X8071Y15068D01*
X8070Y15068D01*
X8066Y15066D01*
X8063Y15064D01*
X8062Y15063D01*
X8061Y15063D01*
X8059Y15061D01*
X8015Y15017D01*
X7902Y14970D01*
X7778Y14970D01*
X7665Y15017D01*
X7577Y15105D01*
X7530Y15218D01*
X7530Y15342D01*
X7577Y15455D01*
X7665Y15543D01*
X7778Y15590D01*
X7902Y15590D01*
X8015Y15543D01*
X8059Y15499D01*
X8062Y15497D01*
X8065Y15495D01*
X8066Y15494D01*
X8070Y15493D01*
X8074Y15491D01*
X8075Y15491D01*
X8076Y15491D01*
X8079Y15491D01*
X12842Y15491D01*
X12919Y15459D01*
X12995Y15383D01*
X13063Y15315D01*
X13715Y14663D01*
X13779Y14599D01*
X13811Y14522D01*
X13811Y13294D01*
X13811Y13292D01*
X13811Y13290D01*
X13812Y13287D01*
X13812Y13284D01*
X13813Y13282D01*
X13814Y13281D01*
X13816Y13278D01*
X13817Y13276D01*
X13818Y13274D01*
X13819Y13273D01*
X13822Y13271D01*
X13824Y13269D01*
X13826Y13268D01*
X13827Y13267D01*
X13830Y13267D01*
X13833Y13265D01*
X13835Y13265D01*
X13836Y13265D01*
X13839Y13265D01*
X13842Y13265D01*
X13844Y13265D01*
X13846Y13265D01*
X13851Y13267D01*
X13858Y13270D01*
X13982Y13270D01*
X14095Y13223D01*
X14183Y13135D01*
X14230Y13022D01*
X14230Y12898D01*
X14183Y12785D01*
X14139Y12741D01*
X14137Y12738D01*
X14135Y12735D01*
X14134Y12734D01*
X14133Y12730D01*
X14131Y12726D01*
X14131Y12725D01*
X14131Y12724D01*
X14131Y12721D01*
X14131Y11059D01*
X14131Y11056D01*
X14132Y11052D01*
X14132Y11051D01*
X14132Y11050D01*
X14134Y11046D01*
X14136Y11043D01*
X14137Y11042D01*
X14137Y11041D01*
X14139Y11039D01*
X14259Y10919D01*
X14291Y10842D01*
X14291Y9478D01*
X14259Y9401D01*
X13959Y9101D01*
X13882Y9069D01*
X13794Y9069D01*
X13793Y9069D01*
X13792Y9069D01*
X13789Y9068D01*
X13785Y9068D01*
X13784Y9067D01*
X13783Y9067D01*
X13780Y9065D01*
X13776Y9063D01*
X13776Y9062D01*
X13775Y9062D01*
X13773Y9059D01*
X13770Y9056D01*
X13770Y9055D01*
X13769Y9054D01*
X13768Y9051D01*
X13766Y9047D01*
X13766Y9046D01*
X13766Y9045D01*
X13765Y9040D01*
X13765Y8817D01*
X13671Y8723D01*
X13520Y8723D01*
X13519Y8723D01*
X13518Y8723D01*
X13514Y8722D01*
X13511Y8722D01*
X13510Y8721D01*
X13509Y8721D01*
X13505Y8719D01*
X13502Y8717D01*
X13501Y8716D01*
X13498Y8713D01*
X13496Y8710D01*
X13495Y8709D01*
X13495Y8708D01*
X13493Y8705D01*
X13492Y8701D01*
X13492Y8700D01*
X13491Y8699D01*
X13491Y8694D01*
X13491Y8079D01*
X13491Y8075D01*
X13492Y8071D01*
X13492Y8070D01*
X13494Y8066D01*
X13496Y8063D01*
X13497Y8062D01*
X13497Y8061D01*
X13499Y8059D01*
X13543Y8015D01*
X13590Y7902D01*
X13590Y7778D01*
X13543Y7665D01*
X13455Y7577D01*
X13342Y7530D01*
X13218Y7530D01*
X13105Y7577D01*
X13017Y7665D01*
X12970Y7778D01*
X12970Y7902D01*
X13017Y8015D01*
X13061Y8059D01*
X13063Y8062D01*
X13065Y8065D01*
X13066Y8066D01*
X13067Y8070D01*
X13069Y8074D01*
X13069Y8075D01*
X13069Y8076D01*
X13069Y8079D01*
X13069Y8694D01*
X13069Y8695D01*
X13069Y8696D01*
X13068Y8700D01*
X13068Y8703D01*
X13067Y8704D01*
X13067Y8705D01*
X13065Y8708D01*
X13063Y8712D01*
X13062Y8712D01*
X13062Y8713D01*
X13059Y8716D01*
X13056Y8718D01*
X13055Y8719D01*
X13054Y8719D01*
X13051Y8721D01*
X13047Y8722D01*
X13046Y8722D01*
X13045Y8723D01*
X13040Y8723D01*
X12829Y8723D01*
X12746Y8806D01*
X12745Y8807D01*
X12744Y8808D01*
X12741Y8810D01*
X12738Y8812D01*
X12737Y8812D01*
X12736Y8813D01*
X12732Y8814D01*
X12729Y8815D01*
X12728Y8815D01*
X12727Y8815D01*
X12723Y8815D01*
X12719Y8814D01*
X12718Y8814D01*
X12717Y8814D01*
X12714Y8812D01*
X12710Y8811D01*
X12710Y8810D01*
X12709Y8810D01*
X12704Y8806D01*
X12039Y8141D01*
X11962Y8109D01*
X11839Y8109D01*
X11835Y8109D01*
X11831Y8108D01*
X11830Y8108D01*
X11826Y8106D01*
X11823Y8104D01*
X11822Y8103D01*
X11821Y8103D01*
X11819Y8101D01*
X11775Y8057D01*
X11662Y8010D01*
X11538Y8010D01*
X11425Y8057D01*
X11351Y8131D01*
X11350Y8132D01*
X11349Y8133D01*
X11346Y8135D01*
X11343Y8137D01*
X11342Y8137D01*
X11341Y8138D01*
X11337Y8139D01*
X11334Y8140D01*
X11333Y8140D01*
X11332Y8140D01*
X11328Y8139D01*
X11324Y8139D01*
X11323Y8139D01*
X11322Y8139D01*
X11319Y8137D01*
X11315Y8136D01*
X11315Y8135D01*
X11314Y8135D01*
X11309Y8131D01*
X10349Y7171D01*
X10348Y7170D01*
X10347Y7169D01*
X10345Y7166D01*
X10343Y7163D01*
X10343Y7162D01*
X10342Y7161D01*
X10341Y7157D01*
X10340Y7154D01*
X10340Y7153D01*
X10340Y7152D01*
X10341Y7148D01*
X10341Y7144D01*
X10341Y7143D01*
X10341Y7142D01*
X10343Y7139D01*
X10344Y7135D01*
X10345Y7134D01*
X10345Y7133D01*
X10349Y7129D01*
X10379Y7099D01*
X10380Y7098D01*
X10381Y7097D01*
X10384Y7095D01*
X10387Y7093D01*
X10388Y7093D01*
X10389Y7092D01*
X10393Y7091D01*
X10396Y7090D01*
X10397Y7090D01*
X10398Y7090D01*
X10402Y7090D01*
X10406Y7091D01*
X10407Y7091D01*
X10408Y7091D01*
X10411Y7093D01*
X10415Y7094D01*
X10416Y7095D01*
X10417Y7095D01*
X10421Y7099D01*
X10465Y7143D01*
X10578Y7190D01*
X10702Y7190D01*
X10815Y7143D01*
X10903Y7055D01*
X10950Y6942D01*
X10950Y6818D01*
X10903Y6705D01*
X10859Y6661D01*
X10857Y6658D01*
X10855Y6655D01*
X10854Y6654D01*
X10853Y6650D01*
X10851Y6646D01*
X10851Y6645D01*
X10851Y6644D01*
X10851Y6641D01*
X10851Y6579D01*
X10851Y6576D01*
X10852Y6572D01*
X10852Y6571D01*
X10852Y6570D01*
X10854Y6566D01*
X10856Y6563D01*
X10857Y6562D01*
X10857Y6561D01*
X10859Y6559D01*
X12220Y5198D01*
X12223Y5196D01*
X12226Y5193D01*
X12227Y5193D01*
X12228Y5193D01*
X12231Y5192D01*
X12235Y5190D01*
X12236Y5190D01*
X12237Y5190D01*
X12238Y5190D01*
X12241Y5190D01*
X12302Y5190D01*
X12415Y5143D01*
X12503Y5055D01*
X12550Y4942D01*
X12550Y4818D01*
X12549Y4817D01*
X12549Y4815D01*
X12548Y4814D01*
X12548Y4811D01*
X12547Y4808D01*
X12547Y4806D01*
X12547Y4804D01*
X12548Y4801D01*
X12548Y4799D01*
X12549Y4797D01*
X12549Y4795D01*
X12551Y4792D01*
X12552Y4790D01*
X12553Y4788D01*
X12554Y4787D01*
X12557Y4785D01*
X12559Y4783D01*
X12560Y4782D01*
X12562Y4781D01*
X12564Y4780D01*
X12567Y4778D01*
X12569Y4778D01*
X12571Y4777D01*
X12576Y4777D01*
X12671Y4777D01*
X12729Y4718D01*
X12730Y4718D01*
X12731Y4717D01*
X12734Y4715D01*
X12737Y4713D01*
X12738Y4713D01*
X12739Y4712D01*
X12743Y4711D01*
X12746Y4710D01*
X12747Y4710D01*
X12748Y4710D01*
X12752Y4710D01*
X12756Y4711D01*
X12757Y4711D01*
X12758Y4711D01*
X12761Y4713D01*
X12765Y4714D01*
X12766Y4715D01*
X12767Y4715D01*
X12771Y4718D01*
X12829Y4777D01*
X13040Y4777D01*
X13041Y4777D01*
X13042Y4777D01*
X13046Y4778D01*
X13049Y4778D01*
X13050Y4779D01*
X13051Y4779D01*
X13055Y4781D01*
X13058Y4783D01*
X13059Y4784D01*
X13062Y4787D01*
X13064Y4790D01*
X13065Y4791D01*
X13065Y4792D01*
X13067Y4795D01*
X13068Y4799D01*
X13068Y4800D01*
X13069Y4801D01*
X13069Y4806D01*
X13069Y5361D01*
X13069Y5365D01*
X13068Y5369D01*
X13068Y5370D01*
X13066Y5374D01*
X13064Y5377D01*
X13063Y5378D01*
X13063Y5379D01*
X13061Y5381D01*
X13017Y5425D01*
X12970Y5538D01*
X12970Y5662D01*
X13017Y5775D01*
X13105Y5863D01*
X13218Y5910D01*
X13342Y5910D01*
X13455Y5863D01*
X13543Y5775D01*
X13590Y5662D01*
X13590Y5538D01*
X13543Y5425D01*
X13499Y5381D01*
X13497Y5378D01*
X13495Y5375D01*
X13494Y5374D01*
X13493Y5370D01*
X13491Y5366D01*
X13491Y5365D01*
X13491Y5364D01*
X13491Y5361D01*
X13491Y4806D01*
X13491Y4805D01*
X13491Y4804D01*
X13492Y4800D01*
X13492Y4797D01*
X13493Y4796D01*
X13493Y4795D01*
X13495Y4792D01*
X13497Y4788D01*
X13498Y4788D01*
X13498Y4787D01*
X13501Y4784D01*
X13504Y4782D01*
X13505Y4781D01*
X13506Y4781D01*
X13509Y4779D01*
X13513Y4778D01*
X13514Y4778D01*
X13515Y4777D01*
X13520Y4777D01*
X13671Y4777D01*
X13765Y4683D01*
X13765Y3920D01*
X13671Y3825D01*
X13619Y3825D01*
X13618Y3825D01*
X13617Y3825D01*
X13613Y3825D01*
X13609Y3824D01*
X13609Y3823D01*
X13607Y3823D01*
X13604Y3821D01*
X13601Y3819D01*
X13600Y3819D01*
X13599Y3818D01*
X13597Y3815D01*
X13595Y3812D01*
X13594Y3811D01*
X13593Y3811D01*
X13592Y3807D01*
X13591Y3804D01*
X13591Y3803D01*
X13590Y3802D01*
X13590Y3796D01*
X13590Y3704D01*
X13590Y3703D01*
X13590Y3702D01*
X13591Y3698D01*
X13591Y3694D01*
X13592Y3693D01*
X13592Y3692D01*
X13594Y3689D01*
X13596Y3686D01*
X13597Y3685D01*
X13597Y3684D01*
X13600Y3682D01*
X13603Y3679D01*
X13604Y3679D01*
X13605Y3678D01*
X13608Y3677D01*
X13611Y3675D01*
X13613Y3675D01*
X13614Y3675D01*
X13619Y3675D01*
X13671Y3675D01*
X13765Y3580D01*
X13765Y2817D01*
X13671Y2723D01*
X13520Y2723D01*
X13519Y2723D01*
X13518Y2723D01*
X13514Y2722D01*
X13511Y2722D01*
X13510Y2721D01*
X13509Y2721D01*
X13505Y2719D01*
X13502Y2717D01*
X13501Y2716D01*
X13498Y2713D01*
X13496Y2710D01*
X13495Y2709D01*
X13495Y2708D01*
X13493Y2705D01*
X13492Y2701D01*
X13492Y2700D01*
X13491Y2699D01*
X13491Y2694D01*
X13491Y2079D01*
X13491Y2075D01*
X13492Y2071D01*
X13492Y2070D01*
X13494Y2066D01*
X13496Y2063D01*
X13497Y2062D01*
X13497Y2061D01*
X13499Y2059D01*
X13543Y2015D01*
X13590Y1902D01*
X13590Y1778D01*
X13543Y1665D01*
X13455Y1577D01*
X13342Y1530D01*
X13218Y1530D01*
X13105Y1577D01*
X13017Y1665D01*
X12970Y1778D01*
X12970Y1902D01*
X13017Y2015D01*
X13061Y2059D01*
X13063Y2062D01*
X13065Y2065D01*
X13066Y2066D01*
X13067Y2070D01*
X13069Y2074D01*
X13069Y2075D01*
X13069Y2076D01*
X13069Y2079D01*
X13069Y2694D01*
X13069Y2695D01*
X13069Y2696D01*
X13068Y2700D01*
X13068Y2703D01*
X13067Y2704D01*
X13067Y2705D01*
X13065Y2708D01*
X13063Y2712D01*
X13062Y2712D01*
X13062Y2713D01*
X13059Y2716D01*
X13056Y2718D01*
X13055Y2719D01*
X13054Y2719D01*
X13051Y2721D01*
X13047Y2722D01*
X13046Y2722D01*
X13045Y2723D01*
X13040Y2723D01*
X12829Y2723D01*
X12771Y2782D01*
X12770Y2782D01*
X12769Y2783D01*
X12766Y2785D01*
X12763Y2787D01*
X12762Y2787D01*
X12761Y2788D01*
X12757Y2789D01*
X12754Y2790D01*
X12753Y2790D01*
X12752Y2790D01*
X12748Y2790D01*
X12744Y2789D01*
X12743Y2789D01*
X12742Y2789D01*
X12739Y2787D01*
X12735Y2786D01*
X12734Y2785D01*
X12733Y2785D01*
X12729Y2782D01*
X12671Y2723D01*
X11829Y2723D01*
X11735Y2817D01*
X11735Y3580D01*
X11829Y3675D01*
X12671Y3675D01*
X12729Y3616D01*
X12730Y3616D01*
X12731Y3615D01*
X12734Y3613D01*
X12737Y3611D01*
X12738Y3610D01*
X12739Y3610D01*
X12743Y3609D01*
X12746Y3608D01*
X12747Y3608D01*
X12748Y3608D01*
X12752Y3608D01*
X12756Y3608D01*
X12757Y3609D01*
X12758Y3609D01*
X12761Y3610D01*
X12765Y3612D01*
X12766Y3612D01*
X12767Y3613D01*
X12771Y3616D01*
X12829Y3675D01*
X12941Y3675D01*
X12942Y3675D01*
X12943Y3675D01*
X12947Y3675D01*
X12951Y3676D01*
X12951Y3677D01*
X12953Y3677D01*
X12956Y3679D01*
X12959Y3681D01*
X12960Y3681D01*
X12961Y3682D01*
X12963Y3685D01*
X12965Y3688D01*
X12966Y3689D01*
X12967Y3689D01*
X12968Y3693D01*
X12969Y3696D01*
X12969Y3697D01*
X12970Y3698D01*
X12970Y3704D01*
X12970Y3796D01*
X12970Y3797D01*
X12970Y3798D01*
X12969Y3802D01*
X12969Y3806D01*
X12968Y3807D01*
X12968Y3808D01*
X12966Y3811D01*
X12964Y3814D01*
X12963Y3815D01*
X12963Y3816D01*
X12960Y3818D01*
X12957Y3821D01*
X12956Y3821D01*
X12955Y3822D01*
X12952Y3823D01*
X12949Y3825D01*
X12947Y3825D01*
X12946Y3825D01*
X12941Y3825D01*
X12829Y3825D01*
X12771Y3884D01*
X12770Y3884D01*
X12769Y3885D01*
X12766Y3887D01*
X12763Y3889D01*
X12762Y3890D01*
X12761Y3890D01*
X12757Y3891D01*
X12754Y3892D01*
X12753Y3892D01*
X12752Y3892D01*
X12748Y3892D01*
X12744Y3892D01*
X12743Y3891D01*
X12742Y3891D01*
X12739Y3890D01*
X12735Y3888D01*
X12734Y3888D01*
X12733Y3887D01*
X12729Y3884D01*
X12671Y3825D01*
X11829Y3825D01*
X11735Y3920D01*
X11735Y4675D01*
X11734Y4679D01*
X11734Y4683D01*
X11733Y4684D01*
X11731Y4688D01*
X11730Y4691D01*
X11729Y4692D01*
X11729Y4693D01*
X11728Y4693D01*
X11726Y4696D01*
X10900Y5522D01*
X10897Y5524D01*
X10894Y5527D01*
X10893Y5527D01*
X10892Y5527D01*
X10889Y5528D01*
X10885Y5530D01*
X10884Y5530D01*
X10883Y5530D01*
X10882Y5530D01*
X10879Y5530D01*
X10818Y5530D01*
X10705Y5577D01*
X10617Y5665D01*
X10570Y5778D01*
X10570Y5902D01*
X10617Y6015D01*
X10691Y6089D01*
X10692Y6090D01*
X10693Y6091D01*
X10695Y6094D01*
X10697Y6097D01*
X10697Y6098D01*
X10698Y6099D01*
X10699Y6103D01*
X10700Y6106D01*
X10700Y6107D01*
X10700Y6108D01*
X10699Y6112D01*
X10699Y6116D01*
X10699Y6117D01*
X10699Y6118D01*
X10697Y6121D01*
X10696Y6125D01*
X10695Y6125D01*
X10695Y6126D01*
X10691Y6131D01*
X10461Y6361D01*
X10429Y6438D01*
X10429Y6641D01*
X10429Y6644D01*
X10429Y6647D01*
X10428Y6648D01*
X10428Y6650D01*
X10426Y6653D01*
X10425Y6655D01*
X10424Y6657D01*
X10423Y6659D01*
X10421Y6661D01*
X10419Y6663D01*
X10418Y6664D01*
X10416Y6665D01*
X10413Y6666D01*
X10411Y6668D01*
X10409Y6668D01*
X10407Y6669D01*
X10405Y6669D01*
X10402Y6670D01*
X10400Y6670D01*
X10398Y6670D01*
X10395Y6669D01*
X10392Y6669D01*
X10390Y6668D01*
X10389Y6668D01*
X10386Y6666D01*
X10383Y6665D01*
X10381Y6663D01*
X10380Y6662D01*
X10379Y6661D01*
X10377Y6658D01*
X10375Y6655D01*
X10374Y6654D01*
X10373Y6650D01*
X10371Y6646D01*
X10371Y6645D01*
X10371Y6644D01*
X10371Y6641D01*
X10371Y5779D01*
X10371Y5776D01*
X10372Y5772D01*
X10372Y5771D01*
X10372Y5770D01*
X10374Y5766D01*
X10376Y5763D01*
X10377Y5762D01*
X10377Y5761D01*
X10379Y5759D01*
X11555Y4583D01*
X11619Y4519D01*
X11651Y4442D01*
X11651Y2278D01*
X11619Y2201D01*
X10509Y1091D01*
X10432Y1059D01*
X8740Y1059D01*
X8739Y1059D01*
X8738Y1059D01*
X8734Y1058D01*
X8731Y1058D01*
X8730Y1057D01*
X8729Y1057D01*
X8725Y1055D01*
X8722Y1053D01*
X8721Y1052D01*
X8718Y1049D01*
X8716Y1046D01*
X8715Y1045D01*
X8715Y1044D01*
X8713Y1041D01*
X8712Y1037D01*
X8712Y1036D01*
X8711Y1035D01*
X8711Y1030D01*
X8711Y608D01*
X8642Y441D01*
X8641Y439D01*
X8640Y437D01*
X8640Y435D01*
X8639Y432D01*
X8640Y430D01*
X8639Y428D01*
X8640Y425D01*
X8640Y422D01*
X8641Y421D01*
X8642Y419D01*
X8643Y416D01*
X8644Y414D01*
X8646Y412D01*
X8647Y411D01*
X8649Y409D01*
X8651Y407D01*
X8653Y406D01*
X8654Y405D01*
X8657Y404D01*
X8659Y402D01*
X8661Y402D01*
X8663Y401D01*
X8669Y401D01*
X14570Y401D01*
X14571Y401D01*
X14572Y401D01*
X14576Y402D01*
X14579Y402D01*
X14580Y403D01*
X14581Y403D01*
X14585Y405D01*
X14588Y407D01*
X14589Y408D01*
X14592Y411D01*
X14594Y414D01*
X14595Y415D01*
X14595Y416D01*
X14597Y419D01*
X14598Y423D01*
X14598Y424D01*
X14599Y425D01*
X14599Y430D01*
X14599Y17070D01*
X14599Y17071D01*
X14599Y17072D01*
X14598Y17076D01*
X14598Y17079D01*
X14597Y17080D01*
X14597Y17081D01*
X14595Y17085D01*
X14593Y17088D01*
X14592Y17089D01*
X14589Y17092D01*
X14586Y17094D01*
X14585Y17095D01*
X14584Y17095D01*
X14581Y17097D01*
X14577Y17098D01*
X14576Y17098D01*
X14575Y17099D01*
X14570Y17099D01*
X430Y17099D01*
X429Y17099D01*
X428Y17099D01*
X424Y17098D01*
X421Y17098D01*
X420Y17097D01*
X419Y17097D01*
X415Y17095D01*
X412Y17093D01*
X411Y17092D01*
X408Y17089D01*
X406Y17086D01*
X405Y17085D01*
X405Y17084D01*
X403Y17081D01*
X402Y17077D01*
X402Y17076D01*
X401Y17075D01*
X401Y17070D01*
X401Y4318D01*
X401Y4316D01*
X401Y4314D01*
X402Y4311D01*
X402Y4308D01*
X403Y4306D01*
X404Y4304D01*
X406Y4302D01*
X407Y4300D01*
X408Y4298D01*
X409Y4297D01*
X412Y4295D01*
X414Y4293D01*
X416Y4292D01*
X417Y4291D01*
X420Y4290D01*
X423Y4289D01*
X425Y4289D01*
X426Y4289D01*
X429Y4289D01*
X432Y4288D01*
X434Y4289D01*
X436Y4289D01*
X441Y4291D01*
X487Y4310D01*
X610Y4310D01*
X724Y4263D01*
X811Y4175D01*
X858Y4063D01*
X860Y4060D01*
X861Y4057D01*
X863Y4055D01*
X864Y4054D01*
X864Y4053D01*
X1073Y3844D01*
X1077Y3842D01*
X1080Y3840D01*
X1080Y3839D01*
X1081Y3839D01*
X1085Y3838D01*
X1089Y3836D01*
X1090Y3836D01*
X1091Y3836D01*
X1094Y3836D01*
X1817Y3836D01*
X1911Y3742D01*
X1911Y2608D01*
X1817Y2514D01*
X683Y2514D01*
X589Y2608D01*
X589Y3579D01*
X589Y3583D01*
X588Y3587D01*
X588Y3588D01*
X586Y3592D01*
X584Y3595D01*
X583Y3596D01*
X583Y3597D01*
X581Y3599D01*
X496Y3684D01*
X493Y3686D01*
X491Y3688D01*
X489Y3690D01*
X488Y3690D01*
X487Y3690D01*
X486Y3691D01*
X441Y3709D01*
X439Y3710D01*
X437Y3711D01*
X435Y3711D01*
X432Y3712D01*
X430Y3711D01*
X428Y3712D01*
X425Y3711D01*
X422Y3711D01*
X421Y3710D01*
X419Y3709D01*
X416Y3708D01*
X414Y3707D01*
X412Y3705D01*
X411Y3704D01*
X409Y3702D01*
X407Y3700D01*
X406Y3698D01*
X405Y3697D01*
X404Y3694D01*
X402Y3692D01*
X402Y3690D01*
X401Y3688D01*
X401Y3682D01*
X401Y866D01*
X401Y864D01*
X401Y863D01*
X402Y860D01*
X402Y857D01*
X403Y855D01*
X404Y853D01*
X406Y851D01*
X407Y849D01*
X408Y847D01*
X409Y846D01*
X412Y844D01*
X414Y842D01*
X416Y841D01*
X417Y840D01*
X420Y839D01*
X423Y838D01*
X425Y838D01*
X426Y837D01*
X429Y838D01*
X432Y837D01*
X434Y838D01*
X436Y838D01*
X441Y839D01*
X486Y858D01*
X489Y860D01*
X492Y861D01*
X494Y863D01*
X495Y864D01*
X496Y864D01*
X581Y949D01*
X583Y953D01*
X585Y956D01*
X586Y957D01*
X587Y961D01*
X589Y965D01*
X589Y966D01*
X589Y967D01*
X589Y970D01*
X589Y1892D01*
X683Y1986D01*
X1817Y1986D01*
X1911Y1892D01*
X1911Y758D01*
X1817Y664D01*
X1045Y664D01*
X1041Y664D01*
X1037Y663D01*
X1036Y663D01*
X1032Y661D01*
X1029Y659D01*
X1028Y658D01*
X1027Y658D01*
X1027Y657D01*
X1024Y656D01*
X864Y496D01*
X863Y493D01*
X861Y491D01*
X859Y489D01*
X859Y488D01*
X859Y487D01*
X858Y486D01*
X839Y441D01*
X839Y439D01*
X838Y437D01*
X838Y435D01*
X837Y432D01*
X837Y430D01*
X837Y428D01*
X838Y425D01*
X838Y422D01*
X839Y421D01*
X840Y419D01*
X841Y416D01*
X842Y414D01*
X844Y412D01*
X845Y411D01*
X847Y409D01*
X849Y407D01*
X851Y406D01*
X852Y405D01*
X855Y404D01*
X857Y402D01*
X859Y402D01*
X861Y401D01*
X866Y401D01*
X4831Y401D01*
X4833Y401D01*
G37*
G36*
X8944Y8931D02*
X8944Y8931D01*
X8948Y8932D01*
X8949Y8932D01*
X8950Y8932D01*
X8954Y8934D01*
X8957Y8936D01*
X8958Y8937D01*
X8959Y8937D01*
X8961Y8939D01*
X9068Y9046D01*
X9069Y9047D01*
X9071Y9050D01*
X9073Y9053D01*
X9073Y9054D01*
X9074Y9055D01*
X9075Y9059D01*
X9076Y9063D01*
X9076Y9064D01*
X9076Y9065D01*
X9076Y9068D01*
X9076Y9072D01*
X9075Y9072D01*
X9075Y9921D01*
X9170Y10015D01*
X9181Y10015D01*
X9182Y10015D01*
X9183Y10015D01*
X9187Y10016D01*
X9191Y10017D01*
X9193Y10017D01*
X9196Y10019D01*
X9199Y10021D01*
X9200Y10022D01*
X9201Y10023D01*
X9203Y10025D01*
X9205Y10028D01*
X9206Y10029D01*
X9207Y10030D01*
X9208Y10033D01*
X9209Y10037D01*
X9209Y10038D01*
X9210Y10039D01*
X9210Y10044D01*
X9210Y10142D01*
X9257Y10255D01*
X9301Y10299D01*
X9303Y10302D01*
X9305Y10305D01*
X9306Y10306D01*
X9307Y10310D01*
X9309Y10314D01*
X9309Y10315D01*
X9309Y10316D01*
X9309Y10319D01*
X9309Y10861D01*
X9309Y10865D01*
X9308Y10868D01*
X9308Y10869D01*
X9308Y10870D01*
X9306Y10874D01*
X9304Y10877D01*
X9303Y10878D01*
X9303Y10879D01*
X9301Y10881D01*
X9181Y11001D01*
X9149Y11078D01*
X9149Y11194D01*
X9149Y11195D01*
X9149Y11196D01*
X9148Y11200D01*
X9148Y11203D01*
X9147Y11204D01*
X9147Y11205D01*
X9145Y11208D01*
X9143Y11212D01*
X9142Y11212D01*
X9142Y11213D01*
X9139Y11216D01*
X9136Y11218D01*
X9135Y11219D01*
X9134Y11219D01*
X9131Y11221D01*
X9127Y11222D01*
X9126Y11222D01*
X9125Y11223D01*
X9120Y11223D01*
X8829Y11223D01*
X8735Y11317D01*
X8735Y12080D01*
X8829Y12175D01*
X9671Y12175D01*
X9765Y12080D01*
X9765Y11317D01*
X9671Y11223D01*
X9626Y11223D01*
X9623Y11223D01*
X9620Y11223D01*
X9618Y11222D01*
X9616Y11222D01*
X9614Y11220D01*
X9611Y11219D01*
X9609Y11218D01*
X9608Y11217D01*
X9606Y11215D01*
X9603Y11213D01*
X9602Y11211D01*
X9601Y11210D01*
X9600Y11207D01*
X9598Y11205D01*
X9598Y11203D01*
X9597Y11201D01*
X9597Y11198D01*
X9596Y11196D01*
X9597Y11194D01*
X9596Y11192D01*
X9597Y11189D01*
X9597Y11186D01*
X9598Y11184D01*
X9599Y11182D01*
X9600Y11180D01*
X9601Y11177D01*
X9603Y11175D01*
X9604Y11174D01*
X9605Y11173D01*
X9699Y11079D01*
X9731Y11002D01*
X9731Y10389D01*
X9731Y10386D01*
X9731Y10383D01*
X9732Y10382D01*
X9732Y10380D01*
X9734Y10377D01*
X9735Y10375D01*
X9736Y10373D01*
X9737Y10371D01*
X9739Y10369D01*
X9741Y10367D01*
X9742Y10366D01*
X9744Y10365D01*
X9747Y10364D01*
X9749Y10362D01*
X9751Y10362D01*
X9753Y10361D01*
X9755Y10361D01*
X9758Y10360D01*
X9760Y10360D01*
X9762Y10360D01*
X9765Y10361D01*
X9768Y10361D01*
X9770Y10362D01*
X9771Y10362D01*
X9774Y10364D01*
X9777Y10365D01*
X9779Y10367D01*
X9780Y10368D01*
X9781Y10369D01*
X9825Y10413D01*
X9938Y10460D01*
X10062Y10460D01*
X10175Y10413D01*
X10263Y10325D01*
X10293Y10252D01*
X10295Y10249D01*
X10297Y10245D01*
X10298Y10245D01*
X10298Y10244D01*
X10301Y10241D01*
X10304Y10239D01*
X10305Y10238D01*
X10309Y10236D01*
X10313Y10235D01*
X10314Y10235D01*
X10314Y10234D01*
X10318Y10234D01*
X10322Y10234D01*
X10323Y10234D01*
X10324Y10234D01*
X10328Y10235D01*
X10331Y10236D01*
X10332Y10237D01*
X10333Y10237D01*
X10336Y10239D01*
X10339Y10241D01*
X10340Y10242D01*
X10341Y10243D01*
X10343Y10246D01*
X10345Y10249D01*
X10346Y10250D01*
X10347Y10254D01*
X10349Y10258D01*
X10349Y10259D01*
X10349Y10260D01*
X10349Y10263D01*
X10349Y12444D01*
X10349Y12445D01*
X10349Y12446D01*
X10348Y12450D01*
X10348Y12453D01*
X10347Y12454D01*
X10347Y12455D01*
X10345Y12458D01*
X10343Y12462D01*
X10342Y12462D01*
X10342Y12463D01*
X10339Y12466D01*
X10336Y12468D01*
X10335Y12469D01*
X10334Y12469D01*
X10332Y12470D01*
X10235Y12567D01*
X10235Y13330D01*
X10329Y13425D01*
X11059Y13425D01*
X11064Y13425D01*
X11069Y13426D01*
X11073Y13428D01*
X11077Y13431D01*
X11080Y13434D01*
X11083Y13438D01*
X11084Y13438D01*
X11086Y13443D01*
X11101Y13479D01*
X11122Y13500D01*
X11124Y13503D01*
X11127Y13506D01*
X11127Y13507D01*
X11127Y13508D01*
X11128Y13511D01*
X11130Y13515D01*
X11130Y13516D01*
X11130Y13517D01*
X11130Y13518D01*
X11130Y13521D01*
X11130Y13546D01*
X11130Y13547D01*
X11130Y13548D01*
X11129Y13552D01*
X11129Y13556D01*
X11128Y13557D01*
X11128Y13558D01*
X11126Y13561D01*
X11124Y13564D01*
X11123Y13565D01*
X11123Y13566D01*
X11120Y13568D01*
X11117Y13571D01*
X11116Y13571D01*
X11115Y13572D01*
X11112Y13573D01*
X11109Y13575D01*
X11107Y13575D01*
X11106Y13575D01*
X11101Y13575D01*
X10329Y13575D01*
X10235Y13670D01*
X10235Y14433D01*
X10329Y14527D01*
X10405Y14527D01*
X10407Y14527D01*
X10410Y14527D01*
X10412Y14528D01*
X10414Y14528D01*
X10417Y14530D01*
X10419Y14531D01*
X10421Y14532D01*
X10422Y14533D01*
X10424Y14535D01*
X10427Y14537D01*
X10428Y14539D01*
X10429Y14540D01*
X10430Y14543D01*
X10432Y14545D01*
X10432Y14547D01*
X10433Y14549D01*
X10433Y14552D01*
X10434Y14554D01*
X10434Y14556D01*
X10434Y14558D01*
X10433Y14561D01*
X10433Y14564D01*
X10432Y14566D01*
X10432Y14568D01*
X10430Y14570D01*
X10429Y14573D01*
X10427Y14575D01*
X10426Y14576D01*
X10425Y14577D01*
X10377Y14625D01*
X10330Y14738D01*
X10330Y14842D01*
X10330Y14845D01*
X10330Y14848D01*
X10329Y14849D01*
X10329Y14851D01*
X10327Y14854D01*
X10326Y14856D01*
X10325Y14858D01*
X10324Y14860D01*
X10322Y14862D01*
X10320Y14864D01*
X10319Y14865D01*
X10317Y14866D01*
X10315Y14867D01*
X10312Y14869D01*
X10310Y14869D01*
X10309Y14870D01*
X10306Y14870D01*
X10303Y14871D01*
X10301Y14871D01*
X10299Y14871D01*
X10296Y14870D01*
X10293Y14870D01*
X10292Y14869D01*
X10290Y14869D01*
X10287Y14867D01*
X10285Y14866D01*
X10282Y14864D01*
X10281Y14863D01*
X10280Y14862D01*
X8743Y13325D01*
X8119Y12701D01*
X8042Y12669D01*
X7794Y12669D01*
X7793Y12669D01*
X7792Y12669D01*
X7789Y12668D01*
X7785Y12668D01*
X7784Y12667D01*
X7783Y12667D01*
X7780Y12665D01*
X7776Y12663D01*
X7776Y12662D01*
X7775Y12662D01*
X7773Y12659D01*
X7770Y12656D01*
X7770Y12655D01*
X7769Y12654D01*
X7768Y12651D01*
X7766Y12647D01*
X7766Y12646D01*
X7766Y12645D01*
X7765Y12640D01*
X7765Y12514D01*
X7766Y12511D01*
X7766Y12508D01*
X7766Y12506D01*
X7767Y12504D01*
X7768Y12502D01*
X7769Y12499D01*
X7770Y12497D01*
X7771Y12496D01*
X7773Y12494D01*
X7775Y12491D01*
X7777Y12491D01*
X7778Y12489D01*
X7781Y12488D01*
X7783Y12486D01*
X7785Y12486D01*
X7787Y12485D01*
X7790Y12485D01*
X7793Y12484D01*
X7795Y12485D01*
X7796Y12484D01*
X7799Y12485D01*
X7802Y12485D01*
X7804Y12486D01*
X7806Y12487D01*
X7808Y12488D01*
X7811Y12489D01*
X7813Y12491D01*
X7814Y12492D01*
X7815Y12493D01*
X7825Y12503D01*
X7938Y12550D01*
X8062Y12550D01*
X8175Y12503D01*
X8219Y12459D01*
X8222Y12457D01*
X8225Y12455D01*
X8226Y12454D01*
X8230Y12453D01*
X8234Y12451D01*
X8235Y12451D01*
X8236Y12451D01*
X8239Y12451D01*
X8301Y12451D01*
X8304Y12451D01*
X8308Y12452D01*
X8309Y12452D01*
X8310Y12452D01*
X8314Y12454D01*
X8317Y12456D01*
X8318Y12457D01*
X8319Y12457D01*
X8319Y12458D01*
X8321Y12459D01*
X8726Y12864D01*
X8729Y12868D01*
X8731Y12871D01*
X8732Y12872D01*
X8733Y12876D01*
X8734Y12880D01*
X8735Y12881D01*
X8735Y12882D01*
X8735Y12885D01*
X8735Y13183D01*
X8829Y13277D01*
X9671Y13277D01*
X9765Y13183D01*
X9765Y12420D01*
X9671Y12325D01*
X8829Y12325D01*
X8827Y12328D01*
X8826Y12328D01*
X8825Y12329D01*
X8822Y12331D01*
X8819Y12333D01*
X8818Y12333D01*
X8817Y12334D01*
X8814Y12335D01*
X8810Y12336D01*
X8809Y12336D01*
X8808Y12336D01*
X8804Y12336D01*
X8800Y12336D01*
X8799Y12335D01*
X8798Y12335D01*
X8795Y12333D01*
X8792Y12332D01*
X8791Y12331D01*
X8790Y12331D01*
X8786Y12328D01*
X8619Y12161D01*
X8617Y12158D01*
X8615Y12155D01*
X8614Y12154D01*
X8614Y12153D01*
X8613Y12150D01*
X8611Y12146D01*
X8611Y12145D01*
X8611Y12144D01*
X8611Y12141D01*
X8611Y11478D01*
X8579Y11401D01*
X7479Y10301D01*
X7402Y10269D01*
X6799Y10269D01*
X6795Y10269D01*
X6791Y10268D01*
X6790Y10268D01*
X6786Y10266D01*
X6783Y10264D01*
X6782Y10263D01*
X6781Y10263D01*
X6779Y10261D01*
X6749Y10231D01*
X6748Y10230D01*
X6747Y10229D01*
X6745Y10226D01*
X6743Y10223D01*
X6743Y10222D01*
X6742Y10221D01*
X6741Y10217D01*
X6740Y10214D01*
X6740Y10213D01*
X6740Y10212D01*
X6741Y10208D01*
X6741Y10204D01*
X6741Y10203D01*
X6741Y10202D01*
X6743Y10199D01*
X6744Y10195D01*
X6745Y10194D01*
X6749Y10189D01*
X7999Y8939D01*
X8002Y8937D01*
X8005Y8935D01*
X8006Y8934D01*
X8007Y8934D01*
X8010Y8933D01*
X8014Y8931D01*
X8015Y8931D01*
X8016Y8931D01*
X8019Y8931D01*
X8941Y8931D01*
X8944Y8931D01*
G37*
%LPC*%
G36*
X858Y12539D02*
X858Y12539D01*
X689Y12609D01*
X559Y12739D01*
X489Y12908D01*
X489Y13092D01*
X559Y13261D01*
X689Y13391D01*
X858Y13461D01*
X1642Y13461D01*
X1730Y13424D01*
X1732Y13424D01*
X1734Y13423D01*
X1736Y13423D01*
X1739Y13422D01*
X1741Y13422D01*
X1743Y13422D01*
X1746Y13423D01*
X1749Y13423D01*
X1751Y13424D01*
X1753Y13424D01*
X1755Y13426D01*
X1757Y13427D01*
X1759Y13428D01*
X1761Y13429D01*
X1762Y13432D01*
X1764Y13434D01*
X1765Y13435D01*
X1767Y13437D01*
X1768Y13439D01*
X1769Y13442D01*
X1769Y13444D01*
X1770Y13446D01*
X1770Y13451D01*
X1770Y13502D01*
X1789Y13546D01*
X1789Y13549D01*
X1791Y13552D01*
X1791Y13554D01*
X1791Y13555D01*
X1791Y13558D01*
X1791Y13561D01*
X1790Y13563D01*
X1790Y13565D01*
X1789Y13568D01*
X1788Y13570D01*
X1787Y13572D01*
X1786Y13574D01*
X1784Y13576D01*
X1782Y13578D01*
X1781Y13579D01*
X1779Y13581D01*
X1777Y13582D01*
X1774Y13584D01*
X1773Y13584D01*
X1771Y13585D01*
X1768Y13586D01*
X1765Y13586D01*
X1763Y13586D01*
X1762Y13587D01*
X1759Y13586D01*
X1756Y13586D01*
X1753Y13585D01*
X1752Y13585D01*
X1751Y13584D01*
X1642Y13539D01*
X858Y13539D01*
X689Y13609D01*
X559Y13739D01*
X489Y13908D01*
X489Y14092D01*
X559Y14261D01*
X689Y14391D01*
X858Y14461D01*
X1642Y14461D01*
X1811Y14391D01*
X1941Y14261D01*
X2011Y14092D01*
X2011Y13908D01*
X1957Y13778D01*
X1956Y13776D01*
X1956Y13775D01*
X1956Y13774D01*
X1955Y13773D01*
X1955Y13771D01*
X1955Y13769D01*
X1955Y13766D01*
X1955Y13763D01*
X1955Y13761D01*
X1956Y13759D01*
X1957Y13757D01*
X1958Y13754D01*
X1959Y13752D01*
X1960Y13751D01*
X1962Y13749D01*
X1963Y13746D01*
X1965Y13745D01*
X1966Y13744D01*
X1969Y13742D01*
X1971Y13741D01*
X1973Y13740D01*
X1975Y13739D01*
X1978Y13739D01*
X1980Y13738D01*
X1982Y13738D01*
X1984Y13738D01*
X1987Y13738D01*
X1990Y13738D01*
X1993Y13739D01*
X1994Y13739D01*
X1994Y13740D01*
X1995Y13740D01*
X2018Y13750D01*
X2079Y13750D01*
X2083Y13750D01*
X2087Y13751D01*
X2088Y13751D01*
X2089Y13751D01*
X2092Y13753D01*
X2096Y13755D01*
X2097Y13755D01*
X2097Y13756D01*
X2098Y13756D01*
X2100Y13758D01*
X2341Y13999D01*
X2343Y14002D01*
X2345Y14005D01*
X2346Y14006D01*
X2346Y14007D01*
X2347Y14010D01*
X2349Y14014D01*
X2349Y14015D01*
X2349Y14016D01*
X2349Y14019D01*
X2349Y15882D01*
X2381Y15959D01*
X2921Y16499D01*
X2998Y16531D01*
X9802Y16531D01*
X9879Y16499D01*
X10140Y16238D01*
X10143Y16236D01*
X10146Y16233D01*
X10147Y16233D01*
X10148Y16233D01*
X10151Y16232D01*
X10155Y16230D01*
X10156Y16230D01*
X10157Y16230D01*
X10158Y16230D01*
X10161Y16230D01*
X10222Y16230D01*
X10335Y16183D01*
X10423Y16095D01*
X10470Y15982D01*
X10470Y15858D01*
X10423Y15745D01*
X10335Y15657D01*
X10222Y15610D01*
X10098Y15610D01*
X9985Y15657D01*
X9897Y15745D01*
X9850Y15858D01*
X9850Y15919D01*
X9850Y15923D01*
X9849Y15927D01*
X9849Y15928D01*
X9849Y15929D01*
X9847Y15932D01*
X9845Y15936D01*
X9845Y15937D01*
X9844Y15937D01*
X9844Y15938D01*
X9842Y15940D01*
X9681Y16101D01*
X9678Y16103D01*
X9675Y16105D01*
X9674Y16106D01*
X9673Y16106D01*
X9670Y16107D01*
X9666Y16109D01*
X9665Y16109D01*
X9664Y16109D01*
X9661Y16109D01*
X3139Y16109D01*
X3135Y16109D01*
X3132Y16108D01*
X3131Y16108D01*
X3130Y16108D01*
X3126Y16106D01*
X3123Y16104D01*
X3122Y16103D01*
X3121Y16103D01*
X3119Y16101D01*
X2779Y15761D01*
X2777Y15758D01*
X2775Y15755D01*
X2774Y15754D01*
X2774Y15753D01*
X2773Y15750D01*
X2771Y15746D01*
X2771Y15745D01*
X2771Y15744D01*
X2771Y15741D01*
X2771Y13878D01*
X2739Y13801D01*
X2675Y13737D01*
X2398Y13460D01*
X2396Y13457D01*
X2393Y13454D01*
X2393Y13453D01*
X2393Y13452D01*
X2392Y13449D01*
X2390Y13445D01*
X2390Y13444D01*
X2390Y13443D01*
X2390Y13442D01*
X2390Y13439D01*
X2390Y13378D01*
X2343Y13265D01*
X2255Y13177D01*
X2142Y13130D01*
X2038Y13130D01*
X2037Y13130D01*
X2035Y13130D01*
X2032Y13129D01*
X2029Y13129D01*
X2027Y13128D01*
X2025Y13127D01*
X2023Y13126D01*
X2021Y13124D01*
X2019Y13123D01*
X2018Y13122D01*
X2016Y13119D01*
X2014Y13117D01*
X2013Y13115D01*
X2012Y13114D01*
X2011Y13111D01*
X2010Y13109D01*
X2010Y13107D01*
X2009Y13105D01*
X2010Y13102D01*
X2009Y13099D01*
X2010Y13097D01*
X2010Y13095D01*
X2011Y13092D01*
X2011Y12908D01*
X1941Y12739D01*
X1811Y12609D01*
X1642Y12539D01*
X858Y12539D01*
G37*
%LPD*%
%LPC*%
G36*
X858Y14539D02*
X858Y14539D01*
X689Y14609D01*
X559Y14739D01*
X489Y14908D01*
X489Y15092D01*
X559Y15261D01*
X689Y15391D01*
X858Y15461D01*
X1642Y15461D01*
X1811Y15391D01*
X1941Y15261D01*
X2011Y15092D01*
X2011Y14908D01*
X1941Y14739D01*
X1811Y14609D01*
X1642Y14539D01*
X858Y14539D01*
G37*
%LPD*%
%LPC*%
G36*
X3309Y15309D02*
X3309Y15309D01*
X3309Y15946D01*
X3344Y15941D01*
X3404Y15921D01*
X3460Y15893D01*
X3511Y15856D01*
X3556Y15811D01*
X3593Y15760D01*
X3621Y15704D01*
X3641Y15644D01*
X3651Y15582D01*
X3651Y15309D01*
X3309Y15309D01*
G37*
%LPD*%
%LPC*%
G36*
X6309Y1059D02*
X6309Y1059D01*
X6309Y1696D01*
X6344Y1691D01*
X6404Y1671D01*
X6460Y1643D01*
X6511Y1606D01*
X6556Y1561D01*
X6593Y1510D01*
X6621Y1454D01*
X6641Y1394D01*
X6651Y1332D01*
X6651Y1059D01*
X6309Y1059D01*
G37*
%LPD*%
%LPC*%
G36*
X3309Y15191D02*
X3309Y15191D01*
X3651Y15191D01*
X3651Y14918D01*
X3641Y14856D01*
X3621Y14796D01*
X3593Y14740D01*
X3556Y14689D01*
X3511Y14644D01*
X3460Y14607D01*
X3404Y14579D01*
X3344Y14559D01*
X3309Y14554D01*
X3309Y15191D01*
G37*
%LPD*%
%LPC*%
G36*
X2849Y15309D02*
X2849Y15309D01*
X2849Y15582D01*
X2859Y15644D01*
X2879Y15704D01*
X2907Y15760D01*
X2944Y15811D01*
X2989Y15856D01*
X3040Y15893D01*
X3096Y15921D01*
X3156Y15941D01*
X3191Y15946D01*
X3191Y15309D01*
X2849Y15309D01*
G37*
%LPD*%
%LPC*%
G36*
X3156Y14559D02*
X3156Y14559D01*
X3096Y14579D01*
X3040Y14607D01*
X2989Y14644D01*
X2944Y14689D01*
X2907Y14740D01*
X2879Y14796D01*
X2859Y14856D01*
X2849Y14918D01*
X2849Y15191D01*
X3191Y15191D01*
X3191Y14554D01*
X3156Y14559D01*
G37*
%LPD*%
%LPC*%
G36*
X5849Y1059D02*
X5849Y1059D01*
X5849Y1332D01*
X5859Y1394D01*
X5879Y1454D01*
X5907Y1510D01*
X5944Y1561D01*
X5989Y1606D01*
X6040Y1643D01*
X6096Y1671D01*
X6156Y1691D01*
X6191Y1696D01*
X6191Y1059D01*
X5849Y1059D01*
G37*
%LPD*%
%LPC*%
G36*
X2969Y10009D02*
X2969Y10009D01*
X2969Y10444D01*
X3218Y10444D01*
X3244Y10438D01*
X3267Y10424D01*
X3285Y10406D01*
X3299Y10383D01*
X3305Y10357D01*
X3305Y10009D01*
X2969Y10009D01*
G37*
%LPD*%
%LPC*%
G36*
X2513Y10009D02*
X2513Y10009D01*
X2513Y10357D01*
X2520Y10383D01*
X2534Y10406D01*
X2552Y10424D01*
X2575Y10438D01*
X2601Y10444D01*
X2850Y10444D01*
X2850Y10009D01*
X2513Y10009D01*
G37*
%LPD*%
%LPC*%
G36*
X2969Y9456D02*
X2969Y9456D01*
X2969Y9891D01*
X3305Y9891D01*
X3305Y9543D01*
X3299Y9517D01*
X3285Y9494D01*
X3267Y9476D01*
X3244Y9462D01*
X3218Y9456D01*
X2969Y9456D01*
G37*
%LPD*%
%LPC*%
G36*
X8508Y9559D02*
X8508Y9559D01*
X8508Y9955D01*
X8777Y9955D01*
X8803Y9948D01*
X8826Y9935D01*
X8844Y9916D01*
X8858Y9893D01*
X8865Y9868D01*
X8865Y9559D01*
X8508Y9559D01*
G37*
%LPD*%
%LPC*%
G36*
X2658Y5809D02*
X2658Y5809D01*
X2658Y6205D01*
X2927Y6205D01*
X2953Y6198D01*
X2976Y6185D01*
X2994Y6166D01*
X3008Y6143D01*
X3015Y6118D01*
X3015Y5809D01*
X2658Y5809D01*
G37*
%LPD*%
%LPC*%
G36*
X8121Y9045D02*
X8121Y9045D01*
X8095Y9052D01*
X8072Y9065D01*
X8053Y9084D01*
X8040Y9107D01*
X8033Y9132D01*
X8033Y9441D01*
X8390Y9441D01*
X8390Y9045D01*
X8121Y9045D01*
G37*
%LPD*%
%LPC*%
G36*
X2271Y5295D02*
X2271Y5295D01*
X2245Y5302D01*
X2222Y5315D01*
X2203Y5334D01*
X2190Y5357D01*
X2183Y5382D01*
X2183Y5691D01*
X2540Y5691D01*
X2540Y5295D01*
X2271Y5295D01*
G37*
%LPD*%
%LPC*%
G36*
X8033Y9559D02*
X8033Y9559D01*
X8033Y9868D01*
X8040Y9893D01*
X8053Y9916D01*
X8072Y9935D01*
X8095Y9948D01*
X8121Y9955D01*
X8390Y9955D01*
X8390Y9559D01*
X8033Y9559D01*
G37*
%LPD*%
%LPC*%
G36*
X2183Y5809D02*
X2183Y5809D01*
X2183Y6118D01*
X2190Y6143D01*
X2203Y6166D01*
X2222Y6185D01*
X2245Y6198D01*
X2271Y6205D01*
X2540Y6205D01*
X2540Y5809D01*
X2183Y5809D01*
G37*
%LPD*%
%LPC*%
G36*
X8508Y9045D02*
X8508Y9045D01*
X8508Y9441D01*
X8865Y9441D01*
X8865Y9132D01*
X8858Y9107D01*
X8844Y9084D01*
X8826Y9065D01*
X8803Y9052D01*
X8777Y9045D01*
X8508Y9045D01*
G37*
%LPD*%
%LPC*%
G36*
X2658Y5295D02*
X2658Y5295D01*
X2658Y5691D01*
X3015Y5691D01*
X3015Y5382D01*
X3008Y5357D01*
X2994Y5334D01*
X2976Y5315D01*
X2953Y5302D01*
X2927Y5295D01*
X2658Y5295D01*
G37*
%LPD*%
%LPC*%
G36*
X3249Y15249D02*
X3249Y15249D01*
X3249Y15251D01*
X3251Y15251D01*
X3251Y15249D01*
X3249Y15249D01*
G37*
%LPD*%
%LPC*%
G36*
X2909Y9949D02*
X2909Y9949D01*
X2909Y9951D01*
X2910Y9951D01*
X2910Y9949D01*
X2909Y9949D01*
G37*
%LPD*%
%LPC*%
G36*
X8448Y9499D02*
X8448Y9499D01*
X8448Y9501D01*
X8450Y9501D01*
X8450Y9499D01*
X8448Y9499D01*
G37*
%LPD*%
%LPC*%
G36*
X2598Y5749D02*
X2598Y5749D01*
X2598Y5751D01*
X2600Y5751D01*
X2600Y5749D01*
X2598Y5749D01*
G37*
%LPD*%
D10*
X4091Y9950D03*
X2909Y9950D03*
D11*
X9551Y9500D03*
X8449Y9500D03*
D12*
X1550Y13000D02*
X950Y13000D01*
X950Y14000D02*
X1550Y14000D01*
X1550Y15000D02*
X950Y15000D01*
D13*
X13250Y3199D03*
X13250Y4301D03*
X12750Y14051D03*
X12750Y12949D03*
X13250Y9199D03*
X13250Y10301D03*
X11750Y14051D03*
X11750Y12949D03*
X7250Y12801D03*
X7250Y11699D03*
D11*
X3701Y5750D03*
X2599Y5750D03*
D13*
X9250Y12801D03*
X9250Y11699D03*
D11*
X9449Y2750D03*
X10551Y2750D03*
X10551Y4000D03*
X9449Y4000D03*
D13*
X10750Y14051D03*
X10750Y12949D03*
D11*
X11551Y9500D03*
X10449Y9500D03*
D13*
X3500Y11199D03*
X3500Y12301D03*
X5750Y6449D03*
X5750Y7551D03*
X12250Y3199D03*
X12250Y4301D03*
D14*
X1250Y3175D03*
X1250Y1325D03*
D12*
X5250Y14950D02*
X5250Y15550D01*
X4250Y15550D02*
X4250Y14950D01*
X3250Y14950D02*
X3250Y15550D01*
X5250Y1300D02*
X5250Y700D01*
X6250Y700D02*
X6250Y1300D01*
X7250Y1300D02*
X7250Y700D01*
X8250Y700D02*
X8250Y1300D01*
D15*
X11520Y8880D02*
X11520Y9440D01*
X11520Y8880D02*
X9040Y6400D01*
X8560Y6400D01*
X11520Y9440D02*
X11551Y9500D01*
D16*
X8560Y6400D03*
X4500Y2000D03*
D15*
X2599Y5750D02*
X2000Y5750D01*
X1600Y6150D01*
D16*
X1600Y6150D03*
X2350Y10500D03*
D15*
X2359Y10500D01*
X2909Y9950D01*
D16*
X5000Y6500D03*
D15*
X5000Y7034D01*
X4858Y7176D01*
D16*
X4858Y7176D03*
D15*
X8000Y9500D02*
X8449Y9500D01*
X8000Y9500D02*
X7500Y10000D01*
D16*
X7500Y10000D03*
D15*
X10160Y6880D02*
X10160Y5680D01*
X11440Y4400D01*
X11440Y2320D01*
X10390Y1270D01*
X8550Y1270D01*
X8320Y1040D01*
X8250Y1000D01*
D16*
X10160Y6880D03*
D15*
X9280Y6880D02*
X9280Y7040D01*
X9280Y6880D02*
X8960Y6560D01*
X8800Y6560D01*
X8640Y6720D01*
X8480Y6720D01*
X8240Y6480D01*
X8240Y4800D01*
X8960Y4080D01*
X8960Y3600D01*
X9040Y3520D01*
X9520Y3520D01*
X9920Y3120D01*
X9920Y2320D01*
X9680Y2080D01*
X7920Y2080D01*
X7520Y1680D01*
X7520Y1520D01*
X7280Y1280D01*
X7280Y1040D01*
X7250Y1000D01*
D16*
X9280Y7040D03*
D15*
X10000Y9949D02*
X10000Y10150D01*
X10000Y9949D02*
X10449Y9500D01*
X10000Y9949D02*
X9551Y9500D01*
D16*
X10000Y10150D03*
D15*
X5280Y14400D02*
X5280Y15200D01*
X5280Y14400D02*
X6000Y13680D01*
X6000Y10640D01*
X7920Y8720D01*
X9040Y8720D01*
X9520Y9200D01*
X9520Y9440D01*
X5280Y15200D02*
X5250Y15250D01*
X9551Y9500D02*
X9520Y9440D01*
X8560Y7440D02*
X7840Y7440D01*
X6160Y9120D01*
X4000Y9120D01*
X3680Y9440D01*
X3680Y10400D01*
X3360Y10720D01*
X3120Y10720D01*
X2640Y11200D01*
X2640Y13120D01*
X4240Y14720D01*
X4240Y15200D01*
X4250Y15250D01*
D16*
X8560Y7440D03*
D15*
X5680Y6720D02*
X5680Y6480D01*
X5680Y6720D02*
X5040Y7360D01*
X5040Y7440D01*
X4960Y7520D01*
X4960Y8080D01*
X5680Y6480D02*
X5750Y6449D01*
D16*
X4960Y8080D03*
D15*
X4160Y10000D02*
X4160Y10560D01*
X4480Y10880D01*
X4480Y12000D01*
X4960Y12480D01*
X4160Y10000D02*
X4091Y9950D01*
D16*
X4960Y12480D03*
D17*
X1250Y1325D02*
X1250Y1250D01*
X549Y549D01*
D16*
X549Y549D03*
D17*
X1250Y3175D02*
X1250Y3299D01*
X549Y4000D01*
D16*
X549Y4000D03*
D15*
X4640Y11600D02*
X4960Y11920D01*
X4640Y11600D02*
X4640Y10720D01*
X4880Y10480D01*
X4880Y9680D01*
D16*
X4960Y11920D03*
X4880Y9680D03*
D15*
X2080Y13440D02*
X2560Y13920D01*
X2560Y15840D01*
X3040Y16320D01*
X9760Y16320D01*
X10160Y15920D01*
X10720Y14720D02*
X10720Y14080D01*
X10720Y14720D02*
X10640Y14800D01*
X10720Y14080D02*
X10750Y14051D01*
D16*
X2080Y13440D03*
X10160Y15920D03*
X10640Y14800D03*
D15*
X3440Y11520D02*
X3440Y11200D01*
X3440Y11520D02*
X3200Y11760D01*
X3440Y11200D02*
X3500Y11199D01*
D16*
X3200Y11760D03*
D15*
X3701Y5750D02*
X4200Y5750D01*
X4450Y5500D01*
D16*
X4450Y5500D03*
D15*
X3701Y5750D02*
X4500Y6549D01*
X4500Y7059D01*
D16*
X4500Y7059D03*
X2100Y9750D03*
D15*
X4500Y7350D01*
X4500Y7059D01*
X4000Y8480D02*
X5280Y8480D01*
X5680Y8080D01*
X5680Y7600D01*
X5750Y7551D01*
X6800Y7040D02*
X6800Y5760D01*
X6800Y7040D02*
X6320Y7520D01*
X5760Y7520D01*
X5750Y7551D01*
D16*
X4000Y8480D03*
X6800Y5760D03*
D15*
X8880Y6880D02*
X8880Y7520D01*
X5280Y11120D01*
X5280Y11520D02*
X5280Y12560D01*
X5280Y11520D02*
X5280Y11120D01*
X5280Y12560D02*
X5040Y12800D01*
X4560Y12800D01*
X4080Y12320D01*
X3520Y12320D01*
X3500Y12301D01*
X4960Y11520D02*
X5280Y11520D01*
D16*
X8880Y6880D03*
X4960Y11520D03*
D15*
X7440Y7440D02*
X7440Y5760D01*
X7920Y5280D01*
D16*
X7440Y7440D03*
X7920Y5280D03*
D15*
X13280Y3120D02*
X13280Y1840D01*
X13280Y3120D02*
X13250Y3199D01*
X13200Y3200D02*
X12320Y3200D01*
X12250Y3199D01*
X13200Y3200D02*
X13250Y3199D01*
D16*
X13280Y1840D03*
D15*
X13280Y3760D02*
X13280Y4240D01*
X13250Y4301D01*
X13280Y4320D02*
X13280Y5600D01*
X13280Y4320D02*
X13250Y4301D01*
D16*
X13280Y3760D03*
X13280Y5600D03*
D15*
X13280Y7840D02*
X13280Y9120D01*
X13250Y9199D01*
X12960Y14000D02*
X12800Y14000D01*
X12960Y14000D02*
X13280Y13680D01*
X13280Y13600D01*
X13920Y12960D02*
X13920Y10960D01*
X14080Y10800D01*
X14080Y9520D01*
X13840Y9280D01*
X13360Y9280D01*
X13280Y9200D01*
X12800Y14000D02*
X12750Y14051D01*
X13250Y9199D02*
X13280Y9200D01*
D16*
X13280Y7840D03*
X13280Y13600D03*
X13920Y12960D03*
D15*
X12800Y15280D02*
X7840Y15280D01*
X12880Y15200D02*
X13600Y14480D01*
X12880Y15200D02*
X12800Y15280D01*
X13600Y14480D02*
X13600Y11120D01*
X13360Y10880D01*
X13360Y10400D01*
X13280Y10320D01*
X13250Y10301D01*
X12320Y14640D02*
X12880Y15200D01*
D16*
X7840Y15280D03*
X12320Y14640D03*
D15*
X8000Y12880D02*
X7280Y12880D01*
X8560Y13440D02*
X10240Y15120D01*
X8560Y13440D02*
X8000Y12880D01*
X10240Y15120D02*
X11120Y15120D01*
X11680Y14560D01*
X11680Y14080D01*
X7280Y12880D02*
X7250Y12801D01*
X11680Y14080D02*
X11750Y14051D01*
X8560Y13440D02*
X7840Y14160D01*
D16*
X7840Y14160D03*
D15*
X6320Y12240D02*
X6320Y12160D01*
X6640Y11840D01*
X7120Y11840D01*
X7200Y11760D01*
X7250Y11699D01*
D16*
X6320Y12240D03*
D15*
X6560Y10480D02*
X7360Y10480D01*
X8400Y11520D01*
X8400Y12240D01*
X8960Y12800D01*
X9200Y12800D01*
X9250Y12801D01*
X8400Y12240D02*
X8000Y12240D01*
D16*
X6560Y10480D03*
X8000Y12240D03*
D15*
X8960Y2800D02*
X9440Y2800D01*
X8960Y2800D02*
X8400Y3360D01*
X8400Y4080D01*
X9440Y2800D02*
X9449Y2750D01*
X6240Y8400D02*
X6080Y8400D01*
X6240Y8400D02*
X7120Y7520D01*
X7120Y5360D01*
X8400Y4080D01*
D16*
X8400Y4080D03*
X6080Y8400D03*
D15*
X10560Y4000D02*
X10560Y2800D01*
X10551Y2750D01*
X10720Y4160D02*
X11120Y4160D01*
X10720Y4160D02*
X10560Y4000D01*
X10551Y4000D01*
D16*
X11120Y4160D03*
D15*
X9520Y4000D02*
X9520Y6640D01*
X11520Y8640D01*
X12000Y8640D01*
X12320Y8960D01*
X12320Y11520D01*
X11280Y12560D01*
X11280Y13360D01*
X11440Y13520D01*
X9520Y4000D02*
X9449Y4000D01*
D16*
X11440Y13520D03*
D15*
X10640Y6880D02*
X10640Y6480D01*
X12240Y4880D01*
D16*
X10640Y6880D03*
X12240Y4880D03*
D15*
X12240Y4480D02*
X10880Y5840D01*
X12240Y4480D02*
X12240Y4320D01*
X12250Y4301D01*
D16*
X10880Y5840D03*
D15*
X11600Y8320D02*
X11920Y8320D01*
X12720Y9120D01*
X12720Y9440D01*
X12480Y9680D01*
X12480Y9840D01*
X12720Y10080D01*
X12720Y10640D01*
X13120Y11040D01*
X13120Y12160D01*
X12880Y12400D01*
X12880Y12800D01*
X12800Y12880D01*
X12750Y12949D01*
D16*
X11600Y8320D03*
D15*
X12640Y11040D02*
X12640Y11600D01*
X11840Y12400D01*
X11840Y12800D01*
X11760Y12880D01*
X11750Y12949D01*
D16*
X12640Y11040D03*
D15*
X9520Y10960D02*
X9520Y10080D01*
X9520Y10960D02*
X9360Y11120D01*
X9360Y11600D01*
X9280Y11680D01*
X9250Y11699D01*
D16*
X9520Y10080D03*
D15*
X10160Y8320D02*
X10160Y8160D01*
X10160Y8320D02*
X10880Y9040D01*
X10880Y9920D01*
X10560Y10240D01*
X10560Y12720D01*
X10720Y12880D01*
X10750Y12949D01*
D16*
X10160Y8160D03*
D18*
X15500Y18000D02*
X-500Y18000D01*
X15500Y18000D02*
X15500Y-500D01*
X-500Y-500D01*
X-500Y18000D01*
M02*
