M48
FMAT,2
INCH,TZ,000.000
T2C0.014
T1C0.040
%
G90
M72
T1
X825Y100
X125Y1500
X125Y1300
X125Y1400
X525Y1525
X425Y1525
X325Y1525
X525Y100
X625Y100
X725Y100
T2
X856Y744
X496Y808
X496Y1248
X55Y55
X55Y400
X496Y1192
X488Y968
X208Y1344
X1016Y1592
X1064Y1480
X320Y1176
X445Y550
X450Y706
X210Y975
X400Y848
X680Y576
X888Y688
X496Y1152
X744Y744
X792Y528
X1328Y184
X1016Y688
X1328Y560
X1328Y784
X1328Y1360
X1392Y1296
X784Y1528
X1232Y1464
X784Y1416
X632Y1224
X656Y1048
X800Y1224
X840Y408
X608Y840
X1112Y416
X1144Y1352
X1064Y688
X1224Y488
X856Y640
X1160Y832
X1264Y1104
X952Y1008
X1016Y816
X450Y200
X160Y615
X1328Y376
X235Y1050
X500Y650
X486Y718
X750Y1000
X928Y704
X1000Y1015
X1088Y584
M30