G04 EAGLE Gerber RS-274X export*
G75*
%MOIN*%
%FSLAX34Y34*%
%LPD*%
%INTop Copper*%
%IPPOS*%
%AMOC8*
5,1,8,0,0,1.08239X$1,22.5*%
G01*
%ADD10C,0.004000*%
%ADD11R,0.059055X0.078740*%
%ADD12R,0.078740X0.059055*%
%ADD13C,0.060000*%
%ADD14R,0.062992X0.070866*%
%ADD15R,0.070866X0.062992*%
%ADD16R,0.011811X0.047236*%
%ADD17R,0.025000X0.050000*%
%ADD18R,0.100000X0.100000*%
%ADD19R,0.050000X0.025000*%
%ADD20C,0.020000*%
%ADD21C,0.010000*%
%ADD22C,0.029780*%
%ADD23C,0.016000*%
%ADD24C,0.006000*%

G36*
X5915Y401D02*
X5915Y401D01*
X5916Y401D01*
X5920Y402D01*
X5924Y402D01*
X5925Y403D01*
X5929Y405D01*
X5933Y407D01*
X5934Y408D01*
X5936Y411D01*
X5939Y414D01*
X5940Y415D01*
X5941Y419D01*
X5943Y423D01*
X5943Y424D01*
X5943Y428D01*
X5944Y432D01*
X5944Y433D01*
X5943Y437D01*
X5942Y441D01*
X5941Y442D01*
X5941Y443D01*
X5938Y447D01*
X5907Y490D01*
X5879Y546D01*
X5859Y606D01*
X5849Y668D01*
X5849Y941D01*
X6220Y941D01*
X6221Y941D01*
X6222Y941D01*
X6226Y942D01*
X6229Y942D01*
X6230Y943D01*
X6231Y943D01*
X6235Y945D01*
X6238Y947D01*
X6239Y948D01*
X6242Y951D01*
X6244Y954D01*
X6245Y955D01*
X6245Y956D01*
X6247Y959D01*
X6248Y963D01*
X6248Y964D01*
X6249Y965D01*
X6249Y970D01*
X6249Y1001D01*
X6251Y1001D01*
X6251Y970D01*
X6251Y969D01*
X6251Y968D01*
X6252Y964D01*
X6252Y961D01*
X6253Y960D01*
X6253Y959D01*
X6255Y955D01*
X6257Y952D01*
X6258Y951D01*
X6261Y948D01*
X6264Y946D01*
X6265Y945D01*
X6266Y945D01*
X6269Y943D01*
X6273Y942D01*
X6274Y942D01*
X6275Y941D01*
X6280Y941D01*
X6651Y941D01*
X6651Y668D01*
X6641Y606D01*
X6621Y546D01*
X6593Y490D01*
X6562Y447D01*
X6561Y447D01*
X6561Y446D01*
X6559Y442D01*
X6557Y439D01*
X6557Y438D01*
X6557Y437D01*
X6557Y433D01*
X6556Y429D01*
X6556Y428D01*
X6557Y424D01*
X6558Y420D01*
X6558Y419D01*
X6561Y415D01*
X6563Y411D01*
X6564Y411D01*
X6567Y408D01*
X6570Y405D01*
X6571Y405D01*
X6575Y403D01*
X6579Y402D01*
X6579Y401D01*
X6580Y401D01*
X6585Y401D01*
X6745Y401D01*
X6747Y401D01*
X6749Y401D01*
X6752Y402D01*
X6754Y402D01*
X6756Y403D01*
X6758Y404D01*
X6760Y406D01*
X6763Y407D01*
X6764Y408D01*
X6766Y409D01*
X6767Y412D01*
X6769Y414D01*
X6770Y416D01*
X6771Y417D01*
X6772Y420D01*
X6773Y423D01*
X6773Y425D01*
X6774Y426D01*
X6774Y429D01*
X6774Y432D01*
X6774Y434D01*
X6773Y436D01*
X6772Y441D01*
X6709Y592D01*
X6709Y1408D01*
X6792Y1606D01*
X6944Y1758D01*
X7142Y1841D01*
X7358Y1841D01*
X7556Y1758D01*
X7708Y1606D01*
X7723Y1571D01*
X7725Y1569D01*
X7726Y1566D01*
X7727Y1565D01*
X7728Y1563D01*
X7730Y1561D01*
X7732Y1559D01*
X7734Y1558D01*
X7735Y1557D01*
X7738Y1556D01*
X7741Y1555D01*
X7743Y1554D01*
X7744Y1554D01*
X7747Y1554D01*
X7750Y1553D01*
X7752Y1553D01*
X7754Y1553D01*
X7757Y1554D01*
X7760Y1555D01*
X7761Y1556D01*
X7763Y1556D01*
X7765Y1558D01*
X7768Y1559D01*
X7769Y1561D01*
X7771Y1562D01*
X7773Y1564D01*
X7775Y1566D01*
X7776Y1569D01*
X7776Y1570D01*
X7777Y1571D01*
X7792Y1606D01*
X7944Y1758D01*
X8142Y1841D01*
X8358Y1841D01*
X8556Y1758D01*
X8708Y1606D01*
X8791Y1408D01*
X8791Y592D01*
X8728Y441D01*
X8728Y439D01*
X8727Y437D01*
X8727Y435D01*
X8726Y432D01*
X8726Y430D01*
X8726Y428D01*
X8727Y425D01*
X8727Y422D01*
X8728Y421D01*
X8728Y419D01*
X8730Y416D01*
X8731Y414D01*
X8732Y412D01*
X8733Y411D01*
X8736Y409D01*
X8737Y407D01*
X8739Y406D01*
X8741Y405D01*
X8743Y404D01*
X8746Y402D01*
X8748Y402D01*
X8750Y401D01*
X8755Y401D01*
X14570Y401D01*
X14571Y401D01*
X14572Y401D01*
X14576Y402D01*
X14579Y402D01*
X14580Y403D01*
X14581Y403D01*
X14585Y405D01*
X14588Y407D01*
X14589Y408D01*
X14592Y411D01*
X14594Y414D01*
X14595Y415D01*
X14595Y416D01*
X14597Y419D01*
X14598Y423D01*
X14598Y424D01*
X14599Y425D01*
X14599Y430D01*
X14599Y17070D01*
X14599Y17071D01*
X14599Y17072D01*
X14598Y17076D01*
X14598Y17079D01*
X14597Y17080D01*
X14597Y17081D01*
X14595Y17085D01*
X14593Y17088D01*
X14592Y17089D01*
X14589Y17092D01*
X14586Y17094D01*
X14585Y17095D01*
X14584Y17095D01*
X14581Y17097D01*
X14577Y17098D01*
X14576Y17098D01*
X14575Y17099D01*
X14570Y17099D01*
X4226Y17099D01*
X4222Y17099D01*
X4218Y17098D01*
X4217Y17098D01*
X4216Y17098D01*
X4213Y17096D01*
X4209Y17094D01*
X4208Y17093D01*
X4205Y17090D01*
X4202Y17088D01*
X4202Y17087D01*
X4201Y17086D01*
X4200Y17083D01*
X4198Y17079D01*
X4198Y17078D01*
X4197Y17077D01*
X4197Y17074D01*
X4197Y17070D01*
X4197Y17069D01*
X4197Y17068D01*
X4197Y17064D01*
X4198Y17060D01*
X4199Y17059D01*
X4199Y17058D01*
X4200Y17055D01*
X4258Y16956D01*
X4258Y16910D01*
X4258Y16544D01*
X4154Y16363D01*
X3973Y16259D01*
X3765Y16259D01*
X3601Y16354D01*
X3599Y16355D01*
X3597Y16356D01*
X3594Y16356D01*
X3592Y16357D01*
X3590Y16358D01*
X3588Y16358D01*
X3585Y16358D01*
X3582Y16358D01*
X3580Y16357D01*
X3578Y16357D01*
X3576Y16356D01*
X3573Y16355D01*
X3571Y16354D01*
X3570Y16353D01*
X3565Y16349D01*
X3515Y16299D01*
X3419Y16259D01*
X3315Y16259D01*
X3226Y16296D01*
X3225Y16297D01*
X3224Y16297D01*
X3220Y16298D01*
X3217Y16298D01*
X3215Y16298D01*
X3214Y16299D01*
X3211Y16298D01*
X3207Y16298D01*
X3206Y16297D01*
X3205Y16297D01*
X3200Y16295D01*
X3139Y16259D01*
X2938Y16259D01*
X2843Y16299D01*
X2809Y16332D01*
X2808Y16333D01*
X2808Y16334D01*
X2805Y16336D01*
X2802Y16338D01*
X2800Y16338D01*
X2800Y16339D01*
X2796Y16340D01*
X2792Y16341D01*
X2791Y16341D01*
X2790Y16341D01*
X2787Y16340D01*
X2783Y16340D01*
X2782Y16340D01*
X2781Y16340D01*
X2777Y16338D01*
X2774Y16337D01*
X2773Y16336D01*
X2772Y16336D01*
X2768Y16332D01*
X2735Y16299D01*
X2639Y16259D01*
X2336Y16259D01*
X2249Y16310D01*
X2246Y16311D01*
X2243Y16312D01*
X2241Y16313D01*
X2240Y16313D01*
X2237Y16313D01*
X2234Y16314D01*
X2232Y16313D01*
X2230Y16313D01*
X2227Y16313D01*
X2224Y16312D01*
X2222Y16311D01*
X2221Y16311D01*
X2221Y16310D01*
X2219Y16310D01*
X2132Y16259D01*
X1939Y16259D01*
X1869Y16288D01*
X1865Y16289D01*
X1862Y16290D01*
X1861Y16290D01*
X1860Y16291D01*
X1856Y16290D01*
X1852Y16290D01*
X1851Y16290D01*
X1850Y16290D01*
X1850Y16289D01*
X1847Y16288D01*
X1776Y16259D01*
X1525Y16259D01*
X1357Y16357D01*
X1259Y16525D01*
X1259Y16975D01*
X1306Y17055D01*
X1307Y17059D01*
X1309Y17063D01*
X1309Y17064D01*
X1309Y17068D01*
X1309Y17072D01*
X1309Y17073D01*
X1309Y17074D01*
X1308Y17078D01*
X1307Y17081D01*
X1307Y17082D01*
X1306Y17083D01*
X1304Y17086D01*
X1302Y17089D01*
X1301Y17090D01*
X1301Y17091D01*
X1298Y17093D01*
X1295Y17095D01*
X1294Y17096D01*
X1293Y17096D01*
X1289Y17097D01*
X1286Y17099D01*
X1284Y17099D01*
X1283Y17099D01*
X1280Y17099D01*
X430Y17099D01*
X429Y17099D01*
X428Y17099D01*
X424Y17098D01*
X421Y17098D01*
X420Y17097D01*
X419Y17097D01*
X415Y17095D01*
X412Y17093D01*
X411Y17092D01*
X408Y17089D01*
X406Y17086D01*
X405Y17085D01*
X405Y17084D01*
X403Y17081D01*
X402Y17077D01*
X402Y17076D01*
X401Y17075D01*
X401Y17070D01*
X401Y15234D01*
X401Y15230D01*
X402Y15226D01*
X402Y15225D01*
X404Y15221D01*
X406Y15218D01*
X406Y15217D01*
X407Y15216D01*
X410Y15214D01*
X412Y15211D01*
X413Y15210D01*
X414Y15210D01*
X417Y15208D01*
X421Y15206D01*
X422Y15206D01*
X423Y15206D01*
X426Y15205D01*
X430Y15205D01*
X431Y15205D01*
X432Y15205D01*
X436Y15206D01*
X440Y15206D01*
X440Y15207D01*
X441Y15207D01*
X445Y15209D01*
X448Y15211D01*
X449Y15212D01*
X452Y15215D01*
X455Y15218D01*
X455Y15219D01*
X455Y15220D01*
X456Y15220D01*
X457Y15223D01*
X492Y15306D01*
X644Y15458D01*
X842Y15541D01*
X1658Y15541D01*
X1856Y15458D01*
X1985Y15329D01*
X1989Y15327D01*
X1992Y15325D01*
X1993Y15324D01*
X1997Y15323D01*
X2001Y15321D01*
X2002Y15321D01*
X2003Y15321D01*
X2006Y15321D01*
X2064Y15321D01*
X2182Y15272D01*
X2276Y15178D01*
X3624Y13829D01*
X3628Y13827D01*
X3631Y13825D01*
X3631Y13824D01*
X3632Y13824D01*
X3636Y13823D01*
X3640Y13821D01*
X3641Y13821D01*
X3642Y13821D01*
X3645Y13821D01*
X5064Y13821D01*
X5182Y13772D01*
X5622Y13332D01*
X5649Y13267D01*
X5650Y13265D01*
X5651Y13263D01*
X5652Y13261D01*
X5654Y13259D01*
X5655Y13258D01*
X5657Y13256D01*
X5659Y13255D01*
X5661Y13253D01*
X5663Y13252D01*
X5665Y13251D01*
X5668Y13250D01*
X5670Y13249D01*
X5672Y13249D01*
X5674Y13249D01*
X5677Y13249D01*
X5680Y13249D01*
X5682Y13250D01*
X5684Y13250D01*
X5686Y13251D01*
X5689Y13252D01*
X5690Y13253D01*
X5692Y13254D01*
X5696Y13257D01*
X5759Y13320D01*
X5848Y13357D01*
X6652Y13357D01*
X6741Y13320D01*
X6808Y13253D01*
X6845Y13164D01*
X6845Y13120D01*
X6845Y13119D01*
X6845Y13118D01*
X6846Y13114D01*
X6847Y13111D01*
X6847Y13110D01*
X6847Y13109D01*
X6849Y13105D01*
X6851Y13102D01*
X6852Y13101D01*
X6853Y13101D01*
X6855Y13098D01*
X6858Y13096D01*
X6859Y13095D01*
X6860Y13095D01*
X6863Y13093D01*
X6867Y13092D01*
X6868Y13092D01*
X6869Y13091D01*
X6874Y13091D01*
X7498Y13091D01*
X7605Y13046D01*
X8013Y12638D01*
X8016Y12636D01*
X8019Y12633D01*
X8020Y12633D01*
X8021Y12633D01*
X8025Y12632D01*
X8028Y12630D01*
X8029Y12630D01*
X8030Y12630D01*
X8031Y12630D01*
X8034Y12630D01*
X8078Y12630D01*
X8221Y12570D01*
X8330Y12461D01*
X8390Y12318D01*
X8390Y12162D01*
X8330Y12019D01*
X8221Y11910D01*
X8078Y11850D01*
X7922Y11850D01*
X7779Y11910D01*
X7670Y12019D01*
X7610Y12162D01*
X7610Y12206D01*
X7610Y12210D01*
X7609Y12214D01*
X7609Y12215D01*
X7609Y12216D01*
X7607Y12219D01*
X7605Y12223D01*
X7605Y12224D01*
X7604Y12224D01*
X7604Y12225D01*
X7602Y12227D01*
X7328Y12501D01*
X7325Y12503D01*
X7322Y12505D01*
X7321Y12506D01*
X7320Y12506D01*
X7317Y12507D01*
X7313Y12509D01*
X7312Y12509D01*
X7311Y12509D01*
X7310Y12509D01*
X7307Y12509D01*
X6874Y12509D01*
X6873Y12509D01*
X6872Y12509D01*
X6869Y12508D01*
X6865Y12508D01*
X6864Y12507D01*
X6863Y12507D01*
X6860Y12505D01*
X6856Y12503D01*
X6856Y12502D01*
X6855Y12502D01*
X6853Y12499D01*
X6850Y12496D01*
X6850Y12495D01*
X6849Y12494D01*
X6848Y12491D01*
X6846Y12487D01*
X6846Y12486D01*
X6846Y12485D01*
X6845Y12480D01*
X6845Y12438D01*
X6808Y12350D01*
X6741Y12282D01*
X6728Y12277D01*
X6726Y12275D01*
X6723Y12274D01*
X6722Y12273D01*
X6720Y12272D01*
X6718Y12270D01*
X6716Y12268D01*
X6715Y12266D01*
X6714Y12265D01*
X6713Y12262D01*
X6712Y12259D01*
X6712Y12257D01*
X6711Y12256D01*
X6711Y12253D01*
X6710Y12250D01*
X6711Y12248D01*
X6711Y12246D01*
X6711Y12243D01*
X6712Y12240D01*
X6713Y12239D01*
X6713Y12237D01*
X6715Y12235D01*
X6717Y12232D01*
X6718Y12231D01*
X6719Y12229D01*
X6721Y12227D01*
X6724Y12225D01*
X6726Y12224D01*
X6727Y12224D01*
X6728Y12223D01*
X6741Y12218D01*
X6808Y12150D01*
X6845Y12062D01*
X6845Y12000D01*
X6845Y11999D01*
X6845Y11998D01*
X6846Y11994D01*
X6847Y11991D01*
X6847Y11990D01*
X6847Y11989D01*
X6849Y11985D01*
X6851Y11982D01*
X6852Y11981D01*
X6853Y11981D01*
X6855Y11978D01*
X6858Y11976D01*
X6859Y11975D01*
X6860Y11975D01*
X6863Y11973D01*
X6867Y11972D01*
X6868Y11972D01*
X6869Y11971D01*
X6874Y11971D01*
X7098Y11971D01*
X7205Y11926D01*
X7446Y11685D01*
X7491Y11578D01*
X7491Y11573D01*
X7491Y11572D01*
X7491Y11569D01*
X7492Y11565D01*
X7492Y11564D01*
X7492Y11563D01*
X7494Y11560D01*
X7496Y11556D01*
X7497Y11555D01*
X7497Y11554D01*
X7499Y11552D01*
X7552Y11499D01*
X7555Y11497D01*
X7558Y11495D01*
X7559Y11494D01*
X7560Y11494D01*
X7563Y11493D01*
X7567Y11491D01*
X7568Y11491D01*
X7569Y11491D01*
X7570Y11491D01*
X7573Y11491D01*
X7726Y11491D01*
X7727Y11491D01*
X7728Y11491D01*
X7731Y11492D01*
X7735Y11492D01*
X7736Y11493D01*
X7737Y11493D01*
X7740Y11495D01*
X7744Y11497D01*
X7744Y11498D01*
X7745Y11498D01*
X7747Y11501D01*
X7750Y11504D01*
X7750Y11505D01*
X7751Y11506D01*
X7752Y11509D01*
X7754Y11513D01*
X7754Y11514D01*
X7754Y11515D01*
X7755Y11520D01*
X7755Y11564D01*
X7792Y11653D01*
X7859Y11720D01*
X7948Y11757D01*
X8752Y11757D01*
X8841Y11720D01*
X8908Y11653D01*
X8945Y11564D01*
X8945Y10838D01*
X8908Y10750D01*
X8841Y10682D01*
X8828Y10677D01*
X8826Y10675D01*
X8823Y10674D01*
X8822Y10673D01*
X8820Y10672D01*
X8818Y10670D01*
X8816Y10668D01*
X8815Y10666D01*
X8814Y10665D01*
X8813Y10662D01*
X8812Y10659D01*
X8812Y10657D01*
X8811Y10656D01*
X8811Y10653D01*
X8810Y10650D01*
X8811Y10648D01*
X8811Y10646D01*
X8811Y10643D01*
X8812Y10640D01*
X8813Y10639D01*
X8813Y10637D01*
X8815Y10635D01*
X8817Y10632D01*
X8818Y10631D01*
X8819Y10629D01*
X8821Y10627D01*
X8824Y10625D01*
X8826Y10624D01*
X8827Y10624D01*
X8828Y10623D01*
X8841Y10618D01*
X8908Y10550D01*
X8945Y10462D01*
X8945Y9938D01*
X8946Y9934D01*
X8946Y9931D01*
X8946Y9930D01*
X8947Y9929D01*
X8948Y9925D01*
X8950Y9922D01*
X8951Y9921D01*
X8951Y9920D01*
X8954Y9918D01*
X8957Y9915D01*
X8958Y9914D01*
X8962Y9912D01*
X8965Y9910D01*
X8966Y9910D01*
X8967Y9910D01*
X8971Y9910D01*
X8975Y9909D01*
X8976Y9909D01*
X8980Y9910D01*
X8984Y9911D01*
X8985Y9911D01*
X8986Y9911D01*
X8989Y9913D01*
X8992Y9915D01*
X8993Y9916D01*
X8994Y9916D01*
X8996Y9919D01*
X8999Y9922D01*
X8999Y9923D01*
X9000Y9924D01*
X9000Y9925D01*
X9001Y9927D01*
X9034Y10005D01*
X9122Y10093D01*
X9124Y10096D01*
X9127Y10099D01*
X9127Y10100D01*
X9127Y10101D01*
X9128Y10105D01*
X9130Y10108D01*
X9130Y10109D01*
X9130Y10110D01*
X9130Y10111D01*
X9130Y10114D01*
X9130Y10158D01*
X9190Y10301D01*
X9299Y10410D01*
X9442Y10470D01*
X9598Y10470D01*
X9700Y10427D01*
X9701Y10427D01*
X9705Y10426D01*
X9710Y10425D01*
X9715Y10425D01*
X9719Y10426D01*
X9724Y10428D01*
X9728Y10430D01*
X9732Y10433D01*
X9779Y10480D01*
X9922Y10540D01*
X10078Y10540D01*
X10221Y10480D01*
X10330Y10371D01*
X10390Y10228D01*
X10390Y10072D01*
X10330Y9929D01*
X10299Y9898D01*
X10298Y9896D01*
X10296Y9894D01*
X10295Y9893D01*
X10295Y9892D01*
X10294Y9891D01*
X10294Y9890D01*
X10293Y9888D01*
X10292Y9885D01*
X10292Y9884D01*
X10291Y9883D01*
X10291Y9882D01*
X10291Y9881D01*
X10291Y9878D01*
X10291Y9493D01*
X10291Y9490D01*
X10291Y9487D01*
X10292Y9485D01*
X10292Y9483D01*
X10294Y9481D01*
X10295Y9478D01*
X10296Y9476D01*
X10297Y9475D01*
X10299Y9473D01*
X10301Y9470D01*
X10302Y9469D01*
X10304Y9468D01*
X10307Y9467D01*
X10309Y9465D01*
X10311Y9465D01*
X10313Y9464D01*
X10315Y9464D01*
X10318Y9463D01*
X10320Y9464D01*
X10322Y9463D01*
X10325Y9464D01*
X10328Y9464D01*
X10330Y9465D01*
X10331Y9466D01*
X10334Y9467D01*
X10337Y9468D01*
X10339Y9470D01*
X10339Y9471D01*
X10340Y9471D01*
X10341Y9472D01*
X10901Y10032D01*
X10903Y10035D01*
X10905Y10038D01*
X10906Y10039D01*
X10906Y10040D01*
X10907Y10043D01*
X10908Y10045D01*
X10908Y10046D01*
X10909Y10047D01*
X10909Y10048D01*
X10909Y10049D01*
X10909Y10050D01*
X10909Y10053D01*
X10909Y12364D01*
X10909Y12365D01*
X10909Y12366D01*
X10908Y12370D01*
X10908Y12373D01*
X10907Y12374D01*
X10907Y12375D01*
X10905Y12378D01*
X10903Y12382D01*
X10902Y12382D01*
X10902Y12383D01*
X10899Y12386D01*
X10896Y12388D01*
X10895Y12389D01*
X10894Y12389D01*
X10891Y12391D01*
X10887Y12392D01*
X10886Y12392D01*
X10885Y12393D01*
X10880Y12393D01*
X10848Y12393D01*
X10759Y12430D01*
X10692Y12497D01*
X10655Y12586D01*
X10655Y13312D01*
X10692Y13400D01*
X10759Y13468D01*
X10772Y13473D01*
X10774Y13475D01*
X10777Y13476D01*
X10778Y13477D01*
X10780Y13478D01*
X10782Y13480D01*
X10784Y13482D01*
X10785Y13484D01*
X10786Y13485D01*
X10787Y13488D01*
X10788Y13491D01*
X10788Y13493D01*
X10789Y13494D01*
X10789Y13497D01*
X10790Y13500D01*
X10789Y13502D01*
X10789Y13504D01*
X10789Y13507D01*
X10788Y13510D01*
X10787Y13511D01*
X10787Y13513D01*
X10785Y13515D01*
X10783Y13518D01*
X10782Y13519D01*
X10781Y13521D01*
X10779Y13523D01*
X10776Y13525D01*
X10774Y13526D01*
X10773Y13526D01*
X10772Y13527D01*
X10759Y13532D01*
X10692Y13600D01*
X10655Y13688D01*
X10655Y14381D01*
X10655Y14382D01*
X10655Y14383D01*
X10654Y14387D01*
X10653Y14391D01*
X10653Y14393D01*
X10651Y14396D01*
X10649Y14399D01*
X10648Y14400D01*
X10647Y14401D01*
X10645Y14403D01*
X10642Y14405D01*
X10641Y14406D01*
X10640Y14407D01*
X10637Y14408D01*
X10633Y14409D01*
X10632Y14409D01*
X10631Y14410D01*
X10626Y14410D01*
X10562Y14410D01*
X10419Y14470D01*
X10310Y14579D01*
X10250Y14722D01*
X10250Y14878D01*
X10267Y14918D01*
X10268Y14921D01*
X10269Y14924D01*
X10269Y14926D01*
X10269Y14927D01*
X10269Y14928D01*
X10269Y14929D01*
X10269Y14938D01*
X10314Y15045D01*
X10374Y15105D01*
X10376Y15107D01*
X10378Y15110D01*
X10378Y15111D01*
X10379Y15113D01*
X10380Y15116D01*
X10381Y15118D01*
X10382Y15120D01*
X10382Y15122D01*
X10382Y15125D01*
X10382Y15128D01*
X10382Y15130D01*
X10382Y15131D01*
X10381Y15134D01*
X10380Y15137D01*
X10379Y15139D01*
X10378Y15140D01*
X10377Y15143D01*
X10375Y15145D01*
X10373Y15146D01*
X10372Y15148D01*
X10370Y15149D01*
X10367Y15151D01*
X10366Y15152D01*
X10364Y15153D01*
X10361Y15153D01*
X10359Y15154D01*
X10356Y15155D01*
X10355Y15155D01*
X10354Y15155D01*
X10353Y15155D01*
X10336Y15155D01*
X10247Y15192D01*
X10180Y15259D01*
X10143Y15348D01*
X10143Y15501D01*
X10143Y15502D01*
X10143Y15503D01*
X10142Y15507D01*
X10142Y15511D01*
X10141Y15511D01*
X10141Y15513D01*
X10139Y15516D01*
X10137Y15519D01*
X10136Y15520D01*
X10136Y15521D01*
X10133Y15523D01*
X10130Y15525D01*
X10129Y15526D01*
X10128Y15527D01*
X10125Y15528D01*
X10121Y15529D01*
X10120Y15529D01*
X10119Y15530D01*
X10114Y15530D01*
X10082Y15530D01*
X9939Y15590D01*
X9830Y15699D01*
X9770Y15842D01*
X9770Y15998D01*
X9830Y16141D01*
X9939Y16250D01*
X10082Y16310D01*
X10240Y16310D01*
X10241Y16310D01*
X10242Y16309D01*
X10246Y16310D01*
X10250Y16310D01*
X10251Y16310D01*
X10252Y16310D01*
X10252Y16311D01*
X10255Y16312D01*
X10336Y16345D01*
X11062Y16345D01*
X11150Y16308D01*
X11218Y16241D01*
X11223Y16228D01*
X11225Y16226D01*
X11226Y16223D01*
X11227Y16222D01*
X11228Y16220D01*
X11230Y16218D01*
X11232Y16216D01*
X11234Y16215D01*
X11235Y16214D01*
X11238Y16213D01*
X11241Y16212D01*
X11243Y16212D01*
X11244Y16211D01*
X11247Y16211D01*
X11250Y16210D01*
X11252Y16211D01*
X11254Y16211D01*
X11257Y16211D01*
X11260Y16212D01*
X11261Y16213D01*
X11263Y16213D01*
X11265Y16215D01*
X11268Y16217D01*
X11269Y16218D01*
X11271Y16219D01*
X11273Y16221D01*
X11275Y16224D01*
X11276Y16226D01*
X11276Y16227D01*
X11277Y16228D01*
X11282Y16241D01*
X11350Y16308D01*
X11438Y16345D01*
X12164Y16345D01*
X12253Y16308D01*
X12320Y16241D01*
X12357Y16152D01*
X12357Y15348D01*
X12320Y15259D01*
X12253Y15192D01*
X12164Y15155D01*
X12076Y15155D01*
X12075Y15155D01*
X12071Y15154D01*
X12066Y15153D01*
X12062Y15151D01*
X12058Y15149D01*
X12054Y15145D01*
X12051Y15142D01*
X12049Y15137D01*
X12006Y15035D01*
X11628Y14657D01*
X11626Y14654D01*
X11624Y14652D01*
X11624Y14651D01*
X11622Y14649D01*
X11622Y14646D01*
X11620Y14644D01*
X11620Y14642D01*
X11620Y14640D01*
X11620Y14637D01*
X11620Y14634D01*
X11620Y14632D01*
X11620Y14630D01*
X11621Y14628D01*
X11622Y14625D01*
X11623Y14623D01*
X11623Y14621D01*
X11625Y14619D01*
X11627Y14617D01*
X11628Y14615D01*
X11630Y14614D01*
X11632Y14612D01*
X11634Y14611D01*
X11636Y14610D01*
X11638Y14609D01*
X11641Y14608D01*
X11643Y14607D01*
X11646Y14607D01*
X11647Y14607D01*
X11648Y14607D01*
X11649Y14607D01*
X11652Y14607D01*
X11739Y14571D01*
X11743Y14570D01*
X11746Y14569D01*
X11747Y14569D01*
X11748Y14569D01*
X11752Y14569D01*
X11756Y14569D01*
X11757Y14570D01*
X11758Y14570D01*
X11761Y14571D01*
X11848Y14607D01*
X11901Y14607D01*
X11902Y14607D01*
X11903Y14607D01*
X11907Y14608D01*
X11911Y14608D01*
X11911Y14609D01*
X11913Y14609D01*
X11916Y14611D01*
X11919Y14613D01*
X11920Y14614D01*
X11921Y14614D01*
X11923Y14617D01*
X11925Y14620D01*
X11926Y14621D01*
X11927Y14622D01*
X11928Y14625D01*
X11929Y14629D01*
X11929Y14630D01*
X11930Y14631D01*
X11930Y14636D01*
X11930Y14718D01*
X11990Y14861D01*
X12099Y14970D01*
X12242Y15030D01*
X12398Y15030D01*
X12541Y14970D01*
X12650Y14861D01*
X12710Y14718D01*
X12710Y14603D01*
X12710Y14602D01*
X12710Y14598D01*
X12711Y14593D01*
X12714Y14589D01*
X12716Y14585D01*
X12719Y14581D01*
X12723Y14578D01*
X12728Y14576D01*
X12741Y14570D01*
X12808Y14503D01*
X12845Y14414D01*
X12845Y13715D01*
X12846Y13711D01*
X12846Y13708D01*
X12846Y13707D01*
X12847Y13706D01*
X12848Y13702D01*
X12850Y13699D01*
X12851Y13698D01*
X12851Y13697D01*
X12854Y13695D01*
X12857Y13692D01*
X12858Y13691D01*
X12862Y13689D01*
X12865Y13687D01*
X12866Y13687D01*
X12867Y13687D01*
X12871Y13687D01*
X12875Y13686D01*
X12876Y13686D01*
X12880Y13687D01*
X12884Y13688D01*
X12885Y13688D01*
X12886Y13688D01*
X12889Y13690D01*
X12892Y13692D01*
X12893Y13693D01*
X12894Y13693D01*
X12896Y13696D01*
X12899Y13699D01*
X12899Y13700D01*
X12900Y13701D01*
X12900Y13702D01*
X12901Y13704D01*
X12950Y13821D01*
X13059Y13930D01*
X13202Y13990D01*
X13358Y13990D01*
X13501Y13930D01*
X13610Y13821D01*
X13670Y13678D01*
X13670Y13634D01*
X13670Y13630D01*
X13671Y13626D01*
X13671Y13625D01*
X13671Y13624D01*
X13673Y13621D01*
X13675Y13617D01*
X13675Y13616D01*
X13676Y13616D01*
X13676Y13615D01*
X13678Y13613D01*
X13933Y13358D01*
X13936Y13356D01*
X13939Y13353D01*
X13940Y13353D01*
X13941Y13353D01*
X13945Y13352D01*
X13948Y13350D01*
X13949Y13350D01*
X13950Y13350D01*
X13951Y13350D01*
X13954Y13350D01*
X13998Y13350D01*
X14141Y13290D01*
X14250Y13181D01*
X14310Y13038D01*
X14310Y12882D01*
X14250Y12739D01*
X14141Y12630D01*
X13998Y12570D01*
X13842Y12570D01*
X13699Y12630D01*
X13590Y12739D01*
X13530Y12882D01*
X13530Y12926D01*
X13530Y12930D01*
X13529Y12934D01*
X13529Y12935D01*
X13529Y12936D01*
X13527Y12939D01*
X13525Y12943D01*
X13525Y12944D01*
X13524Y12944D01*
X13524Y12945D01*
X13522Y12947D01*
X13267Y13202D01*
X13264Y13204D01*
X13261Y13207D01*
X13260Y13207D01*
X13259Y13207D01*
X13255Y13208D01*
X13252Y13210D01*
X13251Y13210D01*
X13250Y13210D01*
X13249Y13210D01*
X13246Y13210D01*
X13202Y13210D01*
X13059Y13270D01*
X12950Y13379D01*
X12890Y13522D01*
X12890Y13651D01*
X12890Y13654D01*
X12889Y13658D01*
X12889Y13659D01*
X12889Y13660D01*
X12887Y13663D01*
X12885Y13667D01*
X12885Y13668D01*
X12884Y13668D01*
X12881Y13671D01*
X12879Y13674D01*
X12878Y13674D01*
X12877Y13675D01*
X12874Y13677D01*
X12870Y13678D01*
X12869Y13678D01*
X12869Y13679D01*
X12865Y13679D01*
X12861Y13680D01*
X12860Y13680D01*
X12859Y13680D01*
X12855Y13679D01*
X12851Y13678D01*
X12850Y13678D01*
X12846Y13675D01*
X12843Y13674D01*
X12842Y13673D01*
X12842Y13672D01*
X12839Y13669D01*
X12837Y13667D01*
X12836Y13665D01*
X12835Y13664D01*
X12834Y13662D01*
X12808Y13600D01*
X12741Y13532D01*
X12728Y13527D01*
X12726Y13525D01*
X12723Y13524D01*
X12722Y13523D01*
X12720Y13522D01*
X12718Y13520D01*
X12716Y13518D01*
X12715Y13516D01*
X12714Y13515D01*
X12713Y13512D01*
X12712Y13509D01*
X12712Y13507D01*
X12711Y13506D01*
X12711Y13503D01*
X12710Y13500D01*
X12711Y13498D01*
X12711Y13496D01*
X12711Y13493D01*
X12712Y13490D01*
X12713Y13489D01*
X12713Y13487D01*
X12715Y13485D01*
X12717Y13482D01*
X12718Y13481D01*
X12719Y13479D01*
X12721Y13477D01*
X12724Y13475D01*
X12726Y13474D01*
X12727Y13474D01*
X12728Y13473D01*
X12741Y13468D01*
X12808Y13400D01*
X12845Y13312D01*
X12845Y12586D01*
X12808Y12497D01*
X12741Y12430D01*
X12652Y12393D01*
X12649Y12393D01*
X12646Y12393D01*
X12643Y12393D01*
X12641Y12392D01*
X12639Y12392D01*
X12637Y12390D01*
X12634Y12389D01*
X12632Y12388D01*
X12631Y12387D01*
X12629Y12385D01*
X12627Y12383D01*
X12626Y12381D01*
X12624Y12380D01*
X12623Y12377D01*
X12622Y12375D01*
X12621Y12373D01*
X12620Y12371D01*
X12620Y12368D01*
X12619Y12366D01*
X12620Y12364D01*
X12620Y12362D01*
X12620Y12359D01*
X12621Y12356D01*
X12621Y12354D01*
X12622Y12352D01*
X12623Y12350D01*
X12625Y12347D01*
X12626Y12345D01*
X12627Y12344D01*
X12628Y12343D01*
X13206Y11765D01*
X13251Y11658D01*
X13251Y10902D01*
X13206Y10795D01*
X13121Y10709D01*
X11432Y9020D01*
X11430Y9018D01*
X11428Y9016D01*
X11428Y9015D01*
X11426Y9013D01*
X11425Y9009D01*
X11424Y9008D01*
X11424Y9007D01*
X11423Y9004D01*
X11423Y9003D01*
X11424Y8999D01*
X11424Y8998D01*
X11423Y8998D01*
X11424Y8998D01*
X11424Y8994D01*
X11425Y8989D01*
X11451Y8926D01*
X11451Y8892D01*
X11452Y8888D01*
X11452Y8884D01*
X11453Y8883D01*
X11455Y8879D01*
X11456Y8875D01*
X11457Y8875D01*
X11457Y8874D01*
X11458Y8874D01*
X11460Y8871D01*
X11613Y8718D01*
X11616Y8716D01*
X11619Y8713D01*
X11620Y8713D01*
X11621Y8713D01*
X11625Y8712D01*
X11628Y8710D01*
X11629Y8710D01*
X11630Y8710D01*
X11631Y8710D01*
X11634Y8710D01*
X11678Y8710D01*
X11821Y8650D01*
X11930Y8541D01*
X11990Y8398D01*
X11990Y8242D01*
X11930Y8099D01*
X11821Y7990D01*
X11678Y7930D01*
X11522Y7930D01*
X11379Y7990D01*
X11270Y8099D01*
X11250Y8147D01*
X11247Y8151D01*
X11245Y8155D01*
X11241Y8158D01*
X11238Y8161D01*
X11237Y8161D01*
X11233Y8163D01*
X11229Y8164D01*
X11228Y8164D01*
X11223Y8165D01*
X11045Y8165D01*
X11035Y8169D01*
X11031Y8170D01*
X11027Y8171D01*
X11026Y8171D01*
X11025Y8171D01*
X11022Y8171D01*
X11018Y8170D01*
X11016Y8170D01*
X11015Y8170D01*
X11012Y8169D01*
X11003Y8165D01*
X10789Y8165D01*
X10779Y8169D01*
X10775Y8170D01*
X10771Y8171D01*
X10770Y8171D01*
X10766Y8171D01*
X10762Y8170D01*
X10761Y8170D01*
X10760Y8170D01*
X10759Y8170D01*
X10757Y8169D01*
X10747Y8165D01*
X10579Y8165D01*
X10578Y8165D01*
X10577Y8165D01*
X10573Y8164D01*
X10569Y8163D01*
X10567Y8162D01*
X10564Y8160D01*
X10561Y8159D01*
X10560Y8158D01*
X10559Y8157D01*
X10557Y8154D01*
X10555Y8152D01*
X10554Y8151D01*
X10553Y8150D01*
X10552Y8146D01*
X10551Y8143D01*
X10551Y8142D01*
X10550Y8141D01*
X10550Y8136D01*
X10550Y8082D01*
X10490Y7939D01*
X10381Y7830D01*
X10238Y7770D01*
X10082Y7770D01*
X9939Y7830D01*
X9830Y7939D01*
X9788Y8040D01*
X9787Y8041D01*
X9786Y8043D01*
X9785Y8045D01*
X9783Y8048D01*
X9781Y8049D01*
X9780Y8051D01*
X9778Y8052D01*
X9776Y8054D01*
X9774Y8055D01*
X9772Y8056D01*
X9769Y8056D01*
X9767Y8057D01*
X9765Y8057D01*
X9763Y8058D01*
X9760Y8057D01*
X9757Y8057D01*
X9755Y8057D01*
X9753Y8057D01*
X9751Y8055D01*
X9748Y8055D01*
X9746Y8053D01*
X9745Y8053D01*
X9740Y8049D01*
X9167Y7476D01*
X9165Y7473D01*
X9162Y7470D01*
X9162Y7469D01*
X9161Y7468D01*
X9160Y7464D01*
X9159Y7461D01*
X9159Y7460D01*
X9159Y7459D01*
X9159Y7455D01*
X9159Y7451D01*
X9159Y7450D01*
X9159Y7449D01*
X9160Y7446D01*
X9162Y7442D01*
X9162Y7441D01*
X9162Y7440D01*
X9165Y7437D01*
X9167Y7434D01*
X9168Y7434D01*
X9169Y7433D01*
X9172Y7431D01*
X9175Y7429D01*
X9176Y7429D01*
X9177Y7428D01*
X9181Y7427D01*
X9184Y7426D01*
X9185Y7426D01*
X9186Y7426D01*
X9190Y7426D01*
X9194Y7427D01*
X9195Y7427D01*
X9196Y7427D01*
X9199Y7428D01*
X9202Y7430D01*
X9358Y7430D01*
X9501Y7370D01*
X9610Y7261D01*
X9670Y7118D01*
X9670Y7111D01*
X9670Y7109D01*
X9670Y7106D01*
X9671Y7104D01*
X9671Y7102D01*
X9673Y7099D01*
X9674Y7097D01*
X9675Y7095D01*
X9676Y7094D01*
X9678Y7092D01*
X9680Y7089D01*
X9681Y7088D01*
X9683Y7087D01*
X9685Y7086D01*
X9688Y7084D01*
X9690Y7084D01*
X9691Y7083D01*
X9694Y7083D01*
X9697Y7082D01*
X9699Y7082D01*
X9701Y7082D01*
X9704Y7083D01*
X9707Y7083D01*
X9708Y7084D01*
X9710Y7085D01*
X9713Y7086D01*
X9715Y7087D01*
X9718Y7089D01*
X9718Y7090D01*
X9719Y7090D01*
X9720Y7091D01*
X9755Y7126D01*
X9862Y7171D01*
X9888Y7171D01*
X9891Y7171D01*
X9895Y7172D01*
X9896Y7172D01*
X9897Y7172D01*
X9901Y7174D01*
X9904Y7176D01*
X9905Y7177D01*
X9906Y7177D01*
X9908Y7179D01*
X9939Y7210D01*
X10082Y7270D01*
X10238Y7270D01*
X10381Y7210D01*
X10384Y7208D01*
X10387Y7206D01*
X10388Y7206D01*
X10389Y7205D01*
X10393Y7204D01*
X10396Y7203D01*
X10397Y7203D01*
X10398Y7203D01*
X10402Y7204D01*
X10406Y7204D01*
X10407Y7204D01*
X10408Y7204D01*
X10411Y7206D01*
X10415Y7207D01*
X10416Y7208D01*
X10417Y7208D01*
X10419Y7210D01*
X10562Y7270D01*
X10718Y7270D01*
X10861Y7210D01*
X10970Y7101D01*
X11030Y6958D01*
X11030Y6864D01*
X11030Y6863D01*
X11030Y6862D01*
X11031Y6859D01*
X11031Y6855D01*
X11032Y6854D01*
X11032Y6853D01*
X11034Y6850D01*
X11036Y6847D01*
X11037Y6846D01*
X11037Y6845D01*
X11040Y6843D01*
X11043Y6840D01*
X11044Y6840D01*
X11045Y6839D01*
X11048Y6838D01*
X11051Y6836D01*
X11053Y6836D01*
X11054Y6836D01*
X11059Y6835D01*
X11258Y6835D01*
X11347Y6799D01*
X11415Y6731D01*
X11424Y6709D01*
X11426Y6705D01*
X11429Y6701D01*
X11433Y6698D01*
X11436Y6695D01*
X11441Y6693D01*
X11445Y6691D01*
X11451Y6691D01*
X11898Y6691D01*
X12005Y6646D01*
X12091Y6561D01*
X12605Y6046D01*
X12607Y6044D01*
X12610Y6042D01*
X12611Y6042D01*
X12613Y6041D01*
X12616Y6040D01*
X12618Y6039D01*
X12620Y6038D01*
X12622Y6038D01*
X12625Y6038D01*
X12628Y6038D01*
X12630Y6038D01*
X12631Y6038D01*
X12634Y6039D01*
X12637Y6040D01*
X12639Y6041D01*
X12640Y6042D01*
X12643Y6043D01*
X12645Y6045D01*
X12646Y6047D01*
X12648Y6048D01*
X12649Y6050D01*
X12651Y6053D01*
X12652Y6054D01*
X12653Y6056D01*
X12653Y6059D01*
X12654Y6061D01*
X12655Y6064D01*
X12655Y6065D01*
X12655Y6066D01*
X12655Y6067D01*
X12655Y6562D01*
X12692Y6650D01*
X12759Y6718D01*
X12772Y6723D01*
X12774Y6725D01*
X12777Y6726D01*
X12778Y6727D01*
X12780Y6728D01*
X12782Y6730D01*
X12784Y6732D01*
X12785Y6734D01*
X12786Y6735D01*
X12787Y6738D01*
X12788Y6741D01*
X12788Y6743D01*
X12789Y6744D01*
X12789Y6747D01*
X12790Y6750D01*
X12789Y6752D01*
X12789Y6754D01*
X12789Y6757D01*
X12788Y6760D01*
X12787Y6761D01*
X12787Y6763D01*
X12785Y6765D01*
X12783Y6768D01*
X12782Y6769D01*
X12781Y6771D01*
X12779Y6773D01*
X12776Y6775D01*
X12774Y6776D01*
X12773Y6776D01*
X12772Y6777D01*
X12759Y6782D01*
X12692Y6850D01*
X12655Y6938D01*
X12655Y7664D01*
X12692Y7753D01*
X12759Y7820D01*
X12848Y7857D01*
X12861Y7857D01*
X12862Y7857D01*
X12863Y7857D01*
X12867Y7858D01*
X12871Y7858D01*
X12871Y7859D01*
X12873Y7859D01*
X12876Y7861D01*
X12879Y7863D01*
X12880Y7864D01*
X12881Y7864D01*
X12883Y7867D01*
X12885Y7870D01*
X12886Y7871D01*
X12887Y7872D01*
X12888Y7875D01*
X12889Y7879D01*
X12889Y7880D01*
X12890Y7881D01*
X12890Y7886D01*
X12890Y7918D01*
X12950Y8061D01*
X13059Y8170D01*
X13202Y8230D01*
X13358Y8230D01*
X13501Y8170D01*
X13610Y8061D01*
X13670Y7918D01*
X13670Y7869D01*
X13670Y7864D01*
X13671Y7860D01*
X13673Y7856D01*
X13676Y7851D01*
X13679Y7848D01*
X13683Y7845D01*
X13688Y7842D01*
X13741Y7820D01*
X13808Y7753D01*
X13845Y7664D01*
X13845Y6938D01*
X13808Y6850D01*
X13741Y6782D01*
X13728Y6777D01*
X13726Y6775D01*
X13723Y6774D01*
X13722Y6773D01*
X13720Y6772D01*
X13718Y6770D01*
X13716Y6768D01*
X13715Y6766D01*
X13714Y6765D01*
X13713Y6762D01*
X13712Y6759D01*
X13712Y6757D01*
X13711Y6756D01*
X13711Y6753D01*
X13710Y6750D01*
X13711Y6748D01*
X13711Y6746D01*
X13711Y6743D01*
X13712Y6740D01*
X13713Y6739D01*
X13713Y6737D01*
X13715Y6735D01*
X13717Y6732D01*
X13718Y6731D01*
X13719Y6729D01*
X13721Y6727D01*
X13724Y6725D01*
X13726Y6724D01*
X13727Y6724D01*
X13728Y6723D01*
X13741Y6718D01*
X13808Y6650D01*
X13845Y6562D01*
X13845Y5836D01*
X13808Y5747D01*
X13741Y5680D01*
X13688Y5658D01*
X13687Y5658D01*
X13684Y5655D01*
X13680Y5653D01*
X13679Y5653D01*
X13677Y5649D01*
X13674Y5645D01*
X13673Y5645D01*
X13672Y5641D01*
X13670Y5636D01*
X13670Y5631D01*
X13670Y5522D01*
X13610Y5379D01*
X13501Y5270D01*
X13457Y5252D01*
X13455Y5250D01*
X13453Y5250D01*
X13451Y5248D01*
X13449Y5246D01*
X13447Y5245D01*
X13446Y5244D01*
X13444Y5241D01*
X13443Y5239D01*
X13442Y5237D01*
X13441Y5235D01*
X13440Y5233D01*
X13439Y5230D01*
X13439Y5228D01*
X13439Y5226D01*
X13439Y5223D01*
X13439Y5221D01*
X13440Y5219D01*
X13440Y5217D01*
X13441Y5214D01*
X13442Y5211D01*
X13443Y5210D01*
X13444Y5208D01*
X13447Y5204D01*
X13526Y5125D01*
X13571Y5018D01*
X13571Y4886D01*
X13571Y4885D01*
X13571Y4884D01*
X13572Y4880D01*
X13572Y4877D01*
X13573Y4876D01*
X13573Y4875D01*
X13575Y4872D01*
X13577Y4868D01*
X13578Y4868D01*
X13578Y4867D01*
X13581Y4864D01*
X13584Y4862D01*
X13585Y4861D01*
X13586Y4861D01*
X13589Y4859D01*
X13593Y4858D01*
X13594Y4858D01*
X13595Y4857D01*
X13600Y4857D01*
X13652Y4857D01*
X13741Y4820D01*
X13808Y4753D01*
X13845Y4664D01*
X13845Y3938D01*
X13808Y3850D01*
X13741Y3782D01*
X13728Y3777D01*
X13726Y3775D01*
X13723Y3774D01*
X13722Y3773D01*
X13720Y3772D01*
X13718Y3770D01*
X13716Y3768D01*
X13715Y3766D01*
X13714Y3765D01*
X13713Y3762D01*
X13712Y3759D01*
X13712Y3757D01*
X13711Y3756D01*
X13711Y3753D01*
X13710Y3750D01*
X13711Y3748D01*
X13711Y3746D01*
X13711Y3743D01*
X13712Y3740D01*
X13713Y3739D01*
X13713Y3737D01*
X13715Y3735D01*
X13717Y3732D01*
X13718Y3731D01*
X13719Y3729D01*
X13721Y3727D01*
X13724Y3725D01*
X13726Y3724D01*
X13727Y3724D01*
X13728Y3723D01*
X13741Y3718D01*
X13808Y3650D01*
X13845Y3562D01*
X13845Y2836D01*
X13808Y2747D01*
X13741Y2680D01*
X13652Y2643D01*
X12848Y2643D01*
X12761Y2679D01*
X12757Y2680D01*
X12754Y2681D01*
X12753Y2681D01*
X12752Y2681D01*
X12748Y2681D01*
X12744Y2681D01*
X12743Y2680D01*
X12742Y2680D01*
X12739Y2679D01*
X12652Y2643D01*
X12560Y2643D01*
X12559Y2643D01*
X12558Y2643D01*
X12554Y2642D01*
X12551Y2642D01*
X12550Y2641D01*
X12549Y2641D01*
X12545Y2639D01*
X12542Y2637D01*
X12541Y2636D01*
X12538Y2633D01*
X12536Y2630D01*
X12535Y2629D01*
X12535Y2628D01*
X12533Y2625D01*
X12532Y2621D01*
X12532Y2620D01*
X12531Y2619D01*
X12531Y2614D01*
X12531Y1874D01*
X12531Y1873D01*
X12531Y1872D01*
X12532Y1869D01*
X12532Y1865D01*
X12533Y1864D01*
X12533Y1863D01*
X12535Y1860D01*
X12537Y1856D01*
X12538Y1856D01*
X12538Y1855D01*
X12541Y1853D01*
X12544Y1850D01*
X12545Y1850D01*
X12546Y1849D01*
X12549Y1848D01*
X12553Y1846D01*
X12554Y1846D01*
X12555Y1846D01*
X12560Y1845D01*
X12562Y1845D01*
X12650Y1808D01*
X12718Y1741D01*
X12723Y1728D01*
X12725Y1726D01*
X12726Y1723D01*
X12727Y1722D01*
X12728Y1720D01*
X12730Y1718D01*
X12732Y1716D01*
X12734Y1715D01*
X12735Y1714D01*
X12738Y1713D01*
X12741Y1712D01*
X12743Y1712D01*
X12744Y1711D01*
X12747Y1711D01*
X12750Y1710D01*
X12752Y1711D01*
X12754Y1711D01*
X12757Y1711D01*
X12760Y1712D01*
X12761Y1713D01*
X12763Y1713D01*
X12765Y1715D01*
X12768Y1717D01*
X12769Y1718D01*
X12771Y1719D01*
X12773Y1721D01*
X12775Y1724D01*
X12776Y1726D01*
X12776Y1727D01*
X12777Y1728D01*
X12782Y1741D01*
X12850Y1808D01*
X12872Y1818D01*
X12873Y1818D01*
X12876Y1820D01*
X12880Y1823D01*
X12881Y1823D01*
X12883Y1826D01*
X12886Y1830D01*
X12887Y1830D01*
X12888Y1835D01*
X12890Y1839D01*
X12890Y1845D01*
X12890Y1918D01*
X12950Y2061D01*
X13059Y2170D01*
X13202Y2230D01*
X13358Y2230D01*
X13501Y2170D01*
X13610Y2061D01*
X13670Y1918D01*
X13670Y1862D01*
X13670Y1861D01*
X13670Y1860D01*
X13670Y1857D01*
X13671Y1853D01*
X13673Y1849D01*
X13676Y1844D01*
X13679Y1841D01*
X13683Y1838D01*
X13688Y1835D01*
X13753Y1808D01*
X13820Y1741D01*
X13857Y1652D01*
X13857Y848D01*
X13820Y759D01*
X13753Y692D01*
X13664Y655D01*
X12938Y655D01*
X12850Y692D01*
X12782Y759D01*
X12777Y772D01*
X12775Y774D01*
X12774Y777D01*
X12773Y778D01*
X12772Y780D01*
X12770Y782D01*
X12768Y784D01*
X12766Y785D01*
X12765Y786D01*
X12762Y787D01*
X12759Y788D01*
X12757Y788D01*
X12756Y789D01*
X12753Y789D01*
X12750Y790D01*
X12748Y789D01*
X12746Y789D01*
X12743Y789D01*
X12740Y788D01*
X12739Y787D01*
X12737Y787D01*
X12735Y785D01*
X12732Y783D01*
X12731Y782D01*
X12729Y781D01*
X12727Y779D01*
X12725Y776D01*
X12724Y774D01*
X12724Y773D01*
X12723Y772D01*
X12718Y759D01*
X12650Y692D01*
X12562Y655D01*
X11836Y655D01*
X11747Y692D01*
X11680Y759D01*
X11652Y826D01*
X11650Y829D01*
X11649Y831D01*
X11648Y833D01*
X11647Y834D01*
X11645Y836D01*
X11643Y838D01*
X11641Y839D01*
X11640Y840D01*
X11637Y841D01*
X11634Y843D01*
X11632Y843D01*
X11631Y844D01*
X11628Y844D01*
X11625Y844D01*
X11623Y844D01*
X11621Y844D01*
X11618Y843D01*
X11615Y843D01*
X11614Y842D01*
X11612Y841D01*
X11610Y839D01*
X11607Y838D01*
X11606Y837D01*
X11604Y836D01*
X11602Y833D01*
X11600Y831D01*
X11599Y828D01*
X11599Y827D01*
X11598Y826D01*
X11570Y759D01*
X11503Y692D01*
X11414Y655D01*
X10688Y655D01*
X10600Y692D01*
X10532Y759D01*
X10495Y848D01*
X10495Y1652D01*
X10532Y1741D01*
X10600Y1808D01*
X10688Y1845D01*
X11414Y1845D01*
X11503Y1808D01*
X11570Y1741D01*
X11598Y1674D01*
X11600Y1671D01*
X11601Y1669D01*
X11602Y1667D01*
X11603Y1666D01*
X11605Y1664D01*
X11607Y1662D01*
X11609Y1661D01*
X11610Y1660D01*
X11613Y1659D01*
X11616Y1657D01*
X11618Y1657D01*
X11619Y1656D01*
X11622Y1656D01*
X11625Y1656D01*
X11627Y1656D01*
X11629Y1656D01*
X11632Y1657D01*
X11635Y1657D01*
X11636Y1658D01*
X11638Y1659D01*
X11640Y1661D01*
X11643Y1662D01*
X11644Y1663D01*
X11646Y1664D01*
X11648Y1667D01*
X11650Y1669D01*
X11651Y1672D01*
X11651Y1673D01*
X11652Y1674D01*
X11680Y1741D01*
X11747Y1808D01*
X11836Y1845D01*
X11920Y1845D01*
X11921Y1845D01*
X11922Y1845D01*
X11926Y1846D01*
X11929Y1847D01*
X11930Y1847D01*
X11931Y1847D01*
X11935Y1849D01*
X11938Y1851D01*
X11939Y1852D01*
X11939Y1853D01*
X11942Y1855D01*
X11944Y1858D01*
X11945Y1859D01*
X11945Y1860D01*
X11947Y1863D01*
X11948Y1867D01*
X11948Y1868D01*
X11949Y1869D01*
X11949Y1874D01*
X11949Y2614D01*
X11949Y2615D01*
X11949Y2616D01*
X11948Y2620D01*
X11948Y2623D01*
X11947Y2624D01*
X11947Y2625D01*
X11945Y2628D01*
X11943Y2632D01*
X11942Y2632D01*
X11942Y2633D01*
X11939Y2636D01*
X11936Y2638D01*
X11935Y2639D01*
X11934Y2639D01*
X11931Y2641D01*
X11927Y2642D01*
X11926Y2642D01*
X11925Y2643D01*
X11920Y2643D01*
X11848Y2643D01*
X11759Y2680D01*
X11692Y2747D01*
X11655Y2836D01*
X11655Y3562D01*
X11692Y3650D01*
X11759Y3718D01*
X11772Y3723D01*
X11774Y3725D01*
X11777Y3726D01*
X11778Y3727D01*
X11780Y3728D01*
X11782Y3730D01*
X11784Y3732D01*
X11785Y3734D01*
X11786Y3735D01*
X11787Y3738D01*
X11788Y3741D01*
X11788Y3743D01*
X11789Y3744D01*
X11789Y3747D01*
X11790Y3750D01*
X11789Y3752D01*
X11789Y3754D01*
X11789Y3757D01*
X11788Y3760D01*
X11787Y3761D01*
X11787Y3763D01*
X11785Y3765D01*
X11783Y3768D01*
X11782Y3769D01*
X11781Y3771D01*
X11779Y3773D01*
X11776Y3775D01*
X11774Y3776D01*
X11773Y3776D01*
X11772Y3777D01*
X11759Y3782D01*
X11692Y3850D01*
X11655Y3938D01*
X11655Y4664D01*
X11692Y4753D01*
X11759Y4820D01*
X11832Y4850D01*
X11832Y4851D01*
X11833Y4851D01*
X11836Y4853D01*
X11840Y4856D01*
X11841Y4856D01*
X11843Y4859D01*
X11846Y4863D01*
X11847Y4863D01*
X11848Y4868D01*
X11850Y4872D01*
X11850Y4878D01*
X11850Y4958D01*
X11910Y5101D01*
X12019Y5210D01*
X12162Y5270D01*
X12318Y5270D01*
X12461Y5210D01*
X12570Y5101D01*
X12630Y4958D01*
X12630Y4886D01*
X12630Y4881D01*
X12631Y4876D01*
X12634Y4872D01*
X12636Y4868D01*
X12639Y4865D01*
X12643Y4861D01*
X12648Y4859D01*
X12739Y4821D01*
X12743Y4820D01*
X12746Y4819D01*
X12747Y4819D01*
X12748Y4819D01*
X12752Y4819D01*
X12756Y4819D01*
X12757Y4820D01*
X12758Y4820D01*
X12761Y4821D01*
X12848Y4857D01*
X12901Y4857D01*
X12904Y4857D01*
X12907Y4857D01*
X12909Y4858D01*
X12911Y4858D01*
X12913Y4860D01*
X12916Y4861D01*
X12918Y4862D01*
X12919Y4863D01*
X12921Y4865D01*
X12923Y4867D01*
X12924Y4869D01*
X12926Y4870D01*
X12927Y4873D01*
X12928Y4875D01*
X12929Y4877D01*
X12930Y4879D01*
X12930Y4882D01*
X12931Y4884D01*
X12930Y4886D01*
X12930Y4888D01*
X12930Y4891D01*
X12929Y4894D01*
X12929Y4896D01*
X12928Y4898D01*
X12927Y4900D01*
X12925Y4903D01*
X12924Y4905D01*
X12923Y4906D01*
X12922Y4907D01*
X11728Y6101D01*
X11725Y6103D01*
X11722Y6105D01*
X11721Y6106D01*
X11720Y6106D01*
X11717Y6107D01*
X11713Y6109D01*
X11712Y6109D01*
X11711Y6109D01*
X11710Y6109D01*
X11707Y6109D01*
X11481Y6109D01*
X11480Y6109D01*
X11478Y6109D01*
X11475Y6108D01*
X11471Y6108D01*
X11470Y6107D01*
X11469Y6107D01*
X11466Y6105D01*
X11463Y6103D01*
X11462Y6102D01*
X11461Y6102D01*
X11459Y6099D01*
X11456Y6096D01*
X11456Y6095D01*
X11455Y6094D01*
X11454Y6091D01*
X11452Y6087D01*
X11452Y6086D01*
X11452Y6085D01*
X11451Y6080D01*
X11451Y6074D01*
X11415Y5986D01*
X11347Y5918D01*
X11288Y5893D01*
X11287Y5893D01*
X11284Y5891D01*
X11280Y5888D01*
X11279Y5888D01*
X11277Y5885D01*
X11274Y5881D01*
X11273Y5881D01*
X11272Y5876D01*
X11270Y5872D01*
X11270Y5866D01*
X11270Y5762D01*
X11210Y5619D01*
X11104Y5513D01*
X11101Y5509D01*
X11099Y5506D01*
X11098Y5505D01*
X11097Y5501D01*
X11096Y5497D01*
X11095Y5496D01*
X11095Y5495D01*
X11095Y5492D01*
X11095Y4938D01*
X11058Y4850D01*
X10991Y4782D01*
X10978Y4777D01*
X10976Y4775D01*
X10973Y4774D01*
X10972Y4773D01*
X10970Y4772D01*
X10968Y4770D01*
X10966Y4768D01*
X10965Y4766D01*
X10964Y4765D01*
X10963Y4762D01*
X10962Y4759D01*
X10962Y4757D01*
X10961Y4756D01*
X10961Y4753D01*
X10960Y4750D01*
X10961Y4748D01*
X10961Y4746D01*
X10961Y4743D01*
X10962Y4740D01*
X10963Y4739D01*
X10963Y4737D01*
X10965Y4735D01*
X10967Y4732D01*
X10968Y4731D01*
X10969Y4729D01*
X10971Y4727D01*
X10974Y4725D01*
X10976Y4724D01*
X10977Y4724D01*
X10978Y4723D01*
X10991Y4718D01*
X11058Y4650D01*
X11093Y4568D01*
X11093Y4567D01*
X11095Y4564D01*
X11098Y4560D01*
X11098Y4559D01*
X11101Y4557D01*
X11105Y4554D01*
X11105Y4553D01*
X11110Y4552D01*
X11114Y4550D01*
X11120Y4550D01*
X11198Y4550D01*
X11341Y4490D01*
X11450Y4381D01*
X11510Y4238D01*
X11510Y4082D01*
X11450Y3939D01*
X11341Y3830D01*
X11198Y3770D01*
X11087Y3770D01*
X11083Y3770D01*
X11078Y3769D01*
X11074Y3766D01*
X11070Y3764D01*
X11069Y3764D01*
X11066Y3761D01*
X11063Y3757D01*
X11060Y3752D01*
X11058Y3747D01*
X10991Y3680D01*
X10902Y3643D01*
X10098Y3643D01*
X10009Y3680D01*
X9942Y3747D01*
X9905Y3836D01*
X9905Y4562D01*
X9942Y4650D01*
X10009Y4718D01*
X10022Y4723D01*
X10024Y4725D01*
X10027Y4726D01*
X10028Y4727D01*
X10030Y4728D01*
X10032Y4730D01*
X10034Y4732D01*
X10035Y4734D01*
X10036Y4735D01*
X10037Y4738D01*
X10038Y4741D01*
X10038Y4743D01*
X10039Y4744D01*
X10039Y4747D01*
X10040Y4750D01*
X10039Y4752D01*
X10039Y4754D01*
X10039Y4757D01*
X10038Y4760D01*
X10037Y4761D01*
X10037Y4763D01*
X10035Y4765D01*
X10033Y4768D01*
X10032Y4769D01*
X10031Y4771D01*
X10029Y4773D01*
X10026Y4775D01*
X10024Y4776D01*
X10023Y4776D01*
X10022Y4777D01*
X10009Y4782D01*
X9942Y4850D01*
X9905Y4938D01*
X9905Y5423D01*
X9904Y5426D01*
X9904Y5429D01*
X9904Y5431D01*
X9903Y5433D01*
X9902Y5435D01*
X9901Y5438D01*
X9900Y5439D01*
X9899Y5441D01*
X9897Y5443D01*
X9895Y5445D01*
X9893Y5446D01*
X9892Y5448D01*
X9889Y5449D01*
X9887Y5450D01*
X9885Y5451D01*
X9883Y5451D01*
X9880Y5452D01*
X9877Y5452D01*
X9875Y5452D01*
X9874Y5452D01*
X9871Y5452D01*
X9868Y5451D01*
X9866Y5451D01*
X9864Y5450D01*
X9862Y5448D01*
X9859Y5447D01*
X9857Y5445D01*
X9856Y5445D01*
X9855Y5444D01*
X9611Y5199D01*
X9604Y5192D01*
X9601Y5189D01*
X9599Y5186D01*
X9599Y5185D01*
X9598Y5185D01*
X9597Y5181D01*
X9596Y5177D01*
X9595Y5176D01*
X9595Y5175D01*
X9595Y5172D01*
X9595Y4938D01*
X9558Y4850D01*
X9491Y4782D01*
X9478Y4777D01*
X9476Y4775D01*
X9473Y4774D01*
X9472Y4773D01*
X9470Y4772D01*
X9468Y4770D01*
X9466Y4768D01*
X9465Y4766D01*
X9464Y4765D01*
X9463Y4762D01*
X9462Y4759D01*
X9462Y4757D01*
X9461Y4756D01*
X9461Y4753D01*
X9460Y4750D01*
X9461Y4748D01*
X9461Y4746D01*
X9461Y4743D01*
X9462Y4740D01*
X9463Y4739D01*
X9463Y4737D01*
X9465Y4735D01*
X9467Y4732D01*
X9468Y4731D01*
X9469Y4729D01*
X9471Y4727D01*
X9474Y4725D01*
X9476Y4724D01*
X9477Y4724D01*
X9478Y4723D01*
X9491Y4718D01*
X9558Y4650D01*
X9595Y4562D01*
X9595Y3836D01*
X9558Y3747D01*
X9491Y3680D01*
X9402Y3643D01*
X8598Y3643D01*
X8509Y3680D01*
X8506Y3683D01*
X8502Y3686D01*
X8499Y3688D01*
X8498Y3688D01*
X8494Y3690D01*
X8489Y3691D01*
X8485Y3691D01*
X8480Y3691D01*
X8479Y3690D01*
X8322Y3690D01*
X8179Y3750D01*
X8070Y3859D01*
X8010Y4002D01*
X8010Y4158D01*
X8070Y4301D01*
X8179Y4410D01*
X8322Y4470D01*
X8366Y4470D01*
X8370Y4470D01*
X8374Y4471D01*
X8375Y4471D01*
X8376Y4471D01*
X8379Y4473D01*
X8383Y4475D01*
X8384Y4475D01*
X8384Y4476D01*
X8385Y4476D01*
X8387Y4478D01*
X8389Y4481D01*
X8396Y4488D01*
X8399Y4491D01*
X8401Y4494D01*
X8401Y4495D01*
X8402Y4495D01*
X8403Y4499D01*
X8404Y4503D01*
X8405Y4504D01*
X8405Y4505D01*
X8405Y4508D01*
X8405Y4562D01*
X8442Y4650D01*
X8509Y4718D01*
X8522Y4723D01*
X8524Y4725D01*
X8527Y4726D01*
X8528Y4727D01*
X8530Y4728D01*
X8532Y4730D01*
X8534Y4732D01*
X8535Y4734D01*
X8536Y4735D01*
X8537Y4738D01*
X8538Y4741D01*
X8538Y4743D01*
X8539Y4744D01*
X8539Y4747D01*
X8540Y4750D01*
X8539Y4752D01*
X8539Y4754D01*
X8539Y4757D01*
X8538Y4760D01*
X8537Y4761D01*
X8537Y4763D01*
X8535Y4765D01*
X8533Y4768D01*
X8532Y4769D01*
X8531Y4771D01*
X8529Y4773D01*
X8526Y4775D01*
X8524Y4776D01*
X8523Y4776D01*
X8522Y4777D01*
X8509Y4782D01*
X8442Y4850D01*
X8405Y4938D01*
X8405Y5123D01*
X8404Y5126D01*
X8404Y5129D01*
X8404Y5131D01*
X8403Y5133D01*
X8402Y5135D01*
X8401Y5138D01*
X8400Y5139D01*
X8399Y5141D01*
X8397Y5143D01*
X8395Y5145D01*
X8393Y5146D01*
X8392Y5148D01*
X8389Y5149D01*
X8387Y5150D01*
X8385Y5151D01*
X8383Y5151D01*
X8380Y5152D01*
X8377Y5152D01*
X8375Y5152D01*
X8374Y5152D01*
X8371Y5152D01*
X8368Y5151D01*
X8366Y5151D01*
X8364Y5150D01*
X8362Y5148D01*
X8359Y5147D01*
X8357Y5145D01*
X8356Y5145D01*
X8355Y5144D01*
X8251Y5039D01*
X7525Y4314D01*
X7495Y4301D01*
X7494Y4301D01*
X7491Y4299D01*
X7487Y4296D01*
X7486Y4296D01*
X7483Y4292D01*
X7480Y4289D01*
X7480Y4288D01*
X7479Y4284D01*
X7477Y4280D01*
X7477Y4279D01*
X7477Y4274D01*
X7477Y4158D01*
X7440Y4070D01*
X7372Y4002D01*
X7284Y3966D01*
X6597Y3966D01*
X6509Y4002D01*
X6441Y4070D01*
X6405Y4158D01*
X6405Y5042D01*
X6441Y5130D01*
X6509Y5198D01*
X6597Y5234D01*
X7284Y5234D01*
X7372Y5198D01*
X7440Y5130D01*
X7446Y5115D01*
X7447Y5113D01*
X7448Y5111D01*
X7450Y5109D01*
X7451Y5107D01*
X7453Y5105D01*
X7454Y5104D01*
X7457Y5102D01*
X7459Y5101D01*
X7461Y5100D01*
X7462Y5099D01*
X7465Y5098D01*
X7468Y5097D01*
X7470Y5097D01*
X7472Y5097D01*
X7474Y5097D01*
X7477Y5097D01*
X7479Y5097D01*
X7481Y5098D01*
X7484Y5099D01*
X7486Y5100D01*
X7488Y5101D01*
X7490Y5102D01*
X7494Y5105D01*
X7534Y5146D01*
X7535Y5146D01*
X7537Y5150D01*
X7540Y5153D01*
X7540Y5154D01*
X7541Y5158D01*
X7543Y5163D01*
X7543Y5167D01*
X7542Y5172D01*
X7541Y5177D01*
X7530Y5202D01*
X7530Y5358D01*
X7590Y5501D01*
X7699Y5610D01*
X7842Y5670D01*
X7998Y5670D01*
X8023Y5659D01*
X8027Y5658D01*
X8032Y5657D01*
X8037Y5658D01*
X8041Y5658D01*
X8042Y5658D01*
X8046Y5660D01*
X8050Y5662D01*
X8054Y5666D01*
X8393Y6004D01*
X8394Y6005D01*
X8395Y6007D01*
X8397Y6009D01*
X8398Y6012D01*
X8399Y6013D01*
X8400Y6015D01*
X8400Y6018D01*
X8401Y6021D01*
X8401Y6023D01*
X8401Y6025D01*
X8401Y6027D01*
X8401Y6030D01*
X8400Y6032D01*
X8400Y6034D01*
X8398Y6037D01*
X8397Y6039D01*
X8396Y6041D01*
X8395Y6043D01*
X8393Y6044D01*
X8391Y6047D01*
X8389Y6048D01*
X8388Y6049D01*
X8383Y6052D01*
X8339Y6070D01*
X8230Y6179D01*
X8175Y6310D01*
X8174Y6313D01*
X8173Y6316D01*
X8171Y6318D01*
X8170Y6318D01*
X8170Y6319D01*
X8169Y6320D01*
X7988Y6501D01*
X7985Y6503D01*
X7982Y6505D01*
X7981Y6506D01*
X7980Y6506D01*
X7977Y6507D01*
X7973Y6509D01*
X7972Y6509D01*
X7971Y6509D01*
X7970Y6509D01*
X7967Y6509D01*
X7474Y6509D01*
X7473Y6509D01*
X7472Y6509D01*
X7469Y6508D01*
X7465Y6508D01*
X7464Y6507D01*
X7463Y6507D01*
X7460Y6505D01*
X7456Y6503D01*
X7456Y6502D01*
X7455Y6502D01*
X7453Y6499D01*
X7450Y6496D01*
X7450Y6495D01*
X7449Y6494D01*
X7448Y6491D01*
X7446Y6487D01*
X7446Y6486D01*
X7446Y6485D01*
X7445Y6480D01*
X7445Y5936D01*
X7408Y5847D01*
X7341Y5780D01*
X7252Y5743D01*
X7219Y5743D01*
X7218Y5743D01*
X7217Y5743D01*
X7213Y5742D01*
X7209Y5742D01*
X7209Y5741D01*
X7207Y5741D01*
X7204Y5739D01*
X7201Y5737D01*
X7200Y5736D01*
X7199Y5736D01*
X7197Y5733D01*
X7195Y5730D01*
X7194Y5729D01*
X7193Y5728D01*
X7192Y5725D01*
X7191Y5721D01*
X7191Y5720D01*
X7190Y5719D01*
X7190Y5714D01*
X7190Y5682D01*
X7130Y5539D01*
X7021Y5430D01*
X6878Y5370D01*
X6722Y5370D01*
X6579Y5430D01*
X6470Y5539D01*
X6410Y5682D01*
X6410Y5739D01*
X6410Y5744D01*
X6409Y5749D01*
X6407Y5753D01*
X6404Y5757D01*
X6401Y5760D01*
X6397Y5763D01*
X6397Y5764D01*
X6392Y5766D01*
X6359Y5780D01*
X6292Y5847D01*
X6255Y5936D01*
X6255Y6480D01*
X6255Y6481D01*
X6255Y6482D01*
X6254Y6486D01*
X6253Y6489D01*
X6253Y6490D01*
X6253Y6491D01*
X6251Y6495D01*
X6249Y6498D01*
X6248Y6499D01*
X6247Y6499D01*
X6245Y6502D01*
X6242Y6504D01*
X6241Y6505D01*
X6240Y6505D01*
X6237Y6507D01*
X6233Y6508D01*
X6232Y6508D01*
X6231Y6509D01*
X6226Y6509D01*
X4281Y6509D01*
X4277Y6509D01*
X4274Y6508D01*
X4273Y6508D01*
X4272Y6508D01*
X4268Y6506D01*
X4265Y6504D01*
X4264Y6503D01*
X4263Y6503D01*
X4261Y6501D01*
X3655Y5895D01*
X3653Y5893D01*
X3651Y5890D01*
X3651Y5889D01*
X3649Y5887D01*
X3649Y5884D01*
X3647Y5882D01*
X3647Y5880D01*
X3647Y5878D01*
X3647Y5875D01*
X3647Y5872D01*
X3647Y5870D01*
X3647Y5869D01*
X3648Y5866D01*
X3649Y5863D01*
X3650Y5861D01*
X3650Y5860D01*
X3652Y5857D01*
X3654Y5855D01*
X3655Y5854D01*
X3657Y5852D01*
X3659Y5851D01*
X3661Y5849D01*
X3663Y5848D01*
X3665Y5847D01*
X3668Y5847D01*
X3670Y5846D01*
X3673Y5845D01*
X3674Y5845D01*
X3675Y5845D01*
X3676Y5845D01*
X4064Y5845D01*
X4153Y5808D01*
X4159Y5802D01*
X4160Y5801D01*
X4161Y5800D01*
X4164Y5798D01*
X4167Y5796D01*
X4168Y5796D01*
X4169Y5795D01*
X4173Y5794D01*
X4176Y5793D01*
X4177Y5793D01*
X4178Y5793D01*
X4182Y5794D01*
X4186Y5794D01*
X4187Y5794D01*
X4188Y5794D01*
X4191Y5796D01*
X4195Y5797D01*
X4196Y5798D01*
X4201Y5802D01*
X4229Y5830D01*
X4372Y5890D01*
X4528Y5890D01*
X4671Y5830D01*
X4780Y5721D01*
X4840Y5578D01*
X4840Y5422D01*
X4780Y5279D01*
X4671Y5170D01*
X4528Y5110D01*
X4484Y5110D01*
X4480Y5110D01*
X4476Y5109D01*
X4475Y5109D01*
X4474Y5109D01*
X4471Y5107D01*
X4467Y5105D01*
X4466Y5105D01*
X4466Y5104D01*
X4465Y5104D01*
X4463Y5102D01*
X4365Y5004D01*
X4275Y4966D01*
X4271Y4964D01*
X4267Y4961D01*
X4264Y4958D01*
X4261Y4954D01*
X4259Y4949D01*
X4257Y4945D01*
X4257Y4939D01*
X4257Y4848D01*
X4220Y4759D01*
X4153Y4692D01*
X4064Y4655D01*
X3338Y4655D01*
X3250Y4692D01*
X3182Y4759D01*
X3177Y4772D01*
X3175Y4774D01*
X3174Y4777D01*
X3173Y4778D01*
X3172Y4780D01*
X3170Y4782D01*
X3168Y4784D01*
X3166Y4785D01*
X3165Y4786D01*
X3162Y4787D01*
X3159Y4788D01*
X3157Y4788D01*
X3156Y4789D01*
X3153Y4789D01*
X3150Y4790D01*
X3148Y4789D01*
X3146Y4789D01*
X3143Y4789D01*
X3140Y4788D01*
X3139Y4787D01*
X3137Y4787D01*
X3135Y4785D01*
X3132Y4783D01*
X3131Y4782D01*
X3129Y4781D01*
X3127Y4779D01*
X3125Y4776D01*
X3124Y4774D01*
X3124Y4773D01*
X3123Y4772D01*
X3118Y4759D01*
X3050Y4692D01*
X2962Y4655D01*
X2870Y4655D01*
X2869Y4655D01*
X2868Y4655D01*
X2864Y4654D01*
X2861Y4653D01*
X2860Y4653D01*
X2859Y4653D01*
X2855Y4651D01*
X2852Y4649D01*
X2851Y4648D01*
X2851Y4647D01*
X2848Y4645D01*
X2846Y4642D01*
X2845Y4641D01*
X2845Y4640D01*
X2843Y4637D01*
X2842Y4633D01*
X2842Y4632D01*
X2841Y4631D01*
X2841Y4626D01*
X2841Y4520D01*
X2841Y4519D01*
X2841Y4518D01*
X2842Y4514D01*
X2842Y4511D01*
X2843Y4510D01*
X2843Y4509D01*
X2845Y4505D01*
X2847Y4502D01*
X2848Y4501D01*
X2851Y4498D01*
X2854Y4496D01*
X2855Y4495D01*
X2856Y4495D01*
X2859Y4493D01*
X2863Y4492D01*
X2864Y4492D01*
X2865Y4491D01*
X2870Y4491D01*
X3173Y4491D01*
X3239Y4463D01*
X3243Y4463D01*
X3246Y4461D01*
X3247Y4461D01*
X3248Y4461D01*
X3252Y4462D01*
X3256Y4462D01*
X3257Y4462D01*
X3258Y4462D01*
X3258Y4463D01*
X3261Y4463D01*
X3327Y4491D01*
X3673Y4491D01*
X3761Y4454D01*
X3829Y4386D01*
X3836Y4369D01*
X3839Y4365D01*
X3841Y4361D01*
X3842Y4361D01*
X3845Y4358D01*
X3849Y4355D01*
X3853Y4353D01*
X3858Y4351D01*
X3863Y4351D01*
X3941Y4351D01*
X3941Y4030D01*
X3941Y4029D01*
X3941Y4028D01*
X3942Y4024D01*
X3942Y4021D01*
X3943Y4020D01*
X3943Y4019D01*
X3945Y4015D01*
X3947Y4012D01*
X3948Y4011D01*
X3951Y4008D01*
X3954Y4006D01*
X3955Y4005D01*
X3956Y4005D01*
X3959Y4003D01*
X3963Y4002D01*
X3964Y4002D01*
X3965Y4001D01*
X3970Y4001D01*
X4001Y4001D01*
X4001Y3999D01*
X3970Y3999D01*
X3969Y3999D01*
X3968Y3999D01*
X3964Y3998D01*
X3961Y3998D01*
X3960Y3997D01*
X3959Y3997D01*
X3955Y3995D01*
X3952Y3993D01*
X3951Y3992D01*
X3948Y3989D01*
X3946Y3986D01*
X3945Y3985D01*
X3945Y3984D01*
X3943Y3981D01*
X3942Y3977D01*
X3942Y3976D01*
X3941Y3975D01*
X3941Y3970D01*
X3941Y3649D01*
X3863Y3649D01*
X3859Y3648D01*
X3854Y3648D01*
X3850Y3645D01*
X3846Y3643D01*
X3845Y3643D01*
X3842Y3640D01*
X3839Y3636D01*
X3836Y3631D01*
X3829Y3614D01*
X3761Y3546D01*
X3673Y3509D01*
X3327Y3509D01*
X3261Y3537D01*
X3257Y3537D01*
X3254Y3539D01*
X3253Y3539D01*
X3252Y3539D01*
X3248Y3538D01*
X3244Y3538D01*
X3243Y3538D01*
X3242Y3538D01*
X3242Y3537D01*
X3239Y3537D01*
X3173Y3509D01*
X2870Y3509D01*
X2869Y3509D01*
X2868Y3509D01*
X2864Y3508D01*
X2861Y3508D01*
X2860Y3507D01*
X2859Y3507D01*
X2855Y3505D01*
X2852Y3503D01*
X2851Y3502D01*
X2848Y3499D01*
X2846Y3496D01*
X2845Y3495D01*
X2845Y3494D01*
X2843Y3491D01*
X2842Y3487D01*
X2842Y3486D01*
X2841Y3485D01*
X2841Y3480D01*
X2841Y3432D01*
X2820Y3381D01*
X2819Y3379D01*
X2818Y3377D01*
X2818Y3375D01*
X2817Y3372D01*
X2818Y3370D01*
X2817Y3368D01*
X2818Y3365D01*
X2818Y3362D01*
X2819Y3361D01*
X2820Y3359D01*
X2821Y3356D01*
X2822Y3354D01*
X2824Y3352D01*
X2825Y3351D01*
X2827Y3349D01*
X2829Y3347D01*
X2831Y3346D01*
X2832Y3345D01*
X2835Y3344D01*
X2837Y3342D01*
X2839Y3342D01*
X2841Y3341D01*
X2847Y3341D01*
X5068Y3341D01*
X5193Y3289D01*
X5539Y2943D01*
X5591Y2818D01*
X5591Y1736D01*
X5591Y1732D01*
X5592Y1728D01*
X5592Y1727D01*
X5594Y1723D01*
X5596Y1720D01*
X5597Y1719D01*
X5597Y1718D01*
X5599Y1715D01*
X5708Y1606D01*
X5791Y1408D01*
X5791Y592D01*
X5728Y441D01*
X5728Y439D01*
X5727Y437D01*
X5727Y435D01*
X5726Y432D01*
X5726Y430D01*
X5726Y428D01*
X5727Y425D01*
X5727Y422D01*
X5728Y421D01*
X5728Y419D01*
X5730Y416D01*
X5731Y414D01*
X5732Y412D01*
X5733Y411D01*
X5736Y409D01*
X5737Y407D01*
X5739Y406D01*
X5741Y405D01*
X5743Y404D01*
X5746Y402D01*
X5748Y402D01*
X5750Y401D01*
X5755Y401D01*
X5915Y401D01*
X5915Y401D01*
G37*
G36*
X8465Y6863D02*
X8465Y6863D01*
X8467Y6863D01*
X8470Y6864D01*
X8473Y6865D01*
X8474Y6866D01*
X8476Y6866D01*
X8478Y6868D01*
X8481Y6870D01*
X8482Y6871D01*
X8483Y6872D01*
X8485Y6875D01*
X8487Y6877D01*
X8487Y6879D01*
X8488Y6880D01*
X8489Y6883D01*
X8490Y6886D01*
X8490Y6889D01*
X8490Y6890D01*
X8490Y6891D01*
X8490Y6958D01*
X8512Y7010D01*
X8513Y7012D01*
X8513Y7014D01*
X8514Y7016D01*
X8514Y7019D01*
X8514Y7021D01*
X8514Y7023D01*
X8514Y7026D01*
X8513Y7029D01*
X8512Y7031D01*
X8512Y7033D01*
X8510Y7035D01*
X8509Y7037D01*
X8508Y7039D01*
X8507Y7041D01*
X8505Y7042D01*
X8503Y7044D01*
X8501Y7045D01*
X8499Y7047D01*
X8497Y7048D01*
X8494Y7049D01*
X8492Y7049D01*
X8490Y7050D01*
X8485Y7050D01*
X8482Y7050D01*
X8339Y7110D01*
X8230Y7219D01*
X8170Y7362D01*
X8170Y7518D01*
X8230Y7661D01*
X8339Y7770D01*
X8482Y7830D01*
X8638Y7830D01*
X8663Y7819D01*
X8667Y7818D01*
X8672Y7817D01*
X8677Y7818D01*
X8681Y7818D01*
X8682Y7818D01*
X8686Y7820D01*
X8690Y7822D01*
X8694Y7826D01*
X8992Y8123D01*
X8993Y8125D01*
X8995Y8126D01*
X8996Y8129D01*
X8998Y8131D01*
X8998Y8133D01*
X8999Y8135D01*
X9000Y8137D01*
X9000Y8140D01*
X9000Y8142D01*
X9001Y8144D01*
X9000Y8147D01*
X9000Y8150D01*
X8999Y8152D01*
X8999Y8154D01*
X8998Y8156D01*
X8997Y8159D01*
X8995Y8160D01*
X8994Y8162D01*
X8992Y8164D01*
X8991Y8166D01*
X8989Y8167D01*
X8987Y8168D01*
X8983Y8171D01*
X8909Y8201D01*
X8841Y8269D01*
X8834Y8287D01*
X8831Y8291D01*
X8829Y8295D01*
X8825Y8298D01*
X8821Y8301D01*
X8817Y8303D01*
X8813Y8304D01*
X8812Y8304D01*
X8807Y8305D01*
X8776Y8305D01*
X8751Y8312D01*
X8728Y8325D01*
X8709Y8344D01*
X8696Y8367D01*
X8689Y8392D01*
X8689Y8612D01*
X8775Y8612D01*
X8776Y8613D01*
X8777Y8613D01*
X8781Y8613D01*
X8785Y8614D01*
X8786Y8615D01*
X8787Y8615D01*
X8790Y8617D01*
X8793Y8619D01*
X8794Y8619D01*
X8795Y8620D01*
X8797Y8623D01*
X8800Y8626D01*
X8800Y8627D01*
X8801Y8627D01*
X8802Y8631D01*
X8804Y8634D01*
X8804Y8635D01*
X8804Y8636D01*
X8805Y8642D01*
X8804Y8643D01*
X8804Y8644D01*
X8804Y8647D01*
X8803Y8651D01*
X8803Y8652D01*
X8802Y8653D01*
X8800Y8656D01*
X8798Y8660D01*
X8797Y8661D01*
X8794Y8664D01*
X8791Y8666D01*
X8791Y8667D01*
X8790Y8667D01*
X8786Y8668D01*
X8783Y8670D01*
X8782Y8670D01*
X8781Y8670D01*
X8775Y8671D01*
X8689Y8671D01*
X8689Y8888D01*
X8688Y8892D01*
X8688Y8896D01*
X8687Y8897D01*
X8685Y8901D01*
X8684Y8905D01*
X8683Y8905D01*
X8683Y8906D01*
X8682Y8906D01*
X8680Y8909D01*
X8054Y9535D01*
X8051Y9537D01*
X8048Y9539D01*
X8047Y9540D01*
X8046Y9540D01*
X8043Y9541D01*
X8039Y9543D01*
X8038Y9543D01*
X8037Y9543D01*
X8034Y9543D01*
X7948Y9543D01*
X7859Y9580D01*
X7792Y9647D01*
X7755Y9736D01*
X7755Y10462D01*
X7792Y10550D01*
X7859Y10618D01*
X7872Y10623D01*
X7874Y10625D01*
X7877Y10626D01*
X7878Y10627D01*
X7880Y10628D01*
X7882Y10630D01*
X7884Y10632D01*
X7885Y10634D01*
X7886Y10635D01*
X7887Y10638D01*
X7888Y10641D01*
X7888Y10643D01*
X7889Y10644D01*
X7889Y10647D01*
X7890Y10650D01*
X7889Y10652D01*
X7889Y10654D01*
X7889Y10657D01*
X7888Y10660D01*
X7887Y10661D01*
X7887Y10663D01*
X7885Y10665D01*
X7883Y10668D01*
X7882Y10669D01*
X7881Y10671D01*
X7879Y10673D01*
X7876Y10675D01*
X7874Y10676D01*
X7873Y10676D01*
X7872Y10677D01*
X7859Y10682D01*
X7792Y10750D01*
X7755Y10838D01*
X7755Y10880D01*
X7755Y10881D01*
X7755Y10882D01*
X7754Y10886D01*
X7753Y10889D01*
X7753Y10890D01*
X7753Y10891D01*
X7751Y10895D01*
X7749Y10898D01*
X7748Y10899D01*
X7747Y10899D01*
X7745Y10902D01*
X7742Y10904D01*
X7741Y10905D01*
X7740Y10905D01*
X7737Y10907D01*
X7733Y10908D01*
X7732Y10908D01*
X7731Y10909D01*
X7726Y10909D01*
X7382Y10909D01*
X7275Y10954D01*
X6954Y11275D01*
X6914Y11371D01*
X6911Y11375D01*
X6909Y11379D01*
X6905Y11382D01*
X6901Y11385D01*
X6897Y11387D01*
X6892Y11389D01*
X6887Y11389D01*
X6874Y11389D01*
X6873Y11389D01*
X6872Y11389D01*
X6869Y11388D01*
X6865Y11388D01*
X6864Y11387D01*
X6863Y11387D01*
X6860Y11385D01*
X6856Y11383D01*
X6856Y11382D01*
X6855Y11382D01*
X6853Y11379D01*
X6850Y11376D01*
X6850Y11375D01*
X6849Y11374D01*
X6848Y11371D01*
X6846Y11367D01*
X6846Y11366D01*
X6846Y11365D01*
X6845Y11360D01*
X6845Y11336D01*
X6808Y11247D01*
X6741Y11180D01*
X6652Y11143D01*
X5848Y11143D01*
X5759Y11180D01*
X5721Y11218D01*
X5718Y11220D01*
X5716Y11222D01*
X5714Y11223D01*
X5713Y11224D01*
X5710Y11225D01*
X5707Y11226D01*
X5706Y11226D01*
X5704Y11227D01*
X5701Y11227D01*
X5698Y11227D01*
X5696Y11226D01*
X5694Y11226D01*
X5691Y11225D01*
X5689Y11225D01*
X5687Y11224D01*
X5685Y11223D01*
X5683Y11221D01*
X5681Y11220D01*
X5679Y11218D01*
X5678Y11217D01*
X5676Y11214D01*
X5675Y11212D01*
X5674Y11210D01*
X5673Y11209D01*
X5672Y11206D01*
X5671Y11203D01*
X5671Y11200D01*
X5671Y11199D01*
X5671Y11198D01*
X5671Y11186D01*
X5622Y11068D01*
X5282Y10728D01*
X5164Y10679D01*
X4907Y10679D01*
X4903Y10679D01*
X4899Y10678D01*
X4898Y10678D01*
X4897Y10678D01*
X4894Y10676D01*
X4890Y10674D01*
X4889Y10673D01*
X4888Y10673D01*
X4886Y10671D01*
X4798Y10634D01*
X4202Y10634D01*
X4114Y10671D01*
X4046Y10739D01*
X4009Y10827D01*
X4009Y11173D01*
X4037Y11239D01*
X4037Y11243D01*
X4039Y11246D01*
X4039Y11247D01*
X4039Y11248D01*
X4038Y11252D01*
X4038Y11256D01*
X4038Y11257D01*
X4038Y11258D01*
X4037Y11258D01*
X4037Y11261D01*
X4009Y11327D01*
X4009Y11673D01*
X4037Y11739D01*
X4037Y11741D01*
X4038Y11742D01*
X4038Y11744D01*
X4039Y11746D01*
X4039Y11747D01*
X4039Y11748D01*
X4038Y11751D01*
X4039Y11752D01*
X4038Y11753D01*
X4038Y11756D01*
X4038Y11757D01*
X4038Y11758D01*
X4037Y11758D01*
X4037Y11761D01*
X4009Y11827D01*
X4009Y12173D01*
X4037Y12239D01*
X4037Y12243D01*
X4039Y12246D01*
X4039Y12247D01*
X4039Y12248D01*
X4038Y12252D01*
X4038Y12256D01*
X4038Y12257D01*
X4038Y12258D01*
X4037Y12258D01*
X4037Y12261D01*
X4009Y12327D01*
X4009Y12673D01*
X4046Y12761D01*
X4114Y12829D01*
X4202Y12866D01*
X4798Y12866D01*
X4824Y12855D01*
X4828Y12854D01*
X4832Y12853D01*
X4833Y12853D01*
X4834Y12853D01*
X4838Y12853D01*
X4842Y12853D01*
X4843Y12854D01*
X4844Y12854D01*
X4847Y12855D01*
X4882Y12870D01*
X5000Y12870D01*
X5001Y12870D01*
X5002Y12870D01*
X5006Y12871D01*
X5009Y12871D01*
X5010Y12872D01*
X5011Y12872D01*
X5015Y12874D01*
X5018Y12876D01*
X5019Y12877D01*
X5022Y12880D01*
X5024Y12883D01*
X5025Y12884D01*
X5025Y12885D01*
X5027Y12888D01*
X5028Y12891D01*
X5028Y12893D01*
X5029Y12894D01*
X5029Y12899D01*
X5029Y13005D01*
X5029Y13009D01*
X5028Y13013D01*
X5028Y13014D01*
X5026Y13018D01*
X5024Y13022D01*
X5023Y13022D01*
X5023Y13023D01*
X5021Y13026D01*
X4876Y13171D01*
X4872Y13173D01*
X4869Y13175D01*
X4869Y13176D01*
X4868Y13176D01*
X4864Y13177D01*
X4860Y13179D01*
X4859Y13179D01*
X4858Y13179D01*
X4855Y13179D01*
X3436Y13179D01*
X3318Y13228D01*
X3224Y13322D01*
X1951Y14595D01*
X1950Y14596D01*
X1950Y14597D01*
X1947Y14599D01*
X1943Y14601D01*
X1942Y14601D01*
X1942Y14602D01*
X1938Y14602D01*
X1934Y14603D01*
X1933Y14603D01*
X1932Y14604D01*
X1928Y14603D01*
X1925Y14603D01*
X1924Y14603D01*
X1923Y14603D01*
X1919Y14601D01*
X1916Y14600D01*
X1915Y14599D01*
X1914Y14599D01*
X1910Y14595D01*
X1856Y14542D01*
X1821Y14527D01*
X1819Y14525D01*
X1816Y14524D01*
X1815Y14523D01*
X1813Y14522D01*
X1811Y14520D01*
X1809Y14518D01*
X1808Y14516D01*
X1807Y14515D01*
X1806Y14512D01*
X1805Y14509D01*
X1804Y14507D01*
X1804Y14506D01*
X1804Y14503D01*
X1803Y14500D01*
X1803Y14498D01*
X1803Y14496D01*
X1804Y14493D01*
X1805Y14490D01*
X1806Y14489D01*
X1806Y14487D01*
X1808Y14485D01*
X1809Y14482D01*
X1811Y14481D01*
X1812Y14479D01*
X1814Y14477D01*
X1816Y14475D01*
X1819Y14474D01*
X1820Y14474D01*
X1821Y14473D01*
X1856Y14458D01*
X1985Y14329D01*
X1989Y14327D01*
X1992Y14325D01*
X1993Y14324D01*
X1997Y14323D01*
X2001Y14321D01*
X2002Y14321D01*
X2003Y14321D01*
X2006Y14321D01*
X2064Y14321D01*
X2182Y14272D01*
X3772Y12682D01*
X3821Y12564D01*
X3821Y10645D01*
X3821Y10641D01*
X3822Y10637D01*
X3822Y10636D01*
X3824Y10632D01*
X3826Y10628D01*
X3827Y10628D01*
X3827Y10627D01*
X3829Y10624D01*
X4124Y10329D01*
X4128Y10327D01*
X4131Y10325D01*
X4131Y10324D01*
X4132Y10324D01*
X4136Y10323D01*
X4140Y10321D01*
X4141Y10321D01*
X4142Y10321D01*
X4145Y10321D01*
X5064Y10321D01*
X5182Y10272D01*
X5355Y10099D01*
X5357Y10097D01*
X5360Y10095D01*
X5361Y10094D01*
X5363Y10093D01*
X5366Y10092D01*
X5368Y10091D01*
X5370Y10091D01*
X5372Y10090D01*
X5375Y10090D01*
X5378Y10090D01*
X5380Y10091D01*
X5381Y10091D01*
X5384Y10092D01*
X5387Y10092D01*
X5389Y10093D01*
X5390Y10094D01*
X5393Y10096D01*
X5395Y10097D01*
X5396Y10099D01*
X5398Y10100D01*
X5399Y10103D01*
X5401Y10105D01*
X5402Y10107D01*
X5403Y10108D01*
X5403Y10111D01*
X5404Y10114D01*
X5405Y10117D01*
X5405Y10118D01*
X5405Y10119D01*
X5405Y10414D01*
X5442Y10503D01*
X5509Y10570D01*
X5598Y10607D01*
X6171Y10607D01*
X6176Y10608D01*
X6181Y10608D01*
X6181Y10609D01*
X6185Y10611D01*
X6189Y10613D01*
X6192Y10617D01*
X6196Y10620D01*
X6198Y10625D01*
X6230Y10701D01*
X6339Y10810D01*
X6482Y10870D01*
X6638Y10870D01*
X6781Y10810D01*
X6890Y10701D01*
X6950Y10558D01*
X6950Y10402D01*
X6890Y10259D01*
X6781Y10150D01*
X6638Y10090D01*
X6624Y10090D01*
X6623Y10090D01*
X6622Y10090D01*
X6619Y10089D01*
X6615Y10089D01*
X6614Y10088D01*
X6613Y10088D01*
X6610Y10086D01*
X6606Y10084D01*
X6606Y10083D01*
X6605Y10083D01*
X6603Y10080D01*
X6600Y10077D01*
X6600Y10076D01*
X6599Y10075D01*
X6598Y10072D01*
X6596Y10069D01*
X6596Y10067D01*
X6596Y10066D01*
X6595Y10061D01*
X6595Y9688D01*
X6558Y9600D01*
X6491Y9532D01*
X6478Y9527D01*
X6476Y9525D01*
X6473Y9524D01*
X6472Y9523D01*
X6470Y9522D01*
X6468Y9520D01*
X6466Y9518D01*
X6465Y9516D01*
X6464Y9515D01*
X6463Y9512D01*
X6462Y9509D01*
X6462Y9507D01*
X6461Y9506D01*
X6461Y9503D01*
X6460Y9500D01*
X6461Y9498D01*
X6461Y9496D01*
X6461Y9493D01*
X6462Y9490D01*
X6463Y9489D01*
X6463Y9487D01*
X6465Y9485D01*
X6467Y9482D01*
X6468Y9481D01*
X6469Y9479D01*
X6471Y9477D01*
X6474Y9475D01*
X6476Y9474D01*
X6477Y9474D01*
X6478Y9473D01*
X6491Y9468D01*
X6558Y9400D01*
X6595Y9312D01*
X6595Y8586D01*
X6558Y8497D01*
X6491Y8430D01*
X6488Y8429D01*
X6488Y8428D01*
X6487Y8428D01*
X6484Y8426D01*
X6480Y8423D01*
X6479Y8423D01*
X6477Y8420D01*
X6474Y8416D01*
X6473Y8416D01*
X6472Y8411D01*
X6470Y8407D01*
X6470Y8401D01*
X6470Y8322D01*
X6410Y8179D01*
X6301Y8070D01*
X6158Y8010D01*
X6002Y8010D01*
X5859Y8070D01*
X5750Y8179D01*
X5690Y8322D01*
X5690Y8364D01*
X5690Y8365D01*
X5690Y8366D01*
X5689Y8370D01*
X5689Y8373D01*
X5688Y8374D01*
X5688Y8375D01*
X5686Y8378D01*
X5684Y8382D01*
X5683Y8382D01*
X5683Y8383D01*
X5680Y8386D01*
X5677Y8388D01*
X5676Y8389D01*
X5675Y8389D01*
X5672Y8391D01*
X5669Y8392D01*
X5667Y8392D01*
X5666Y8393D01*
X5661Y8393D01*
X5598Y8393D01*
X5561Y8408D01*
X5559Y8409D01*
X5557Y8410D01*
X5555Y8410D01*
X5552Y8410D01*
X5550Y8410D01*
X5548Y8410D01*
X5545Y8410D01*
X5542Y8409D01*
X5541Y8409D01*
X5539Y8408D01*
X5536Y8407D01*
X5534Y8405D01*
X5532Y8404D01*
X5531Y8403D01*
X5529Y8401D01*
X5527Y8399D01*
X5526Y8397D01*
X5525Y8396D01*
X5524Y8393D01*
X5522Y8390D01*
X5522Y8388D01*
X5521Y8387D01*
X5521Y8381D01*
X5521Y8236D01*
X5472Y8118D01*
X5349Y7996D01*
X5347Y7993D01*
X5345Y7991D01*
X5344Y7988D01*
X5343Y7987D01*
X5343Y7986D01*
X5290Y7859D01*
X5181Y7750D01*
X5038Y7690D01*
X5020Y7690D01*
X5019Y7690D01*
X5018Y7690D01*
X5014Y7689D01*
X5011Y7689D01*
X5010Y7688D01*
X5009Y7688D01*
X5005Y7686D01*
X5002Y7684D01*
X5001Y7683D01*
X4998Y7680D01*
X4996Y7677D01*
X4995Y7676D01*
X4995Y7675D01*
X4993Y7672D01*
X4992Y7669D01*
X4992Y7667D01*
X4991Y7666D01*
X4991Y7661D01*
X4991Y7327D01*
X4954Y7239D01*
X4892Y7177D01*
X4890Y7174D01*
X4890Y7173D01*
X4887Y7169D01*
X4885Y7165D01*
X4884Y7160D01*
X4884Y7155D01*
X4884Y7150D01*
X4886Y7145D01*
X4890Y7136D01*
X4890Y7120D01*
X4890Y7119D01*
X4890Y7118D01*
X4891Y7114D01*
X4891Y7111D01*
X4892Y7110D01*
X4892Y7109D01*
X4894Y7105D01*
X4896Y7102D01*
X4897Y7101D01*
X4900Y7098D01*
X4903Y7096D01*
X4904Y7095D01*
X4905Y7095D01*
X4908Y7093D01*
X4911Y7092D01*
X4913Y7092D01*
X4914Y7091D01*
X4919Y7091D01*
X6226Y7091D01*
X6227Y7091D01*
X6228Y7091D01*
X6231Y7092D01*
X6235Y7092D01*
X6236Y7093D01*
X6237Y7093D01*
X6240Y7095D01*
X6244Y7097D01*
X6244Y7098D01*
X6245Y7098D01*
X6247Y7101D01*
X6250Y7104D01*
X6250Y7105D01*
X6251Y7106D01*
X6252Y7109D01*
X6254Y7113D01*
X6254Y7114D01*
X6254Y7115D01*
X6255Y7120D01*
X6255Y7764D01*
X6292Y7853D01*
X6359Y7920D01*
X6448Y7957D01*
X7252Y7957D01*
X7341Y7920D01*
X7408Y7853D01*
X7410Y7848D01*
X7411Y7847D01*
X7413Y7844D01*
X7415Y7840D01*
X7416Y7840D01*
X7416Y7839D01*
X7419Y7837D01*
X7423Y7834D01*
X7423Y7833D01*
X7427Y7832D01*
X7432Y7830D01*
X7437Y7830D01*
X7518Y7830D01*
X7661Y7770D01*
X7770Y7661D01*
X7830Y7518D01*
X7830Y7362D01*
X7770Y7219D01*
X7692Y7141D01*
X7690Y7138D01*
X7688Y7136D01*
X7687Y7134D01*
X7686Y7133D01*
X7685Y7130D01*
X7684Y7127D01*
X7684Y7126D01*
X7683Y7124D01*
X7684Y7121D01*
X7683Y7118D01*
X7684Y7116D01*
X7684Y7114D01*
X7685Y7111D01*
X7685Y7109D01*
X7686Y7107D01*
X7687Y7105D01*
X7689Y7103D01*
X7691Y7101D01*
X7692Y7099D01*
X7693Y7098D01*
X7696Y7096D01*
X7698Y7095D01*
X7700Y7094D01*
X7701Y7093D01*
X7704Y7092D01*
X7707Y7091D01*
X7710Y7091D01*
X7711Y7091D01*
X7712Y7091D01*
X8158Y7091D01*
X8265Y7046D01*
X8351Y6961D01*
X8440Y6871D01*
X8443Y6869D01*
X8445Y6867D01*
X8447Y6866D01*
X8448Y6865D01*
X8451Y6864D01*
X8454Y6863D01*
X8456Y6863D01*
X8457Y6862D01*
X8460Y6863D01*
X8463Y6862D01*
X8465Y6863D01*
G37*
G36*
X430Y6424D02*
X430Y6424D01*
X432Y6424D01*
X435Y6425D01*
X438Y6425D01*
X440Y6426D01*
X441Y6426D01*
X444Y6428D01*
X447Y6429D01*
X449Y6431D01*
X450Y6432D01*
X451Y6433D01*
X707Y6689D01*
X807Y6789D01*
X932Y6841D01*
X2847Y6841D01*
X2851Y6841D01*
X2855Y6842D01*
X2856Y6842D01*
X2860Y6844D01*
X2863Y6846D01*
X2864Y6847D01*
X2865Y6847D01*
X2867Y6849D01*
X3151Y7133D01*
X3153Y7136D01*
X3155Y7139D01*
X3156Y7140D01*
X3157Y7144D01*
X3159Y7148D01*
X3159Y7149D01*
X3159Y7150D01*
X3159Y7153D01*
X3159Y8568D01*
X3211Y8693D01*
X3807Y9289D01*
X3932Y9341D01*
X4136Y9341D01*
X4139Y9341D01*
X4142Y9341D01*
X4145Y9342D01*
X4146Y9343D01*
X4147Y9343D01*
X4202Y9366D01*
X4462Y9366D01*
X4466Y9366D01*
X4470Y9367D01*
X4471Y9367D01*
X4472Y9367D01*
X4475Y9369D01*
X4479Y9371D01*
X4480Y9372D01*
X4481Y9372D01*
X4483Y9374D01*
X4541Y9432D01*
X4541Y9433D01*
X4544Y9436D01*
X4547Y9440D01*
X4548Y9445D01*
X4550Y9449D01*
X4550Y9450D01*
X4549Y9454D01*
X4549Y9459D01*
X4548Y9464D01*
X4490Y9602D01*
X4490Y9650D01*
X4490Y9651D01*
X4490Y9652D01*
X4489Y9656D01*
X4489Y9659D01*
X4488Y9660D01*
X4488Y9661D01*
X4486Y9665D01*
X4484Y9668D01*
X4483Y9669D01*
X4480Y9672D01*
X4477Y9674D01*
X4476Y9675D01*
X4475Y9675D01*
X4472Y9677D01*
X4469Y9678D01*
X4467Y9678D01*
X4466Y9679D01*
X4461Y9679D01*
X3936Y9679D01*
X3818Y9728D01*
X3228Y10318D01*
X3179Y10436D01*
X3179Y11341D01*
X3179Y11342D01*
X3179Y11343D01*
X3178Y11347D01*
X3178Y11351D01*
X3177Y11351D01*
X3177Y11353D01*
X3175Y11356D01*
X3173Y11359D01*
X3172Y11360D01*
X3172Y11361D01*
X3169Y11363D01*
X3166Y11365D01*
X3165Y11366D01*
X3164Y11367D01*
X3161Y11368D01*
X3157Y11369D01*
X3156Y11369D01*
X3155Y11370D01*
X3150Y11370D01*
X3122Y11370D01*
X3031Y11408D01*
X3029Y11409D01*
X3027Y11409D01*
X3025Y11410D01*
X3022Y11410D01*
X3020Y11410D01*
X3018Y11410D01*
X3015Y11410D01*
X3012Y11409D01*
X3011Y11409D01*
X3009Y11408D01*
X3006Y11407D01*
X3004Y11405D01*
X3002Y11404D01*
X3001Y11403D01*
X2999Y11401D01*
X2997Y11399D01*
X2996Y11397D01*
X2995Y11396D01*
X2994Y11393D01*
X2992Y11390D01*
X2992Y11388D01*
X2991Y11387D01*
X2991Y11381D01*
X2991Y11327D01*
X2954Y11239D01*
X2886Y11171D01*
X2869Y11164D01*
X2865Y11161D01*
X2861Y11159D01*
X2861Y11158D01*
X2858Y11155D01*
X2855Y11151D01*
X2853Y11147D01*
X2851Y11142D01*
X2851Y11137D01*
X2851Y11059D01*
X2530Y11059D01*
X2529Y11059D01*
X2528Y11059D01*
X2524Y11058D01*
X2521Y11058D01*
X2520Y11057D01*
X2519Y11057D01*
X2515Y11055D01*
X2512Y11053D01*
X2511Y11052D01*
X2508Y11049D01*
X2506Y11046D01*
X2505Y11045D01*
X2505Y11044D01*
X2503Y11041D01*
X2502Y11037D01*
X2502Y11036D01*
X2501Y11035D01*
X2501Y11030D01*
X2501Y10999D01*
X2470Y10999D01*
X2469Y10999D01*
X2468Y10999D01*
X2464Y10998D01*
X2461Y10998D01*
X2460Y10997D01*
X2459Y10997D01*
X2455Y10995D01*
X2452Y10993D01*
X2451Y10992D01*
X2448Y10989D01*
X2446Y10986D01*
X2445Y10985D01*
X2445Y10984D01*
X2443Y10981D01*
X2442Y10977D01*
X2442Y10976D01*
X2441Y10975D01*
X2441Y10970D01*
X2441Y10774D01*
X2237Y10774D01*
X2228Y10777D01*
X2227Y10777D01*
X2223Y10777D01*
X2218Y10778D01*
X2213Y10777D01*
X2209Y10775D01*
X2205Y10773D01*
X2201Y10770D01*
X2198Y10767D01*
X2195Y10763D01*
X2193Y10758D01*
X2191Y10754D01*
X2191Y10748D01*
X2191Y10154D01*
X2191Y10153D01*
X2192Y10149D01*
X2192Y10144D01*
X2195Y10140D01*
X2197Y10136D01*
X2200Y10133D01*
X2204Y10129D01*
X2209Y10127D01*
X2321Y10080D01*
X2430Y9971D01*
X2490Y9828D01*
X2490Y9672D01*
X2430Y9529D01*
X2317Y9416D01*
X2315Y9413D01*
X2313Y9411D01*
X2312Y9409D01*
X2311Y9408D01*
X2310Y9405D01*
X2309Y9402D01*
X2309Y9401D01*
X2308Y9399D01*
X2309Y9396D01*
X2308Y9393D01*
X2309Y9391D01*
X2309Y9389D01*
X2310Y9386D01*
X2310Y9384D01*
X2311Y9382D01*
X2312Y9380D01*
X2314Y9378D01*
X2316Y9376D01*
X2317Y9374D01*
X2318Y9373D01*
X2321Y9371D01*
X2323Y9370D01*
X2325Y9369D01*
X2326Y9368D01*
X2329Y9367D01*
X2332Y9366D01*
X2335Y9366D01*
X2336Y9366D01*
X2337Y9366D01*
X2798Y9366D01*
X2886Y9329D01*
X2954Y9261D01*
X2991Y9173D01*
X2991Y8827D01*
X2963Y8761D01*
X2963Y8757D01*
X2961Y8754D01*
X2961Y8753D01*
X2961Y8752D01*
X2962Y8748D01*
X2962Y8744D01*
X2962Y8743D01*
X2962Y8742D01*
X2963Y8742D01*
X2963Y8739D01*
X2991Y8673D01*
X2991Y8327D01*
X2963Y8261D01*
X2963Y8257D01*
X2961Y8254D01*
X2961Y8253D01*
X2961Y8252D01*
X2962Y8248D01*
X2962Y8244D01*
X2962Y8243D01*
X2962Y8242D01*
X2963Y8242D01*
X2963Y8239D01*
X2991Y8173D01*
X2991Y7827D01*
X2954Y7739D01*
X2886Y7671D01*
X2869Y7664D01*
X2865Y7661D01*
X2861Y7659D01*
X2861Y7658D01*
X2858Y7655D01*
X2855Y7651D01*
X2853Y7647D01*
X2851Y7642D01*
X2851Y7637D01*
X2851Y7559D01*
X2530Y7559D01*
X2529Y7559D01*
X2528Y7559D01*
X2524Y7558D01*
X2521Y7558D01*
X2520Y7557D01*
X2519Y7557D01*
X2515Y7555D01*
X2512Y7553D01*
X2511Y7552D01*
X2508Y7549D01*
X2506Y7546D01*
X2505Y7545D01*
X2505Y7544D01*
X2503Y7541D01*
X2502Y7537D01*
X2502Y7536D01*
X2501Y7535D01*
X2501Y7530D01*
X2501Y7499D01*
X2499Y7499D01*
X2499Y7530D01*
X2499Y7531D01*
X2499Y7532D01*
X2498Y7536D01*
X2498Y7539D01*
X2497Y7540D01*
X2497Y7541D01*
X2495Y7545D01*
X2493Y7548D01*
X2492Y7549D01*
X2489Y7552D01*
X2486Y7554D01*
X2485Y7555D01*
X2484Y7555D01*
X2481Y7557D01*
X2477Y7558D01*
X2476Y7558D01*
X2475Y7559D01*
X2470Y7559D01*
X2149Y7559D01*
X2149Y7637D01*
X2148Y7641D01*
X2148Y7646D01*
X2145Y7650D01*
X2143Y7654D01*
X2143Y7655D01*
X2140Y7658D01*
X2136Y7661D01*
X2131Y7664D01*
X2114Y7671D01*
X2084Y7701D01*
X2081Y7703D01*
X2078Y7705D01*
X2077Y7706D01*
X2076Y7706D01*
X2072Y7707D01*
X2069Y7709D01*
X2067Y7709D01*
X2066Y7709D01*
X2063Y7709D01*
X2022Y7709D01*
X1915Y7754D01*
X451Y9218D01*
X448Y9220D01*
X446Y9222D01*
X444Y9223D01*
X443Y9224D01*
X440Y9225D01*
X437Y9226D01*
X436Y9226D01*
X434Y9226D01*
X431Y9226D01*
X428Y9227D01*
X426Y9226D01*
X424Y9226D01*
X421Y9225D01*
X419Y9224D01*
X417Y9223D01*
X415Y9223D01*
X413Y9221D01*
X411Y9219D01*
X409Y9218D01*
X408Y9217D01*
X406Y9214D01*
X405Y9212D01*
X404Y9210D01*
X403Y9208D01*
X402Y9206D01*
X401Y9203D01*
X401Y9200D01*
X401Y9199D01*
X401Y9197D01*
X401Y6453D01*
X401Y6450D01*
X401Y6447D01*
X402Y6446D01*
X402Y6444D01*
X404Y6441D01*
X405Y6439D01*
X406Y6437D01*
X407Y6435D01*
X409Y6433D01*
X411Y6431D01*
X412Y6430D01*
X414Y6429D01*
X417Y6428D01*
X419Y6426D01*
X421Y6426D01*
X423Y6425D01*
X425Y6425D01*
X428Y6424D01*
X430Y6424D01*
G37*
%LPC*%
G36*
X4142Y14409D02*
X4142Y14409D01*
X3944Y14492D01*
X3792Y14644D01*
X3709Y14842D01*
X3709Y15658D01*
X3792Y15856D01*
X3944Y16008D01*
X4142Y16091D01*
X4358Y16091D01*
X4556Y16008D01*
X4708Y15856D01*
X4723Y15821D01*
X4725Y15819D01*
X4726Y15816D01*
X4727Y15815D01*
X4728Y15813D01*
X4730Y15811D01*
X4732Y15809D01*
X4734Y15808D01*
X4735Y15807D01*
X4738Y15806D01*
X4741Y15805D01*
X4743Y15804D01*
X4744Y15804D01*
X4747Y15804D01*
X4750Y15803D01*
X4752Y15803D01*
X4754Y15803D01*
X4757Y15804D01*
X4760Y15805D01*
X4761Y15806D01*
X4763Y15806D01*
X4765Y15808D01*
X4768Y15809D01*
X4769Y15811D01*
X4771Y15812D01*
X4773Y15814D01*
X4775Y15816D01*
X4776Y15819D01*
X4776Y15820D01*
X4777Y15821D01*
X4792Y15856D01*
X4944Y16008D01*
X5142Y16091D01*
X5358Y16091D01*
X5556Y16008D01*
X5708Y15856D01*
X5791Y15658D01*
X5791Y14842D01*
X5708Y14644D01*
X5556Y14492D01*
X5358Y14409D01*
X5142Y14409D01*
X4944Y14492D01*
X4792Y14644D01*
X4777Y14679D01*
X4775Y14681D01*
X4774Y14684D01*
X4773Y14685D01*
X4772Y14687D01*
X4770Y14689D01*
X4768Y14691D01*
X4766Y14692D01*
X4765Y14693D01*
X4762Y14694D01*
X4759Y14695D01*
X4757Y14696D01*
X4756Y14696D01*
X4753Y14696D01*
X4750Y14697D01*
X4748Y14697D01*
X4746Y14697D01*
X4743Y14696D01*
X4740Y14695D01*
X4739Y14694D01*
X4737Y14694D01*
X4735Y14692D01*
X4732Y14691D01*
X4731Y14689D01*
X4729Y14688D01*
X4727Y14686D01*
X4725Y14684D01*
X4724Y14681D01*
X4724Y14680D01*
X4723Y14679D01*
X4708Y14644D01*
X4556Y14492D01*
X4358Y14409D01*
X4142Y14409D01*
G37*
%LPD*%
%LPC*%
G36*
X6848Y13643D02*
X6848Y13643D01*
X6759Y13680D01*
X6692Y13747D01*
X6655Y13836D01*
X6655Y14562D01*
X6692Y14650D01*
X6759Y14718D01*
X6772Y14723D01*
X6774Y14725D01*
X6777Y14726D01*
X6778Y14727D01*
X6780Y14728D01*
X6782Y14730D01*
X6784Y14732D01*
X6785Y14734D01*
X6786Y14735D01*
X6787Y14738D01*
X6788Y14741D01*
X6788Y14743D01*
X6789Y14744D01*
X6789Y14747D01*
X6790Y14750D01*
X6789Y14752D01*
X6789Y14754D01*
X6789Y14757D01*
X6788Y14760D01*
X6787Y14761D01*
X6787Y14763D01*
X6785Y14765D01*
X6783Y14768D01*
X6782Y14769D01*
X6781Y14771D01*
X6779Y14773D01*
X6776Y14775D01*
X6774Y14776D01*
X6773Y14776D01*
X6772Y14777D01*
X6759Y14782D01*
X6692Y14850D01*
X6655Y14938D01*
X6655Y15664D01*
X6692Y15753D01*
X6759Y15820D01*
X6848Y15857D01*
X7652Y15857D01*
X7741Y15820D01*
X7808Y15753D01*
X7835Y15688D01*
X7835Y15687D01*
X7838Y15684D01*
X7840Y15680D01*
X7840Y15679D01*
X7844Y15677D01*
X7848Y15674D01*
X7848Y15673D01*
X7852Y15672D01*
X7857Y15670D01*
X7862Y15670D01*
X7918Y15670D01*
X8061Y15610D01*
X8170Y15501D01*
X8230Y15358D01*
X8230Y15202D01*
X8170Y15059D01*
X8061Y14950D01*
X7918Y14890D01*
X7845Y14890D01*
X7840Y14890D01*
X7835Y14889D01*
X7831Y14886D01*
X7827Y14884D01*
X7824Y14881D01*
X7820Y14877D01*
X7818Y14872D01*
X7808Y14850D01*
X7741Y14782D01*
X7728Y14777D01*
X7726Y14775D01*
X7723Y14774D01*
X7722Y14773D01*
X7720Y14772D01*
X7718Y14770D01*
X7716Y14768D01*
X7715Y14766D01*
X7714Y14765D01*
X7713Y14762D01*
X7712Y14759D01*
X7712Y14757D01*
X7711Y14756D01*
X7711Y14753D01*
X7710Y14750D01*
X7711Y14748D01*
X7711Y14746D01*
X7711Y14743D01*
X7712Y14740D01*
X7713Y14739D01*
X7713Y14737D01*
X7715Y14735D01*
X7717Y14732D01*
X7718Y14731D01*
X7719Y14729D01*
X7721Y14727D01*
X7724Y14725D01*
X7726Y14724D01*
X7727Y14724D01*
X7728Y14723D01*
X7741Y14718D01*
X7808Y14650D01*
X7843Y14568D01*
X7843Y14567D01*
X7845Y14564D01*
X7848Y14560D01*
X7848Y14559D01*
X7851Y14557D01*
X7855Y14554D01*
X7855Y14553D01*
X7860Y14552D01*
X7864Y14550D01*
X7870Y14550D01*
X7918Y14550D01*
X8061Y14490D01*
X8170Y14381D01*
X8230Y14238D01*
X8230Y14082D01*
X8170Y13939D01*
X8061Y13830D01*
X7918Y13770D01*
X7837Y13770D01*
X7833Y13770D01*
X7828Y13769D01*
X7824Y13766D01*
X7820Y13764D01*
X7819Y13764D01*
X7816Y13761D01*
X7813Y13757D01*
X7810Y13752D01*
X7808Y13747D01*
X7741Y13680D01*
X7652Y13643D01*
X6848Y13643D01*
G37*
%LPD*%
G36*
X4747Y401D02*
X4747Y401D01*
X4749Y401D01*
X4752Y402D01*
X4754Y402D01*
X4756Y403D01*
X4758Y404D01*
X4760Y406D01*
X4763Y407D01*
X4764Y408D01*
X4766Y409D01*
X4767Y412D01*
X4769Y414D01*
X4770Y416D01*
X4771Y417D01*
X4772Y420D01*
X4773Y423D01*
X4773Y425D01*
X4774Y426D01*
X4774Y429D01*
X4774Y432D01*
X4774Y434D01*
X4773Y436D01*
X4772Y441D01*
X4709Y592D01*
X4709Y1408D01*
X4792Y1606D01*
X4901Y1715D01*
X4903Y1719D01*
X4905Y1722D01*
X4906Y1723D01*
X4907Y1727D01*
X4909Y1731D01*
X4909Y1732D01*
X4909Y1733D01*
X4909Y1736D01*
X4909Y2597D01*
X4909Y2601D01*
X4908Y2605D01*
X4908Y2606D01*
X4906Y2610D01*
X4904Y2613D01*
X4903Y2614D01*
X4903Y2615D01*
X4901Y2617D01*
X4867Y2651D01*
X4864Y2653D01*
X4861Y2655D01*
X4860Y2656D01*
X4856Y2657D01*
X4852Y2659D01*
X4851Y2659D01*
X4850Y2659D01*
X4847Y2659D01*
X2020Y2659D01*
X2019Y2659D01*
X2018Y2659D01*
X2014Y2658D01*
X2011Y2658D01*
X2010Y2657D01*
X2009Y2657D01*
X2005Y2655D01*
X2002Y2653D01*
X2001Y2652D01*
X1998Y2649D01*
X1996Y2646D01*
X1995Y2645D01*
X1995Y2644D01*
X1993Y2641D01*
X1992Y2637D01*
X1992Y2636D01*
X1991Y2635D01*
X1991Y2630D01*
X1991Y2627D01*
X1954Y2539D01*
X1886Y2471D01*
X1798Y2434D01*
X702Y2434D01*
X614Y2471D01*
X546Y2539D01*
X509Y2627D01*
X509Y3581D01*
X509Y3582D01*
X509Y3583D01*
X508Y3587D01*
X508Y3591D01*
X507Y3591D01*
X507Y3593D01*
X505Y3596D01*
X503Y3599D01*
X502Y3600D01*
X502Y3601D01*
X499Y3603D01*
X496Y3605D01*
X495Y3606D01*
X494Y3607D01*
X491Y3608D01*
X487Y3609D01*
X486Y3609D01*
X485Y3610D01*
X480Y3610D01*
X471Y3610D01*
X441Y3623D01*
X439Y3623D01*
X437Y3624D01*
X435Y3624D01*
X432Y3625D01*
X430Y3625D01*
X428Y3625D01*
X425Y3624D01*
X422Y3624D01*
X421Y3623D01*
X419Y3623D01*
X416Y3621D01*
X414Y3620D01*
X412Y3619D01*
X411Y3618D01*
X409Y3615D01*
X407Y3614D01*
X406Y3612D01*
X405Y3610D01*
X404Y3608D01*
X402Y3605D01*
X402Y3603D01*
X401Y3601D01*
X401Y3596D01*
X401Y953D01*
X401Y950D01*
X401Y947D01*
X402Y946D01*
X402Y944D01*
X404Y941D01*
X405Y939D01*
X406Y937D01*
X407Y935D01*
X409Y933D01*
X411Y931D01*
X412Y930D01*
X414Y929D01*
X417Y928D01*
X419Y926D01*
X421Y926D01*
X423Y925D01*
X425Y925D01*
X428Y924D01*
X430Y924D01*
X432Y924D01*
X435Y925D01*
X438Y925D01*
X440Y926D01*
X441Y926D01*
X444Y928D01*
X447Y929D01*
X449Y931D01*
X450Y932D01*
X451Y933D01*
X501Y983D01*
X503Y986D01*
X505Y989D01*
X506Y990D01*
X507Y994D01*
X509Y998D01*
X509Y999D01*
X509Y1000D01*
X509Y1003D01*
X509Y1873D01*
X546Y1961D01*
X614Y2029D01*
X702Y2066D01*
X1798Y2066D01*
X1886Y2029D01*
X1954Y1961D01*
X1991Y1873D01*
X1991Y1647D01*
X1991Y1645D01*
X1991Y1643D01*
X1992Y1640D01*
X1992Y1637D01*
X1993Y1636D01*
X1994Y1634D01*
X1996Y1632D01*
X1997Y1629D01*
X1998Y1628D01*
X1999Y1626D01*
X2002Y1624D01*
X2004Y1623D01*
X2006Y1622D01*
X2007Y1621D01*
X2010Y1620D01*
X2013Y1619D01*
X2015Y1618D01*
X2016Y1618D01*
X2019Y1618D01*
X2022Y1618D01*
X2024Y1618D01*
X2026Y1618D01*
X2031Y1620D01*
X2066Y1634D01*
X2119Y1634D01*
X2120Y1635D01*
X2122Y1635D01*
X2125Y1636D01*
X2128Y1636D01*
X2130Y1637D01*
X2132Y1638D01*
X2134Y1639D01*
X2136Y1641D01*
X2138Y1642D01*
X2139Y1643D01*
X2141Y1645D01*
X2143Y1648D01*
X2144Y1649D01*
X2145Y1651D01*
X2146Y1654D01*
X2147Y1656D01*
X2147Y1658D01*
X2148Y1660D01*
X2147Y1663D01*
X2148Y1666D01*
X2147Y1668D01*
X2147Y1670D01*
X2146Y1675D01*
X2134Y1702D01*
X2134Y2298D01*
X2171Y2386D01*
X2239Y2454D01*
X2327Y2491D01*
X2673Y2491D01*
X2739Y2463D01*
X2743Y2463D01*
X2746Y2461D01*
X2747Y2461D01*
X2748Y2461D01*
X2752Y2462D01*
X2756Y2462D01*
X2757Y2462D01*
X2758Y2462D01*
X2758Y2463D01*
X2761Y2463D01*
X2827Y2491D01*
X3173Y2491D01*
X3261Y2454D01*
X3329Y2386D01*
X3336Y2369D01*
X3339Y2365D01*
X3341Y2361D01*
X3342Y2361D01*
X3345Y2358D01*
X3349Y2355D01*
X3353Y2353D01*
X3358Y2351D01*
X3363Y2351D01*
X3441Y2351D01*
X3441Y2030D01*
X3441Y2029D01*
X3441Y2028D01*
X3442Y2024D01*
X3442Y2021D01*
X3443Y2020D01*
X3443Y2019D01*
X3445Y2015D01*
X3447Y2012D01*
X3448Y2011D01*
X3451Y2008D01*
X3454Y2006D01*
X3455Y2005D01*
X3456Y2005D01*
X3459Y2003D01*
X3463Y2002D01*
X3464Y2002D01*
X3465Y2001D01*
X3470Y2001D01*
X3530Y2001D01*
X3531Y2001D01*
X3532Y2001D01*
X3536Y2002D01*
X3539Y2002D01*
X3540Y2003D01*
X3541Y2003D01*
X3545Y2005D01*
X3548Y2007D01*
X3549Y2008D01*
X3552Y2011D01*
X3554Y2014D01*
X3555Y2015D01*
X3555Y2016D01*
X3557Y2019D01*
X3558Y2023D01*
X3558Y2024D01*
X3559Y2025D01*
X3559Y2030D01*
X3559Y2351D01*
X3637Y2351D01*
X3641Y2352D01*
X3646Y2352D01*
X3650Y2355D01*
X3654Y2357D01*
X3655Y2357D01*
X3658Y2360D01*
X3661Y2364D01*
X3664Y2369D01*
X3671Y2386D01*
X3739Y2454D01*
X3827Y2491D01*
X4173Y2491D01*
X4261Y2454D01*
X4329Y2386D01*
X4366Y2298D01*
X4366Y1702D01*
X4329Y1614D01*
X4261Y1546D01*
X4173Y1509D01*
X4142Y1509D01*
X4140Y1509D01*
X4138Y1509D01*
X4136Y1508D01*
X4133Y1508D01*
X4131Y1507D01*
X4129Y1506D01*
X4127Y1504D01*
X4124Y1503D01*
X4123Y1502D01*
X4121Y1501D01*
X4120Y1498D01*
X4118Y1496D01*
X4117Y1494D01*
X4116Y1493D01*
X4115Y1490D01*
X4114Y1487D01*
X4114Y1485D01*
X4113Y1484D01*
X4113Y1481D01*
X4113Y1478D01*
X4114Y1476D01*
X4114Y1474D01*
X4115Y1469D01*
X4127Y1442D01*
X4127Y558D01*
X4090Y470D01*
X4071Y451D01*
X4069Y448D01*
X4067Y446D01*
X4066Y444D01*
X4065Y443D01*
X4064Y440D01*
X4063Y437D01*
X4063Y436D01*
X4062Y434D01*
X4062Y431D01*
X4062Y428D01*
X4063Y426D01*
X4063Y424D01*
X4064Y421D01*
X4064Y419D01*
X4065Y417D01*
X4066Y415D01*
X4068Y413D01*
X4070Y411D01*
X4071Y409D01*
X4072Y408D01*
X4075Y406D01*
X4077Y405D01*
X4079Y404D01*
X4080Y403D01*
X4083Y402D01*
X4086Y401D01*
X4089Y401D01*
X4090Y401D01*
X4091Y401D01*
X4745Y401D01*
X4747Y401D01*
G37*
G36*
X2020Y3514D02*
X2020Y3514D01*
X2022Y3514D01*
X2025Y3515D01*
X2028Y3515D01*
X2030Y3516D01*
X2031Y3516D01*
X2034Y3518D01*
X2037Y3519D01*
X2039Y3521D01*
X2040Y3522D01*
X2041Y3523D01*
X2146Y3628D01*
X2148Y3630D01*
X2149Y3631D01*
X2149Y3632D01*
X2151Y3635D01*
X2153Y3640D01*
X2154Y3644D01*
X2154Y3645D01*
X2154Y3649D01*
X2154Y3654D01*
X2152Y3659D01*
X2134Y3702D01*
X2134Y4298D01*
X2157Y4353D01*
X2158Y4356D01*
X2159Y4359D01*
X2159Y4361D01*
X2159Y4362D01*
X2159Y4363D01*
X2159Y4364D01*
X2159Y4668D01*
X2159Y4672D01*
X2158Y4676D01*
X2158Y4677D01*
X2156Y4681D01*
X2154Y4684D01*
X2153Y4685D01*
X2153Y4686D01*
X2151Y4688D01*
X2080Y4759D01*
X2043Y4848D01*
X2043Y5652D01*
X2080Y5741D01*
X2147Y5808D01*
X2236Y5845D01*
X2771Y5845D01*
X2775Y5846D01*
X2778Y5846D01*
X2779Y5847D01*
X2780Y5847D01*
X2784Y5849D01*
X2787Y5850D01*
X2788Y5851D01*
X2789Y5852D01*
X2791Y5854D01*
X3047Y6109D01*
X3049Y6112D01*
X3051Y6114D01*
X3051Y6116D01*
X3053Y6117D01*
X3053Y6120D01*
X3055Y6123D01*
X3055Y6124D01*
X3055Y6126D01*
X3055Y6129D01*
X3055Y6132D01*
X3055Y6134D01*
X3055Y6136D01*
X3054Y6139D01*
X3053Y6141D01*
X3052Y6143D01*
X3052Y6145D01*
X3050Y6147D01*
X3048Y6149D01*
X3047Y6151D01*
X3045Y6152D01*
X3043Y6154D01*
X3041Y6155D01*
X3039Y6156D01*
X3037Y6157D01*
X3034Y6158D01*
X3032Y6159D01*
X3029Y6159D01*
X3028Y6159D01*
X3027Y6159D01*
X3026Y6159D01*
X1153Y6159D01*
X1149Y6159D01*
X1145Y6158D01*
X1144Y6158D01*
X1140Y6156D01*
X1137Y6154D01*
X1136Y6153D01*
X1135Y6153D01*
X1133Y6151D01*
X1018Y6037D01*
X1017Y6034D01*
X1015Y6032D01*
X1014Y6030D01*
X1013Y6029D01*
X1012Y6026D01*
X1011Y6023D01*
X1011Y6021D01*
X1010Y6020D01*
X1010Y6017D01*
X1010Y6014D01*
X1010Y6012D01*
X1010Y6010D01*
X1011Y6007D01*
X1012Y6004D01*
X1013Y6003D01*
X1014Y6001D01*
X1016Y5999D01*
X1017Y5996D01*
X1019Y5995D01*
X1020Y5994D01*
X1022Y5992D01*
X1025Y5990D01*
X1026Y5990D01*
X1028Y5989D01*
X1031Y5988D01*
X1034Y5987D01*
X1037Y5987D01*
X1038Y5987D01*
X1039Y5987D01*
X1191Y5987D01*
X1191Y5621D01*
X1191Y5620D01*
X1191Y5618D01*
X1192Y5615D01*
X1192Y5611D01*
X1193Y5610D01*
X1193Y5609D01*
X1195Y5606D01*
X1197Y5603D01*
X1198Y5602D01*
X1198Y5601D01*
X1201Y5599D01*
X1204Y5596D01*
X1205Y5596D01*
X1206Y5595D01*
X1209Y5594D01*
X1213Y5592D01*
X1214Y5592D01*
X1215Y5592D01*
X1220Y5591D01*
X1251Y5591D01*
X1251Y5590D01*
X1220Y5590D01*
X1219Y5590D01*
X1218Y5590D01*
X1214Y5589D01*
X1211Y5588D01*
X1210Y5588D01*
X1209Y5587D01*
X1205Y5585D01*
X1202Y5584D01*
X1201Y5583D01*
X1201Y5582D01*
X1198Y5579D01*
X1196Y5577D01*
X1195Y5576D01*
X1195Y5575D01*
X1193Y5571D01*
X1192Y5568D01*
X1192Y5567D01*
X1191Y5566D01*
X1191Y5561D01*
X1191Y5195D01*
X870Y5195D01*
X869Y5194D01*
X868Y5194D01*
X864Y5194D01*
X861Y5193D01*
X860Y5192D01*
X859Y5192D01*
X855Y5190D01*
X852Y5188D01*
X851Y5188D01*
X851Y5187D01*
X848Y5184D01*
X846Y5181D01*
X845Y5180D01*
X843Y5176D01*
X842Y5173D01*
X842Y5172D01*
X841Y5171D01*
X841Y5165D01*
X841Y5153D01*
X841Y5149D01*
X842Y5145D01*
X842Y5144D01*
X844Y5140D01*
X846Y5137D01*
X847Y5136D01*
X847Y5135D01*
X849Y5133D01*
X1028Y4954D01*
X1031Y4952D01*
X1034Y4949D01*
X1035Y4949D01*
X1036Y4948D01*
X1039Y4947D01*
X1043Y4946D01*
X1044Y4946D01*
X1045Y4946D01*
X1046Y4946D01*
X1049Y4945D01*
X1692Y4945D01*
X1780Y4909D01*
X1848Y4841D01*
X1884Y4753D01*
X1884Y4066D01*
X1848Y3978D01*
X1820Y3950D01*
X1819Y3949D01*
X1818Y3947D01*
X1816Y3945D01*
X1815Y3942D01*
X1814Y3941D01*
X1813Y3939D01*
X1813Y3936D01*
X1812Y3933D01*
X1812Y3931D01*
X1812Y3929D01*
X1812Y3927D01*
X1812Y3924D01*
X1813Y3922D01*
X1813Y3920D01*
X1815Y3917D01*
X1816Y3915D01*
X1817Y3913D01*
X1818Y3912D01*
X1820Y3910D01*
X1822Y3907D01*
X1823Y3906D01*
X1825Y3905D01*
X1830Y3903D01*
X1886Y3879D01*
X1954Y3811D01*
X1991Y3723D01*
X1991Y3543D01*
X1991Y3540D01*
X1991Y3537D01*
X1992Y3536D01*
X1992Y3534D01*
X1994Y3531D01*
X1995Y3529D01*
X1996Y3527D01*
X1997Y3525D01*
X1999Y3523D01*
X2001Y3521D01*
X2002Y3520D01*
X2004Y3519D01*
X2007Y3518D01*
X2009Y3516D01*
X2011Y3516D01*
X2013Y3515D01*
X2015Y3515D01*
X2018Y3514D01*
X2020Y3514D01*
G37*
%LPC*%
G36*
X3309Y15309D02*
X3309Y15309D01*
X3309Y15946D01*
X3344Y15941D01*
X3404Y15921D01*
X3460Y15893D01*
X3511Y15856D01*
X3556Y15811D01*
X3593Y15760D01*
X3621Y15704D01*
X3641Y15644D01*
X3651Y15582D01*
X3651Y15309D01*
X3309Y15309D01*
G37*
%LPD*%
%LPC*%
G36*
X6309Y1059D02*
X6309Y1059D01*
X6309Y1696D01*
X6344Y1691D01*
X6404Y1671D01*
X6460Y1643D01*
X6511Y1606D01*
X6556Y1561D01*
X6593Y1510D01*
X6621Y1454D01*
X6641Y1394D01*
X6651Y1332D01*
X6651Y1059D01*
X6309Y1059D01*
G37*
%LPD*%
%LPC*%
G36*
X3309Y15191D02*
X3309Y15191D01*
X3651Y15191D01*
X3651Y14918D01*
X3641Y14856D01*
X3621Y14796D01*
X3593Y14740D01*
X3556Y14689D01*
X3511Y14644D01*
X3460Y14607D01*
X3404Y14579D01*
X3344Y14559D01*
X3309Y14554D01*
X3309Y15191D01*
G37*
%LPD*%
%LPC*%
G36*
X2849Y15309D02*
X2849Y15309D01*
X2849Y15582D01*
X2859Y15644D01*
X2879Y15704D01*
X2907Y15760D01*
X2944Y15811D01*
X2989Y15856D01*
X3040Y15893D01*
X3096Y15921D01*
X3156Y15941D01*
X3191Y15946D01*
X3191Y15309D01*
X2849Y15309D01*
G37*
%LPD*%
%LPC*%
G36*
X3156Y14559D02*
X3156Y14559D01*
X3096Y14579D01*
X3040Y14607D01*
X2989Y14644D01*
X2944Y14689D01*
X2907Y14740D01*
X2879Y14796D01*
X2859Y14856D01*
X2849Y14918D01*
X2849Y15191D01*
X3191Y15191D01*
X3191Y14554D01*
X3156Y14559D01*
G37*
%LPD*%
%LPC*%
G36*
X5849Y1059D02*
X5849Y1059D01*
X5849Y1332D01*
X5859Y1394D01*
X5879Y1454D01*
X5907Y1510D01*
X5944Y1561D01*
X5989Y1606D01*
X6040Y1643D01*
X6096Y1671D01*
X6156Y1691D01*
X6191Y1696D01*
X6191Y1059D01*
X5849Y1059D01*
G37*
%LPD*%
%LPC*%
G36*
X1309Y5531D02*
X1309Y5531D01*
X1744Y5531D01*
X1744Y5282D01*
X1740Y5264D01*
X1738Y5256D01*
X1724Y5233D01*
X1706Y5215D01*
X1683Y5201D01*
X1657Y5195D01*
X1309Y5195D01*
X1309Y5531D01*
G37*
%LPD*%
%LPC*%
G36*
X5819Y4659D02*
X5819Y4659D01*
X5819Y5094D01*
X6068Y5094D01*
X6094Y5088D01*
X6117Y5074D01*
X6135Y5056D01*
X6149Y5033D01*
X6155Y5007D01*
X6155Y4659D01*
X5819Y4659D01*
G37*
%LPD*%
%LPC*%
G36*
X5451Y4106D02*
X5451Y4106D01*
X5425Y4112D01*
X5402Y4126D01*
X5384Y4144D01*
X5370Y4167D01*
X5363Y4193D01*
X5363Y4541D01*
X5700Y4541D01*
X5700Y4106D01*
X5451Y4106D01*
G37*
%LPD*%
%LPC*%
G36*
X1309Y5650D02*
X1309Y5650D01*
X1309Y5987D01*
X1657Y5987D01*
X1683Y5980D01*
X1706Y5966D01*
X1724Y5948D01*
X1738Y5925D01*
X1744Y5899D01*
X1744Y5650D01*
X1309Y5650D01*
G37*
%LPD*%
%LPC*%
G36*
X5363Y4659D02*
X5363Y4659D01*
X5363Y5007D01*
X5366Y5015D01*
X5370Y5033D01*
X5384Y5056D01*
X5402Y5074D01*
X5425Y5088D01*
X5451Y5094D01*
X5700Y5094D01*
X5700Y4659D01*
X5363Y4659D01*
G37*
%LPD*%
%LPC*%
G36*
X5819Y4106D02*
X5819Y4106D01*
X5819Y4541D01*
X6155Y4541D01*
X6155Y4193D01*
X6152Y4181D01*
X6149Y4167D01*
X6135Y4144D01*
X6117Y4126D01*
X6094Y4112D01*
X6068Y4106D01*
X5819Y4106D01*
G37*
%LPD*%
%LPC*%
G36*
X10008Y1309D02*
X10008Y1309D01*
X10008Y1705D01*
X10277Y1705D01*
X10303Y1698D01*
X10326Y1685D01*
X10344Y1666D01*
X10358Y1643D01*
X10365Y1618D01*
X10365Y1309D01*
X10008Y1309D01*
G37*
%LPD*%
%LPC*%
G36*
X9621Y795D02*
X9621Y795D01*
X9595Y802D01*
X9572Y815D01*
X9553Y834D01*
X9540Y857D01*
X9533Y882D01*
X9533Y1191D01*
X9890Y1191D01*
X9890Y795D01*
X9621Y795D01*
G37*
%LPD*%
%LPC*%
G36*
X9533Y1309D02*
X9533Y1309D01*
X9533Y1618D01*
X9540Y1643D01*
X9553Y1666D01*
X9572Y1685D01*
X9595Y1698D01*
X9621Y1705D01*
X9890Y1705D01*
X9890Y1309D01*
X9533Y1309D01*
G37*
%LPD*%
%LPC*%
G36*
X10008Y795D02*
X10008Y795D01*
X10008Y1191D01*
X10365Y1191D01*
X10365Y882D01*
X10358Y857D01*
X10344Y834D01*
X10326Y815D01*
X10303Y802D01*
X10277Y795D01*
X10008Y795D01*
G37*
%LPD*%
%LPC*%
G36*
X4059Y4059D02*
X4059Y4059D01*
X4059Y4351D01*
X4138Y4351D01*
X4164Y4344D01*
X4187Y4331D01*
X4206Y4312D01*
X4219Y4289D01*
X4226Y4263D01*
X4226Y4059D01*
X4059Y4059D01*
G37*
%LPD*%
%LPC*%
G36*
X4059Y3649D02*
X4059Y3649D01*
X4059Y3941D01*
X4226Y3941D01*
X4226Y3737D01*
X4219Y3711D01*
X4206Y3688D01*
X4187Y3669D01*
X4164Y3656D01*
X4138Y3649D01*
X4059Y3649D01*
G37*
%LPD*%
%LPC*%
G36*
X2559Y10774D02*
X2559Y10774D01*
X2559Y10941D01*
X2851Y10941D01*
X2851Y10862D01*
X2844Y10836D01*
X2831Y10813D01*
X2812Y10794D01*
X2789Y10781D01*
X2763Y10774D01*
X2559Y10774D01*
G37*
%LPD*%
%LPC*%
G36*
X2559Y7274D02*
X2559Y7274D01*
X2559Y7441D01*
X2851Y7441D01*
X2851Y7362D01*
X2844Y7336D01*
X2831Y7313D01*
X2812Y7294D01*
X2789Y7281D01*
X2763Y7274D01*
X2559Y7274D01*
G37*
%LPD*%
%LPC*%
G36*
X2237Y7274D02*
X2237Y7274D01*
X2211Y7281D01*
X2188Y7294D01*
X2169Y7313D01*
X2156Y7336D01*
X2149Y7362D01*
X2149Y7441D01*
X2441Y7441D01*
X2441Y7274D01*
X2237Y7274D01*
G37*
%LPD*%
%LPC*%
G36*
X3249Y15249D02*
X3249Y15249D01*
X3249Y15251D01*
X3251Y15251D01*
X3251Y15249D01*
X3249Y15249D01*
G37*
%LPD*%
%LPC*%
G36*
X5759Y4599D02*
X5759Y4599D01*
X5759Y4601D01*
X5760Y4601D01*
X5760Y4599D01*
X5759Y4599D01*
G37*
%LPD*%
%LPC*%
G36*
X9948Y1249D02*
X9948Y1249D01*
X9948Y1251D01*
X9950Y1251D01*
X9950Y1249D01*
X9948Y1249D01*
G37*
%LPD*%
D10*
X1724Y16520D02*
X1622Y16520D01*
X1604Y16522D01*
X1587Y16526D01*
X1571Y16534D01*
X1556Y16544D01*
X1544Y16556D01*
X1534Y16571D01*
X1526Y16587D01*
X1522Y16604D01*
X1520Y16622D01*
X1520Y16878D01*
X1522Y16898D01*
X1528Y16917D01*
X1537Y16935D01*
X1550Y16950D01*
X1565Y16963D01*
X1583Y16972D01*
X1602Y16978D01*
X1622Y16980D01*
X1724Y16980D01*
X2137Y16622D02*
X2135Y16604D01*
X2131Y16587D01*
X2123Y16571D01*
X2113Y16556D01*
X2101Y16544D01*
X2086Y16534D01*
X2070Y16526D01*
X2053Y16522D01*
X2035Y16520D01*
X2007Y16522D01*
X1979Y16527D01*
X1952Y16537D01*
X1926Y16549D01*
X1903Y16565D01*
X1882Y16584D01*
X1894Y16878D02*
X1896Y16896D01*
X1900Y16913D01*
X1908Y16929D01*
X1918Y16944D01*
X1930Y16956D01*
X1945Y16966D01*
X1961Y16974D01*
X1978Y16978D01*
X1996Y16980D01*
X2021Y16978D01*
X2045Y16974D01*
X2068Y16966D01*
X2091Y16955D01*
X2111Y16942D01*
X1894Y16878D02*
X1896Y16860D01*
X1900Y16843D01*
X1908Y16826D01*
X1918Y16812D01*
X1931Y16799D01*
X1945Y16788D01*
X2086Y16712D02*
X2100Y16701D01*
X2113Y16688D01*
X2123Y16674D01*
X2131Y16657D01*
X2135Y16640D01*
X2137Y16622D01*
X2086Y16712D02*
X1945Y16788D01*
X2510Y16776D02*
X2587Y16776D01*
X2587Y16520D01*
X2434Y16520D01*
X2416Y16522D01*
X2399Y16526D01*
X2383Y16534D01*
X2368Y16544D01*
X2356Y16556D01*
X2346Y16571D01*
X2338Y16587D01*
X2334Y16604D01*
X2332Y16622D01*
X2331Y16622D02*
X2331Y16878D01*
X2332Y16878D02*
X2334Y16898D01*
X2340Y16917D01*
X2349Y16935D01*
X2362Y16950D01*
X2377Y16963D01*
X2395Y16972D01*
X2414Y16978D01*
X2434Y16980D01*
X2587Y16980D01*
X3144Y16980D02*
X3144Y16622D01*
X3143Y16622D02*
X3141Y16604D01*
X3137Y16587D01*
X3129Y16571D01*
X3119Y16556D01*
X3107Y16544D01*
X3092Y16534D01*
X3076Y16526D01*
X3059Y16522D01*
X3041Y16520D01*
X2990Y16520D01*
X3367Y16520D02*
X3367Y16980D01*
X3572Y16980D01*
X3572Y16776D02*
X3367Y16776D01*
X3741Y16852D02*
X3741Y16648D01*
X3741Y16852D02*
X3743Y16873D01*
X3748Y16894D01*
X3756Y16913D01*
X3768Y16931D01*
X3782Y16946D01*
X3799Y16959D01*
X3818Y16969D01*
X3838Y16976D01*
X3858Y16980D01*
X3880Y16980D01*
X3900Y16976D01*
X3920Y16969D01*
X3939Y16959D01*
X3956Y16946D01*
X3970Y16931D01*
X3982Y16913D01*
X3990Y16894D01*
X3995Y16873D01*
X3997Y16852D01*
X3997Y16648D01*
X3995Y16627D01*
X3990Y16606D01*
X3982Y16587D01*
X3970Y16569D01*
X3956Y16554D01*
X3939Y16541D01*
X3920Y16531D01*
X3900Y16524D01*
X3880Y16520D01*
X3858Y16520D01*
X3838Y16524D01*
X3818Y16531D01*
X3799Y16541D01*
X3782Y16554D01*
X3768Y16569D01*
X3756Y16587D01*
X3748Y16606D01*
X3743Y16627D01*
X3741Y16648D01*
D11*
X3591Y1000D03*
X2409Y1000D03*
D12*
X1250Y4409D03*
X1250Y5591D03*
D11*
X5759Y4600D03*
X6941Y4600D03*
D13*
X1550Y13000D02*
X950Y13000D01*
X950Y14000D02*
X1550Y14000D01*
X1550Y15000D02*
X950Y15000D01*
D14*
X2599Y5250D03*
X3701Y5250D03*
D15*
X12250Y3199D03*
X12250Y4301D03*
X13250Y3199D03*
X13250Y4301D03*
X13250Y6199D03*
X13250Y7301D03*
X12250Y14051D03*
X12250Y12949D03*
X7250Y15301D03*
X7250Y14199D03*
X8350Y11201D03*
X8350Y10099D03*
X6250Y11699D03*
X6250Y12801D03*
X6000Y10051D03*
X6000Y8949D03*
X9000Y4199D03*
X9000Y5301D03*
X10500Y4199D03*
X10500Y5301D03*
X11250Y14051D03*
X11250Y12949D03*
D14*
X11801Y15750D03*
X10699Y15750D03*
D15*
X1250Y9699D03*
X1250Y10801D03*
X6850Y7401D03*
X6850Y6299D03*
D14*
X12199Y1250D03*
X13301Y1250D03*
X9949Y1250D03*
X11051Y1250D03*
D16*
X8848Y8642D03*
X9104Y8642D03*
X9360Y8642D03*
X9616Y8642D03*
X9872Y8642D03*
X10128Y8642D03*
X10384Y8642D03*
X10640Y8642D03*
X8848Y6358D03*
X9104Y6358D03*
X9360Y6358D03*
X9616Y6358D03*
X9872Y6358D03*
X10128Y6358D03*
X10384Y6358D03*
X10640Y6358D03*
X10896Y6358D03*
X11152Y6358D03*
X10896Y8642D03*
X11152Y8642D03*
D17*
X3500Y2000D03*
X3000Y2000D03*
X2500Y2000D03*
X4000Y2000D03*
X4000Y4000D03*
X3500Y4000D03*
X3000Y4000D03*
X2500Y4000D03*
D18*
X1250Y1325D03*
X1250Y3175D03*
D19*
X2500Y9000D03*
X2500Y8500D03*
X2500Y8000D03*
X2500Y7500D03*
X4500Y7500D03*
X4500Y8000D03*
X4500Y8500D03*
X4500Y9000D03*
X2500Y12500D03*
X2500Y12000D03*
X2500Y11500D03*
X2500Y11000D03*
X4500Y11000D03*
X4500Y11500D03*
X4500Y12000D03*
X4500Y12500D03*
D13*
X5250Y14950D02*
X5250Y15550D01*
X4250Y15550D02*
X4250Y14950D01*
X3250Y14950D02*
X3250Y15550D01*
X5250Y1300D02*
X5250Y700D01*
X6250Y700D02*
X6250Y1300D01*
X7250Y1300D02*
X7250Y700D01*
X8250Y700D02*
X8250Y1300D01*
D20*
X5250Y1000D02*
X5250Y2750D01*
X5000Y3000D01*
X1425Y3000D02*
X1250Y3175D01*
X2000Y3000D02*
X5000Y3000D01*
X2000Y3000D02*
X1425Y3000D01*
X2500Y3500D02*
X2500Y4000D01*
X2500Y3500D02*
X2000Y3000D01*
X2500Y4000D02*
X2500Y5151D01*
X2599Y5250D01*
D21*
X4149Y6800D01*
X8100Y6800D02*
X8530Y6370D01*
X8550Y6350D01*
X8840Y6350D01*
X8848Y6358D01*
X8100Y6800D02*
X4149Y6800D01*
X8530Y6370D02*
X8560Y6400D01*
D22*
X8560Y6400D03*
D20*
X3500Y2500D02*
X3500Y2000D01*
X3500Y2500D02*
X4500Y2500D01*
X4500Y2000D01*
D22*
X4500Y2000D03*
X1600Y6150D03*
D21*
X1600Y5941D01*
X1250Y5591D01*
X2350Y10850D02*
X2500Y11000D01*
X2350Y10850D02*
X2350Y10500D01*
D22*
X2350Y10500D03*
D21*
X8800Y8640D02*
X8848Y8642D01*
X8800Y8640D02*
X8775Y8642D01*
X5759Y5741D02*
X5759Y4600D01*
X5759Y5741D02*
X5000Y6500D01*
D22*
X5000Y6500D03*
X4858Y7176D03*
X7500Y10000D03*
D21*
X7500Y9000D02*
X8000Y8500D01*
X8634Y8500D01*
X8775Y8642D01*
X7500Y9000D02*
X7500Y10000D01*
X9600Y6560D02*
X9600Y6400D01*
X9600Y6560D02*
X9920Y6880D01*
X10160Y6880D01*
X9600Y6400D02*
X9616Y6358D01*
D22*
X10160Y6880D03*
D21*
X9360Y6960D02*
X9360Y6400D01*
X9360Y6960D02*
X9280Y7040D01*
X9360Y6400D02*
X9360Y6358D01*
D22*
X9280Y7040D03*
D21*
X9872Y8642D02*
X9872Y8972D01*
X10000Y9100D01*
X10000Y10150D01*
D22*
X10000Y10150D03*
D21*
X9600Y8640D02*
X9600Y8320D01*
X8720Y7440D01*
X8560Y7440D01*
X9600Y8640D02*
X9616Y8642D01*
D22*
X8560Y7440D03*
D23*
X2500Y12500D02*
X2000Y13000D01*
X1250Y13000D01*
X1250Y14000D02*
X2000Y14000D01*
X3500Y12500D01*
X3500Y10500D01*
X4000Y10000D01*
X5000Y10000D01*
X5200Y9800D01*
X5200Y8300D01*
X4970Y8070D01*
X4900Y8000D01*
X4500Y8000D01*
D21*
X4960Y8080D02*
X4970Y8070D01*
D22*
X4960Y8080D03*
D23*
X2000Y15000D02*
X1250Y15000D01*
X3500Y13500D02*
X5000Y13500D01*
X5350Y13150D01*
X5350Y11250D02*
X5100Y11000D01*
X4500Y11000D01*
X3500Y13500D02*
X2000Y15000D01*
X5350Y13150D02*
X5350Y12480D01*
X5350Y11250D01*
D21*
X5350Y12480D02*
X4960Y12480D01*
D22*
X4960Y12480D03*
D20*
X2409Y1000D02*
X1575Y1000D01*
X1538Y1038D01*
X1250Y1325D01*
D22*
X549Y549D03*
D20*
X1038Y1038D01*
X1538Y1038D01*
D22*
X549Y4000D03*
D20*
X1000Y4000D01*
X1250Y4250D01*
X1250Y4409D01*
X1091Y4409D01*
X500Y5000D01*
X500Y6000D01*
X1000Y6500D01*
X3000Y6500D01*
X3500Y7000D01*
X3500Y8500D01*
X4000Y9000D01*
X4500Y9000D01*
D21*
X4960Y12080D02*
X4560Y12480D01*
X4960Y12080D02*
X4960Y11920D01*
X4880Y9680D02*
X4880Y9360D01*
X4560Y9040D01*
X4560Y12480D02*
X4500Y12500D01*
X4560Y9040D02*
X4500Y9000D01*
D22*
X4960Y11920D03*
X4880Y9680D03*
D20*
X3000Y2000D02*
X3000Y1500D01*
X3500Y1000D01*
X3591Y1000D01*
D21*
X2500Y8000D02*
X2080Y8000D01*
X480Y9600D01*
X480Y13120D01*
X800Y13440D01*
X2080Y13440D01*
X10160Y15920D02*
X10400Y15680D01*
X10640Y15680D01*
X10699Y15750D01*
X10560Y14880D02*
X10640Y14800D01*
X10560Y14880D02*
X10720Y15040D01*
X10720Y15680D01*
X10699Y15750D01*
D22*
X2080Y13440D03*
X10160Y15920D03*
X10640Y14800D03*
D21*
X2500Y9000D02*
X1500Y9000D01*
X1250Y9250D01*
X1250Y9699D01*
X2560Y8960D02*
X2560Y8560D01*
X2500Y8500D01*
X2560Y8960D02*
X2500Y9000D01*
X2500Y12000D02*
X1500Y12000D01*
X1250Y11750D01*
X1250Y10801D01*
X2800Y11760D02*
X3200Y11760D01*
X2800Y11760D02*
X2560Y12000D01*
X2500Y12000D01*
D22*
X3200Y11760D03*
X4450Y5500D03*
D21*
X4200Y5250D01*
X3701Y5250D01*
D22*
X4500Y7059D03*
D21*
X4500Y7500D01*
X2500Y11500D02*
X2200Y11500D01*
X1900Y11200D01*
X1900Y9950D02*
X2100Y9750D01*
D22*
X2100Y9750D03*
D21*
X1900Y9950D02*
X1900Y11200D01*
X4000Y8480D02*
X4480Y8480D01*
X4500Y8500D01*
X6800Y6240D02*
X6800Y5760D01*
X6800Y6240D02*
X6850Y6299D01*
D22*
X4000Y8480D03*
X6800Y5760D03*
D21*
X4560Y11520D02*
X4560Y12000D01*
X4500Y12000D01*
X9120Y6640D02*
X9120Y6400D01*
X9120Y6640D02*
X8880Y6880D01*
X9120Y6400D02*
X9104Y6358D01*
X4960Y11520D02*
X4560Y11520D01*
X4500Y11500D01*
D22*
X8880Y6880D03*
X4960Y11520D03*
D21*
X9840Y6320D02*
X9840Y6080D01*
X9760Y6000D01*
X8800Y6000D01*
X8000Y5200D01*
X7360Y4560D01*
X6960Y4560D01*
X9840Y6320D02*
X9872Y6358D01*
X6941Y4600D02*
X6960Y4560D01*
X6880Y7440D02*
X7440Y7440D01*
X7920Y5280D02*
X8000Y5200D01*
X6850Y7401D02*
X6880Y7440D01*
D22*
X7440Y7440D03*
X7920Y5280D03*
D21*
X11120Y1280D02*
X12160Y1280D01*
X11120Y1280D02*
X11051Y1250D01*
X12160Y1280D02*
X12199Y1250D01*
X12240Y1280D02*
X12240Y3120D01*
X12250Y3199D01*
X12240Y1280D02*
X12199Y1250D01*
X13280Y1280D02*
X13280Y1840D01*
X13280Y1280D02*
X13301Y1250D01*
D22*
X13280Y1840D03*
D21*
X13280Y3200D02*
X13280Y3760D01*
X13280Y3200D02*
X13250Y3199D01*
X13280Y5600D02*
X13280Y6160D01*
X13250Y6199D01*
D22*
X13280Y3760D03*
X13280Y5600D03*
D21*
X13280Y7360D02*
X13280Y7840D01*
X13280Y7360D02*
X13250Y7301D01*
X13920Y12960D02*
X13280Y13600D01*
D22*
X13280Y7840D03*
X13280Y13600D03*
X13920Y12960D03*
D21*
X7840Y15280D02*
X7280Y15280D01*
X7250Y15301D01*
X12320Y14640D02*
X12320Y14080D01*
X12250Y14051D01*
D22*
X7840Y15280D03*
X12320Y14640D03*
D21*
X7840Y14160D02*
X7280Y14160D01*
X7250Y14199D01*
D22*
X7840Y14160D03*
D21*
X6320Y12240D02*
X6320Y11760D01*
X6250Y11699D01*
X7440Y11200D02*
X8320Y11200D01*
X7440Y11200D02*
X7200Y11440D01*
X7200Y11520D01*
X7040Y11680D01*
X6320Y11680D01*
X8320Y11200D02*
X8350Y11201D01*
X6320Y11680D02*
X6250Y11699D01*
D22*
X6320Y12240D03*
D21*
X6160Y10080D02*
X6000Y10080D01*
X6160Y10080D02*
X6560Y10480D01*
X6000Y10080D02*
X6000Y10051D01*
X6320Y12800D02*
X7440Y12800D01*
X8000Y12240D01*
X6320Y12800D02*
X6250Y12801D01*
D22*
X6560Y10480D03*
X8000Y12240D03*
D21*
X8640Y4320D02*
X8400Y4080D01*
X8640Y4320D02*
X8880Y4320D01*
X8960Y4240D01*
X9000Y4199D01*
X6000Y8480D02*
X6000Y8949D01*
X6000Y8480D02*
X6080Y8400D01*
D22*
X8400Y4080D03*
X6080Y8400D03*
D21*
X10560Y4160D02*
X11120Y4160D01*
X10560Y4160D02*
X10500Y4199D01*
D22*
X11120Y4160D03*
D21*
X11440Y13520D02*
X11440Y13840D01*
X11280Y14000D01*
X11250Y14051D01*
X11760Y15200D02*
X11760Y15680D01*
X11760Y15200D02*
X11200Y14640D01*
X11200Y14080D01*
X11760Y15680D02*
X11801Y15750D01*
X11200Y14080D02*
X11250Y14051D01*
D22*
X11440Y13520D03*
D21*
X10640Y6880D02*
X10640Y6400D01*
X12240Y4880D02*
X12240Y4320D01*
X10640Y6358D02*
X10640Y6400D01*
X12240Y4320D02*
X12250Y4301D01*
D22*
X10640Y6880D03*
X12240Y4880D03*
D21*
X10880Y5840D02*
X10880Y6320D01*
X10896Y6358D01*
D22*
X10880Y5840D03*
D21*
X11200Y6400D02*
X11840Y6400D01*
X13280Y4960D01*
X13280Y4320D01*
X11200Y6400D02*
X11152Y6358D01*
X13250Y4301D02*
X13280Y4320D01*
X11280Y8640D02*
X11200Y8640D01*
X11280Y8640D02*
X11600Y8320D01*
X11200Y8640D02*
X11152Y8642D01*
D22*
X11600Y8320D03*
D21*
X10880Y8720D02*
X10880Y8880D01*
X12960Y10960D01*
X12960Y11600D01*
X12240Y12320D01*
X12240Y12880D01*
X10880Y8720D02*
X10896Y8642D01*
X12240Y12880D02*
X12250Y12949D01*
X10640Y8880D02*
X10640Y8720D01*
X10640Y8880D02*
X12640Y10880D01*
X12640Y11040D01*
X10640Y8720D02*
X10640Y8642D01*
D22*
X12640Y11040D03*
D21*
X9120Y8880D02*
X9120Y8720D01*
X9120Y8880D02*
X8240Y9760D01*
X8240Y10000D01*
X8320Y10080D01*
X9120Y8720D02*
X9104Y8642D01*
X8320Y10080D02*
X8350Y10099D01*
X9360Y9680D02*
X9360Y8720D01*
X9360Y9680D02*
X9280Y9760D01*
X9280Y9840D01*
X9520Y10080D01*
X9360Y8720D02*
X9360Y8642D01*
D22*
X9520Y10080D03*
D21*
X10160Y6320D02*
X10160Y6160D01*
X9360Y5360D01*
X9040Y5360D01*
X10160Y6320D02*
X10128Y6358D01*
X9040Y5360D02*
X9000Y5301D01*
X10400Y5440D02*
X10400Y6320D01*
X10400Y5440D02*
X10480Y5360D01*
X10400Y6320D02*
X10384Y6358D01*
X10480Y5360D02*
X10500Y5301D01*
X10400Y8720D02*
X10400Y9120D01*
X11200Y9920D01*
X11200Y12880D01*
X10400Y8720D02*
X10384Y8642D01*
X11200Y12880D02*
X11250Y12949D01*
X10160Y8640D02*
X10160Y8160D01*
X10160Y8640D02*
X10128Y8642D01*
D22*
X10160Y8160D03*
D24*
X15500Y18000D02*
X-500Y18000D01*
X15500Y18000D02*
X15500Y-500D01*
X-500Y-500D01*
X-500Y18000D01*
M02*
