%TF.GenerationSoftware,KiCad,Pcbnew,7.0.6*%
%TF.CreationDate,2024-03-05T09:49:15-05:00*%
%TF.ProjectId,IRON PCB 2.0,49524f4e-2050-4434-9220-322e302e6b69,rev?*%
%TF.SameCoordinates,Original*%
%TF.FileFunction,Soldermask,Bot*%
%TF.FilePolarity,Negative*%
%FSLAX46Y46*%
G04 Gerber Fmt 4.6, Leading zero omitted, Abs format (unit mm)*
G04 Created by KiCad (PCBNEW 7.0.6) date 2024-03-05 09:49:15*
%MOMM*%
%LPD*%
G01*
G04 APERTURE LIST*
G04 Aperture macros list*
%AMRoundRect*
0 Rectangle with rounded corners*
0 $1 Rounding radius*
0 $2 $3 $4 $5 $6 $7 $8 $9 X,Y pos of 4 corners*
0 Add a 4 corners polygon primitive as box body*
4,1,4,$2,$3,$4,$5,$6,$7,$8,$9,$2,$3,0*
0 Add four circle primitives for the rounded corners*
1,1,$1+$1,$2,$3*
1,1,$1+$1,$4,$5*
1,1,$1+$1,$6,$7*
1,1,$1+$1,$8,$9*
0 Add four rect primitives between the rounded corners*
20,1,$1+$1,$2,$3,$4,$5,0*
20,1,$1+$1,$4,$5,$6,$7,0*
20,1,$1+$1,$6,$7,$8,$9,0*
20,1,$1+$1,$8,$9,$2,$3,0*%
G04 Aperture macros list end*
%ADD10R,2.000000X2.000000*%
%ADD11C,2.000000*%
%ADD12R,2.600000X2.600000*%
%ADD13C,2.600000*%
%ADD14C,0.800000*%
%ADD15C,6.400000*%
%ADD16R,1.800000X1.800000*%
%ADD17C,1.800000*%
%ADD18C,3.200000*%
%ADD19R,3.500000X3.500000*%
%ADD20C,3.500000*%
%ADD21RoundRect,0.250000X-0.625000X0.312500X-0.625000X-0.312500X0.625000X-0.312500X0.625000X0.312500X0*%
%ADD22RoundRect,0.250000X1.250000X0.550000X-1.250000X0.550000X-1.250000X-0.550000X1.250000X-0.550000X0*%
%ADD23R,1.700000X2.500000*%
%ADD24RoundRect,0.250000X0.312500X0.625000X-0.312500X0.625000X-0.312500X-0.625000X0.312500X-0.625000X0*%
%ADD25RoundRect,0.250000X-0.312500X-0.625000X0.312500X-0.625000X0.312500X0.625000X-0.312500X0.625000X0*%
%ADD26R,3.000000X1.600000*%
%ADD27R,6.200000X5.800000*%
%TA.AperFunction,Profile*%
%ADD28C,0.200000*%
%TD*%
G04 APERTURE END LIST*
D10*
%TO.C,D6*%
X100570000Y-82030000D03*
D11*
X100570000Y-84570000D03*
%TD*%
D12*
%TO.C,J2*%
X76255000Y-60900000D03*
D13*
X76255000Y-65900000D03*
%TD*%
D12*
%TO.C,J5*%
X161430000Y-64860000D03*
D13*
X161430000Y-59860000D03*
%TD*%
D12*
%TO.C,J3*%
X161470000Y-94550000D03*
D13*
X161470000Y-89550000D03*
X161470000Y-84550000D03*
%TD*%
D14*
%TO.C,H3*%
X70040000Y-39430000D03*
X70742944Y-37732944D03*
X70742944Y-41127056D03*
X72440000Y-37030000D03*
D15*
X72440000Y-39430000D03*
D14*
X72440000Y-41830000D03*
X74137056Y-37732944D03*
X74137056Y-41127056D03*
X74840000Y-39430000D03*
%TD*%
D10*
%TO.C,SW1*%
X75940000Y-47560000D03*
D11*
X75940000Y-50100000D03*
X75940000Y-52640000D03*
%TD*%
D16*
%TO.C,D7*%
X152455000Y-89570000D03*
D17*
X149915000Y-89570000D03*
%TD*%
D18*
%TO.C,Brd1*%
X87550000Y-44680000D03*
X87550000Y-67680000D03*
X107550000Y-44680000D03*
X107550000Y-67680000D03*
D11*
X93740000Y-44180000D03*
X96280000Y-44180000D03*
X98820000Y-44180000D03*
X101360000Y-44180000D03*
%TD*%
D12*
%TO.C,J7*%
X80041836Y-89739885D03*
D13*
X80041836Y-94739885D03*
%TD*%
D14*
%TO.C,H4*%
X70320000Y-101780000D03*
X71022944Y-100082944D03*
X71022944Y-103477056D03*
X72720000Y-99380000D03*
D15*
X72720000Y-101780000D03*
D14*
X72720000Y-104180000D03*
X74417056Y-100082944D03*
X74417056Y-103477056D03*
X75120000Y-101780000D03*
%TD*%
%TO.C,H1*%
X163040000Y-101760000D03*
X163742944Y-100062944D03*
X163742944Y-103457056D03*
X165440000Y-99360000D03*
D15*
X165440000Y-101760000D03*
D14*
X165440000Y-104160000D03*
X167137056Y-100062944D03*
X167137056Y-103457056D03*
X167840000Y-101760000D03*
%TD*%
D12*
%TO.C,J6*%
X161530000Y-52720000D03*
D13*
X161530000Y-47720000D03*
%TD*%
D19*
%TO.C,J1*%
X86080000Y-78160000D03*
D20*
X80080000Y-78160000D03*
X83080000Y-82860000D03*
%TD*%
D16*
%TO.C,D3*%
X152515000Y-52760000D03*
D17*
X149975000Y-52760000D03*
%TD*%
D14*
%TO.C,H2*%
X162957056Y-39327056D03*
X163660000Y-37630000D03*
X163660000Y-41024112D03*
X165357056Y-36927056D03*
D15*
X165357056Y-39327056D03*
D14*
X165357056Y-41727056D03*
X167054112Y-37630000D03*
X167054112Y-41024112D03*
X167757056Y-39327056D03*
%TD*%
D12*
%TO.C,J4*%
X161470000Y-77490000D03*
D13*
X161470000Y-72490000D03*
%TD*%
D16*
%TO.C,D4*%
X152425000Y-64940000D03*
D17*
X149885000Y-64940000D03*
%TD*%
D11*
%TO.C,U8266*%
X116370000Y-51440000D03*
X116370000Y-53980000D03*
X116370000Y-56520000D03*
X116370000Y-59060000D03*
X116370000Y-61600000D03*
X116370000Y-64140000D03*
X116370000Y-66680000D03*
X116370000Y-69220000D03*
X116370000Y-71760000D03*
X116370000Y-74300000D03*
X116370000Y-76840000D03*
X116370000Y-79380000D03*
X116370000Y-81920000D03*
X116370000Y-84460000D03*
X116370000Y-87000000D03*
X144310000Y-87000000D03*
X144310000Y-84460000D03*
X144310000Y-81920000D03*
X144310000Y-79380000D03*
X144310000Y-76840000D03*
X144310000Y-74300000D03*
X144310000Y-71760000D03*
X144310000Y-69220000D03*
X144310000Y-66680000D03*
X144310000Y-64140000D03*
X144310000Y-61600000D03*
X144310000Y-59060000D03*
X144310000Y-56520000D03*
X144310000Y-53980000D03*
X144310000Y-51440000D03*
%TD*%
D16*
%TO.C,D5*%
X152425000Y-77460000D03*
D17*
X149885000Y-77460000D03*
%TD*%
D21*
%TO.C,R7*%
X157480000Y-72497500D03*
X157480000Y-75422500D03*
%TD*%
D22*
%TO.C,C2*%
X105950000Y-57900000D03*
X101550000Y-57900000D03*
%TD*%
D23*
%TO.C,D1*%
X82660000Y-60900000D03*
X82660000Y-56900000D03*
%TD*%
D24*
%TO.C,R5*%
X101995000Y-79145000D03*
X99070000Y-79145000D03*
%TD*%
D22*
%TO.C,C1*%
X100410000Y-51320000D03*
X96010000Y-51320000D03*
%TD*%
D25*
%TO.C,R2*%
X149837500Y-48300000D03*
X152762500Y-48300000D03*
%TD*%
D21*
%TO.C,R9*%
X157700000Y-47737500D03*
X157700000Y-50662500D03*
%TD*%
D25*
%TO.C,R3*%
X149827500Y-60670000D03*
X152752500Y-60670000D03*
%TD*%
D21*
%TO.C,R8*%
X157570000Y-59797500D03*
X157570000Y-62722500D03*
%TD*%
D23*
%TO.C,D2*%
X110210000Y-75160000D03*
X110210000Y-79160000D03*
%TD*%
D25*
%TO.C,R4*%
X149737500Y-73450000D03*
X152662500Y-73450000D03*
%TD*%
%TO.C,R1*%
X149767500Y-85690000D03*
X152692500Y-85690000D03*
%TD*%
D26*
%TO.C,U7805*%
X96290000Y-58085000D03*
X96290000Y-62655000D03*
D27*
X89120000Y-60370000D03*
%TD*%
D28*
X66630000Y-34550000D02*
X171630000Y-34550000D01*
X171630000Y-106550000D01*
X66630000Y-106550000D01*
X66630000Y-34550000D01*
M02*
