%TF.GenerationSoftware,KiCad,Pcbnew,7.0.6*%
%TF.CreationDate,2024-03-05T09:49:15-05:00*%
%TF.ProjectId,IRON PCB 2.0,49524f4e-2050-4434-9220-322e302e6b69,rev?*%
%TF.SameCoordinates,Original*%
%TF.FileFunction,Legend,Bot*%
%TF.FilePolarity,Positive*%
%FSLAX46Y46*%
G04 Gerber Fmt 4.6, Leading zero omitted, Abs format (unit mm)*
G04 Created by KiCad (PCBNEW 7.0.6) date 2024-03-05 09:49:15*
%MOMM*%
%LPD*%
G01*
G04 APERTURE LIST*
%ADD10C,0.150000*%
%ADD11C,0.120000*%
%ADD12C,0.100000*%
%TA.AperFunction,Profile*%
%ADD13C,0.200000*%
%TD*%
G04 APERTURE END LIST*
D10*
X155994819Y-61193333D02*
X155518628Y-60860000D01*
X155994819Y-60621905D02*
X154994819Y-60621905D01*
X154994819Y-60621905D02*
X154994819Y-61002857D01*
X154994819Y-61002857D02*
X155042438Y-61098095D01*
X155042438Y-61098095D02*
X155090057Y-61145714D01*
X155090057Y-61145714D02*
X155185295Y-61193333D01*
X155185295Y-61193333D02*
X155328152Y-61193333D01*
X155328152Y-61193333D02*
X155423390Y-61145714D01*
X155423390Y-61145714D02*
X155471009Y-61098095D01*
X155471009Y-61098095D02*
X155518628Y-61002857D01*
X155518628Y-61002857D02*
X155518628Y-60621905D01*
X155423390Y-61764762D02*
X155375771Y-61669524D01*
X155375771Y-61669524D02*
X155328152Y-61621905D01*
X155328152Y-61621905D02*
X155232914Y-61574286D01*
X155232914Y-61574286D02*
X155185295Y-61574286D01*
X155185295Y-61574286D02*
X155090057Y-61621905D01*
X155090057Y-61621905D02*
X155042438Y-61669524D01*
X155042438Y-61669524D02*
X154994819Y-61764762D01*
X154994819Y-61764762D02*
X154994819Y-61955238D01*
X154994819Y-61955238D02*
X155042438Y-62050476D01*
X155042438Y-62050476D02*
X155090057Y-62098095D01*
X155090057Y-62098095D02*
X155185295Y-62145714D01*
X155185295Y-62145714D02*
X155232914Y-62145714D01*
X155232914Y-62145714D02*
X155328152Y-62098095D01*
X155328152Y-62098095D02*
X155375771Y-62050476D01*
X155375771Y-62050476D02*
X155423390Y-61955238D01*
X155423390Y-61955238D02*
X155423390Y-61764762D01*
X155423390Y-61764762D02*
X155471009Y-61669524D01*
X155471009Y-61669524D02*
X155518628Y-61621905D01*
X155518628Y-61621905D02*
X155613866Y-61574286D01*
X155613866Y-61574286D02*
X155804342Y-61574286D01*
X155804342Y-61574286D02*
X155899580Y-61621905D01*
X155899580Y-61621905D02*
X155947200Y-61669524D01*
X155947200Y-61669524D02*
X155994819Y-61764762D01*
X155994819Y-61764762D02*
X155994819Y-61955238D01*
X155994819Y-61955238D02*
X155947200Y-62050476D01*
X155947200Y-62050476D02*
X155899580Y-62098095D01*
X155899580Y-62098095D02*
X155804342Y-62145714D01*
X155804342Y-62145714D02*
X155613866Y-62145714D01*
X155613866Y-62145714D02*
X155518628Y-62098095D01*
X155518628Y-62098095D02*
X155471009Y-62050476D01*
X155471009Y-62050476D02*
X155423390Y-61955238D01*
X156114819Y-73793333D02*
X155638628Y-73460000D01*
X156114819Y-73221905D02*
X155114819Y-73221905D01*
X155114819Y-73221905D02*
X155114819Y-73602857D01*
X155114819Y-73602857D02*
X155162438Y-73698095D01*
X155162438Y-73698095D02*
X155210057Y-73745714D01*
X155210057Y-73745714D02*
X155305295Y-73793333D01*
X155305295Y-73793333D02*
X155448152Y-73793333D01*
X155448152Y-73793333D02*
X155543390Y-73745714D01*
X155543390Y-73745714D02*
X155591009Y-73698095D01*
X155591009Y-73698095D02*
X155638628Y-73602857D01*
X155638628Y-73602857D02*
X155638628Y-73221905D01*
X155114819Y-74126667D02*
X155114819Y-74793333D01*
X155114819Y-74793333D02*
X156114819Y-74364762D01*
X151656666Y-46964819D02*
X151989999Y-46488628D01*
X152228094Y-46964819D02*
X152228094Y-45964819D01*
X152228094Y-45964819D02*
X151847142Y-45964819D01*
X151847142Y-45964819D02*
X151751904Y-46012438D01*
X151751904Y-46012438D02*
X151704285Y-46060057D01*
X151704285Y-46060057D02*
X151656666Y-46155295D01*
X151656666Y-46155295D02*
X151656666Y-46298152D01*
X151656666Y-46298152D02*
X151704285Y-46393390D01*
X151704285Y-46393390D02*
X151751904Y-46441009D01*
X151751904Y-46441009D02*
X151847142Y-46488628D01*
X151847142Y-46488628D02*
X152228094Y-46488628D01*
X151275713Y-46060057D02*
X151228094Y-46012438D01*
X151228094Y-46012438D02*
X151132856Y-45964819D01*
X151132856Y-45964819D02*
X150894761Y-45964819D01*
X150894761Y-45964819D02*
X150799523Y-46012438D01*
X150799523Y-46012438D02*
X150751904Y-46060057D01*
X150751904Y-46060057D02*
X150704285Y-46155295D01*
X150704285Y-46155295D02*
X150704285Y-46250533D01*
X150704285Y-46250533D02*
X150751904Y-46393390D01*
X150751904Y-46393390D02*
X151323332Y-46964819D01*
X151323332Y-46964819D02*
X150704285Y-46964819D01*
X156334819Y-49033333D02*
X155858628Y-48700000D01*
X156334819Y-48461905D02*
X155334819Y-48461905D01*
X155334819Y-48461905D02*
X155334819Y-48842857D01*
X155334819Y-48842857D02*
X155382438Y-48938095D01*
X155382438Y-48938095D02*
X155430057Y-48985714D01*
X155430057Y-48985714D02*
X155525295Y-49033333D01*
X155525295Y-49033333D02*
X155668152Y-49033333D01*
X155668152Y-49033333D02*
X155763390Y-48985714D01*
X155763390Y-48985714D02*
X155811009Y-48938095D01*
X155811009Y-48938095D02*
X155858628Y-48842857D01*
X155858628Y-48842857D02*
X155858628Y-48461905D01*
X156334819Y-49509524D02*
X156334819Y-49700000D01*
X156334819Y-49700000D02*
X156287200Y-49795238D01*
X156287200Y-49795238D02*
X156239580Y-49842857D01*
X156239580Y-49842857D02*
X156096723Y-49938095D01*
X156096723Y-49938095D02*
X155906247Y-49985714D01*
X155906247Y-49985714D02*
X155525295Y-49985714D01*
X155525295Y-49985714D02*
X155430057Y-49938095D01*
X155430057Y-49938095D02*
X155382438Y-49890476D01*
X155382438Y-49890476D02*
X155334819Y-49795238D01*
X155334819Y-49795238D02*
X155334819Y-49604762D01*
X155334819Y-49604762D02*
X155382438Y-49509524D01*
X155382438Y-49509524D02*
X155430057Y-49461905D01*
X155430057Y-49461905D02*
X155525295Y-49414286D01*
X155525295Y-49414286D02*
X155763390Y-49414286D01*
X155763390Y-49414286D02*
X155858628Y-49461905D01*
X155858628Y-49461905D02*
X155906247Y-49509524D01*
X155906247Y-49509524D02*
X155953866Y-49604762D01*
X155953866Y-49604762D02*
X155953866Y-49795238D01*
X155953866Y-49795238D02*
X155906247Y-49890476D01*
X155906247Y-49890476D02*
X155858628Y-49938095D01*
X155858628Y-49938095D02*
X155763390Y-49985714D01*
X151526666Y-59174819D02*
X151859999Y-58698628D01*
X152098094Y-59174819D02*
X152098094Y-58174819D01*
X152098094Y-58174819D02*
X151717142Y-58174819D01*
X151717142Y-58174819D02*
X151621904Y-58222438D01*
X151621904Y-58222438D02*
X151574285Y-58270057D01*
X151574285Y-58270057D02*
X151526666Y-58365295D01*
X151526666Y-58365295D02*
X151526666Y-58508152D01*
X151526666Y-58508152D02*
X151574285Y-58603390D01*
X151574285Y-58603390D02*
X151621904Y-58651009D01*
X151621904Y-58651009D02*
X151717142Y-58698628D01*
X151717142Y-58698628D02*
X152098094Y-58698628D01*
X151193332Y-58174819D02*
X150574285Y-58174819D01*
X150574285Y-58174819D02*
X150907618Y-58555771D01*
X150907618Y-58555771D02*
X150764761Y-58555771D01*
X150764761Y-58555771D02*
X150669523Y-58603390D01*
X150669523Y-58603390D02*
X150621904Y-58651009D01*
X150621904Y-58651009D02*
X150574285Y-58746247D01*
X150574285Y-58746247D02*
X150574285Y-58984342D01*
X150574285Y-58984342D02*
X150621904Y-59079580D01*
X150621904Y-59079580D02*
X150669523Y-59127200D01*
X150669523Y-59127200D02*
X150764761Y-59174819D01*
X150764761Y-59174819D02*
X151050475Y-59174819D01*
X151050475Y-59174819D02*
X151145713Y-59127200D01*
X151145713Y-59127200D02*
X151193332Y-59079580D01*
X113264819Y-76421905D02*
X112264819Y-76421905D01*
X112264819Y-76421905D02*
X112264819Y-76660000D01*
X112264819Y-76660000D02*
X112312438Y-76802857D01*
X112312438Y-76802857D02*
X112407676Y-76898095D01*
X112407676Y-76898095D02*
X112502914Y-76945714D01*
X112502914Y-76945714D02*
X112693390Y-76993333D01*
X112693390Y-76993333D02*
X112836247Y-76993333D01*
X112836247Y-76993333D02*
X113026723Y-76945714D01*
X113026723Y-76945714D02*
X113121961Y-76898095D01*
X113121961Y-76898095D02*
X113217200Y-76802857D01*
X113217200Y-76802857D02*
X113264819Y-76660000D01*
X113264819Y-76660000D02*
X113264819Y-76421905D01*
X112360057Y-77374286D02*
X112312438Y-77421905D01*
X112312438Y-77421905D02*
X112264819Y-77517143D01*
X112264819Y-77517143D02*
X112264819Y-77755238D01*
X112264819Y-77755238D02*
X112312438Y-77850476D01*
X112312438Y-77850476D02*
X112360057Y-77898095D01*
X112360057Y-77898095D02*
X112455295Y-77945714D01*
X112455295Y-77945714D02*
X112550533Y-77945714D01*
X112550533Y-77945714D02*
X112693390Y-77898095D01*
X112693390Y-77898095D02*
X113264819Y-77326667D01*
X113264819Y-77326667D02*
X113264819Y-77945714D01*
X151356666Y-72094819D02*
X151689999Y-71618628D01*
X151928094Y-72094819D02*
X151928094Y-71094819D01*
X151928094Y-71094819D02*
X151547142Y-71094819D01*
X151547142Y-71094819D02*
X151451904Y-71142438D01*
X151451904Y-71142438D02*
X151404285Y-71190057D01*
X151404285Y-71190057D02*
X151356666Y-71285295D01*
X151356666Y-71285295D02*
X151356666Y-71428152D01*
X151356666Y-71428152D02*
X151404285Y-71523390D01*
X151404285Y-71523390D02*
X151451904Y-71571009D01*
X151451904Y-71571009D02*
X151547142Y-71618628D01*
X151547142Y-71618628D02*
X151928094Y-71618628D01*
X150499523Y-71428152D02*
X150499523Y-72094819D01*
X150737618Y-71047200D02*
X150975713Y-71761485D01*
X150975713Y-71761485D02*
X150356666Y-71761485D01*
X153440475Y-83470057D02*
X153392856Y-83422438D01*
X153392856Y-83422438D02*
X153297618Y-83374819D01*
X153297618Y-83374819D02*
X153059523Y-83374819D01*
X153059523Y-83374819D02*
X152964285Y-83422438D01*
X152964285Y-83422438D02*
X152916666Y-83470057D01*
X152916666Y-83470057D02*
X152869047Y-83565295D01*
X152869047Y-83565295D02*
X152869047Y-83660533D01*
X152869047Y-83660533D02*
X152916666Y-83803390D01*
X152916666Y-83803390D02*
X153488094Y-84374819D01*
X153488094Y-84374819D02*
X152869047Y-84374819D01*
X152488094Y-83470057D02*
X152440475Y-83422438D01*
X152440475Y-83422438D02*
X152345237Y-83374819D01*
X152345237Y-83374819D02*
X152107142Y-83374819D01*
X152107142Y-83374819D02*
X152011904Y-83422438D01*
X152011904Y-83422438D02*
X151964285Y-83470057D01*
X151964285Y-83470057D02*
X151916666Y-83565295D01*
X151916666Y-83565295D02*
X151916666Y-83660533D01*
X151916666Y-83660533D02*
X151964285Y-83803390D01*
X151964285Y-83803390D02*
X152535713Y-84374819D01*
X152535713Y-84374819D02*
X151916666Y-84374819D01*
X151297618Y-83374819D02*
X151202380Y-83374819D01*
X151202380Y-83374819D02*
X151107142Y-83422438D01*
X151107142Y-83422438D02*
X151059523Y-83470057D01*
X151059523Y-83470057D02*
X151011904Y-83565295D01*
X151011904Y-83565295D02*
X150964285Y-83755771D01*
X150964285Y-83755771D02*
X150964285Y-83993866D01*
X150964285Y-83993866D02*
X151011904Y-84184342D01*
X151011904Y-84184342D02*
X151059523Y-84279580D01*
X151059523Y-84279580D02*
X151107142Y-84327200D01*
X151107142Y-84327200D02*
X151202380Y-84374819D01*
X151202380Y-84374819D02*
X151297618Y-84374819D01*
X151297618Y-84374819D02*
X151392856Y-84327200D01*
X151392856Y-84327200D02*
X151440475Y-84279580D01*
X151440475Y-84279580D02*
X151488094Y-84184342D01*
X151488094Y-84184342D02*
X151535713Y-83993866D01*
X151535713Y-83993866D02*
X151535713Y-83755771D01*
X151535713Y-83755771D02*
X151488094Y-83565295D01*
X151488094Y-83565295D02*
X151440475Y-83470057D01*
X151440475Y-83470057D02*
X151392856Y-83422438D01*
X151392856Y-83422438D02*
X151297618Y-83374819D01*
X149821427Y-84374819D02*
X149583332Y-84374819D01*
X149583332Y-84374819D02*
X149583332Y-84184342D01*
X149583332Y-84184342D02*
X149678570Y-84136723D01*
X149678570Y-84136723D02*
X149773808Y-84041485D01*
X149773808Y-84041485D02*
X149821427Y-83898628D01*
X149821427Y-83898628D02*
X149821427Y-83660533D01*
X149821427Y-83660533D02*
X149773808Y-83517676D01*
X149773808Y-83517676D02*
X149678570Y-83422438D01*
X149678570Y-83422438D02*
X149535713Y-83374819D01*
X149535713Y-83374819D02*
X149345237Y-83374819D01*
X149345237Y-83374819D02*
X149202380Y-83422438D01*
X149202380Y-83422438D02*
X149107142Y-83517676D01*
X149107142Y-83517676D02*
X149059523Y-83660533D01*
X149059523Y-83660533D02*
X149059523Y-83898628D01*
X149059523Y-83898628D02*
X149107142Y-84041485D01*
X149107142Y-84041485D02*
X149202380Y-84136723D01*
X149202380Y-84136723D02*
X149297618Y-84184342D01*
X149297618Y-84184342D02*
X149297618Y-84374819D01*
X149297618Y-84374819D02*
X149059523Y-84374819D01*
X91720475Y-54574819D02*
X91720475Y-55384342D01*
X91720475Y-55384342D02*
X91672856Y-55479580D01*
X91672856Y-55479580D02*
X91625237Y-55527200D01*
X91625237Y-55527200D02*
X91529999Y-55574819D01*
X91529999Y-55574819D02*
X91339523Y-55574819D01*
X91339523Y-55574819D02*
X91244285Y-55527200D01*
X91244285Y-55527200D02*
X91196666Y-55479580D01*
X91196666Y-55479580D02*
X91149047Y-55384342D01*
X91149047Y-55384342D02*
X91149047Y-54574819D01*
X90768094Y-54574819D02*
X90101428Y-54574819D01*
X90101428Y-54574819D02*
X90529999Y-55574819D01*
X89577618Y-55003390D02*
X89672856Y-54955771D01*
X89672856Y-54955771D02*
X89720475Y-54908152D01*
X89720475Y-54908152D02*
X89768094Y-54812914D01*
X89768094Y-54812914D02*
X89768094Y-54765295D01*
X89768094Y-54765295D02*
X89720475Y-54670057D01*
X89720475Y-54670057D02*
X89672856Y-54622438D01*
X89672856Y-54622438D02*
X89577618Y-54574819D01*
X89577618Y-54574819D02*
X89387142Y-54574819D01*
X89387142Y-54574819D02*
X89291904Y-54622438D01*
X89291904Y-54622438D02*
X89244285Y-54670057D01*
X89244285Y-54670057D02*
X89196666Y-54765295D01*
X89196666Y-54765295D02*
X89196666Y-54812914D01*
X89196666Y-54812914D02*
X89244285Y-54908152D01*
X89244285Y-54908152D02*
X89291904Y-54955771D01*
X89291904Y-54955771D02*
X89387142Y-55003390D01*
X89387142Y-55003390D02*
X89577618Y-55003390D01*
X89577618Y-55003390D02*
X89672856Y-55051009D01*
X89672856Y-55051009D02*
X89720475Y-55098628D01*
X89720475Y-55098628D02*
X89768094Y-55193866D01*
X89768094Y-55193866D02*
X89768094Y-55384342D01*
X89768094Y-55384342D02*
X89720475Y-55479580D01*
X89720475Y-55479580D02*
X89672856Y-55527200D01*
X89672856Y-55527200D02*
X89577618Y-55574819D01*
X89577618Y-55574819D02*
X89387142Y-55574819D01*
X89387142Y-55574819D02*
X89291904Y-55527200D01*
X89291904Y-55527200D02*
X89244285Y-55479580D01*
X89244285Y-55479580D02*
X89196666Y-55384342D01*
X89196666Y-55384342D02*
X89196666Y-55193866D01*
X89196666Y-55193866D02*
X89244285Y-55098628D01*
X89244285Y-55098628D02*
X89291904Y-55051009D01*
X89291904Y-55051009D02*
X89387142Y-55003390D01*
X88577618Y-54574819D02*
X88482380Y-54574819D01*
X88482380Y-54574819D02*
X88387142Y-54622438D01*
X88387142Y-54622438D02*
X88339523Y-54670057D01*
X88339523Y-54670057D02*
X88291904Y-54765295D01*
X88291904Y-54765295D02*
X88244285Y-54955771D01*
X88244285Y-54955771D02*
X88244285Y-55193866D01*
X88244285Y-55193866D02*
X88291904Y-55384342D01*
X88291904Y-55384342D02*
X88339523Y-55479580D01*
X88339523Y-55479580D02*
X88387142Y-55527200D01*
X88387142Y-55527200D02*
X88482380Y-55574819D01*
X88482380Y-55574819D02*
X88577618Y-55574819D01*
X88577618Y-55574819D02*
X88672856Y-55527200D01*
X88672856Y-55527200D02*
X88720475Y-55479580D01*
X88720475Y-55479580D02*
X88768094Y-55384342D01*
X88768094Y-55384342D02*
X88815713Y-55193866D01*
X88815713Y-55193866D02*
X88815713Y-54955771D01*
X88815713Y-54955771D02*
X88768094Y-54765295D01*
X88768094Y-54765295D02*
X88720475Y-54670057D01*
X88720475Y-54670057D02*
X88672856Y-54622438D01*
X88672856Y-54622438D02*
X88577618Y-54574819D01*
X87339523Y-54574819D02*
X87815713Y-54574819D01*
X87815713Y-54574819D02*
X87863332Y-55051009D01*
X87863332Y-55051009D02*
X87815713Y-55003390D01*
X87815713Y-55003390D02*
X87720475Y-54955771D01*
X87720475Y-54955771D02*
X87482380Y-54955771D01*
X87482380Y-54955771D02*
X87387142Y-55003390D01*
X87387142Y-55003390D02*
X87339523Y-55051009D01*
X87339523Y-55051009D02*
X87291904Y-55146247D01*
X87291904Y-55146247D02*
X87291904Y-55384342D01*
X87291904Y-55384342D02*
X87339523Y-55479580D01*
X87339523Y-55479580D02*
X87387142Y-55527200D01*
X87387142Y-55527200D02*
X87482380Y-55574819D01*
X87482380Y-55574819D02*
X87720475Y-55574819D01*
X87720475Y-55574819D02*
X87815713Y-55527200D01*
X87815713Y-55527200D02*
X87863332Y-55479580D01*
D11*
%TO.C,R7*%
X158390000Y-73232936D02*
X158390000Y-74687064D01*
X156570000Y-73232936D02*
X156570000Y-74687064D01*
%TO.C,C2*%
X107375000Y-56215000D02*
X106750000Y-56215000D01*
X107062500Y-55902500D02*
X107062500Y-56527500D01*
X106510000Y-59595563D02*
X106510000Y-58960000D01*
X106510000Y-59595563D02*
X105445563Y-60660000D01*
X106510000Y-56204437D02*
X106510000Y-56840000D01*
X106510000Y-56204437D02*
X105445563Y-55140000D01*
X105445563Y-60660000D02*
X100990000Y-60660000D01*
X105445563Y-55140000D02*
X100990000Y-55140000D01*
X100990000Y-60660000D02*
X100990000Y-58960000D01*
X100990000Y-55140000D02*
X100990000Y-56840000D01*
D12*
%TO.C,D1*%
X84060000Y-56650000D02*
X83660000Y-56650000D01*
X84060000Y-56650000D02*
X84060000Y-57050000D01*
X81260000Y-56650000D02*
X81660000Y-56650000D01*
X81260000Y-56650000D02*
X81260000Y-57050000D01*
X84062080Y-57459820D02*
X83602340Y-57459820D01*
X83602340Y-57459820D02*
X83602340Y-57536020D01*
X81725280Y-57459820D02*
X81725280Y-57536020D01*
X81260460Y-57459820D02*
X81725280Y-57459820D01*
X84062080Y-57536020D02*
X84062080Y-57459820D01*
X83602340Y-57536020D02*
X84062080Y-57536020D01*
X81725280Y-57536020D02*
X81260460Y-57536020D01*
X81260460Y-57536020D02*
X81260460Y-57459820D01*
X84060000Y-61150000D02*
X84060000Y-60750000D01*
X84060000Y-61150000D02*
X83660000Y-61150000D01*
X81260000Y-61150000D02*
X81260000Y-60750000D01*
X81260000Y-61150000D02*
X81660000Y-61150000D01*
D11*
%TO.C,R5*%
X101259564Y-80055000D02*
X99805436Y-80055000D01*
X101259564Y-78235000D02*
X99805436Y-78235000D01*
%TO.C,C1*%
X101835000Y-49635000D02*
X101210000Y-49635000D01*
X101522500Y-49322500D02*
X101522500Y-49947500D01*
X100970000Y-53015563D02*
X100970000Y-52380000D01*
X100970000Y-53015563D02*
X99905563Y-54080000D01*
X100970000Y-49624437D02*
X100970000Y-50260000D01*
X100970000Y-49624437D02*
X99905563Y-48560000D01*
X99905563Y-54080000D02*
X95450000Y-54080000D01*
X99905563Y-48560000D02*
X95450000Y-48560000D01*
X95450000Y-54080000D02*
X95450000Y-52380000D01*
X95450000Y-48560000D02*
X95450000Y-50260000D01*
%TO.C,R2*%
X150572936Y-47390000D02*
X152027064Y-47390000D01*
X150572936Y-49210000D02*
X152027064Y-49210000D01*
%TO.C,R9*%
X158610000Y-48472936D02*
X158610000Y-49927064D01*
X156790000Y-48472936D02*
X156790000Y-49927064D01*
%TO.C,R3*%
X150562936Y-59760000D02*
X152017064Y-59760000D01*
X150562936Y-61580000D02*
X152017064Y-61580000D01*
%TO.C,R8*%
X158480000Y-60532936D02*
X158480000Y-61987064D01*
X156660000Y-60532936D02*
X156660000Y-61987064D01*
D12*
%TO.C,D2*%
X108810000Y-79410000D02*
X109210000Y-79410000D01*
X108810000Y-79410000D02*
X108810000Y-79010000D01*
X111610000Y-79410000D02*
X111210000Y-79410000D01*
X111610000Y-79410000D02*
X111610000Y-79010000D01*
X108807920Y-78600180D02*
X109267660Y-78600180D01*
X109267660Y-78600180D02*
X109267660Y-78523980D01*
X111144720Y-78600180D02*
X111144720Y-78523980D01*
X111609540Y-78600180D02*
X111144720Y-78600180D01*
X108807920Y-78523980D02*
X108807920Y-78600180D01*
X109267660Y-78523980D02*
X108807920Y-78523980D01*
X111144720Y-78523980D02*
X111609540Y-78523980D01*
X111609540Y-78523980D02*
X111609540Y-78600180D01*
X108810000Y-74910000D02*
X108810000Y-75310000D01*
X108810000Y-74910000D02*
X109210000Y-74910000D01*
X111610000Y-74910000D02*
X111610000Y-75310000D01*
X111610000Y-74910000D02*
X111210000Y-74910000D01*
D11*
%TO.C,R4*%
X150472936Y-72540000D02*
X151927064Y-72540000D01*
X150472936Y-74360000D02*
X151927064Y-74360000D01*
%TO.C,R1*%
X150502936Y-84780000D02*
X151957064Y-84780000D01*
X150502936Y-86600000D02*
X151957064Y-86600000D01*
D12*
%TO.C,U7805*%
X95120000Y-63840000D02*
X95120000Y-63540000D01*
X95080000Y-57210000D02*
X95580000Y-57210000D01*
X94780000Y-56900000D02*
X95080000Y-57210000D01*
X94720000Y-63840000D02*
X95120000Y-63840000D01*
X94400000Y-56900000D02*
X94780000Y-56900000D01*
X89000000Y-63840000D02*
X88700000Y-63840000D01*
X88700000Y-63840000D02*
X88700000Y-63440000D01*
X88700000Y-57200000D02*
X88700000Y-56900000D01*
X88700000Y-56900000D02*
X89000000Y-56900000D01*
%TD*%
D13*
X66630000Y-34550000D02*
X171630000Y-34550000D01*
X171630000Y-106550000D01*
X66630000Y-106550000D01*
X66630000Y-34550000D01*
M02*
