%TF.GenerationSoftware,KiCad,Pcbnew,7.0.6*%
%TF.CreationDate,2024-03-05T09:49:15-05:00*%
%TF.ProjectId,IRON PCB 2.0,49524f4e-2050-4434-9220-322e302e6b69,rev?*%
%TF.SameCoordinates,Original*%
%TF.FileFunction,Copper,L2,Bot*%
%TF.FilePolarity,Positive*%
%FSLAX46Y46*%
G04 Gerber Fmt 4.6, Leading zero omitted, Abs format (unit mm)*
G04 Created by KiCad (PCBNEW 7.0.6) date 2024-03-05 09:49:15*
%MOMM*%
%LPD*%
G01*
G04 APERTURE LIST*
G04 Aperture macros list*
%AMRoundRect*
0 Rectangle with rounded corners*
0 $1 Rounding radius*
0 $2 $3 $4 $5 $6 $7 $8 $9 X,Y pos of 4 corners*
0 Add a 4 corners polygon primitive as box body*
4,1,4,$2,$3,$4,$5,$6,$7,$8,$9,$2,$3,0*
0 Add four circle primitives for the rounded corners*
1,1,$1+$1,$2,$3*
1,1,$1+$1,$4,$5*
1,1,$1+$1,$6,$7*
1,1,$1+$1,$8,$9*
0 Add four rect primitives between the rounded corners*
20,1,$1+$1,$2,$3,$4,$5,0*
20,1,$1+$1,$4,$5,$6,$7,0*
20,1,$1+$1,$6,$7,$8,$9,0*
20,1,$1+$1,$8,$9,$2,$3,0*%
G04 Aperture macros list end*
%ADD10C,0.300000*%
%TA.AperFunction,NonConductor*%
%ADD11C,0.300000*%
%TD*%
%TA.AperFunction,ComponentPad*%
%ADD12R,2.000000X2.000000*%
%TD*%
%TA.AperFunction,ComponentPad*%
%ADD13C,2.000000*%
%TD*%
%TA.AperFunction,ComponentPad*%
%ADD14R,2.600000X2.600000*%
%TD*%
%TA.AperFunction,ComponentPad*%
%ADD15C,2.600000*%
%TD*%
%TA.AperFunction,ComponentPad*%
%ADD16C,0.800000*%
%TD*%
%TA.AperFunction,ComponentPad*%
%ADD17C,6.400000*%
%TD*%
%TA.AperFunction,ComponentPad*%
%ADD18R,1.800000X1.800000*%
%TD*%
%TA.AperFunction,ComponentPad*%
%ADD19C,1.800000*%
%TD*%
%TA.AperFunction,WasherPad*%
%ADD20C,3.200000*%
%TD*%
%TA.AperFunction,ComponentPad*%
%ADD21R,3.500000X3.500000*%
%TD*%
%TA.AperFunction,ComponentPad*%
%ADD22C,3.500000*%
%TD*%
%TA.AperFunction,SMDPad,CuDef*%
%ADD23RoundRect,0.250000X-0.625000X0.312500X-0.625000X-0.312500X0.625000X-0.312500X0.625000X0.312500X0*%
%TD*%
%TA.AperFunction,SMDPad,CuDef*%
%ADD24RoundRect,0.250000X1.250000X0.550000X-1.250000X0.550000X-1.250000X-0.550000X1.250000X-0.550000X0*%
%TD*%
%TA.AperFunction,SMDPad,CuDef*%
%ADD25R,1.700000X2.500000*%
%TD*%
%TA.AperFunction,SMDPad,CuDef*%
%ADD26RoundRect,0.250000X0.312500X0.625000X-0.312500X0.625000X-0.312500X-0.625000X0.312500X-0.625000X0*%
%TD*%
%TA.AperFunction,SMDPad,CuDef*%
%ADD27RoundRect,0.250000X-0.312500X-0.625000X0.312500X-0.625000X0.312500X0.625000X-0.312500X0.625000X0*%
%TD*%
%TA.AperFunction,SMDPad,CuDef*%
%ADD28R,3.000000X1.600000*%
%TD*%
%TA.AperFunction,SMDPad,CuDef*%
%ADD29R,6.200000X5.800000*%
%TD*%
%TA.AperFunction,Conductor*%
%ADD30C,0.500000*%
%TD*%
%TA.AperFunction,Conductor*%
%ADD31C,1.000000*%
%TD*%
%TA.AperFunction,Profile*%
%ADD32C,0.200000*%
%TD*%
G04 APERTURE END LIST*
D10*
D11*
G36*
X112656559Y-99923248D02*
G01*
X112659007Y-99906525D01*
X112666043Y-99893207D01*
X112679114Y-99882747D01*
X112694434Y-99878276D01*
X112701988Y-99877819D01*
X113035746Y-99877819D01*
X113052469Y-99880267D01*
X113065787Y-99887303D01*
X113076247Y-99900373D01*
X113080718Y-99915693D01*
X113081175Y-99923248D01*
X113081175Y-100939909D01*
X113084044Y-100954568D01*
X113092166Y-100965188D01*
X113222226Y-101087187D01*
X113234261Y-101096016D01*
X113248632Y-101100277D01*
X113256297Y-101100743D01*
X113817201Y-101100743D01*
X113832774Y-101103190D01*
X113846971Y-101111580D01*
X113856471Y-101125276D01*
X113860228Y-101141073D01*
X113860432Y-101146172D01*
X113860432Y-101309937D01*
X113858640Y-101324571D01*
X113852364Y-101338326D01*
X113840404Y-101349249D01*
X113826422Y-101354220D01*
X113817201Y-101355000D01*
X113025122Y-101355000D01*
X113008628Y-101353614D01*
X112992710Y-101349596D01*
X112977942Y-101343151D01*
X112964900Y-101334488D01*
X112958443Y-101328621D01*
X112679274Y-101066304D01*
X112669542Y-101054575D01*
X112662421Y-101041437D01*
X112658048Y-101026995D01*
X112656559Y-101011350D01*
X112656559Y-99923248D01*
G37*
G36*
X112213988Y-99878998D02*
G01*
X112229966Y-99883071D01*
X112244217Y-99889790D01*
X112256262Y-99898878D01*
X112257588Y-99900167D01*
X112461287Y-100095439D01*
X112471170Y-100107163D01*
X112479012Y-100120527D01*
X112484559Y-100135278D01*
X112487559Y-100151163D01*
X112488032Y-100160652D01*
X112488032Y-101072533D01*
X112486601Y-101088952D01*
X112482479Y-101104382D01*
X112475917Y-101118570D01*
X112467170Y-101131262D01*
X112461287Y-101137745D01*
X112257588Y-101333018D01*
X112245853Y-101342480D01*
X112231851Y-101349367D01*
X112216063Y-101353574D01*
X112201162Y-101354977D01*
X112198970Y-101355000D01*
X111054448Y-101355000D01*
X111039622Y-101353907D01*
X111023764Y-101350041D01*
X111009559Y-101343484D01*
X110997523Y-101334338D01*
X110996196Y-101333018D01*
X110792498Y-101137745D01*
X110782423Y-101126169D01*
X110774472Y-101112810D01*
X110768874Y-101097992D01*
X110765860Y-101082037D01*
X110765387Y-101072533D01*
X110765387Y-100975446D01*
X111183775Y-100975446D01*
X111185673Y-100990272D01*
X111193616Y-101003545D01*
X111195132Y-101005122D01*
X111289288Y-101097812D01*
X111301176Y-101106483D01*
X111315602Y-101111021D01*
X111321161Y-101111367D01*
X111932257Y-101111367D01*
X111947371Y-101108694D01*
X111960487Y-101100919D01*
X111963764Y-101097812D01*
X112058286Y-101005122D01*
X112066923Y-100992948D01*
X112069613Y-100977860D01*
X112069644Y-100975446D01*
X112069644Y-100257739D01*
X112067864Y-100242913D01*
X112059863Y-100229640D01*
X112058286Y-100228063D01*
X111963764Y-100135373D01*
X111951473Y-100126056D01*
X111936842Y-100122024D01*
X111932257Y-100121817D01*
X111321161Y-100121817D01*
X111306165Y-100124373D01*
X111293037Y-100132161D01*
X111289654Y-100135373D01*
X111195132Y-100228063D01*
X111186641Y-100240237D01*
X111183810Y-100255324D01*
X111183775Y-100257739D01*
X111183775Y-100975446D01*
X110765387Y-100975446D01*
X110765387Y-100160652D01*
X110766821Y-100144191D01*
X110770970Y-100128684D01*
X110777605Y-100114452D01*
X110786494Y-100101818D01*
X110792498Y-100095439D01*
X110996196Y-99900167D01*
X111007926Y-99890802D01*
X111021888Y-99883772D01*
X111037567Y-99879353D01*
X111052290Y-99877843D01*
X111054448Y-99877819D01*
X112198970Y-99877819D01*
X112213988Y-99878998D01*
G37*
G36*
X108869085Y-99923981D02*
G01*
X108871780Y-99907755D01*
X108879280Y-99894250D01*
X108890711Y-99884296D01*
X108905199Y-99878720D01*
X108914515Y-99877819D01*
X109240212Y-99877819D01*
X109256157Y-99880521D01*
X109269343Y-99888074D01*
X109279013Y-99899652D01*
X109284406Y-99914424D01*
X109285275Y-99923981D01*
X109285275Y-100487449D01*
X110169312Y-100487449D01*
X110169312Y-99923981D01*
X110171633Y-99908048D01*
X110178411Y-99894555D01*
X110189370Y-99884467D01*
X110204234Y-99878750D01*
X110214375Y-99877819D01*
X110548499Y-99877819D01*
X110563192Y-99880521D01*
X110575820Y-99888074D01*
X110585372Y-99899652D01*
X110590834Y-99914424D01*
X110591730Y-99923981D01*
X110591730Y-101310303D01*
X110589687Y-101324903D01*
X110582800Y-101338560D01*
X110570400Y-101349349D01*
X110554815Y-101354569D01*
X110548499Y-101355000D01*
X110214375Y-101355000D01*
X110197697Y-101352600D01*
X110184483Y-101345695D01*
X110174156Y-101332845D01*
X110169761Y-101317755D01*
X110169312Y-101310303D01*
X110169312Y-100721189D01*
X109285275Y-100721189D01*
X109285275Y-101310303D01*
X109283251Y-101324903D01*
X109276330Y-101338560D01*
X109263590Y-101349349D01*
X109249301Y-101354236D01*
X109240212Y-101355000D01*
X108914515Y-101355000D01*
X108898965Y-101352683D01*
X108885691Y-101345932D01*
X108875703Y-101335045D01*
X108870016Y-101320323D01*
X108869085Y-101310303D01*
X108869085Y-99923981D01*
G37*
G36*
X108196308Y-99880604D02*
G01*
X108212258Y-99887108D01*
X108225429Y-99895120D01*
X108237291Y-99905238D01*
X108246723Y-99917229D01*
X108251762Y-99928011D01*
X108713747Y-101213583D01*
X108719009Y-101228431D01*
X108723505Y-101242569D01*
X108727263Y-101258566D01*
X108729054Y-101275181D01*
X108729134Y-101279528D01*
X108729134Y-101309204D01*
X108727405Y-101323906D01*
X108721281Y-101337858D01*
X108709431Y-101349048D01*
X108695334Y-101354189D01*
X108685903Y-101355000D01*
X108427616Y-101355000D01*
X108412208Y-101351587D01*
X108399175Y-101342654D01*
X108389152Y-101330156D01*
X108385118Y-101322393D01*
X108289131Y-101050184D01*
X107414986Y-101050184D01*
X107317166Y-101322027D01*
X107310663Y-101335370D01*
X107300398Y-101346856D01*
X107287199Y-101353621D01*
X107276866Y-101355000D01*
X106957397Y-101355000D01*
X106941722Y-101352548D01*
X106927647Y-101344124D01*
X106918360Y-101330330D01*
X106914728Y-101314367D01*
X106914532Y-101309204D01*
X106914532Y-101279528D01*
X106915474Y-101264680D01*
X106918554Y-101248548D01*
X106923280Y-101232519D01*
X106928358Y-101217930D01*
X106929919Y-101213583D01*
X107071674Y-100819009D01*
X107499616Y-100819009D01*
X108204867Y-100819009D01*
X107950244Y-100126580D01*
X107938520Y-100121817D01*
X107761933Y-100121817D01*
X107753872Y-100124748D01*
X107499616Y-100819009D01*
X107071674Y-100819009D01*
X107391905Y-99927644D01*
X107398210Y-99914228D01*
X107408303Y-99900524D01*
X107421043Y-99889750D01*
X107436314Y-99882239D01*
X107450889Y-99878712D01*
X107463712Y-99877819D01*
X108179954Y-99877819D01*
X108196308Y-99880604D01*
G37*
G36*
X105084176Y-99923614D02*
G01*
X105085968Y-99908913D01*
X105092244Y-99894960D01*
X105104204Y-99883770D01*
X105118186Y-99878629D01*
X105127407Y-99877819D01*
X105367009Y-99877819D01*
X105381643Y-99879628D01*
X105395399Y-99886059D01*
X105406321Y-99898572D01*
X105411293Y-99913547D01*
X105412072Y-99923614D01*
X105412072Y-100850882D01*
X106383670Y-99925446D01*
X106395533Y-99914564D01*
X106408022Y-99905021D01*
X106421112Y-99896853D01*
X106434778Y-99890092D01*
X106448993Y-99884774D01*
X106463732Y-99880933D01*
X106478969Y-99878603D01*
X106494678Y-99877819D01*
X106702773Y-99877819D01*
X106720551Y-99879712D01*
X106735663Y-99885234D01*
X106747969Y-99894150D01*
X106757324Y-99906226D01*
X106763586Y-99921227D01*
X106766614Y-99938918D01*
X106766887Y-99946695D01*
X106766887Y-101309937D01*
X106765095Y-101324571D01*
X106758819Y-101338326D01*
X106746859Y-101349249D01*
X106732877Y-101354220D01*
X106723656Y-101355000D01*
X106490648Y-101355000D01*
X106474929Y-101352597D01*
X106460733Y-101344328D01*
X106451316Y-101330762D01*
X106447617Y-101315031D01*
X106447418Y-101309937D01*
X106447418Y-100385966D01*
X105467393Y-101307739D01*
X105455531Y-101318605D01*
X105443041Y-101328106D01*
X105429951Y-101336216D01*
X105416285Y-101342909D01*
X105402070Y-101348160D01*
X105387331Y-101351943D01*
X105372094Y-101354231D01*
X105356385Y-101355000D01*
X105148656Y-101355000D01*
X105130732Y-101353131D01*
X105115519Y-101347670D01*
X105103150Y-101338834D01*
X105093759Y-101326842D01*
X105087481Y-101311912D01*
X105084449Y-101294262D01*
X105084176Y-101286489D01*
X105084176Y-99923614D01*
G37*
G36*
X103215718Y-99923614D02*
G01*
X103217510Y-99908913D01*
X103223786Y-99894960D01*
X103235746Y-99883770D01*
X103249729Y-99878629D01*
X103258949Y-99877819D01*
X103498551Y-99877819D01*
X103513186Y-99879628D01*
X103526941Y-99886059D01*
X103537863Y-99898572D01*
X103542835Y-99913547D01*
X103543614Y-99923614D01*
X103543614Y-100850882D01*
X104515212Y-99925446D01*
X104527075Y-99914564D01*
X104539564Y-99905021D01*
X104552654Y-99896853D01*
X104566320Y-99890092D01*
X104580535Y-99884774D01*
X104595274Y-99880933D01*
X104610511Y-99878603D01*
X104626221Y-99877819D01*
X104834316Y-99877819D01*
X104852093Y-99879712D01*
X104867206Y-99885234D01*
X104879511Y-99894150D01*
X104888866Y-99906226D01*
X104895129Y-99921227D01*
X104898156Y-99938918D01*
X104898429Y-99946695D01*
X104898429Y-101309937D01*
X104896637Y-101324571D01*
X104890361Y-101338326D01*
X104878401Y-101349249D01*
X104864419Y-101354220D01*
X104855198Y-101355000D01*
X104622191Y-101355000D01*
X104606471Y-101352597D01*
X104592275Y-101344328D01*
X104582858Y-101330762D01*
X104579159Y-101315031D01*
X104578960Y-101309937D01*
X104578960Y-100385966D01*
X103598935Y-101307739D01*
X103587073Y-101318605D01*
X103574584Y-101328106D01*
X103561493Y-101336216D01*
X103547827Y-101342909D01*
X103533612Y-101348160D01*
X103518873Y-101351943D01*
X103503636Y-101354231D01*
X103487927Y-101355000D01*
X103280198Y-101355000D01*
X103262275Y-101353131D01*
X103247061Y-101347670D01*
X103234692Y-101338834D01*
X103225301Y-101326842D01*
X103219023Y-101311912D01*
X103215992Y-101294262D01*
X103215718Y-101286489D01*
X103215718Y-99923614D01*
G37*
G36*
X100946092Y-99923248D02*
G01*
X100948516Y-99906525D01*
X100955392Y-99893207D01*
X100967932Y-99882747D01*
X100982330Y-99878276D01*
X100989323Y-99877819D01*
X102047749Y-99877819D01*
X102064210Y-99879249D01*
X102079717Y-99883372D01*
X102093949Y-99889933D01*
X102106583Y-99898681D01*
X102112962Y-99904563D01*
X102316294Y-100099836D01*
X102325679Y-100111927D01*
X102331875Y-100125230D01*
X102335692Y-100140079D01*
X102336810Y-100153691D01*
X102336810Y-101309204D01*
X102335018Y-101323906D01*
X102328742Y-101337858D01*
X102316782Y-101349048D01*
X102302800Y-101354189D01*
X102293579Y-101355000D01*
X101959455Y-101355000D01*
X101944821Y-101353191D01*
X101931066Y-101346759D01*
X101920143Y-101334247D01*
X101915172Y-101319271D01*
X101914392Y-101309204D01*
X101914392Y-100799958D01*
X101003977Y-100799958D01*
X100988404Y-100797510D01*
X100974207Y-100789120D01*
X100964707Y-100775424D01*
X100960950Y-100759627D01*
X100960746Y-100754528D01*
X100960746Y-100603220D01*
X100963171Y-100586497D01*
X100970046Y-100573179D01*
X100982587Y-100562719D01*
X100996985Y-100558248D01*
X101003977Y-100557791D01*
X101914392Y-100557791D01*
X101914392Y-100246748D01*
X101911373Y-100232159D01*
X101905233Y-100224033D01*
X101804483Y-100130976D01*
X101791862Y-100123185D01*
X101781036Y-100121817D01*
X100989323Y-100121817D01*
X100973750Y-100119475D01*
X100959553Y-100111463D01*
X100950053Y-100098420D01*
X100946295Y-100083419D01*
X100946092Y-100078586D01*
X100946092Y-99923248D01*
G37*
G36*
X100621127Y-101078761D02*
G01*
X100623821Y-101062918D01*
X100631321Y-101049633D01*
X100642752Y-101039779D01*
X100657241Y-101034232D01*
X100666556Y-101033332D01*
X100910188Y-101033332D01*
X100924881Y-101036026D01*
X100937509Y-101043526D01*
X100947061Y-101054957D01*
X100952523Y-101069446D01*
X100953419Y-101078761D01*
X100953419Y-101309937D01*
X100951376Y-101324707D01*
X100944489Y-101338483D01*
X100932089Y-101349334D01*
X100916503Y-101354568D01*
X100910188Y-101355000D01*
X100666556Y-101355000D01*
X100651007Y-101352679D01*
X100637732Y-101345901D01*
X100627745Y-101334942D01*
X100622057Y-101320078D01*
X100621127Y-101309937D01*
X100621127Y-101078761D01*
G37*
G36*
X99486493Y-99878998D02*
G01*
X99502471Y-99883071D01*
X99516722Y-99889790D01*
X99528767Y-99898878D01*
X99530094Y-99900167D01*
X99733792Y-100095439D01*
X99743675Y-100107163D01*
X99751517Y-100120527D01*
X99757064Y-100135278D01*
X99760064Y-100151163D01*
X99760537Y-100160652D01*
X99760537Y-101072533D01*
X99759106Y-101088952D01*
X99754984Y-101104382D01*
X99748422Y-101118570D01*
X99739675Y-101131262D01*
X99733792Y-101137745D01*
X99530094Y-101333018D01*
X99518359Y-101342480D01*
X99504357Y-101349367D01*
X99488569Y-101353574D01*
X99473667Y-101354977D01*
X99471475Y-101355000D01*
X98326953Y-101355000D01*
X98312127Y-101353907D01*
X98296269Y-101350041D01*
X98282065Y-101343484D01*
X98270028Y-101334338D01*
X98268702Y-101333018D01*
X98065003Y-101137745D01*
X98054928Y-101126169D01*
X98046977Y-101112810D01*
X98041380Y-101097992D01*
X98038366Y-101082037D01*
X98037892Y-101072533D01*
X98037892Y-100975446D01*
X98456280Y-100975446D01*
X98458178Y-100990272D01*
X98466121Y-101003545D01*
X98467637Y-101005122D01*
X98561793Y-101097812D01*
X98573681Y-101106483D01*
X98588107Y-101111021D01*
X98593667Y-101111367D01*
X99204762Y-101111367D01*
X99219877Y-101108694D01*
X99232992Y-101100919D01*
X99236270Y-101097812D01*
X99330792Y-101005122D01*
X99339428Y-100992948D01*
X99342118Y-100977860D01*
X99342149Y-100975446D01*
X99342149Y-100257739D01*
X99340369Y-100242913D01*
X99332368Y-100229640D01*
X99330792Y-100228063D01*
X99236270Y-100135373D01*
X99223978Y-100126056D01*
X99209347Y-100122024D01*
X99204762Y-100121817D01*
X98593667Y-100121817D01*
X98578671Y-100124373D01*
X98565542Y-100132161D01*
X98562159Y-100135373D01*
X98467637Y-100228063D01*
X98459146Y-100240237D01*
X98456315Y-100255324D01*
X98456280Y-100257739D01*
X98456280Y-100975446D01*
X98037892Y-100975446D01*
X98037892Y-100160652D01*
X98039326Y-100144191D01*
X98043476Y-100128684D01*
X98050110Y-100114452D01*
X98058999Y-100101818D01*
X98065003Y-100095439D01*
X98268702Y-99900167D01*
X98280431Y-99890802D01*
X98294393Y-99883772D01*
X98310072Y-99879353D01*
X98324795Y-99877843D01*
X98326953Y-99877819D01*
X99471475Y-99877819D01*
X99486493Y-99878998D01*
G37*
G36*
X96248935Y-99923248D02*
G01*
X96251297Y-99906525D01*
X96258152Y-99893207D01*
X96271046Y-99882747D01*
X96286368Y-99878276D01*
X96293998Y-99877819D01*
X97577372Y-99877819D01*
X97592565Y-99878886D01*
X97607106Y-99882031D01*
X97622994Y-99888208D01*
X97637440Y-99896956D01*
X97648447Y-99906395D01*
X97828698Y-100076388D01*
X97841326Y-100086811D01*
X97852751Y-100097943D01*
X97862235Y-100110495D01*
X97869038Y-100125178D01*
X97872127Y-100139552D01*
X97872662Y-100149295D01*
X97872662Y-100453377D01*
X97871957Y-100470450D01*
X97869493Y-100485480D01*
X97863701Y-100501419D01*
X97855639Y-100514558D01*
X97844167Y-100527993D01*
X97841887Y-100530314D01*
X97684351Y-100704337D01*
X97672593Y-100714034D01*
X97658171Y-100720944D01*
X97643521Y-100724278D01*
X97634159Y-100724853D01*
X96758914Y-100724853D01*
X96744243Y-100728081D01*
X96730809Y-100735040D01*
X96726674Y-100738775D01*
X96644975Y-100820474D01*
X96635450Y-100831465D01*
X96635450Y-100997794D01*
X96638225Y-101012432D01*
X96647173Y-101024173D01*
X96717515Y-101098911D01*
X96730239Y-101106382D01*
X96745120Y-101110528D01*
X96758182Y-101111367D01*
X97852512Y-101111367D01*
X97868085Y-101113729D01*
X97882282Y-101121910D01*
X97891781Y-101135445D01*
X97895539Y-101151275D01*
X97895743Y-101156430D01*
X97895743Y-101309937D01*
X97893951Y-101324571D01*
X97887674Y-101338326D01*
X97875715Y-101349249D01*
X97861732Y-101354220D01*
X97852512Y-101355000D01*
X96529204Y-101355000D01*
X96512749Y-101353782D01*
X96496482Y-101350208D01*
X96480592Y-101344393D01*
X96465268Y-101336452D01*
X96453065Y-101328295D01*
X96446039Y-101322759D01*
X96252599Y-101137745D01*
X96242990Y-101126575D01*
X96234122Y-101112449D01*
X96227887Y-101097231D01*
X96224401Y-101081014D01*
X96223656Y-101068869D01*
X96223656Y-100734745D01*
X96225080Y-100717991D01*
X96229367Y-100701480D01*
X96235338Y-100687625D01*
X96243443Y-100674139D01*
X96253698Y-100661106D01*
X96407571Y-100497341D01*
X96420032Y-100486509D01*
X96434149Y-100477615D01*
X96449648Y-100470817D01*
X96466252Y-100466274D01*
X96483688Y-100464147D01*
X96489637Y-100464002D01*
X97344364Y-100464002D01*
X97358584Y-100459365D01*
X97363415Y-100455209D01*
X97447313Y-100374975D01*
X97455750Y-100362824D01*
X97456472Y-100356657D01*
X97456472Y-100239787D01*
X97454280Y-100224726D01*
X97446104Y-100211516D01*
X97441451Y-100207180D01*
X97367812Y-100137205D01*
X97356106Y-100128119D01*
X97342146Y-100122910D01*
X97329710Y-100121817D01*
X96293998Y-100121817D01*
X96277320Y-100119434D01*
X96264106Y-100112635D01*
X96253779Y-100100139D01*
X96249384Y-100085663D01*
X96248935Y-100078586D01*
X96248935Y-99923248D01*
G37*
G36*
X93834961Y-99940101D02*
G01*
X93836662Y-99923299D01*
X93841591Y-99908772D01*
X93851402Y-99894672D01*
X93865038Y-99884590D01*
X93878999Y-99879551D01*
X93895045Y-99877819D01*
X94239427Y-99877819D01*
X94255991Y-99879812D01*
X94270624Y-99885563D01*
X94283398Y-99894726D01*
X94294380Y-99906955D01*
X94299877Y-99915188D01*
X94930390Y-100950533D01*
X95559071Y-99915554D01*
X95567344Y-99903365D01*
X95578578Y-99891857D01*
X95591429Y-99883576D01*
X95605805Y-99878846D01*
X95616957Y-99877819D01*
X95997243Y-99877819D01*
X96013289Y-99879551D01*
X96027250Y-99884590D01*
X96040886Y-99894672D01*
X96050697Y-99908772D01*
X96055626Y-99923299D01*
X96057327Y-99940101D01*
X96057327Y-101309937D01*
X96055535Y-101324571D01*
X96049259Y-101338326D01*
X96037299Y-101349249D01*
X96023316Y-101354220D01*
X96014096Y-101355000D01*
X95791346Y-101355000D01*
X95775773Y-101352638D01*
X95761576Y-101344457D01*
X95752077Y-101330922D01*
X95748319Y-101315092D01*
X95748115Y-101309937D01*
X95748115Y-100361786D01*
X95143981Y-101324591D01*
X95133866Y-101337380D01*
X95121587Y-101346939D01*
X95107041Y-101352927D01*
X95092373Y-101354966D01*
X95090125Y-101355000D01*
X94804361Y-101355000D01*
X94788321Y-101352979D01*
X94773586Y-101347077D01*
X94760775Y-101337534D01*
X94750505Y-101324591D01*
X94148203Y-100361786D01*
X94148203Y-101309937D01*
X94146411Y-101324571D01*
X94140134Y-101338326D01*
X94128174Y-101349249D01*
X94114192Y-101354220D01*
X94104972Y-101355000D01*
X93878192Y-101355000D01*
X93862619Y-101352638D01*
X93848422Y-101344457D01*
X93838922Y-101330922D01*
X93835165Y-101315092D01*
X93834961Y-101309937D01*
X93834961Y-99940101D01*
G37*
G36*
X93157787Y-99880604D02*
G01*
X93173737Y-99887108D01*
X93186908Y-99895120D01*
X93198771Y-99905238D01*
X93208202Y-99917229D01*
X93213241Y-99928011D01*
X93675226Y-101213583D01*
X93680488Y-101228431D01*
X93684984Y-101242569D01*
X93688742Y-101258566D01*
X93690533Y-101275181D01*
X93690614Y-101279528D01*
X93690614Y-101309204D01*
X93688884Y-101323906D01*
X93682761Y-101337858D01*
X93670911Y-101349048D01*
X93656814Y-101354189D01*
X93647383Y-101355000D01*
X93389096Y-101355000D01*
X93373688Y-101351587D01*
X93360654Y-101342654D01*
X93350631Y-101330156D01*
X93346598Y-101322393D01*
X93250610Y-101050184D01*
X92376465Y-101050184D01*
X92278646Y-101322027D01*
X92272143Y-101335370D01*
X92261878Y-101346856D01*
X92248679Y-101353621D01*
X92238346Y-101355000D01*
X91918876Y-101355000D01*
X91903201Y-101352548D01*
X91889127Y-101344124D01*
X91879839Y-101330330D01*
X91876207Y-101314367D01*
X91876011Y-101309204D01*
X91876011Y-101279528D01*
X91876953Y-101264680D01*
X91880034Y-101248548D01*
X91884759Y-101232519D01*
X91889837Y-101217930D01*
X91891399Y-101213583D01*
X92033153Y-100819009D01*
X92461095Y-100819009D01*
X93166346Y-100819009D01*
X92911723Y-100126580D01*
X92900000Y-100121817D01*
X92723412Y-100121817D01*
X92715352Y-100124748D01*
X92461095Y-100819009D01*
X92033153Y-100819009D01*
X92353384Y-99927644D01*
X92359689Y-99914228D01*
X92369782Y-99900524D01*
X92382522Y-99889750D01*
X92397793Y-99882239D01*
X92412369Y-99878712D01*
X92425191Y-99877819D01*
X93141434Y-99877819D01*
X93157787Y-99880604D01*
G37*
D10*
D11*
G36*
X148766559Y-100203248D02*
G01*
X148769007Y-100186525D01*
X148776043Y-100173207D01*
X148789114Y-100162747D01*
X148804434Y-100158276D01*
X148811988Y-100157819D01*
X149145746Y-100157819D01*
X149162469Y-100160267D01*
X149175787Y-100167303D01*
X149186247Y-100180373D01*
X149190718Y-100195693D01*
X149191175Y-100203248D01*
X149191175Y-101219909D01*
X149194044Y-101234568D01*
X149202166Y-101245188D01*
X149332226Y-101367187D01*
X149344261Y-101376016D01*
X149358632Y-101380277D01*
X149366297Y-101380743D01*
X149927201Y-101380743D01*
X149942774Y-101383190D01*
X149956971Y-101391580D01*
X149966471Y-101405276D01*
X149970228Y-101421073D01*
X149970432Y-101426172D01*
X149970432Y-101589937D01*
X149968640Y-101604571D01*
X149962364Y-101618326D01*
X149950404Y-101629249D01*
X149936422Y-101634220D01*
X149927201Y-101635000D01*
X149135122Y-101635000D01*
X149118628Y-101633614D01*
X149102710Y-101629596D01*
X149087942Y-101623151D01*
X149074900Y-101614488D01*
X149068443Y-101608621D01*
X148789274Y-101346304D01*
X148779542Y-101334575D01*
X148772421Y-101321437D01*
X148768048Y-101306995D01*
X148766559Y-101291350D01*
X148766559Y-100203248D01*
G37*
G36*
X146871357Y-100203248D02*
G01*
X146873722Y-100187552D01*
X146880604Y-100174272D01*
X146891681Y-100164352D01*
X146906629Y-100158734D01*
X146916786Y-100157819D01*
X147244316Y-100157819D01*
X147260182Y-100160554D01*
X147272854Y-100168131D01*
X147282833Y-100181510D01*
X147287108Y-100196286D01*
X147287547Y-100203248D01*
X147287547Y-101255812D01*
X147292249Y-101269936D01*
X147296339Y-101274497D01*
X147416140Y-101384040D01*
X147429514Y-101391208D01*
X147435558Y-101391367D01*
X148021374Y-101391367D01*
X148035985Y-101388327D01*
X148040792Y-101384040D01*
X148160226Y-101274497D01*
X148168557Y-101262151D01*
X148169385Y-101255812D01*
X148169385Y-100203248D01*
X148171687Y-100187699D01*
X148178331Y-100174424D01*
X148190739Y-100163337D01*
X148205370Y-100158346D01*
X148212616Y-100157819D01*
X148546374Y-100157819D01*
X148561178Y-100159845D01*
X148575053Y-100166788D01*
X148584964Y-100177765D01*
X148590589Y-100191831D01*
X148591803Y-100203248D01*
X148591803Y-101333482D01*
X148589853Y-101349702D01*
X148584196Y-101364944D01*
X148575127Y-101378230D01*
X148568722Y-101384406D01*
X148342309Y-101602393D01*
X148328663Y-101613157D01*
X148313510Y-101621887D01*
X148299982Y-101627536D01*
X148285850Y-101631643D01*
X148271316Y-101634151D01*
X148256580Y-101635000D01*
X147206580Y-101635000D01*
X147191845Y-101634151D01*
X147177310Y-101631643D01*
X147163179Y-101627536D01*
X147149651Y-101621887D01*
X147134497Y-101613157D01*
X147120851Y-101602393D01*
X146894438Y-101384406D01*
X146883600Y-101372630D01*
X146876011Y-101358353D01*
X146871966Y-101342556D01*
X146871357Y-101333482D01*
X146871357Y-100203248D01*
G37*
G36*
X146242176Y-100160604D02*
G01*
X146258126Y-100167108D01*
X146271297Y-100175120D01*
X146283160Y-100185238D01*
X146292591Y-100197229D01*
X146297630Y-100208011D01*
X146759616Y-101493583D01*
X146764878Y-101508431D01*
X146769374Y-101522569D01*
X146773131Y-101538566D01*
X146774923Y-101555181D01*
X146775003Y-101559528D01*
X146775003Y-101589204D01*
X146773274Y-101603906D01*
X146767150Y-101617858D01*
X146755300Y-101629048D01*
X146741203Y-101634189D01*
X146731772Y-101635000D01*
X146473485Y-101635000D01*
X146458077Y-101631587D01*
X146445044Y-101622654D01*
X146435021Y-101610156D01*
X146430987Y-101602393D01*
X146335000Y-101330184D01*
X145460854Y-101330184D01*
X145363035Y-101602027D01*
X145356532Y-101615370D01*
X145346267Y-101626856D01*
X145333068Y-101633621D01*
X145322735Y-101635000D01*
X145003265Y-101635000D01*
X144987590Y-101632548D01*
X144973516Y-101624124D01*
X144964229Y-101610330D01*
X144960596Y-101594367D01*
X144960401Y-101589204D01*
X144960401Y-101559528D01*
X144961343Y-101544680D01*
X144964423Y-101528548D01*
X144969148Y-101512519D01*
X144974227Y-101497930D01*
X144975788Y-101493583D01*
X145117542Y-101099009D01*
X145545484Y-101099009D01*
X146250736Y-101099009D01*
X145996113Y-100406580D01*
X145984389Y-100401817D01*
X145807801Y-100401817D01*
X145799741Y-100404748D01*
X145545484Y-101099009D01*
X145117542Y-101099009D01*
X145437773Y-100207644D01*
X145444079Y-100194228D01*
X145454172Y-100180524D01*
X145466912Y-100169750D01*
X145482183Y-100162239D01*
X145496758Y-100158712D01*
X145509581Y-100157819D01*
X146225823Y-100157819D01*
X146242176Y-100160604D01*
G37*
G36*
X143130045Y-100203614D02*
G01*
X143131837Y-100188913D01*
X143138113Y-100174960D01*
X143150073Y-100163770D01*
X143164055Y-100158629D01*
X143173276Y-100157819D01*
X143412878Y-100157819D01*
X143427512Y-100159628D01*
X143441267Y-100166059D01*
X143452190Y-100178572D01*
X143457162Y-100193547D01*
X143457941Y-100203614D01*
X143457941Y-101130882D01*
X144429539Y-100205446D01*
X144441401Y-100194564D01*
X144453891Y-100185021D01*
X144466981Y-100176853D01*
X144480647Y-100170092D01*
X144494862Y-100164774D01*
X144509601Y-100160933D01*
X144524838Y-100158603D01*
X144540547Y-100157819D01*
X144748642Y-100157819D01*
X144766420Y-100159712D01*
X144781532Y-100165234D01*
X144793837Y-100174150D01*
X144803193Y-100186226D01*
X144809455Y-100201227D01*
X144812483Y-100218918D01*
X144812756Y-100226695D01*
X144812756Y-101589937D01*
X144810964Y-101604571D01*
X144804688Y-101618326D01*
X144792728Y-101629249D01*
X144778746Y-101634220D01*
X144769525Y-101635000D01*
X144536517Y-101635000D01*
X144520797Y-101632597D01*
X144506602Y-101624328D01*
X144497185Y-101610762D01*
X144493486Y-101595031D01*
X144493286Y-101589937D01*
X144493286Y-100665966D01*
X143513262Y-101587739D01*
X143501399Y-101598605D01*
X143488910Y-101608106D01*
X143475820Y-101616216D01*
X143462154Y-101622909D01*
X143447939Y-101628160D01*
X143433200Y-101631943D01*
X143417963Y-101634231D01*
X143402254Y-101635000D01*
X143194525Y-101635000D01*
X143176601Y-101633131D01*
X143161388Y-101627670D01*
X143149018Y-101618834D01*
X143139628Y-101606842D01*
X143133349Y-101591912D01*
X143130318Y-101574262D01*
X143130045Y-101566489D01*
X143130045Y-100203614D01*
G37*
G36*
X142194547Y-100159118D02*
G01*
X142208788Y-100162925D01*
X142223990Y-100171000D01*
X142236069Y-100182510D01*
X142244774Y-100197186D01*
X142249853Y-100214760D01*
X142251137Y-100230725D01*
X142251137Y-101560628D01*
X142249853Y-101577182D01*
X142246088Y-101591877D01*
X142238088Y-101607469D01*
X142226663Y-101619778D01*
X142212066Y-101628596D01*
X142194547Y-101633712D01*
X142178597Y-101635000D01*
X140956039Y-101635000D01*
X140939807Y-101634127D01*
X140924523Y-101631558D01*
X140910329Y-101627370D01*
X140894935Y-101620311D01*
X140881563Y-101611159D01*
X140872142Y-101602027D01*
X140536552Y-101282923D01*
X140526136Y-101271370D01*
X140518051Y-101257553D01*
X140514486Y-101241823D01*
X140513838Y-101226137D01*
X140513838Y-101192431D01*
X140936256Y-101192431D01*
X140938929Y-101207427D01*
X140946704Y-101220556D01*
X140949811Y-101223939D01*
X141111378Y-101377812D01*
X141123957Y-101386483D01*
X141139043Y-101390691D01*
X141149480Y-101391367D01*
X141806737Y-101391367D01*
X141821420Y-101388643D01*
X141828363Y-101375009D01*
X141828719Y-101367187D01*
X141828719Y-100419769D01*
X141825101Y-100405435D01*
X141810767Y-100401817D01*
X141107348Y-100401817D01*
X141091671Y-100403565D01*
X141077092Y-100409743D01*
X141067414Y-100417571D01*
X140947979Y-100535540D01*
X140938683Y-100547905D01*
X140936256Y-100563018D01*
X140936256Y-101192431D01*
X140513838Y-101192431D01*
X140513838Y-100491210D01*
X140515383Y-100475491D01*
X140519883Y-100461077D01*
X140528219Y-100447020D01*
X140536919Y-100438087D01*
X140788611Y-100190792D01*
X140802298Y-100179994D01*
X140815048Y-100172507D01*
X140828957Y-100166474D01*
X140843965Y-100161971D01*
X140860016Y-100159072D01*
X140877049Y-100157854D01*
X140880568Y-100157819D01*
X142178597Y-100157819D01*
X142194547Y-100159118D01*
G37*
G36*
X140010819Y-101358761D02*
G01*
X140013514Y-101342918D01*
X140021014Y-101329633D01*
X140032445Y-101319779D01*
X140046934Y-101314232D01*
X140056249Y-101313332D01*
X140299881Y-101313332D01*
X140314573Y-101316026D01*
X140327202Y-101323526D01*
X140336753Y-101334957D01*
X140342216Y-101349446D01*
X140343112Y-101358761D01*
X140343112Y-101589937D01*
X140341069Y-101604707D01*
X140334182Y-101618483D01*
X140321782Y-101629334D01*
X140306196Y-101634568D01*
X140299881Y-101635000D01*
X140056249Y-101635000D01*
X140040699Y-101632679D01*
X140027425Y-101625901D01*
X140017438Y-101614942D01*
X140011750Y-101600078D01*
X140010819Y-101589937D01*
X140010819Y-101358761D01*
G37*
G36*
X138646712Y-100160604D02*
G01*
X138662662Y-100167108D01*
X138675833Y-100175120D01*
X138687696Y-100185238D01*
X138697127Y-100197229D01*
X138702166Y-100208011D01*
X139164152Y-101493583D01*
X139169414Y-101508431D01*
X139173910Y-101522569D01*
X139177667Y-101538566D01*
X139179459Y-101555181D01*
X139179539Y-101559528D01*
X139179539Y-101589204D01*
X139177810Y-101603906D01*
X139171686Y-101617858D01*
X139159836Y-101629048D01*
X139145739Y-101634189D01*
X139136308Y-101635000D01*
X138878021Y-101635000D01*
X138862613Y-101631587D01*
X138849580Y-101622654D01*
X138839557Y-101610156D01*
X138835523Y-101602393D01*
X138739535Y-101330184D01*
X137865390Y-101330184D01*
X137767571Y-101602027D01*
X137761068Y-101615370D01*
X137750803Y-101626856D01*
X137737604Y-101633621D01*
X137727271Y-101635000D01*
X137407801Y-101635000D01*
X137392126Y-101632548D01*
X137378052Y-101624124D01*
X137368765Y-101610330D01*
X137365132Y-101594367D01*
X137364937Y-101589204D01*
X137364937Y-101559528D01*
X137365878Y-101544680D01*
X137368959Y-101528548D01*
X137373684Y-101512519D01*
X137378763Y-101497930D01*
X137380324Y-101493583D01*
X137522078Y-101099009D01*
X137950020Y-101099009D01*
X138655272Y-101099009D01*
X138400648Y-100406580D01*
X138388925Y-100401817D01*
X138212337Y-100401817D01*
X138204277Y-100404748D01*
X137950020Y-101099009D01*
X137522078Y-101099009D01*
X137842309Y-100207644D01*
X137848615Y-100194228D01*
X137858708Y-100180524D01*
X137871448Y-100169750D01*
X137886719Y-100162239D01*
X137901294Y-100158712D01*
X137914117Y-100157819D01*
X138630359Y-100157819D01*
X138646712Y-100160604D01*
G37*
G36*
X136794874Y-100203248D02*
G01*
X136797236Y-100186525D01*
X136804091Y-100173207D01*
X136816985Y-100162747D01*
X136832307Y-100158276D01*
X136839937Y-100157819D01*
X137174061Y-100157819D01*
X137190784Y-100160267D01*
X137204102Y-100167303D01*
X137214562Y-100180373D01*
X137219032Y-100195693D01*
X137219490Y-100203248D01*
X137219490Y-101291350D01*
X137217950Y-101306995D01*
X137213491Y-101321437D01*
X137206352Y-101334575D01*
X137196775Y-101346304D01*
X136917606Y-101608621D01*
X136905617Y-101618459D01*
X136891655Y-101626197D01*
X136876273Y-101631627D01*
X136860024Y-101634542D01*
X136850561Y-101635000D01*
X135901311Y-101635000D01*
X135885738Y-101632638D01*
X135871542Y-101624457D01*
X135862042Y-101610922D01*
X135858284Y-101595092D01*
X135858080Y-101589937D01*
X135858080Y-101426172D01*
X135860505Y-101409449D01*
X135867381Y-101396131D01*
X135879921Y-101385671D01*
X135894319Y-101381200D01*
X135901311Y-101380743D01*
X136619752Y-101380743D01*
X136634377Y-101378869D01*
X136648306Y-101371839D01*
X136653457Y-101367187D01*
X136783883Y-101245188D01*
X136792538Y-101233098D01*
X136794874Y-101219909D01*
X136794874Y-100203248D01*
G37*
G36*
X134356720Y-100203248D02*
G01*
X134359144Y-100186525D01*
X134366020Y-100173207D01*
X134378560Y-100162747D01*
X134392958Y-100158276D01*
X134399951Y-100157819D01*
X135458377Y-100157819D01*
X135474838Y-100159249D01*
X135490345Y-100163372D01*
X135504577Y-100169933D01*
X135517211Y-100178681D01*
X135523590Y-100184563D01*
X135726922Y-100379836D01*
X135736307Y-100391927D01*
X135742503Y-100405230D01*
X135746320Y-100420079D01*
X135747438Y-100433691D01*
X135747438Y-101589204D01*
X135745647Y-101603906D01*
X135739370Y-101617858D01*
X135727410Y-101629048D01*
X135713428Y-101634189D01*
X135704207Y-101635000D01*
X135370083Y-101635000D01*
X135355449Y-101633191D01*
X135341694Y-101626759D01*
X135330771Y-101614247D01*
X135325800Y-101599271D01*
X135325020Y-101589204D01*
X135325020Y-101079958D01*
X134414605Y-101079958D01*
X134399032Y-101077510D01*
X134384835Y-101069120D01*
X134375335Y-101055424D01*
X134371578Y-101039627D01*
X134371374Y-101034528D01*
X134371374Y-100883220D01*
X134373799Y-100866497D01*
X134380674Y-100853179D01*
X134393215Y-100842719D01*
X134407613Y-100838248D01*
X134414605Y-100837791D01*
X135325020Y-100837791D01*
X135325020Y-100526748D01*
X135322001Y-100512159D01*
X135315861Y-100504033D01*
X135215111Y-100410976D01*
X135202490Y-100403185D01*
X135191664Y-100401817D01*
X134399951Y-100401817D01*
X134384378Y-100399475D01*
X134370181Y-100391463D01*
X134360681Y-100378420D01*
X134356923Y-100363419D01*
X134356720Y-100358586D01*
X134356720Y-100203248D01*
G37*
G36*
X133962509Y-100158998D02*
G01*
X133978486Y-100163071D01*
X133992738Y-100169790D01*
X134004783Y-100178878D01*
X134006109Y-100180167D01*
X134209808Y-100375439D01*
X134219691Y-100387163D01*
X134227532Y-100400527D01*
X134233079Y-100415278D01*
X134236079Y-100431163D01*
X134236552Y-100440652D01*
X134236552Y-101352533D01*
X134235122Y-101368952D01*
X134230999Y-101384382D01*
X134224438Y-101398570D01*
X134215690Y-101411262D01*
X134209808Y-101417745D01*
X134006109Y-101613018D01*
X133994374Y-101622480D01*
X133980372Y-101629367D01*
X133964584Y-101633574D01*
X133949682Y-101634977D01*
X133947491Y-101635000D01*
X132802969Y-101635000D01*
X132788142Y-101633907D01*
X132772285Y-101630041D01*
X132758080Y-101623484D01*
X132746043Y-101614338D01*
X132744717Y-101613018D01*
X132541018Y-101417745D01*
X132530944Y-101406169D01*
X132522993Y-101392810D01*
X132517395Y-101377992D01*
X132514381Y-101362037D01*
X132513907Y-101352533D01*
X132513907Y-101255446D01*
X132932295Y-101255446D01*
X132934193Y-101270272D01*
X132942137Y-101283545D01*
X132943653Y-101285122D01*
X133037808Y-101377812D01*
X133049697Y-101386483D01*
X133064122Y-101391021D01*
X133069682Y-101391367D01*
X133680778Y-101391367D01*
X133695892Y-101388694D01*
X133709008Y-101380919D01*
X133712285Y-101377812D01*
X133806807Y-101285122D01*
X133815444Y-101272948D01*
X133818133Y-101257860D01*
X133818164Y-101255446D01*
X133818164Y-100537739D01*
X133816385Y-100522913D01*
X133808383Y-100509640D01*
X133806807Y-100508063D01*
X133712285Y-100415373D01*
X133699994Y-100406056D01*
X133685362Y-100402024D01*
X133680778Y-100401817D01*
X133069682Y-100401817D01*
X133054686Y-100404373D01*
X133041557Y-100412161D01*
X133038175Y-100415373D01*
X132943653Y-100508063D01*
X132935161Y-100520237D01*
X132932330Y-100535324D01*
X132932295Y-100537739D01*
X132932295Y-101255446D01*
X132513907Y-101255446D01*
X132513907Y-100440652D01*
X132515342Y-100424191D01*
X132519491Y-100408684D01*
X132526125Y-100394452D01*
X132535015Y-100381818D01*
X132541018Y-100375439D01*
X132744717Y-100180167D01*
X132756446Y-100170802D01*
X132770408Y-100163772D01*
X132786087Y-100159353D01*
X132800810Y-100157843D01*
X132802969Y-100157819D01*
X133947491Y-100157819D01*
X133962509Y-100158998D01*
G37*
G36*
X130657540Y-100203614D02*
G01*
X130659332Y-100188913D01*
X130665608Y-100174960D01*
X130677568Y-100163770D01*
X130691550Y-100158629D01*
X130700771Y-100157819D01*
X130940373Y-100157819D01*
X130955007Y-100159628D01*
X130968762Y-100166059D01*
X130979685Y-100178572D01*
X130984656Y-100193547D01*
X130985436Y-100203614D01*
X130985436Y-101130882D01*
X131957034Y-100205446D01*
X131968896Y-100194564D01*
X131981385Y-100185021D01*
X131994476Y-100176853D01*
X132008142Y-100170092D01*
X132022357Y-100164774D01*
X132037096Y-100160933D01*
X132052333Y-100158603D01*
X132068042Y-100157819D01*
X132276137Y-100157819D01*
X132293914Y-100159712D01*
X132309027Y-100165234D01*
X132321332Y-100174150D01*
X132330687Y-100186226D01*
X132336950Y-100201227D01*
X132339977Y-100218918D01*
X132340251Y-100226695D01*
X132340251Y-101589937D01*
X132338459Y-101604571D01*
X132332183Y-101618326D01*
X132320223Y-101629249D01*
X132306240Y-101634220D01*
X132297020Y-101635000D01*
X132064012Y-101635000D01*
X132048292Y-101632597D01*
X132034097Y-101624328D01*
X132024680Y-101610762D01*
X132020981Y-101595031D01*
X132020781Y-101589937D01*
X132020781Y-100665966D01*
X131040757Y-101587739D01*
X131028894Y-101598605D01*
X131016405Y-101608106D01*
X131003315Y-101616216D01*
X130989649Y-101622909D01*
X130975434Y-101628160D01*
X130960695Y-101631943D01*
X130945458Y-101634231D01*
X130929748Y-101635000D01*
X130722020Y-101635000D01*
X130704096Y-101633131D01*
X130688882Y-101627670D01*
X130676513Y-101618834D01*
X130667122Y-101606842D01*
X130660844Y-101591912D01*
X130657813Y-101574262D01*
X130657540Y-101566489D01*
X130657540Y-100203614D01*
G37*
G36*
X128856493Y-100203248D02*
G01*
X128858855Y-100186525D01*
X128865710Y-100173207D01*
X128878604Y-100162747D01*
X128893926Y-100158276D01*
X128901556Y-100157819D01*
X130184930Y-100157819D01*
X130200122Y-100158886D01*
X130214663Y-100162031D01*
X130230552Y-100168208D01*
X130244998Y-100176956D01*
X130256004Y-100186395D01*
X130436256Y-100356388D01*
X130448884Y-100366811D01*
X130460309Y-100377943D01*
X130469793Y-100390495D01*
X130476596Y-100405178D01*
X130479684Y-100419552D01*
X130480219Y-100429295D01*
X130480219Y-100733377D01*
X130479514Y-100750450D01*
X130477051Y-100765480D01*
X130471259Y-100781419D01*
X130463197Y-100794558D01*
X130451725Y-100807993D01*
X130449445Y-100810314D01*
X130291908Y-100984337D01*
X130280150Y-100994034D01*
X130265728Y-101000944D01*
X130251078Y-101004278D01*
X130241716Y-101004853D01*
X129366472Y-101004853D01*
X129351800Y-101008081D01*
X129338367Y-101015040D01*
X129334232Y-101018775D01*
X129252533Y-101100474D01*
X129243007Y-101111465D01*
X129243007Y-101277794D01*
X129245783Y-101292432D01*
X129254731Y-101304173D01*
X129325073Y-101378911D01*
X129337797Y-101386382D01*
X129352677Y-101390528D01*
X129365739Y-101391367D01*
X130460069Y-101391367D01*
X130475642Y-101393729D01*
X130489839Y-101401910D01*
X130499339Y-101415445D01*
X130503097Y-101431275D01*
X130503300Y-101436430D01*
X130503300Y-101589937D01*
X130501508Y-101604571D01*
X130495232Y-101618326D01*
X130483272Y-101629249D01*
X130469290Y-101634220D01*
X130460069Y-101635000D01*
X129136762Y-101635000D01*
X129120307Y-101633782D01*
X129104040Y-101630208D01*
X129088150Y-101624393D01*
X129072825Y-101616452D01*
X129060622Y-101608295D01*
X129053597Y-101602759D01*
X128860157Y-101417745D01*
X128850547Y-101406575D01*
X128841680Y-101392449D01*
X128835445Y-101377231D01*
X128831958Y-101361014D01*
X128831214Y-101348869D01*
X128831214Y-101014745D01*
X128832638Y-100997991D01*
X128836924Y-100981480D01*
X128842895Y-100967625D01*
X128851001Y-100954139D01*
X128861256Y-100941106D01*
X129015129Y-100777341D01*
X129027589Y-100766509D01*
X129041706Y-100757615D01*
X129057205Y-100750817D01*
X129073810Y-100746274D01*
X129091245Y-100744147D01*
X129097194Y-100744002D01*
X129951922Y-100744002D01*
X129966142Y-100739365D01*
X129970973Y-100735209D01*
X130054870Y-100654975D01*
X130063307Y-100642824D01*
X130064030Y-100636657D01*
X130064030Y-100519787D01*
X130061838Y-100504726D01*
X130053662Y-100491516D01*
X130049009Y-100487180D01*
X129975369Y-100417205D01*
X129963664Y-100408119D01*
X129949703Y-100402910D01*
X129937267Y-100401817D01*
X128901556Y-100401817D01*
X128884877Y-100399434D01*
X128871664Y-100392635D01*
X128861336Y-100380139D01*
X128856941Y-100365663D01*
X128856493Y-100358586D01*
X128856493Y-100203248D01*
G37*
G36*
X128405496Y-100158998D02*
G01*
X128421473Y-100163071D01*
X128435725Y-100169790D01*
X128447769Y-100178878D01*
X128449096Y-100180167D01*
X128652794Y-100375439D01*
X128662677Y-100387163D01*
X128670519Y-100400527D01*
X128676066Y-100415278D01*
X128679066Y-100431163D01*
X128679539Y-100440652D01*
X128679539Y-101352533D01*
X128678108Y-101368952D01*
X128673986Y-101384382D01*
X128667424Y-101398570D01*
X128658677Y-101411262D01*
X128652794Y-101417745D01*
X128449096Y-101613018D01*
X128437361Y-101622480D01*
X128423359Y-101629367D01*
X128407571Y-101633574D01*
X128392669Y-101634977D01*
X128390478Y-101635000D01*
X127245956Y-101635000D01*
X127231129Y-101633907D01*
X127215271Y-101630041D01*
X127201067Y-101623484D01*
X127189030Y-101614338D01*
X127187704Y-101613018D01*
X126984005Y-101417745D01*
X126973930Y-101406169D01*
X126965979Y-101392810D01*
X126960382Y-101377992D01*
X126957368Y-101362037D01*
X126956894Y-101352533D01*
X126956894Y-101255446D01*
X127375282Y-101255446D01*
X127377180Y-101270272D01*
X127385123Y-101283545D01*
X127386639Y-101285122D01*
X127480795Y-101377812D01*
X127492683Y-101386483D01*
X127507109Y-101391021D01*
X127512669Y-101391367D01*
X128123764Y-101391367D01*
X128138879Y-101388694D01*
X128151994Y-101380919D01*
X128155272Y-101377812D01*
X128249794Y-101285122D01*
X128258430Y-101272948D01*
X128261120Y-101257860D01*
X128261151Y-101255446D01*
X128261151Y-100537739D01*
X128259372Y-100522913D01*
X128251370Y-100509640D01*
X128249794Y-100508063D01*
X128155272Y-100415373D01*
X128142980Y-100406056D01*
X128128349Y-100402024D01*
X128123764Y-100401817D01*
X127512669Y-100401817D01*
X127497673Y-100404373D01*
X127484544Y-100412161D01*
X127481161Y-100415373D01*
X127386639Y-100508063D01*
X127378148Y-100520237D01*
X127375317Y-100535324D01*
X127375282Y-100537739D01*
X127375282Y-101255446D01*
X126956894Y-101255446D01*
X126956894Y-100440652D01*
X126958328Y-100424191D01*
X126962478Y-100408684D01*
X126969112Y-100394452D01*
X126978002Y-100381818D01*
X126984005Y-100375439D01*
X127187704Y-100180167D01*
X127199433Y-100170802D01*
X127213395Y-100163772D01*
X127229074Y-100159353D01*
X127243797Y-100157843D01*
X127245956Y-100157819D01*
X128390478Y-100157819D01*
X128405496Y-100158998D01*
G37*
D12*
%TO.P,D6,1,K*%
%TO.N,Net-(D6-K)*%
X100570000Y-82030000D03*
D13*
%TO.P,D6,2,A*%
%TO.N,+5V*%
X100570000Y-84570000D03*
%TD*%
D14*
%TO.P,J2,1,Pin_1*%
%TO.N,GND*%
X76255000Y-60900000D03*
D15*
%TO.P,J2,2,Pin_2*%
%TO.N,VIN*%
X76255000Y-65900000D03*
%TD*%
D14*
%TO.P,J5,1,Pin_1*%
%TO.N,D4*%
X161430000Y-64860000D03*
D15*
%TO.P,J5,2,Pin_2*%
%TO.N,Net-(J5-Pin_2)*%
X161430000Y-59860000D03*
%TD*%
D14*
%TO.P,J3,1,Pin_1*%
%TO.N,+5V*%
X161470000Y-94550000D03*
D15*
%TO.P,J3,2,Pin_2*%
%TO.N,D6*%
X161470000Y-89550000D03*
%TO.P,J3,3,Pin_3*%
%TO.N,GND*%
X161470000Y-84550000D03*
%TD*%
D16*
%TO.P,H3,1*%
%TO.N,N/C*%
X70040000Y-39430000D03*
X70742944Y-37732944D03*
X70742944Y-41127056D03*
X72440000Y-37030000D03*
D17*
X72440000Y-39430000D03*
D16*
X72440000Y-41830000D03*
X74137056Y-37732944D03*
X74137056Y-41127056D03*
X74840000Y-39430000D03*
%TD*%
D12*
%TO.P,SW1,1,A*%
%TO.N,VCC*%
X75940000Y-47560000D03*
D13*
%TO.P,SW1,2,B*%
%TO.N,DOUT*%
X75940000Y-50100000D03*
%TO.P,SW1,3,C*%
%TO.N,unconnected-(SW1-C-Pad3)*%
X75940000Y-52640000D03*
%TD*%
D18*
%TO.P,D7,1,K*%
%TO.N,D6*%
X152455000Y-89570000D03*
D19*
%TO.P,D7,2,A*%
%TO.N,Net-(D7-A)*%
X149915000Y-89570000D03*
%TD*%
D20*
%TO.P,Brd1,*%
%TO.N,*%
X87550000Y-44680000D03*
X87550000Y-67680000D03*
X107550000Y-44680000D03*
X107550000Y-67680000D03*
D13*
%TO.P,Brd1,1,GND*%
%TO.N,GND*%
X93740000Y-44180000D03*
%TO.P,Brd1,2,VCC*%
%TO.N,+3.3V*%
X96280000Y-44180000D03*
%TO.P,Brd1,3,SCL*%
%TO.N,SCL*%
X98820000Y-44180000D03*
%TO.P,Brd1,4,SDA*%
%TO.N,SDA*%
X101360000Y-44180000D03*
%TD*%
D14*
%TO.P,J7,1,Pin_1*%
%TO.N,GND*%
X80041836Y-89739885D03*
D15*
%TO.P,J7,2,Pin_2*%
%TO.N,+5V*%
X80041836Y-94739885D03*
%TD*%
D16*
%TO.P,H4,1*%
%TO.N,N/C*%
X70320000Y-101780000D03*
X71022944Y-100082944D03*
X71022944Y-103477056D03*
X72720000Y-99380000D03*
D17*
X72720000Y-101780000D03*
D16*
X72720000Y-104180000D03*
X74417056Y-100082944D03*
X74417056Y-103477056D03*
X75120000Y-101780000D03*
%TD*%
%TO.P,H1,1*%
%TO.N,N/C*%
X163040000Y-101760000D03*
X163742944Y-100062944D03*
X163742944Y-103457056D03*
X165440000Y-99360000D03*
D17*
X165440000Y-101760000D03*
D16*
X165440000Y-104160000D03*
X167137056Y-100062944D03*
X167137056Y-103457056D03*
X167840000Y-101760000D03*
%TD*%
D14*
%TO.P,J6,1,Pin_1*%
%TO.N,D0*%
X161530000Y-52720000D03*
D15*
%TO.P,J6,2,Pin_2*%
%TO.N,Net-(J6-Pin_2)*%
X161530000Y-47720000D03*
%TD*%
D21*
%TO.P,J1,1*%
%TO.N,VIN*%
X86080000Y-78160000D03*
D22*
%TO.P,J1,2*%
%TO.N,GND*%
X80080000Y-78160000D03*
%TO.P,J1,3*%
%TO.N,N/C*%
X83080000Y-82860000D03*
%TD*%
D18*
%TO.P,D3,1,K*%
%TO.N,D0*%
X152515000Y-52760000D03*
D19*
%TO.P,D3,2,A*%
%TO.N,Net-(D3-A)*%
X149975000Y-52760000D03*
%TD*%
D16*
%TO.P,H2,1*%
%TO.N,N/C*%
X162957056Y-39327056D03*
X163660000Y-37630000D03*
X163660000Y-41024112D03*
X165357056Y-36927056D03*
D17*
X165357056Y-39327056D03*
D16*
X165357056Y-41727056D03*
X167054112Y-37630000D03*
X167054112Y-41024112D03*
X167757056Y-39327056D03*
%TD*%
D14*
%TO.P,J4,1,Pin_1*%
%TO.N,D5*%
X161470000Y-77490000D03*
D15*
%TO.P,J4,2,Pin_2*%
%TO.N,Net-(J4-Pin_2)*%
X161470000Y-72490000D03*
%TD*%
D18*
%TO.P,D4,1,K*%
%TO.N,D4*%
X152425000Y-64940000D03*
D19*
%TO.P,D4,2,A*%
%TO.N,Net-(D4-A)*%
X149885000Y-64940000D03*
%TD*%
D13*
%TO.P,U8266,1,A0(ADC0)*%
%TO.N,unconnected-(U8266-A0(ADC0)-Pad1)*%
X116370000Y-51440000D03*
%TO.P,U8266,2,RSV*%
%TO.N,unconnected-(U8266-RSV-Pad2)*%
X116370000Y-53980000D03*
%TO.P,U8266,3,RSV*%
%TO.N,unconnected-(U8266-RSV-Pad3)*%
X116370000Y-56520000D03*
%TO.P,U8266,4,SD3(GPIO10)*%
%TO.N,unconnected-(U8266-SD3(GPIO10)-Pad4)*%
X116370000Y-59060000D03*
%TO.P,U8266,5,SD2(GPIO9)*%
%TO.N,unconnected-(U8266-SD2(GPIO9)-Pad5)*%
X116370000Y-61600000D03*
%TO.P,U8266,6,SD1(MOSI)*%
%TO.N,unconnected-(U8266-SD1(MOSI)-Pad6)*%
X116370000Y-64140000D03*
%TO.P,U8266,7,CMD(CS)*%
%TO.N,unconnected-(U8266-CMD(CS)-Pad7)*%
X116370000Y-66680000D03*
%TO.P,U8266,8,SDO(MISO)*%
%TO.N,unconnected-(U8266-SDO(MISO)-Pad8)*%
X116370000Y-69220000D03*
%TO.P,U8266,9,CLK(SCLK)*%
%TO.N,unconnected-(U8266-CLK(SCLK)-Pad9)*%
X116370000Y-71760000D03*
%TO.P,U8266,10,GND*%
%TO.N,GND*%
X116370000Y-74300000D03*
%TO.P,U8266,11,3.3V*%
%TO.N,+3.3V*%
X116370000Y-76840000D03*
%TO.P,U8266,12,EN*%
%TO.N,unconnected-(U8266-EN-Pad12)*%
X116370000Y-79380000D03*
%TO.P,U8266,13,RST*%
%TO.N,unconnected-(U8266-RST-Pad13)*%
X116370000Y-81920000D03*
%TO.P,U8266,14,GND*%
%TO.N,GND*%
X116370000Y-84460000D03*
%TO.P,U8266,15,VIN*%
%TO.N,+5V*%
X116370000Y-87000000D03*
%TO.P,U8266,16,3.3V*%
%TO.N,unconnected-(U8266-3.3V-Pad16)*%
X144310000Y-87000000D03*
%TO.P,U8266,17,GND*%
%TO.N,GND*%
X144310000Y-84460000D03*
%TO.P,U8266,18,TX(GPIO1)*%
%TO.N,unconnected-(U8266-TX(GPIO1)-Pad18)*%
X144310000Y-81920000D03*
%TO.P,U8266,19,RX(DPIO3)*%
%TO.N,unconnected-(U8266-RX(DPIO3)-Pad19)*%
X144310000Y-79380000D03*
%TO.P,U8266,20,D8(GPIO15)*%
%TO.N,unconnected-(U8266-D8(GPIO15)-Pad20)*%
X144310000Y-76840000D03*
%TO.P,U8266,21,D7(GPIO13)*%
%TO.N,unconnected-(U8266-D7(GPIO13)-Pad21)*%
X144310000Y-74300000D03*
%TO.P,U8266,22,D6(GPIO12)*%
%TO.N,D6*%
X144310000Y-71760000D03*
%TO.P,U8266,23,D5(GPIO14)*%
%TO.N,D5*%
X144310000Y-69220000D03*
%TO.P,U8266,24,GND*%
%TO.N,GND*%
X144310000Y-66680000D03*
%TO.P,U8266,25,3.3V*%
%TO.N,unconnected-(U8266-3.3V-Pad25)*%
X144310000Y-64140000D03*
%TO.P,U8266,26,D4(GPIO2)*%
%TO.N,D4*%
X144310000Y-61600000D03*
%TO.P,U8266,27,D3(GPIO0)*%
%TO.N,unconnected-(U8266-D3(GPIO0)-Pad27)*%
X144310000Y-59060000D03*
%TO.P,U8266,28,D2(GPIO4)*%
%TO.N,SDA*%
X144310000Y-56520000D03*
%TO.P,U8266,29,D1(GPIO5)*%
%TO.N,SCL*%
X144310000Y-53980000D03*
%TO.P,U8266,30,D0(GPIO16)*%
%TO.N,D0*%
X144310000Y-51440000D03*
%TD*%
D18*
%TO.P,D5,1,K*%
%TO.N,D5*%
X152425000Y-77460000D03*
D19*
%TO.P,D5,2,A*%
%TO.N,Net-(D5-A)*%
X149885000Y-77460000D03*
%TD*%
D23*
%TO.P,R7,1*%
%TO.N,Net-(J4-Pin_2)*%
X157480000Y-72497500D03*
%TO.P,R7,2*%
%TO.N,+5V*%
X157480000Y-75422500D03*
%TD*%
D24*
%TO.P,C2,1*%
%TO.N,+5V*%
X105950000Y-57900000D03*
%TO.P,C2,2*%
%TO.N,GND*%
X101550000Y-57900000D03*
%TD*%
D25*
%TO.P,D1,1,K*%
%TO.N,VIN*%
X82660000Y-60900000D03*
%TO.P,D1,2,A*%
%TO.N,DOUT*%
X82660000Y-56900000D03*
%TD*%
D26*
%TO.P,R5,1*%
%TO.N,Net-(D6-K)*%
X101995000Y-79145000D03*
%TO.P,R5,2*%
%TO.N,GND*%
X99070000Y-79145000D03*
%TD*%
D24*
%TO.P,C1,1*%
%TO.N,VCC*%
X100410000Y-51320000D03*
%TO.P,C1,2*%
%TO.N,GND*%
X96010000Y-51320000D03*
%TD*%
D27*
%TO.P,R2,1*%
%TO.N,Net-(D3-A)*%
X149837500Y-48300000D03*
%TO.P,R2,2*%
%TO.N,+5V*%
X152762500Y-48300000D03*
%TD*%
D23*
%TO.P,R9,1*%
%TO.N,Net-(J6-Pin_2)*%
X157700000Y-47737500D03*
%TO.P,R9,2*%
%TO.N,+5V*%
X157700000Y-50662500D03*
%TD*%
D27*
%TO.P,R3,1*%
%TO.N,Net-(D4-A)*%
X149827500Y-60670000D03*
%TO.P,R3,2*%
%TO.N,+5V*%
X152752500Y-60670000D03*
%TD*%
D23*
%TO.P,R8,1*%
%TO.N,Net-(J5-Pin_2)*%
X157570000Y-59797500D03*
%TO.P,R8,2*%
%TO.N,+5V*%
X157570000Y-62722500D03*
%TD*%
D25*
%TO.P,D2,1,K*%
%TO.N,+5V*%
X110210000Y-75160000D03*
%TO.P,D2,2,A*%
X110210000Y-79160000D03*
%TD*%
D27*
%TO.P,R4,1*%
%TO.N,Net-(D5-A)*%
X149737500Y-73450000D03*
%TO.P,R4,2*%
%TO.N,+5V*%
X152662500Y-73450000D03*
%TD*%
%TO.P,R1,1*%
%TO.N,Net-(D7-A)*%
X149767500Y-85690000D03*
%TO.P,R1,2*%
%TO.N,+5V*%
X152692500Y-85690000D03*
%TD*%
D28*
%TO.P,U7805,1,IN*%
%TO.N,VCC*%
X96290000Y-58085000D03*
%TO.P,U7805,3,OUT*%
%TO.N,+5V*%
X96290000Y-62655000D03*
D29*
%TO.P,U7805,4,GND*%
%TO.N,GND*%
X89120000Y-60370000D03*
%TD*%
D30*
%TO.N,GND*%
X161352500Y-84707500D02*
X161490000Y-84570000D01*
D31*
X161470000Y-84550000D02*
X165120000Y-84550000D01*
D30*
%TO.N,+3.3V*%
X97650000Y-46650000D02*
X104420000Y-46650000D01*
X96280000Y-44180000D02*
X96280000Y-45280000D01*
X114800000Y-76840000D02*
X116370000Y-76840000D01*
X113120000Y-55350000D02*
X113120000Y-75160000D01*
X96280000Y-45280000D02*
X97650000Y-46650000D01*
X113120000Y-75160000D02*
X114800000Y-76840000D01*
X104420000Y-46650000D02*
X113120000Y-55350000D01*
%TO.N,SCL*%
X102480000Y-38530000D02*
X98820000Y-42190000D01*
X98820000Y-42190000D02*
X98820000Y-44180000D01*
X125670000Y-38530000D02*
X102480000Y-38530000D01*
X144310000Y-53980000D02*
X141120000Y-53980000D01*
X141120000Y-53980000D02*
X125670000Y-38530000D01*
%TO.N,SDA*%
X101360000Y-44180000D02*
X101360000Y-42790000D01*
X101360000Y-42790000D02*
X103340000Y-40810000D01*
X139100000Y-56520000D02*
X144310000Y-56520000D01*
X123390000Y-40810000D02*
X139100000Y-56520000D01*
X103340000Y-40810000D02*
X123390000Y-40810000D01*
D31*
%TO.N,VCC*%
X100410000Y-53180000D02*
X97960000Y-55630000D01*
X88420000Y-55630000D02*
X80350000Y-47560000D01*
X96290000Y-55720000D02*
X96290000Y-58085000D01*
X80350000Y-47560000D02*
X75940000Y-47560000D01*
X97960000Y-55630000D02*
X88420000Y-55630000D01*
X100410000Y-51320000D02*
X100410000Y-53180000D01*
%TO.N,+5V*%
X100570000Y-84570000D02*
X100570000Y-96650000D01*
X116370000Y-87000000D02*
X116030000Y-87340000D01*
X156030000Y-73450000D02*
X157480000Y-74900000D01*
X112780000Y-87000000D02*
X110210000Y-84430000D01*
X105960000Y-75160000D02*
X110210000Y-75160000D01*
X101195000Y-62655000D02*
X101195000Y-70395000D01*
X84649885Y-94739885D02*
X86900000Y-96990000D01*
X152692500Y-85690000D02*
X156870000Y-85690000D01*
X110210000Y-84430000D02*
X110210000Y-79160000D01*
X100910000Y-96990000D02*
X116390000Y-96990000D01*
X101195000Y-62655000D02*
X96290000Y-62655000D01*
X152662500Y-73450000D02*
X156030000Y-73450000D01*
X86900000Y-96990000D02*
X100910000Y-96990000D01*
X80041836Y-94739885D02*
X84649885Y-94739885D01*
X156870000Y-85690000D02*
X157100000Y-85920000D01*
X116390000Y-96990000D02*
X156100000Y-96990000D01*
X105950000Y-57900000D02*
X105950000Y-59430000D01*
X152752500Y-61812500D02*
X152752500Y-60670000D01*
X101195000Y-70395000D02*
X105960000Y-75160000D01*
X157570000Y-62722500D02*
X153662500Y-62722500D01*
X116500000Y-96880000D02*
X116390000Y-96990000D01*
X152762500Y-48952500D02*
X152762500Y-48300000D01*
X116500000Y-87130000D02*
X116500000Y-96880000D01*
X102725000Y-62655000D02*
X101195000Y-62655000D01*
X116370000Y-87000000D02*
X112780000Y-87000000D01*
X157700000Y-50662500D02*
X154472500Y-50662500D01*
X156100000Y-96990000D02*
X157120000Y-95970000D01*
X105950000Y-59430000D02*
X102725000Y-62655000D01*
X154472500Y-50662500D02*
X152762500Y-48952500D01*
X157480000Y-74900000D02*
X157480000Y-75422500D01*
X116370000Y-87000000D02*
X116500000Y-87130000D01*
X153662500Y-62722500D02*
X152752500Y-61812500D01*
X100570000Y-96650000D02*
X100910000Y-96990000D01*
%TO.N,DOUT*%
X82660000Y-56900000D02*
X82660000Y-54750000D01*
X82660000Y-54750000D02*
X78010000Y-50100000D01*
X78010000Y-50100000D02*
X75940000Y-50100000D01*
D30*
%TO.N,D4*%
X147670000Y-63270000D02*
X147670000Y-66250000D01*
X156440000Y-64940000D02*
X161350000Y-64940000D01*
X149060000Y-67640000D02*
X147670000Y-66250000D01*
X151230000Y-67640000D02*
X149060000Y-67640000D01*
X152425000Y-66445000D02*
X151230000Y-67640000D01*
X152425000Y-64940000D02*
X152425000Y-66445000D01*
X146000000Y-61600000D02*
X147670000Y-63270000D01*
X144310000Y-61600000D02*
X146000000Y-61600000D01*
X161350000Y-64940000D02*
X161430000Y-64860000D01*
X152425000Y-64940000D02*
X156440000Y-64940000D01*
%TO.N,D5*%
X147650000Y-78770000D02*
X149110000Y-80230000D01*
X157240000Y-77460000D02*
X161440000Y-77460000D01*
X151270000Y-80230000D02*
X152425000Y-79075000D01*
X144310000Y-69220000D02*
X145800000Y-69220000D01*
X152425000Y-79075000D02*
X152425000Y-77460000D01*
X145800000Y-69220000D02*
X147650000Y-71070000D01*
X149110000Y-80230000D02*
X151270000Y-80230000D01*
X152425000Y-77460000D02*
X157240000Y-77460000D01*
X161440000Y-77460000D02*
X161470000Y-77490000D01*
X147650000Y-71070000D02*
X147650000Y-78770000D01*
X157220000Y-77460000D02*
X157240000Y-77460000D01*
%TO.N,D6*%
X152475000Y-89550000D02*
X152455000Y-89570000D01*
X146540000Y-72710000D02*
X146540000Y-91030000D01*
X146540000Y-91030000D02*
X147570000Y-92060000D01*
X152455000Y-90815000D02*
X152455000Y-89570000D01*
X157160000Y-89550000D02*
X152475000Y-89550000D01*
X161470000Y-89550000D02*
X157160000Y-89550000D01*
X151210000Y-92060000D02*
X152455000Y-90815000D01*
X147570000Y-92060000D02*
X151210000Y-92060000D01*
X145590000Y-71760000D02*
X146540000Y-72710000D01*
X144310000Y-71760000D02*
X145590000Y-71760000D01*
%TO.N,Net-(D6-K)*%
X100570000Y-79950000D02*
X100570000Y-82030000D01*
X101995000Y-79145000D02*
X101375000Y-79145000D01*
X101375000Y-79145000D02*
X100570000Y-79950000D01*
D31*
%TO.N,VIN*%
X86080000Y-78160000D02*
X82660000Y-74740000D01*
X82660000Y-65640000D02*
X82660000Y-62730000D01*
X82660000Y-74740000D02*
X82660000Y-65640000D01*
X76255000Y-65900000D02*
X82400000Y-65900000D01*
X82660000Y-60900000D02*
X82660000Y-62730000D01*
D30*
%TO.N,Net-(J4-Pin_2)*%
X161447500Y-72467500D02*
X161470000Y-72490000D01*
X157560000Y-72467500D02*
X161447500Y-72467500D01*
%TO.N,Net-(J5-Pin_2)*%
X161430000Y-59860000D02*
X157632500Y-59860000D01*
X157632500Y-59860000D02*
X157570000Y-59797500D01*
%TO.N,Net-(J6-Pin_2)*%
X157717500Y-47720000D02*
X157700000Y-47737500D01*
X161530000Y-47720000D02*
X157717500Y-47720000D01*
%TO.N,Net-(D3-A)*%
X149837500Y-52622500D02*
X149975000Y-52760000D01*
X149837500Y-48300000D02*
X149837500Y-52622500D01*
%TO.N,Net-(D4-A)*%
X149827500Y-64882500D02*
X149885000Y-64940000D01*
X149827500Y-60670000D02*
X149827500Y-64882500D01*
%TO.N,Net-(D5-A)*%
X149737500Y-77312500D02*
X149885000Y-77460000D01*
X149737500Y-73450000D02*
X149737500Y-77312500D01*
%TO.N,Net-(D7-A)*%
X149915000Y-89570000D02*
X149915000Y-85837500D01*
X149915000Y-85837500D02*
X149767500Y-85690000D01*
%TO.N,D0*%
X158240000Y-52760000D02*
X161490000Y-52760000D01*
X152515000Y-52760000D02*
X157070000Y-52760000D01*
X152515000Y-54045000D02*
X152515000Y-52760000D01*
X144310000Y-51440000D02*
X145990000Y-51440000D01*
X145990000Y-51440000D02*
X149620000Y-55070000D01*
X157070000Y-52760000D02*
X158240000Y-52760000D01*
X151490000Y-55070000D02*
X152515000Y-54045000D01*
X149620000Y-55070000D02*
X151490000Y-55070000D01*
X161490000Y-52760000D02*
X161530000Y-52720000D01*
%TD*%
%TA.AperFunction,Conductor*%
%TO.N,GND*%
G36*
X162198843Y-36855020D02*
G01*
X162279666Y-36908933D01*
X162333706Y-36989673D01*
X162352734Y-37084946D01*
X162333854Y-37180249D01*
X162312563Y-37220755D01*
X162147931Y-37474266D01*
X162147928Y-37474271D01*
X161971842Y-37819860D01*
X161832842Y-38181969D01*
X161732453Y-38556627D01*
X161671779Y-38939710D01*
X161671778Y-38939718D01*
X161651478Y-39327056D01*
X161671778Y-39714394D01*
X161671778Y-39714399D01*
X161671779Y-39714401D01*
X161729241Y-40077207D01*
X161732454Y-40097489D01*
X161772893Y-40248409D01*
X161832842Y-40472142D01*
X161971842Y-40834251D01*
X162147928Y-41179840D01*
X162147931Y-41179845D01*
X162359180Y-41505141D01*
X162592546Y-41793323D01*
X162603275Y-41806572D01*
X162877540Y-42080837D01*
X162877545Y-42080841D01*
X162877546Y-42080842D01*
X163178970Y-42324931D01*
X163178972Y-42324932D01*
X163504267Y-42536181D01*
X163504271Y-42536183D01*
X163830253Y-42702279D01*
X163849862Y-42712270D01*
X164211969Y-42851270D01*
X164586623Y-42951658D01*
X164969718Y-43012334D01*
X165357056Y-43032634D01*
X165744394Y-43012334D01*
X166127489Y-42951658D01*
X166127493Y-42951656D01*
X166127497Y-42951656D01*
X166247396Y-42919529D01*
X166501550Y-42851428D01*
X166598495Y-42845074D01*
X166690494Y-42876303D01*
X166763539Y-42940362D01*
X166806509Y-43027498D01*
X166814988Y-43093637D01*
X166442462Y-97882300D01*
X166422861Y-97977457D01*
X166368336Y-98057870D01*
X166287190Y-98111296D01*
X166191775Y-98129601D01*
X166154516Y-98126541D01*
X165827344Y-98074723D01*
X165827345Y-98074723D01*
X165827343Y-98074722D01*
X165827338Y-98074722D01*
X165440000Y-98054422D01*
X165052662Y-98074722D01*
X165052656Y-98074722D01*
X165052654Y-98074723D01*
X164669571Y-98135397D01*
X164669567Y-98135397D01*
X164669567Y-98135398D01*
X164594930Y-98155397D01*
X164294913Y-98235786D01*
X163932804Y-98374786D01*
X163587215Y-98550872D01*
X163587210Y-98550875D01*
X163261914Y-98762124D01*
X162960490Y-99006213D01*
X162686213Y-99280490D01*
X162442124Y-99581914D01*
X162230875Y-99907210D01*
X162230872Y-99907215D01*
X162054786Y-100252804D01*
X161915786Y-100614913D01*
X161815397Y-100989571D01*
X161754723Y-101372654D01*
X161754722Y-101372662D01*
X161734422Y-101760000D01*
X161754722Y-102147338D01*
X161789720Y-102368307D01*
X161785905Y-102465387D01*
X161745230Y-102553617D01*
X161673886Y-102619566D01*
X161582736Y-102653193D01*
X161543759Y-102656258D01*
X76620777Y-102647284D01*
X76525491Y-102628320D01*
X76444715Y-102574335D01*
X76390747Y-102493548D01*
X76371803Y-102398258D01*
X76374869Y-102359332D01*
X76405278Y-102167338D01*
X76425578Y-101780000D01*
X76405278Y-101392662D01*
X76344602Y-101009567D01*
X76244214Y-100634913D01*
X76105214Y-100272806D01*
X76095022Y-100252804D01*
X75929127Y-99927215D01*
X75929124Y-99927210D01*
X75717875Y-99601914D01*
X75536001Y-99377319D01*
X91375511Y-99377319D01*
X91375511Y-101855500D01*
X91375512Y-101855500D01*
X114360931Y-101855500D01*
X114360932Y-101855500D01*
X114360932Y-99657319D01*
X126456394Y-99657319D01*
X126456394Y-102135500D01*
X126456395Y-102135500D01*
X150470931Y-102135500D01*
X150470932Y-102135500D01*
X150470932Y-99657319D01*
X126456394Y-99657319D01*
X114360932Y-99657319D01*
X114360932Y-99377319D01*
X91375511Y-99377319D01*
X75536001Y-99377319D01*
X75473786Y-99300490D01*
X75473785Y-99300489D01*
X75473781Y-99300484D01*
X75199516Y-99026219D01*
X75199509Y-99026213D01*
X74898085Y-98782124D01*
X74572789Y-98570875D01*
X74572784Y-98570872D01*
X74227195Y-98394786D01*
X74046140Y-98325286D01*
X73865087Y-98255786D01*
X73490433Y-98155398D01*
X73490429Y-98155397D01*
X73490428Y-98155397D01*
X73107344Y-98094723D01*
X73107345Y-98094723D01*
X73107343Y-98094722D01*
X73107338Y-98094722D01*
X72720000Y-98074422D01*
X72719999Y-98074422D01*
X72332662Y-98094722D01*
X72038320Y-98141341D01*
X71941240Y-98137526D01*
X71853010Y-98096851D01*
X71787061Y-98025507D01*
X71753434Y-97934357D01*
X71750371Y-97896429D01*
X71737495Y-94739884D01*
X78236287Y-94739884D01*
X78256452Y-95008985D01*
X78316499Y-95272072D01*
X78316503Y-95272083D01*
X78415092Y-95523280D01*
X78415093Y-95523283D01*
X78550024Y-95756992D01*
X78718273Y-95967968D01*
X78718275Y-95967970D01*
X78916095Y-96151520D01*
X79139062Y-96303536D01*
X79382195Y-96420623D01*
X79640064Y-96500165D01*
X79906907Y-96540385D01*
X79906910Y-96540385D01*
X80176762Y-96540385D01*
X80176765Y-96540385D01*
X80443608Y-96500165D01*
X80701477Y-96420623D01*
X80944611Y-96303536D01*
X81167577Y-96151520D01*
X81365397Y-95967970D01*
X81470314Y-95836409D01*
X81472127Y-95834136D01*
X81546357Y-95771454D01*
X81638924Y-95741951D01*
X81666803Y-95740385D01*
X84132324Y-95740385D01*
X84227612Y-95759339D01*
X84308393Y-95813315D01*
X86183548Y-97688468D01*
X86244943Y-97753055D01*
X86293339Y-97786739D01*
X86300891Y-97792432D01*
X86346593Y-97829698D01*
X86373529Y-97843768D01*
X86387013Y-97851938D01*
X86411951Y-97869295D01*
X86411953Y-97869296D01*
X86411955Y-97869297D01*
X86411954Y-97869297D01*
X86466142Y-97892551D01*
X86474691Y-97896611D01*
X86526939Y-97923903D01*
X86526940Y-97923903D01*
X86526951Y-97923909D01*
X86556161Y-97932266D01*
X86571008Y-97937551D01*
X86598942Y-97949540D01*
X86656731Y-97961414D01*
X86665889Y-97963663D01*
X86699320Y-97973229D01*
X86722574Y-97979884D01*
X86722576Y-97979884D01*
X86722582Y-97979886D01*
X86752877Y-97982193D01*
X86768482Y-97984380D01*
X86798259Y-97990500D01*
X86857225Y-97990500D01*
X86866682Y-97990860D01*
X86883160Y-97992114D01*
X86925476Y-97995337D01*
X86955623Y-97991497D01*
X86971360Y-97990500D01*
X100808259Y-97990500D01*
X100867224Y-97990500D01*
X100876681Y-97990860D01*
X100935474Y-97995337D01*
X100935474Y-97995336D01*
X100935477Y-97995337D01*
X100965624Y-97991497D01*
X100981361Y-97990500D01*
X116288259Y-97990500D01*
X116377284Y-97990500D01*
X116466361Y-97992757D01*
X116466361Y-97992756D01*
X116466363Y-97992757D01*
X116466364Y-97992756D01*
X116478955Y-97991798D01*
X116479005Y-97992464D01*
X116501094Y-97990500D01*
X156087284Y-97990500D01*
X156176360Y-97992757D01*
X156176360Y-97992756D01*
X156176363Y-97992757D01*
X156234431Y-97982348D01*
X156243753Y-97981041D01*
X156302438Y-97975074D01*
X156331432Y-97965976D01*
X156346743Y-97962218D01*
X156376653Y-97956858D01*
X156431434Y-97934975D01*
X156440290Y-97931822D01*
X156496588Y-97914159D01*
X156523151Y-97899414D01*
X156537399Y-97892647D01*
X156565617Y-97881377D01*
X156614855Y-97848925D01*
X156622928Y-97844034D01*
X156674502Y-97815409D01*
X156697557Y-97795614D01*
X156710147Y-97786122D01*
X156735519Y-97769402D01*
X156777238Y-97727680D01*
X156784144Y-97721281D01*
X156828895Y-97682866D01*
X156828903Y-97682855D01*
X156837595Y-97673713D01*
X156839190Y-97675229D01*
X156899080Y-97623144D01*
X156991208Y-97592296D01*
X157023923Y-97590301D01*
X163972868Y-97624874D01*
X164081606Y-97613594D01*
X164133734Y-97602390D01*
X164237504Y-97567995D01*
X164358543Y-97490207D01*
X164411347Y-97444452D01*
X164505567Y-97335718D01*
X164565338Y-97204841D01*
X164585023Y-97137802D01*
X164585024Y-97137798D01*
X164605500Y-96995382D01*
X164605500Y-85674500D01*
X164593947Y-85567044D01*
X164593946Y-85567038D01*
X164593946Y-85567037D01*
X164582743Y-85515539D01*
X164582742Y-85515536D01*
X164575833Y-85494778D01*
X164548613Y-85412996D01*
X164470825Y-85291957D01*
X164462208Y-85282013D01*
X164425076Y-85239160D01*
X164425070Y-85239153D01*
X164425062Y-85239146D01*
X164316337Y-85144933D01*
X164185458Y-85085161D01*
X164118427Y-85065478D01*
X164118429Y-85065478D01*
X164118417Y-85065476D01*
X164118416Y-85065476D01*
X163976000Y-85045000D01*
X163034770Y-85045000D01*
X163034766Y-85045000D01*
X162994834Y-85048265D01*
X162952635Y-85051717D01*
X162952630Y-85051717D01*
X162952627Y-85051718D01*
X162952626Y-85051718D01*
X162912885Y-85058262D01*
X162912884Y-85058262D01*
X162832941Y-85078232D01*
X162832939Y-85078233D01*
X162704605Y-85143289D01*
X162647418Y-85183428D01*
X162647414Y-85183430D01*
X162647401Y-85183443D01*
X162542607Y-85282011D01*
X162542604Y-85282014D01*
X162433596Y-85418705D01*
X162408284Y-85445985D01*
X162293359Y-85552620D01*
X162264262Y-85575824D01*
X162134733Y-85664135D01*
X162102503Y-85682743D01*
X161961256Y-85750763D01*
X161926615Y-85764358D01*
X161776802Y-85810570D01*
X161740520Y-85818852D01*
X161631406Y-85835298D01*
X161585501Y-85842218D01*
X161548390Y-85844999D01*
X161391611Y-85844999D01*
X161354500Y-85842218D01*
X161199482Y-85818853D01*
X161163198Y-85810571D01*
X161013390Y-85764361D01*
X160978748Y-85750765D01*
X160837489Y-85682738D01*
X160805263Y-85664133D01*
X160675735Y-85575823D01*
X160646639Y-85552620D01*
X160531716Y-85445988D01*
X160506402Y-85418706D01*
X160408655Y-85296135D01*
X160387691Y-85265386D01*
X160340381Y-85183443D01*
X160309302Y-85129613D01*
X160293156Y-85096085D01*
X160235878Y-84950142D01*
X160224909Y-84914582D01*
X160190022Y-84761734D01*
X160184478Y-84724949D01*
X160172762Y-84568604D01*
X160172762Y-84531395D01*
X160177191Y-84472288D01*
X160184478Y-84375044D01*
X160190022Y-84338263D01*
X160224910Y-84185407D01*
X160235870Y-84149876D01*
X160293162Y-84003896D01*
X160309301Y-83970385D01*
X160387689Y-83834612D01*
X160408650Y-83803870D01*
X160449319Y-83752872D01*
X160506408Y-83681283D01*
X160531704Y-83654020D01*
X160646647Y-83547369D01*
X160675727Y-83524180D01*
X160805277Y-83435854D01*
X160837479Y-83417262D01*
X160978755Y-83349227D01*
X161013378Y-83335639D01*
X161163194Y-83289427D01*
X161199475Y-83281147D01*
X161257972Y-83272330D01*
X161354496Y-83257781D01*
X161391609Y-83255000D01*
X161548393Y-83255000D01*
X161585503Y-83257781D01*
X161740513Y-83281144D01*
X161776798Y-83289426D01*
X161926612Y-83335638D01*
X161961253Y-83349233D01*
X162102501Y-83417253D01*
X162134727Y-83435859D01*
X162213587Y-83489626D01*
X162264266Y-83524178D01*
X162293353Y-83547374D01*
X162398803Y-83645215D01*
X162408280Y-83654008D01*
X162433593Y-83681289D01*
X162542612Y-83817993D01*
X162542613Y-83817993D01*
X162595836Y-83874576D01*
X162599079Y-83878024D01*
X162628988Y-83905026D01*
X162628989Y-83905027D01*
X162648997Y-83920325D01*
X162694434Y-83955067D01*
X162825311Y-84014838D01*
X162825310Y-84014838D01*
X162892342Y-84034521D01*
X162892346Y-84034521D01*
X162892350Y-84034523D01*
X162892354Y-84034524D01*
X163034770Y-84055000D01*
X163034775Y-84055000D01*
X163975998Y-84055000D01*
X163976000Y-84055000D01*
X164083456Y-84043447D01*
X164083461Y-84043446D01*
X164083462Y-84043446D01*
X164134960Y-84032243D01*
X164134963Y-84032242D01*
X164134964Y-84032241D01*
X164134967Y-84032241D01*
X164237504Y-83998113D01*
X164358543Y-83920325D01*
X164411347Y-83874570D01*
X164505567Y-83765836D01*
X164565338Y-83634959D01*
X164585023Y-83567920D01*
X164585024Y-83567916D01*
X164605500Y-83425500D01*
X164605500Y-45334314D01*
X164605500Y-45334309D01*
X164605499Y-45334307D01*
X164600463Y-45287738D01*
X164593812Y-45226241D01*
X164582476Y-45174444D01*
X164547949Y-45071359D01*
X164469854Y-44950517D01*
X164423965Y-44897829D01*
X164377568Y-44857831D01*
X164314996Y-44803888D01*
X164183969Y-44744448D01*
X164116887Y-44724934D01*
X164116886Y-44724933D01*
X164116880Y-44724932D01*
X164116876Y-44724931D01*
X164116875Y-44724931D01*
X164023134Y-44711695D01*
X163974402Y-44704815D01*
X156322068Y-44724188D01*
X156215927Y-44735732D01*
X156215918Y-44735733D01*
X156165042Y-44746798D01*
X156165040Y-44746799D01*
X156063709Y-44780369D01*
X155942460Y-44857830D01*
X155889536Y-44903438D01*
X155889533Y-44903441D01*
X155795024Y-45011914D01*
X155795022Y-45011917D01*
X155734897Y-45142630D01*
X155715030Y-45209619D01*
X155715028Y-45209625D01*
X155694167Y-45351984D01*
X155690311Y-46780499D01*
X155689765Y-46982750D01*
X155693584Y-47034265D01*
X155695495Y-47060026D01*
X155701184Y-47097480D01*
X155701185Y-47097485D01*
X155718647Y-47172940D01*
X155780827Y-47302690D01*
X155780830Y-47302695D01*
X155780831Y-47302696D01*
X155819686Y-47360765D01*
X155819690Y-47360770D01*
X155915907Y-47467741D01*
X156001964Y-47520821D01*
X156073116Y-47586976D01*
X156113535Y-47675324D01*
X156117067Y-47772415D01*
X156083176Y-47863467D01*
X156017021Y-47934619D01*
X156005303Y-47942583D01*
X155934016Y-47988125D01*
X155934008Y-47988131D01*
X155881084Y-48033740D01*
X155881074Y-48033750D01*
X155786574Y-48142214D01*
X155786569Y-48142221D01*
X155726447Y-48272929D01*
X155726445Y-48272933D01*
X155706578Y-48339919D01*
X155706578Y-48339920D01*
X155685715Y-48482288D01*
X155683201Y-49413672D01*
X155663990Y-49508909D01*
X155609796Y-49589544D01*
X155528869Y-49643302D01*
X155434202Y-49662000D01*
X154990061Y-49662000D01*
X154894773Y-49643046D01*
X154813991Y-49589070D01*
X153898429Y-48673508D01*
X153844453Y-48592726D01*
X153825499Y-48497438D01*
X153825499Y-47624993D01*
X153825499Y-47624991D01*
X153814999Y-47522203D01*
X153759814Y-47355666D01*
X153667712Y-47206344D01*
X153543656Y-47082288D01*
X153394334Y-46990186D01*
X153394332Y-46990185D01*
X153394330Y-46990184D01*
X153394332Y-46990184D01*
X153227802Y-46935002D01*
X153227798Y-46935001D01*
X153227797Y-46935001D01*
X153125009Y-46924500D01*
X153125005Y-46924500D01*
X152399993Y-46924500D01*
X152297199Y-46935001D01*
X152130667Y-46990185D01*
X151981346Y-47082286D01*
X151857286Y-47206346D01*
X151765184Y-47355668D01*
X151710002Y-47522197D01*
X151710001Y-47522204D01*
X151699500Y-47624988D01*
X151699500Y-48975006D01*
X151710001Y-49077800D01*
X151765185Y-49244332D01*
X151861862Y-49401073D01*
X151866249Y-49408787D01*
X151871120Y-49418113D01*
X151903570Y-49467350D01*
X151908465Y-49475429D01*
X151931935Y-49517712D01*
X151937091Y-49527002D01*
X151956881Y-49550054D01*
X151966380Y-49562653D01*
X151983096Y-49588017D01*
X152024797Y-49629719D01*
X152031228Y-49636659D01*
X152069634Y-49681395D01*
X152069635Y-49681396D01*
X152093655Y-49699989D01*
X152105494Y-49710416D01*
X153329510Y-50934430D01*
X153383486Y-51015212D01*
X153402440Y-51110500D01*
X153383486Y-51205788D01*
X153329510Y-51286570D01*
X153248728Y-51340546D01*
X153153440Y-51359500D01*
X151567134Y-51359500D01*
X151567130Y-51359500D01*
X151567128Y-51359501D01*
X151558077Y-51360474D01*
X151507519Y-51365908D01*
X151507515Y-51365909D01*
X151372670Y-51416203D01*
X151257455Y-51502453D01*
X151257449Y-51502459D01*
X151181988Y-51603262D01*
X151109710Y-51668185D01*
X151018089Y-51700506D01*
X150921073Y-51695305D01*
X150833433Y-51653373D01*
X150829716Y-51650536D01*
X150743631Y-51583533D01*
X150743619Y-51583526D01*
X150718486Y-51569924D01*
X150643705Y-51507902D01*
X150598351Y-51421983D01*
X150588000Y-51350937D01*
X150588000Y-49651506D01*
X150606954Y-49556218D01*
X150660925Y-49475442D01*
X150742712Y-49393656D01*
X150834814Y-49244334D01*
X150889999Y-49077797D01*
X150900500Y-48975009D01*
X150900499Y-47624992D01*
X150889999Y-47522203D01*
X150834814Y-47355666D01*
X150742712Y-47206344D01*
X150618656Y-47082288D01*
X150469334Y-46990186D01*
X150469332Y-46990185D01*
X150469330Y-46990184D01*
X150469332Y-46990184D01*
X150302802Y-46935002D01*
X150302798Y-46935001D01*
X150302797Y-46935001D01*
X150200009Y-46924500D01*
X150200005Y-46924500D01*
X149474993Y-46924500D01*
X149372199Y-46935001D01*
X149205667Y-46990185D01*
X149056346Y-47082286D01*
X148932286Y-47206346D01*
X148840184Y-47355668D01*
X148785002Y-47522197D01*
X148785001Y-47522204D01*
X148774500Y-47624988D01*
X148774500Y-48975006D01*
X148785001Y-49077800D01*
X148840185Y-49244332D01*
X148925959Y-49383396D01*
X148932288Y-49393656D01*
X149014072Y-49475440D01*
X149068046Y-49556219D01*
X149087000Y-49651507D01*
X149087000Y-51559639D01*
X149068046Y-51654927D01*
X149021195Y-51728282D01*
X148866022Y-51896844D01*
X148866019Y-51896848D01*
X148739074Y-52091153D01*
X148645842Y-52303702D01*
X148645842Y-52303704D01*
X148605756Y-52461996D01*
X148563990Y-52549715D01*
X148491834Y-52614773D01*
X148400274Y-52647267D01*
X148303248Y-52642248D01*
X148215529Y-52600482D01*
X148188306Y-52576938D01*
X146572162Y-50960794D01*
X146548504Y-50933417D01*
X146539609Y-50921469D01*
X146539606Y-50921466D01*
X146501693Y-50889653D01*
X146493690Y-50882321D01*
X146489781Y-50878413D01*
X146489780Y-50878412D01*
X146489777Y-50878409D01*
X146464040Y-50858059D01*
X146405214Y-50808698D01*
X146405211Y-50808696D01*
X146396024Y-50802654D01*
X146386678Y-50796890D01*
X146386677Y-50796889D01*
X146317057Y-50764424D01*
X146248433Y-50729960D01*
X146248432Y-50729959D01*
X146248429Y-50729958D01*
X146238099Y-50726197D01*
X146227673Y-50722743D01*
X146152434Y-50707207D01*
X146077725Y-50689500D01*
X146066813Y-50688225D01*
X146055858Y-50687266D01*
X146055856Y-50687266D01*
X146055853Y-50687266D01*
X145979082Y-50689500D01*
X145746782Y-50689500D01*
X145651494Y-50670546D01*
X145570712Y-50616570D01*
X145538327Y-50576689D01*
X145498168Y-50515221D01*
X145498163Y-50515214D01*
X145329751Y-50332269D01*
X145329747Y-50332265D01*
X145329744Y-50332262D01*
X145329738Y-50332257D01*
X145133514Y-50179529D01*
X145133510Y-50179526D01*
X145133509Y-50179526D01*
X144986558Y-50100000D01*
X144914811Y-50061172D01*
X144679621Y-49980430D01*
X144679610Y-49980428D01*
X144434335Y-49939500D01*
X144185665Y-49939500D01*
X143940389Y-49980428D01*
X143940378Y-49980430D01*
X143705188Y-50061172D01*
X143486485Y-50179529D01*
X143290261Y-50332257D01*
X143290248Y-50332269D01*
X143121836Y-50515214D01*
X143121830Y-50515221D01*
X142985828Y-50723391D01*
X142985825Y-50723396D01*
X142885936Y-50951121D01*
X142885935Y-50951125D01*
X142824894Y-51192168D01*
X142824892Y-51192176D01*
X142804357Y-51440000D01*
X142824892Y-51687823D01*
X142824894Y-51687831D01*
X142883690Y-51920008D01*
X142885937Y-51928881D01*
X142927134Y-52022800D01*
X142985825Y-52156603D01*
X142985828Y-52156608D01*
X143121830Y-52364778D01*
X143121836Y-52364785D01*
X143284381Y-52541356D01*
X143334973Y-52624299D01*
X143349973Y-52720289D01*
X143327098Y-52814713D01*
X143284382Y-52878641D01*
X143121836Y-53055214D01*
X143121831Y-53055221D01*
X143081673Y-53116689D01*
X143013688Y-53186094D01*
X142924318Y-53224200D01*
X142873218Y-53229500D01*
X141534007Y-53229500D01*
X141438719Y-53210546D01*
X141357937Y-53156570D01*
X133820484Y-45619117D01*
X126252162Y-38050794D01*
X126228504Y-38023417D01*
X126219609Y-38011469D01*
X126219606Y-38011466D01*
X126181693Y-37979653D01*
X126173690Y-37972321D01*
X126169781Y-37968413D01*
X126169780Y-37968412D01*
X126169777Y-37968409D01*
X126144040Y-37948059D01*
X126085214Y-37898698D01*
X126085211Y-37898696D01*
X126076024Y-37892654D01*
X126066678Y-37886890D01*
X126066677Y-37886889D01*
X125997057Y-37854424D01*
X125928433Y-37819960D01*
X125928432Y-37819959D01*
X125928429Y-37819958D01*
X125918099Y-37816197D01*
X125907673Y-37812743D01*
X125832434Y-37797207D01*
X125757725Y-37779500D01*
X125746813Y-37778225D01*
X125735858Y-37777266D01*
X125735856Y-37777266D01*
X125735853Y-37777266D01*
X125659082Y-37779500D01*
X102552812Y-37779500D01*
X102516723Y-37776871D01*
X102501978Y-37774711D01*
X102501977Y-37774711D01*
X102495880Y-37775244D01*
X102452647Y-37779026D01*
X102441793Y-37779500D01*
X102436291Y-37779500D01*
X102403724Y-37783306D01*
X102396388Y-37783947D01*
X102327205Y-37790000D01*
X102316501Y-37792209D01*
X102305747Y-37794758D01*
X102305745Y-37794759D01*
X102305742Y-37794759D01*
X102305738Y-37794761D01*
X102262386Y-37810539D01*
X102233576Y-37821025D01*
X102209272Y-37829078D01*
X102160664Y-37845186D01*
X102150668Y-37849846D01*
X102140888Y-37854759D01*
X102076708Y-37896970D01*
X102011346Y-37937286D01*
X102002724Y-37944103D01*
X101994300Y-37951172D01*
X101941597Y-38007035D01*
X98340793Y-41607837D01*
X98313424Y-41631489D01*
X98301473Y-41640386D01*
X98301469Y-41640389D01*
X98269644Y-41678316D01*
X98262323Y-41686307D01*
X98258408Y-41690222D01*
X98238059Y-41715958D01*
X98188695Y-41774789D01*
X98182672Y-41783945D01*
X98176889Y-41793321D01*
X98144424Y-41862942D01*
X98109958Y-41931569D01*
X98106186Y-41941931D01*
X98102743Y-41952323D01*
X98087209Y-42027556D01*
X98069500Y-42102273D01*
X98068220Y-42113224D01*
X98067266Y-42124138D01*
X98069500Y-42200917D01*
X98069500Y-42740972D01*
X98050546Y-42836260D01*
X97996570Y-42917042D01*
X97973439Y-42937468D01*
X97887510Y-43004348D01*
X97800263Y-43072257D01*
X97800260Y-43072259D01*
X97800254Y-43072264D01*
X97798025Y-43074685D01*
X97736710Y-43141292D01*
X97733195Y-43145110D01*
X97654713Y-43202378D01*
X97560289Y-43225253D01*
X97464299Y-43210253D01*
X97381356Y-43159661D01*
X97366805Y-43145110D01*
X97299744Y-43072262D01*
X97299738Y-43072257D01*
X97103514Y-42919529D01*
X97103510Y-42919526D01*
X97103509Y-42919526D01*
X96949647Y-42836260D01*
X96884811Y-42801172D01*
X96649621Y-42720430D01*
X96649610Y-42720428D01*
X96404335Y-42679500D01*
X96155665Y-42679500D01*
X95910389Y-42720428D01*
X95910378Y-42720430D01*
X95675188Y-42801172D01*
X95456485Y-42919529D01*
X95260261Y-43072257D01*
X95260248Y-43072269D01*
X95091836Y-43255214D01*
X95091830Y-43255221D01*
X94955828Y-43463391D01*
X94955825Y-43463396D01*
X94855936Y-43691121D01*
X94855935Y-43691125D01*
X94794894Y-43932168D01*
X94794892Y-43932176D01*
X94774357Y-44180000D01*
X94794892Y-44427823D01*
X94794894Y-44427831D01*
X94855935Y-44668874D01*
X94855937Y-44668881D01*
X94955827Y-44896607D01*
X94960290Y-44903438D01*
X95091830Y-45104778D01*
X95091836Y-45104785D01*
X95260248Y-45287730D01*
X95260252Y-45287733D01*
X95260256Y-45287738D01*
X95260260Y-45287741D01*
X95260261Y-45287742D01*
X95456485Y-45440470D01*
X95456489Y-45440473D01*
X95456491Y-45440474D01*
X95468182Y-45446801D01*
X95474543Y-45450243D01*
X95549325Y-45512265D01*
X95592391Y-45590901D01*
X95595185Y-45599334D01*
X95599850Y-45609338D01*
X95604759Y-45619111D01*
X95604763Y-45619117D01*
X95646965Y-45683283D01*
X95687288Y-45748656D01*
X95687290Y-45748658D01*
X95694096Y-45757267D01*
X95701171Y-45765698D01*
X95757018Y-45818387D01*
X97067831Y-47129198D01*
X97091488Y-47156573D01*
X97100389Y-47168529D01*
X97138312Y-47200351D01*
X97146315Y-47207683D01*
X97150219Y-47211586D01*
X97150224Y-47211591D01*
X97175947Y-47231930D01*
X97234786Y-47281302D01*
X97234788Y-47281303D01*
X97243971Y-47287342D01*
X97253320Y-47293109D01*
X97253323Y-47293111D01*
X97322936Y-47325572D01*
X97391564Y-47360039D01*
X97401897Y-47363799D01*
X97412320Y-47367253D01*
X97412328Y-47367257D01*
X97487558Y-47382790D01*
X97562279Y-47400500D01*
X97562285Y-47400500D01*
X97573172Y-47401773D01*
X97584135Y-47402731D01*
X97584145Y-47402734D01*
X97658618Y-47400566D01*
X97660919Y-47400500D01*
X104005992Y-47400500D01*
X104101280Y-47419454D01*
X104182062Y-47473430D01*
X112296570Y-55587937D01*
X112350546Y-55668719D01*
X112369500Y-55764007D01*
X112369500Y-75087188D01*
X112366871Y-75123275D01*
X112364711Y-75138018D01*
X112364711Y-75138022D01*
X112369026Y-75187352D01*
X112369500Y-75198206D01*
X112369500Y-75203708D01*
X112373306Y-75236275D01*
X112380000Y-75312796D01*
X112382213Y-75323515D01*
X112384759Y-75334255D01*
X112409181Y-75401357D01*
X112411025Y-75406422D01*
X112435186Y-75479335D01*
X112439850Y-75489338D01*
X112444759Y-75499111D01*
X112444763Y-75499117D01*
X112486965Y-75563283D01*
X112527288Y-75628656D01*
X112527290Y-75628658D01*
X112534096Y-75637267D01*
X112541171Y-75645698D01*
X112597017Y-75698386D01*
X114217834Y-77319202D01*
X114241491Y-77346578D01*
X114250383Y-77358521D01*
X114250390Y-77358530D01*
X114250391Y-77358531D01*
X114250393Y-77358533D01*
X114288305Y-77390345D01*
X114296307Y-77397677D01*
X114300218Y-77401587D01*
X114300223Y-77401591D01*
X114325959Y-77421940D01*
X114384786Y-77471302D01*
X114384788Y-77471303D01*
X114393971Y-77477342D01*
X114403320Y-77483109D01*
X114403323Y-77483111D01*
X114440198Y-77500306D01*
X114472943Y-77515576D01*
X114541558Y-77550036D01*
X114541561Y-77550037D01*
X114541567Y-77550040D01*
X114541572Y-77550041D01*
X114551949Y-77553818D01*
X114562329Y-77557258D01*
X114617988Y-77568749D01*
X114637565Y-77572792D01*
X114664431Y-77579159D01*
X114712273Y-77590499D01*
X114712276Y-77590499D01*
X114712279Y-77590500D01*
X114712282Y-77590500D01*
X114723177Y-77591773D01*
X114734134Y-77592731D01*
X114734144Y-77592734D01*
X114808617Y-77590566D01*
X114810918Y-77590500D01*
X114933218Y-77590500D01*
X115028506Y-77609454D01*
X115109288Y-77663430D01*
X115141673Y-77703311D01*
X115181831Y-77764778D01*
X115181831Y-77764779D01*
X115181834Y-77764783D01*
X115181836Y-77764785D01*
X115344382Y-77941357D01*
X115394974Y-78024301D01*
X115409973Y-78120291D01*
X115387097Y-78214714D01*
X115344382Y-78278643D01*
X115181831Y-78455220D01*
X115181830Y-78455221D01*
X115045828Y-78663391D01*
X115045825Y-78663396D01*
X114945936Y-78891121D01*
X114945935Y-78891125D01*
X114884894Y-79132168D01*
X114884892Y-79132176D01*
X114864357Y-79380000D01*
X114884892Y-79627823D01*
X114884894Y-79627831D01*
X114944265Y-79862279D01*
X114945937Y-79868881D01*
X114952632Y-79884144D01*
X115045825Y-80096603D01*
X115045828Y-80096608D01*
X115181830Y-80304778D01*
X115181831Y-80304779D01*
X115181834Y-80304783D01*
X115181836Y-80304785D01*
X115322766Y-80457876D01*
X115344382Y-80481357D01*
X115394974Y-80564301D01*
X115409973Y-80660291D01*
X115387097Y-80754714D01*
X115344382Y-80818642D01*
X115317499Y-80847846D01*
X115181831Y-80995220D01*
X115181830Y-80995221D01*
X115045828Y-81203391D01*
X115045825Y-81203396D01*
X114945936Y-81431121D01*
X114945935Y-81431125D01*
X114884894Y-81672168D01*
X114884892Y-81672176D01*
X114864357Y-81920000D01*
X114884892Y-82167823D01*
X114884894Y-82167831D01*
X114945935Y-82408874D01*
X114945936Y-82408878D01*
X115045825Y-82636603D01*
X115045828Y-82636608D01*
X115181830Y-82844778D01*
X115181836Y-82844785D01*
X115350248Y-83027730D01*
X115350250Y-83027732D01*
X115350256Y-83027738D01*
X115350260Y-83027741D01*
X115350261Y-83027742D01*
X115546485Y-83180470D01*
X115546487Y-83180471D01*
X115546491Y-83180474D01*
X115765190Y-83298828D01*
X115834736Y-83322703D01*
X116000378Y-83379569D01*
X116000382Y-83379569D01*
X116000386Y-83379571D01*
X116245665Y-83420500D01*
X116494335Y-83420500D01*
X116739614Y-83379571D01*
X116739618Y-83379569D01*
X116739621Y-83379569D01*
X116867589Y-83335637D01*
X116974810Y-83298828D01*
X117193509Y-83180474D01*
X117389744Y-83027738D01*
X117558164Y-82844785D01*
X117694173Y-82636607D01*
X117794063Y-82408881D01*
X117855108Y-82167821D01*
X117875643Y-81920000D01*
X117855108Y-81672179D01*
X117794063Y-81431119D01*
X117694173Y-81203393D01*
X117640997Y-81122001D01*
X117558169Y-80995221D01*
X117558163Y-80995214D01*
X117549026Y-80985289D01*
X117395617Y-80818642D01*
X117345026Y-80735700D01*
X117330026Y-80639710D01*
X117352901Y-80545287D01*
X117395618Y-80481357D01*
X117417234Y-80457876D01*
X117558164Y-80304785D01*
X117694173Y-80096607D01*
X117794063Y-79868881D01*
X117855108Y-79627821D01*
X117875643Y-79380000D01*
X117855108Y-79132179D01*
X117794063Y-78891119D01*
X117694173Y-78663393D01*
X117621585Y-78552288D01*
X117558169Y-78455221D01*
X117558163Y-78455214D01*
X117514582Y-78407872D01*
X117395617Y-78278642D01*
X117345026Y-78195700D01*
X117330026Y-78099710D01*
X117352901Y-78005287D01*
X117395618Y-77941357D01*
X117558164Y-77764785D01*
X117694173Y-77556607D01*
X117794063Y-77328881D01*
X117855108Y-77087821D01*
X117875643Y-76840000D01*
X117855108Y-76592179D01*
X117794063Y-76351119D01*
X117694173Y-76123393D01*
X117639229Y-76039295D01*
X117558169Y-75915221D01*
X117558163Y-75915214D01*
X117389751Y-75732269D01*
X117389746Y-75732264D01*
X117389744Y-75732262D01*
X117389738Y-75732257D01*
X117193514Y-75579529D01*
X117193510Y-75579526D01*
X117193509Y-75579526D01*
X117116502Y-75537852D01*
X116974811Y-75461172D01*
X116739621Y-75380430D01*
X116739610Y-75380428D01*
X116494335Y-75339500D01*
X116245665Y-75339500D01*
X116000389Y-75380428D01*
X116000378Y-75380430D01*
X115765188Y-75461172D01*
X115546485Y-75579529D01*
X115350261Y-75732257D01*
X115350254Y-75732264D01*
X115240043Y-75851985D01*
X115161560Y-75909253D01*
X115067137Y-75932128D01*
X114971147Y-75917128D01*
X114888204Y-75866536D01*
X114880778Y-75859410D01*
X113943430Y-74922061D01*
X113889454Y-74841280D01*
X113870500Y-74745992D01*
X113870500Y-71760000D01*
X114864357Y-71760000D01*
X114884892Y-72007823D01*
X114884894Y-72007831D01*
X114945935Y-72248874D01*
X114945936Y-72248878D01*
X115025623Y-72430548D01*
X115045827Y-72476607D01*
X115072414Y-72517302D01*
X115181830Y-72684778D01*
X115181836Y-72684785D01*
X115350248Y-72867730D01*
X115350252Y-72867733D01*
X115350256Y-72867738D01*
X115350260Y-72867741D01*
X115350261Y-72867742D01*
X115546485Y-73020470D01*
X115546487Y-73020471D01*
X115546491Y-73020474D01*
X115765190Y-73138828D01*
X115834736Y-73162703D01*
X116000378Y-73219569D01*
X116000382Y-73219569D01*
X116000386Y-73219571D01*
X116245665Y-73260500D01*
X116494335Y-73260500D01*
X116739614Y-73219571D01*
X116739618Y-73219569D01*
X116739621Y-73219569D01*
X116829077Y-73188858D01*
X116974810Y-73138828D01*
X117193509Y-73020474D01*
X117389744Y-72867738D01*
X117558164Y-72684785D01*
X117566385Y-72672203D01*
X117590892Y-72634690D01*
X117694173Y-72476607D01*
X117794063Y-72248881D01*
X117855108Y-72007821D01*
X117875643Y-71760000D01*
X117855108Y-71512179D01*
X117794063Y-71271119D01*
X117694173Y-71043393D01*
X117637484Y-70956624D01*
X117558169Y-70835221D01*
X117558163Y-70835214D01*
X117518011Y-70791597D01*
X117395617Y-70658642D01*
X117345026Y-70575700D01*
X117330026Y-70479710D01*
X117352901Y-70385287D01*
X117395618Y-70321357D01*
X117558164Y-70144785D01*
X117694173Y-69936607D01*
X117794063Y-69708881D01*
X117855108Y-69467821D01*
X117875643Y-69220000D01*
X117855108Y-68972179D01*
X117794063Y-68731119D01*
X117694173Y-68503393D01*
X117640997Y-68422001D01*
X117558169Y-68295221D01*
X117558168Y-68295220D01*
X117558165Y-68295217D01*
X117558164Y-68295215D01*
X117395616Y-68118641D01*
X117345025Y-68035698D01*
X117330026Y-67939708D01*
X117352902Y-67845285D01*
X117395612Y-67781362D01*
X117558164Y-67604785D01*
X117694173Y-67396607D01*
X117794063Y-67168881D01*
X117855108Y-66927821D01*
X117875643Y-66680000D01*
X117855108Y-66432179D01*
X117794063Y-66191119D01*
X117694173Y-65963393D01*
X117640997Y-65882001D01*
X117558169Y-65755221D01*
X117558163Y-65755214D01*
X117395618Y-65578643D01*
X117345026Y-65495700D01*
X117330026Y-65399710D01*
X117352901Y-65305287D01*
X117395618Y-65241357D01*
X117510461Y-65116604D01*
X117558164Y-65064785D01*
X117694173Y-64856607D01*
X117794063Y-64628881D01*
X117855108Y-64387821D01*
X117875643Y-64140000D01*
X117855108Y-63892179D01*
X117794063Y-63651119D01*
X117694173Y-63423393D01*
X117607350Y-63290500D01*
X117558169Y-63215221D01*
X117558163Y-63215214D01*
X117458281Y-63106713D01*
X117395617Y-63038642D01*
X117345026Y-62955700D01*
X117330026Y-62859710D01*
X117352901Y-62765287D01*
X117395618Y-62701357D01*
X117404331Y-62691892D01*
X117558164Y-62524785D01*
X117694173Y-62316607D01*
X117794063Y-62088881D01*
X117855108Y-61847821D01*
X117875643Y-61600000D01*
X117855108Y-61352179D01*
X117794063Y-61111119D01*
X117694173Y-60883393D01*
X117640997Y-60802001D01*
X117558169Y-60675221D01*
X117558163Y-60675214D01*
X117395618Y-60498643D01*
X117345026Y-60415700D01*
X117330026Y-60319710D01*
X117352901Y-60225287D01*
X117395618Y-60161357D01*
X117409356Y-60146434D01*
X117558164Y-59984785D01*
X117559065Y-59983407D01*
X117601765Y-59918049D01*
X117694173Y-59776607D01*
X117794063Y-59548881D01*
X117855108Y-59307821D01*
X117875643Y-59060000D01*
X117855108Y-58812179D01*
X117794063Y-58571119D01*
X117694173Y-58343393D01*
X117638043Y-58257480D01*
X117558169Y-58135221D01*
X117558163Y-58135214D01*
X117395618Y-57958643D01*
X117345026Y-57875700D01*
X117330026Y-57779710D01*
X117352901Y-57685287D01*
X117395618Y-57621357D01*
X117558164Y-57444785D01*
X117694173Y-57236607D01*
X117794063Y-57008881D01*
X117855108Y-56767821D01*
X117875643Y-56520000D01*
X117855108Y-56272179D01*
X117794063Y-56031119D01*
X117694173Y-55803393D01*
X117630713Y-55706260D01*
X117558169Y-55595221D01*
X117558163Y-55595214D01*
X117395618Y-55418643D01*
X117345026Y-55335700D01*
X117330026Y-55239710D01*
X117352901Y-55145287D01*
X117395618Y-55081357D01*
X117442282Y-55030666D01*
X117558164Y-54904785D01*
X117573480Y-54881343D01*
X117624382Y-54803430D01*
X117694173Y-54696607D01*
X117794063Y-54468881D01*
X117855108Y-54227821D01*
X117875643Y-53980000D01*
X117855108Y-53732179D01*
X117794063Y-53491119D01*
X117694173Y-53263393D01*
X117640997Y-53182001D01*
X117558169Y-53055221D01*
X117558168Y-53055220D01*
X117558165Y-53055217D01*
X117558164Y-53055215D01*
X117395616Y-52878641D01*
X117345025Y-52795698D01*
X117330026Y-52699708D01*
X117352902Y-52605285D01*
X117395612Y-52541362D01*
X117558164Y-52364785D01*
X117694173Y-52156607D01*
X117794063Y-51928881D01*
X117855108Y-51687821D01*
X117875643Y-51440000D01*
X117855108Y-51192179D01*
X117794063Y-50951119D01*
X117694173Y-50723393D01*
X117624792Y-50617197D01*
X117558169Y-50515221D01*
X117558163Y-50515214D01*
X117389751Y-50332269D01*
X117389747Y-50332265D01*
X117389744Y-50332262D01*
X117389738Y-50332257D01*
X117193514Y-50179529D01*
X117193510Y-50179526D01*
X117193509Y-50179526D01*
X117046558Y-50100000D01*
X116974811Y-50061172D01*
X116739621Y-49980430D01*
X116739610Y-49980428D01*
X116494335Y-49939500D01*
X116245665Y-49939500D01*
X116000389Y-49980428D01*
X116000378Y-49980430D01*
X115765188Y-50061172D01*
X115546485Y-50179529D01*
X115350261Y-50332257D01*
X115350248Y-50332269D01*
X115181836Y-50515214D01*
X115181830Y-50515221D01*
X115045828Y-50723391D01*
X115045825Y-50723396D01*
X114945936Y-50951121D01*
X114945935Y-50951125D01*
X114884894Y-51192168D01*
X114884892Y-51192176D01*
X114864357Y-51440000D01*
X114884892Y-51687823D01*
X114884894Y-51687831D01*
X114943690Y-51920008D01*
X114945937Y-51928881D01*
X114987134Y-52022800D01*
X115045825Y-52156603D01*
X115045828Y-52156608D01*
X115181830Y-52364778D01*
X115181836Y-52364785D01*
X115344381Y-52541356D01*
X115394973Y-52624299D01*
X115409973Y-52720289D01*
X115387098Y-52814713D01*
X115344382Y-52878641D01*
X115181836Y-53055214D01*
X115181830Y-53055221D01*
X115045828Y-53263391D01*
X115045825Y-53263396D01*
X114945936Y-53491121D01*
X114945935Y-53491125D01*
X114884894Y-53732168D01*
X114884892Y-53732176D01*
X114864357Y-53980000D01*
X114884892Y-54227823D01*
X114884894Y-54227831D01*
X114939048Y-54441677D01*
X114945937Y-54468881D01*
X115045827Y-54696607D01*
X115046252Y-54697257D01*
X115181830Y-54904778D01*
X115181831Y-54904779D01*
X115181834Y-54904783D01*
X115181836Y-54904785D01*
X115296760Y-55029626D01*
X115344382Y-55081357D01*
X115394974Y-55164301D01*
X115409973Y-55260291D01*
X115387097Y-55354714D01*
X115344382Y-55418643D01*
X115181831Y-55595220D01*
X115181830Y-55595221D01*
X115045828Y-55803391D01*
X115045825Y-55803396D01*
X114945936Y-56031121D01*
X114945935Y-56031125D01*
X114884894Y-56272168D01*
X114884892Y-56272176D01*
X114864357Y-56520000D01*
X114884892Y-56767823D01*
X114884894Y-56767831D01*
X114933645Y-56960343D01*
X114945937Y-57008881D01*
X114958944Y-57038533D01*
X115044603Y-57233818D01*
X115045827Y-57236607D01*
X115056401Y-57252792D01*
X115181830Y-57444778D01*
X115181831Y-57444779D01*
X115181834Y-57444783D01*
X115181836Y-57444785D01*
X115344382Y-57621357D01*
X115394974Y-57704301D01*
X115409973Y-57800291D01*
X115387097Y-57894714D01*
X115344382Y-57958643D01*
X115181831Y-58135220D01*
X115181830Y-58135221D01*
X115045828Y-58343391D01*
X115045825Y-58343396D01*
X114945936Y-58571121D01*
X114945935Y-58571125D01*
X114884894Y-58812168D01*
X114884892Y-58812176D01*
X114864357Y-59060000D01*
X114884892Y-59307823D01*
X114884894Y-59307831D01*
X114944326Y-59542519D01*
X114945937Y-59548881D01*
X114969294Y-59602130D01*
X115045825Y-59776603D01*
X115045828Y-59776608D01*
X115181830Y-59984778D01*
X115181831Y-59984779D01*
X115181834Y-59984783D01*
X115181836Y-59984785D01*
X115330644Y-60146434D01*
X115344382Y-60161357D01*
X115394974Y-60244301D01*
X115409973Y-60340291D01*
X115387097Y-60434714D01*
X115344382Y-60498643D01*
X115181831Y-60675220D01*
X115181830Y-60675221D01*
X115045828Y-60883391D01*
X115045825Y-60883396D01*
X114945936Y-61111121D01*
X114945935Y-61111125D01*
X114884894Y-61352168D01*
X114884892Y-61352176D01*
X114864357Y-61600000D01*
X114884892Y-61847823D01*
X114884894Y-61847831D01*
X114927211Y-62014934D01*
X114945937Y-62088881D01*
X115045827Y-62316607D01*
X115058134Y-62335444D01*
X115181830Y-62524778D01*
X115181831Y-62524779D01*
X115181834Y-62524783D01*
X115181836Y-62524785D01*
X115306424Y-62660124D01*
X115344382Y-62701357D01*
X115394974Y-62784301D01*
X115409973Y-62880291D01*
X115387097Y-62974714D01*
X115344382Y-63038643D01*
X115181831Y-63215220D01*
X115181830Y-63215221D01*
X115045828Y-63423391D01*
X115045825Y-63423396D01*
X114945936Y-63651121D01*
X114945935Y-63651125D01*
X114884894Y-63892168D01*
X114884892Y-63892176D01*
X114864357Y-64140000D01*
X114884892Y-64387823D01*
X114884894Y-64387831D01*
X114945935Y-64628874D01*
X114945937Y-64628881D01*
X114964814Y-64671916D01*
X115045825Y-64856603D01*
X115045828Y-64856608D01*
X115181830Y-65064778D01*
X115181831Y-65064779D01*
X115181834Y-65064783D01*
X115181836Y-65064785D01*
X115229536Y-65116601D01*
X115344382Y-65241357D01*
X115394974Y-65324301D01*
X115409973Y-65420291D01*
X115387097Y-65514714D01*
X115344382Y-65578643D01*
X115181831Y-65755220D01*
X115181830Y-65755221D01*
X115045828Y-65963391D01*
X115045825Y-65963396D01*
X114945936Y-66191121D01*
X114945935Y-66191125D01*
X114884894Y-66432168D01*
X114884892Y-66432176D01*
X114864357Y-66680000D01*
X114884892Y-66927823D01*
X114884894Y-66927831D01*
X114945935Y-67168874D01*
X114945936Y-67168878D01*
X115045825Y-67396603D01*
X115045828Y-67396608D01*
X115181830Y-67604778D01*
X115181836Y-67604785D01*
X115344381Y-67781356D01*
X115394973Y-67864299D01*
X115409973Y-67960289D01*
X115387098Y-68054713D01*
X115344382Y-68118641D01*
X115181836Y-68295214D01*
X115181830Y-68295221D01*
X115045828Y-68503391D01*
X115045825Y-68503396D01*
X114945936Y-68731121D01*
X114945935Y-68731125D01*
X114884894Y-68972168D01*
X114884892Y-68972176D01*
X114864357Y-69220000D01*
X114884892Y-69467823D01*
X114884894Y-69467831D01*
X114934532Y-69663844D01*
X114945937Y-69708881D01*
X114960189Y-69741372D01*
X115045825Y-69936603D01*
X115045828Y-69936608D01*
X115181830Y-70144778D01*
X115181831Y-70144779D01*
X115181834Y-70144783D01*
X115181836Y-70144785D01*
X115344382Y-70321357D01*
X115394974Y-70404301D01*
X115409973Y-70500291D01*
X115387097Y-70594714D01*
X115344382Y-70658642D01*
X115319874Y-70685266D01*
X115181831Y-70835220D01*
X115181830Y-70835221D01*
X115045828Y-71043391D01*
X115045825Y-71043396D01*
X114945936Y-71271121D01*
X114945935Y-71271125D01*
X114884894Y-71512168D01*
X114884892Y-71512176D01*
X114864357Y-71760000D01*
X113870500Y-71760000D01*
X113870500Y-55422811D01*
X113873129Y-55386721D01*
X113875289Y-55371977D01*
X113872489Y-55339974D01*
X113870974Y-55322647D01*
X113870500Y-55311793D01*
X113870500Y-55306290D01*
X113866693Y-55273723D01*
X113865451Y-55259526D01*
X113859999Y-55197203D01*
X113859996Y-55197194D01*
X113857779Y-55186454D01*
X113855240Y-55175742D01*
X113828974Y-55103577D01*
X113804814Y-55030666D01*
X113800157Y-55020679D01*
X113795238Y-55010885D01*
X113753034Y-54946716D01*
X113753033Y-54946716D01*
X113712712Y-54881344D01*
X113712711Y-54881343D01*
X113705911Y-54872742D01*
X113698833Y-54864308D01*
X113698830Y-54864304D01*
X113642982Y-54811614D01*
X105002161Y-46170794D01*
X104978504Y-46143417D01*
X104969609Y-46131469D01*
X104969606Y-46131466D01*
X104931693Y-46099653D01*
X104923690Y-46092321D01*
X104919781Y-46088413D01*
X104919780Y-46088412D01*
X104919777Y-46088409D01*
X104894040Y-46068059D01*
X104835214Y-46018698D01*
X104835211Y-46018696D01*
X104826024Y-46012654D01*
X104816678Y-46006890D01*
X104816677Y-46006889D01*
X104747057Y-45974424D01*
X104678433Y-45939960D01*
X104678432Y-45939959D01*
X104678429Y-45939958D01*
X104668099Y-45936197D01*
X104657673Y-45932743D01*
X104582434Y-45917207D01*
X104507725Y-45899500D01*
X104496813Y-45898225D01*
X104485858Y-45897266D01*
X104485856Y-45897266D01*
X104485853Y-45897266D01*
X104409082Y-45899500D01*
X102317293Y-45899500D01*
X102222005Y-45880546D01*
X102141223Y-45826570D01*
X102087247Y-45745788D01*
X102068293Y-45650500D01*
X102087247Y-45555212D01*
X102141223Y-45474430D01*
X102181116Y-45442037D01*
X102183505Y-45440476D01*
X102183509Y-45440474D01*
X102183514Y-45440470D01*
X102183516Y-45440469D01*
X102319903Y-45334314D01*
X102379744Y-45287738D01*
X102548164Y-45104785D01*
X102684173Y-44896607D01*
X102779186Y-44680000D01*
X105444592Y-44680000D01*
X105464202Y-44966689D01*
X105464203Y-44966692D01*
X105473601Y-45011917D01*
X105522666Y-45248032D01*
X105592135Y-45443499D01*
X105618897Y-45518800D01*
X105618898Y-45518802D01*
X105704126Y-45683283D01*
X105751099Y-45773936D01*
X105916811Y-46008698D01*
X106112947Y-46218708D01*
X106234587Y-46317669D01*
X106335853Y-46400055D01*
X106520146Y-46512127D01*
X106581375Y-46549361D01*
X106844942Y-46663844D01*
X107121642Y-46741371D01*
X107121646Y-46741371D01*
X107121648Y-46741372D01*
X107201429Y-46752337D01*
X107406322Y-46780500D01*
X107406330Y-46780500D01*
X107693670Y-46780500D01*
X107693678Y-46780500D01*
X107978358Y-46741371D01*
X108255058Y-46663844D01*
X108518625Y-46549361D01*
X108764147Y-46400055D01*
X108987053Y-46218708D01*
X109183189Y-46008698D01*
X109348901Y-45773936D01*
X109481104Y-45518797D01*
X109577334Y-45248032D01*
X109635798Y-44966686D01*
X109655408Y-44680000D01*
X109635798Y-44393314D01*
X109577334Y-44111968D01*
X109481104Y-43841203D01*
X109348901Y-43586064D01*
X109183189Y-43351302D01*
X108987053Y-43141292D01*
X108764147Y-42959945D01*
X108764146Y-42959944D01*
X108518626Y-42810639D01*
X108255057Y-42696155D01*
X107978351Y-42618627D01*
X107693681Y-42579500D01*
X107693678Y-42579500D01*
X107406322Y-42579500D01*
X107406318Y-42579500D01*
X107121648Y-42618627D01*
X106844942Y-42696155D01*
X106581373Y-42810639D01*
X106335853Y-42959944D01*
X106112949Y-43141290D01*
X105916810Y-43351303D01*
X105916809Y-43351304D01*
X105751098Y-43586065D01*
X105618898Y-43841197D01*
X105618897Y-43841199D01*
X105522666Y-44111968D01*
X105464203Y-44393307D01*
X105464202Y-44393310D01*
X105444592Y-44680000D01*
X102779186Y-44680000D01*
X102784063Y-44668881D01*
X102845108Y-44427821D01*
X102865643Y-44180000D01*
X102845108Y-43932179D01*
X102784063Y-43691119D01*
X102684173Y-43463393D01*
X102610941Y-43351302D01*
X102548169Y-43255221D01*
X102548163Y-43255214D01*
X102520582Y-43225253D01*
X102426212Y-43122740D01*
X102375621Y-43039798D01*
X102360621Y-42943808D01*
X102383496Y-42849385D01*
X102433339Y-42778028D01*
X103577939Y-41633430D01*
X103658720Y-41579454D01*
X103754008Y-41560500D01*
X122975992Y-41560500D01*
X123071280Y-41579454D01*
X123152062Y-41633430D01*
X138517834Y-56999202D01*
X138541491Y-57026578D01*
X138550383Y-57038521D01*
X138550390Y-57038530D01*
X138550391Y-57038531D01*
X138550393Y-57038533D01*
X138588305Y-57070345D01*
X138596307Y-57077677D01*
X138600218Y-57081587D01*
X138600223Y-57081591D01*
X138625959Y-57101940D01*
X138684786Y-57151302D01*
X138684788Y-57151303D01*
X138693971Y-57157342D01*
X138703320Y-57163109D01*
X138703323Y-57163111D01*
X138734217Y-57177517D01*
X138772943Y-57195576D01*
X138841558Y-57230036D01*
X138841561Y-57230037D01*
X138841567Y-57230040D01*
X138841572Y-57230041D01*
X138851949Y-57233818D01*
X138862329Y-57237258D01*
X138917988Y-57248749D01*
X138937565Y-57252792D01*
X138964431Y-57259159D01*
X139012273Y-57270499D01*
X139012276Y-57270499D01*
X139012279Y-57270500D01*
X139012282Y-57270500D01*
X139023177Y-57271773D01*
X139034134Y-57272731D01*
X139034144Y-57272734D01*
X139108617Y-57270566D01*
X139110918Y-57270500D01*
X142873218Y-57270500D01*
X142968506Y-57289454D01*
X143049288Y-57343430D01*
X143081673Y-57383311D01*
X143121831Y-57444778D01*
X143121831Y-57444779D01*
X143121834Y-57444783D01*
X143121836Y-57444785D01*
X143284382Y-57621357D01*
X143334974Y-57704301D01*
X143349973Y-57800291D01*
X143327097Y-57894714D01*
X143284382Y-57958643D01*
X143121831Y-58135220D01*
X143121830Y-58135221D01*
X142985828Y-58343391D01*
X142985825Y-58343396D01*
X142885936Y-58571121D01*
X142885935Y-58571125D01*
X142824894Y-58812168D01*
X142824892Y-58812176D01*
X142805789Y-59042713D01*
X142804357Y-59060000D01*
X142809936Y-59127329D01*
X142824892Y-59307823D01*
X142824894Y-59307831D01*
X142884326Y-59542519D01*
X142885937Y-59548881D01*
X142909294Y-59602130D01*
X142985825Y-59776603D01*
X142985828Y-59776608D01*
X143121830Y-59984778D01*
X143121831Y-59984779D01*
X143121834Y-59984783D01*
X143121836Y-59984785D01*
X143270644Y-60146434D01*
X143284382Y-60161357D01*
X143334974Y-60244301D01*
X143349973Y-60340291D01*
X143327097Y-60434714D01*
X143284382Y-60498643D01*
X143121831Y-60675220D01*
X143121830Y-60675221D01*
X142985828Y-60883391D01*
X142985825Y-60883396D01*
X142885936Y-61111121D01*
X142885935Y-61111125D01*
X142824894Y-61352168D01*
X142824892Y-61352176D01*
X142804357Y-61600000D01*
X142824892Y-61847823D01*
X142824894Y-61847831D01*
X142867211Y-62014934D01*
X142885937Y-62088881D01*
X142985827Y-62316607D01*
X142998134Y-62335444D01*
X143121830Y-62524778D01*
X143121836Y-62524785D01*
X143284381Y-62701356D01*
X143334973Y-62784299D01*
X143349973Y-62880289D01*
X143327098Y-62974713D01*
X143284382Y-63038641D01*
X143121836Y-63215214D01*
X143121830Y-63215221D01*
X142985828Y-63423391D01*
X142985825Y-63423396D01*
X142885936Y-63651121D01*
X142885935Y-63651125D01*
X142824894Y-63892168D01*
X142824892Y-63892176D01*
X142804357Y-64140000D01*
X142824892Y-64387823D01*
X142824894Y-64387831D01*
X142885935Y-64628874D01*
X142885937Y-64628881D01*
X142904814Y-64671916D01*
X142985825Y-64856603D01*
X142985828Y-64856608D01*
X143121830Y-65064778D01*
X143121836Y-65064785D01*
X143290248Y-65247730D01*
X143290252Y-65247733D01*
X143290256Y-65247738D01*
X143290260Y-65247741D01*
X143290261Y-65247742D01*
X143486485Y-65400470D01*
X143486487Y-65400471D01*
X143486491Y-65400474D01*
X143705190Y-65518828D01*
X143774736Y-65542703D01*
X143940378Y-65599569D01*
X143940382Y-65599569D01*
X143940386Y-65599571D01*
X144185665Y-65640500D01*
X144434335Y-65640500D01*
X144679614Y-65599571D01*
X144679618Y-65599569D01*
X144679621Y-65599569D01*
X144769077Y-65568858D01*
X144914810Y-65518828D01*
X145133509Y-65400474D01*
X145329744Y-65247738D01*
X145498164Y-65064785D01*
X145634173Y-64856607D01*
X145734063Y-64628881D01*
X145795108Y-64387821D01*
X145815643Y-64140000D01*
X145795108Y-63892179D01*
X145734063Y-63651119D01*
X145634173Y-63423393D01*
X145547350Y-63290500D01*
X145498169Y-63215221D01*
X145498163Y-63215214D01*
X145398281Y-63106713D01*
X145335617Y-63038642D01*
X145285026Y-62955700D01*
X145270026Y-62859710D01*
X145292901Y-62765287D01*
X145335618Y-62701357D01*
X145373576Y-62660124D01*
X145497475Y-62525532D01*
X145575955Y-62468265D01*
X145670379Y-62445390D01*
X145766369Y-62460390D01*
X145849312Y-62510982D01*
X145856738Y-62518107D01*
X146846569Y-63507937D01*
X146900546Y-63588719D01*
X146919500Y-63684007D01*
X146919500Y-66177188D01*
X146916871Y-66213275D01*
X146914711Y-66228018D01*
X146914711Y-66228022D01*
X146919026Y-66277352D01*
X146919500Y-66288206D01*
X146919500Y-66293708D01*
X146923306Y-66326275D01*
X146930000Y-66402796D01*
X146932213Y-66413515D01*
X146934759Y-66424255D01*
X146959370Y-66491877D01*
X146961025Y-66496422D01*
X146985186Y-66569335D01*
X146989850Y-66579338D01*
X146994759Y-66589111D01*
X146994763Y-66589117D01*
X147036965Y-66653283D01*
X147077288Y-66718656D01*
X147077290Y-66718658D01*
X147084096Y-66727267D01*
X147091171Y-66735698D01*
X147147017Y-66788386D01*
X148477834Y-68119202D01*
X148501491Y-68146578D01*
X148510383Y-68158521D01*
X148510390Y-68158530D01*
X148510391Y-68158531D01*
X148510393Y-68158533D01*
X148548305Y-68190345D01*
X148556307Y-68197677D01*
X148560218Y-68201587D01*
X148560223Y-68201591D01*
X148585959Y-68221940D01*
X148644786Y-68271302D01*
X148644788Y-68271303D01*
X148653971Y-68277342D01*
X148663320Y-68283109D01*
X148663323Y-68283111D01*
X148689278Y-68295214D01*
X148732943Y-68315576D01*
X148801558Y-68350036D01*
X148801561Y-68350037D01*
X148801567Y-68350040D01*
X148801572Y-68350041D01*
X148811949Y-68353818D01*
X148822329Y-68357258D01*
X148877988Y-68368749D01*
X148897565Y-68372792D01*
X148907894Y-68375240D01*
X148972273Y-68390499D01*
X148972276Y-68390499D01*
X148972279Y-68390500D01*
X148972282Y-68390500D01*
X148983177Y-68391773D01*
X148994134Y-68392731D01*
X148994144Y-68392734D01*
X149068617Y-68390566D01*
X149070918Y-68390500D01*
X151157188Y-68390500D01*
X151193276Y-68393128D01*
X151208023Y-68395289D01*
X151240308Y-68392464D01*
X151257353Y-68390974D01*
X151268207Y-68390500D01*
X151273709Y-68390500D01*
X151306277Y-68386693D01*
X151357289Y-68382230D01*
X151382797Y-68379999D01*
X151382798Y-68379998D01*
X151393537Y-68377781D01*
X151404250Y-68375241D01*
X151404255Y-68375241D01*
X151476423Y-68348974D01*
X151549334Y-68324814D01*
X151549340Y-68324809D01*
X151559305Y-68320164D01*
X151569113Y-68315238D01*
X151569117Y-68315237D01*
X151633283Y-68273034D01*
X151698656Y-68232712D01*
X151698659Y-68232708D01*
X151707261Y-68225906D01*
X151715688Y-68218834D01*
X151715696Y-68218830D01*
X151768386Y-68162981D01*
X152904205Y-67027160D01*
X152931575Y-67003509D01*
X152943530Y-66994610D01*
X152975369Y-66956664D01*
X152982689Y-66948676D01*
X152986590Y-66944777D01*
X153006927Y-66919055D01*
X153056302Y-66860214D01*
X153056304Y-66860209D01*
X153062330Y-66851049D01*
X153068108Y-66841680D01*
X153068111Y-66841677D01*
X153100569Y-66772069D01*
X153135040Y-66703433D01*
X153135041Y-66703427D01*
X153138804Y-66693089D01*
X153142252Y-66682680D01*
X153142256Y-66682673D01*
X153157784Y-66607467D01*
X153175500Y-66532721D01*
X153175500Y-66532717D01*
X153176482Y-66528574D01*
X153216901Y-66440225D01*
X153288053Y-66374070D01*
X153379105Y-66340179D01*
X153392137Y-66338427D01*
X153432483Y-66334091D01*
X153567331Y-66283796D01*
X153682546Y-66197546D01*
X153768796Y-66082331D01*
X153819091Y-65947483D01*
X153822811Y-65912882D01*
X153851842Y-65820167D01*
X153914144Y-65745618D01*
X154000233Y-65700586D01*
X154070384Y-65690500D01*
X155389579Y-65690500D01*
X155484867Y-65709454D01*
X155565649Y-65763430D01*
X155619625Y-65844212D01*
X155638579Y-65939500D01*
X155638578Y-65940172D01*
X155623410Y-71558018D01*
X155624047Y-71576570D01*
X155625036Y-71595231D01*
X155625037Y-71595239D01*
X155655616Y-71735821D01*
X155655618Y-71735828D01*
X155680033Y-71801289D01*
X155680035Y-71801294D01*
X155748987Y-71927573D01*
X155748990Y-71927578D01*
X155845843Y-72024434D01*
X155899818Y-72105216D01*
X155918770Y-72200505D01*
X155899814Y-72295792D01*
X155845836Y-72376573D01*
X155765054Y-72430548D01*
X155669770Y-72449500D01*
X153761921Y-72449500D01*
X153666633Y-72430546D01*
X153585851Y-72376570D01*
X153568977Y-72357608D01*
X153443656Y-72232288D01*
X153392127Y-72200505D01*
X153294334Y-72140186D01*
X153294332Y-72140185D01*
X153294330Y-72140184D01*
X153294332Y-72140184D01*
X153127802Y-72085002D01*
X153127798Y-72085001D01*
X153127797Y-72085001D01*
X153025009Y-72074500D01*
X153025005Y-72074500D01*
X152299993Y-72074500D01*
X152197199Y-72085001D01*
X152030667Y-72140185D01*
X151881346Y-72232286D01*
X151757286Y-72356346D01*
X151665184Y-72505668D01*
X151610002Y-72672197D01*
X151610001Y-72672204D01*
X151599500Y-72774988D01*
X151599500Y-74125006D01*
X151610001Y-74227800D01*
X151665185Y-74394332D01*
X151744812Y-74523430D01*
X151757288Y-74543656D01*
X151881344Y-74667712D01*
X152030666Y-74759814D01*
X152030669Y-74759815D01*
X152030667Y-74759815D01*
X152194310Y-74814040D01*
X152197203Y-74814999D01*
X152299991Y-74825500D01*
X153025008Y-74825499D01*
X153127797Y-74814999D01*
X153294334Y-74759814D01*
X153443656Y-74667712D01*
X153541402Y-74569966D01*
X153577968Y-74533401D01*
X153579037Y-74534470D01*
X153640570Y-74482072D01*
X153733013Y-74452184D01*
X153761921Y-74450500D01*
X155365926Y-74450500D01*
X155461214Y-74469454D01*
X155541996Y-74523430D01*
X155595972Y-74604212D01*
X155614926Y-74699500D01*
X155614925Y-74700172D01*
X155610171Y-76461172D01*
X155590960Y-76556409D01*
X155536766Y-76637044D01*
X155455839Y-76690802D01*
X155361172Y-76709500D01*
X154070384Y-76709500D01*
X153975096Y-76690546D01*
X153894314Y-76636570D01*
X153840338Y-76555788D01*
X153822810Y-76487114D01*
X153819667Y-76457873D01*
X153819091Y-76452517D01*
X153768796Y-76317669D01*
X153682546Y-76202454D01*
X153567331Y-76116204D01*
X153487117Y-76086286D01*
X153432481Y-76065908D01*
X153372873Y-76059500D01*
X151477134Y-76059500D01*
X151477130Y-76059500D01*
X151477128Y-76059501D01*
X151464314Y-76060878D01*
X151417519Y-76065908D01*
X151417515Y-76065909D01*
X151282670Y-76116203D01*
X151167455Y-76202453D01*
X151167449Y-76202459D01*
X151091988Y-76303262D01*
X151019710Y-76368185D01*
X150928089Y-76400506D01*
X150831073Y-76395305D01*
X150743433Y-76353373D01*
X150739716Y-76350536D01*
X150653631Y-76283533D01*
X150653619Y-76283526D01*
X150618486Y-76264512D01*
X150543704Y-76202489D01*
X150498350Y-76116570D01*
X150488000Y-76045525D01*
X150488000Y-74801507D01*
X150506954Y-74706219D01*
X150560927Y-74625440D01*
X150642712Y-74543656D01*
X150734814Y-74394334D01*
X150789999Y-74227797D01*
X150800500Y-74125009D01*
X150800499Y-72774992D01*
X150789999Y-72672203D01*
X150734814Y-72505666D01*
X150642712Y-72356344D01*
X150518656Y-72232288D01*
X150369334Y-72140186D01*
X150369332Y-72140185D01*
X150369330Y-72140184D01*
X150369332Y-72140184D01*
X150202802Y-72085002D01*
X150202798Y-72085001D01*
X150202797Y-72085001D01*
X150100009Y-72074500D01*
X150100005Y-72074500D01*
X149374993Y-72074500D01*
X149272199Y-72085001D01*
X149105667Y-72140185D01*
X148956346Y-72232286D01*
X148956344Y-72232287D01*
X148956344Y-72232288D01*
X148832288Y-72356344D01*
X148832286Y-72356346D01*
X148825570Y-72363063D01*
X148744788Y-72417039D01*
X148649500Y-72435993D01*
X148554212Y-72417039D01*
X148473430Y-72363063D01*
X148419454Y-72282281D01*
X148400500Y-72186993D01*
X148400500Y-71142811D01*
X148403129Y-71106721D01*
X148405289Y-71091977D01*
X148400973Y-71042652D01*
X148400500Y-71031805D01*
X148400500Y-71026295D01*
X148396691Y-70993703D01*
X148389998Y-70917205D01*
X148387772Y-70906425D01*
X148385241Y-70895746D01*
X148372457Y-70860623D01*
X148358969Y-70823563D01*
X148334814Y-70750666D01*
X148330153Y-70740671D01*
X148325238Y-70730885D01*
X148283034Y-70666716D01*
X148283033Y-70666715D01*
X148242712Y-70601344D01*
X148242711Y-70601343D01*
X148235911Y-70592742D01*
X148228833Y-70584308D01*
X148228830Y-70584304D01*
X148172982Y-70531614D01*
X146382162Y-68740795D01*
X146358506Y-68713419D01*
X146349611Y-68701471D01*
X146349606Y-68701466D01*
X146311693Y-68669653D01*
X146303690Y-68662321D01*
X146299781Y-68658413D01*
X146299780Y-68658412D01*
X146299777Y-68658409D01*
X146274040Y-68638059D01*
X146215214Y-68588698D01*
X146215211Y-68588696D01*
X146206024Y-68582654D01*
X146196678Y-68576890D01*
X146196677Y-68576889D01*
X146127057Y-68544424D01*
X146058433Y-68509960D01*
X146058432Y-68509959D01*
X146058429Y-68509958D01*
X146048099Y-68506197D01*
X146037673Y-68502743D01*
X145962434Y-68487207D01*
X145887725Y-68469500D01*
X145876813Y-68468225D01*
X145865858Y-68467266D01*
X145865856Y-68467266D01*
X145865853Y-68467266D01*
X145789082Y-68469500D01*
X145746782Y-68469500D01*
X145651494Y-68450546D01*
X145570712Y-68396570D01*
X145538327Y-68356689D01*
X145498168Y-68295221D01*
X145498163Y-68295214D01*
X145329751Y-68112269D01*
X145329747Y-68112265D01*
X145329744Y-68112262D01*
X145329738Y-68112257D01*
X145133514Y-67959529D01*
X145133510Y-67959526D01*
X145133509Y-67959526D01*
X145056502Y-67917852D01*
X144914811Y-67841172D01*
X144679621Y-67760430D01*
X144679610Y-67760428D01*
X144434335Y-67719500D01*
X144185665Y-67719500D01*
X143940389Y-67760428D01*
X143940378Y-67760430D01*
X143705188Y-67841172D01*
X143486485Y-67959529D01*
X143290261Y-68112257D01*
X143290248Y-68112269D01*
X143121836Y-68295214D01*
X143121830Y-68295221D01*
X142985828Y-68503391D01*
X142985825Y-68503396D01*
X142885936Y-68731121D01*
X142885935Y-68731125D01*
X142824894Y-68972168D01*
X142824892Y-68972176D01*
X142804357Y-69219999D01*
X142824892Y-69467823D01*
X142824894Y-69467831D01*
X142874532Y-69663844D01*
X142885937Y-69708881D01*
X142900189Y-69741372D01*
X142985825Y-69936603D01*
X142985828Y-69936608D01*
X143121830Y-70144778D01*
X143121831Y-70144779D01*
X143121834Y-70144783D01*
X143121836Y-70144785D01*
X143284382Y-70321357D01*
X143334974Y-70404301D01*
X143349973Y-70500291D01*
X143327097Y-70594714D01*
X143284382Y-70658642D01*
X143259874Y-70685266D01*
X143121831Y-70835220D01*
X143121830Y-70835221D01*
X142985828Y-71043391D01*
X142985825Y-71043396D01*
X142885936Y-71271121D01*
X142885935Y-71271125D01*
X142824894Y-71512168D01*
X142824892Y-71512176D01*
X142804357Y-71760000D01*
X142824892Y-72007823D01*
X142824894Y-72007831D01*
X142885935Y-72248874D01*
X142885936Y-72248878D01*
X142965623Y-72430548D01*
X142985827Y-72476607D01*
X143012414Y-72517302D01*
X143121830Y-72684778D01*
X143121831Y-72684779D01*
X143121834Y-72684783D01*
X143121836Y-72684785D01*
X143284382Y-72861357D01*
X143334974Y-72944301D01*
X143349973Y-73040291D01*
X143327097Y-73134714D01*
X143284382Y-73198643D01*
X143121831Y-73375220D01*
X143121830Y-73375221D01*
X142985828Y-73583391D01*
X142985825Y-73583396D01*
X142885936Y-73811121D01*
X142885935Y-73811125D01*
X142824894Y-74052168D01*
X142824892Y-74052176D01*
X142804357Y-74300000D01*
X142824892Y-74547823D01*
X142824894Y-74547831D01*
X142865004Y-74706219D01*
X142885937Y-74788881D01*
X142912366Y-74849132D01*
X142972729Y-74986748D01*
X142985827Y-75016607D01*
X143012414Y-75057302D01*
X143121830Y-75224778D01*
X143121831Y-75224779D01*
X143121834Y-75224783D01*
X143121836Y-75224785D01*
X143265116Y-75380429D01*
X143284382Y-75401357D01*
X143334974Y-75484301D01*
X143349973Y-75580291D01*
X143327097Y-75674714D01*
X143284382Y-75738643D01*
X143121831Y-75915220D01*
X143121830Y-75915221D01*
X142985828Y-76123391D01*
X142985825Y-76123396D01*
X142885936Y-76351121D01*
X142885935Y-76351125D01*
X142824894Y-76592168D01*
X142824892Y-76592176D01*
X142804357Y-76840000D01*
X142824892Y-77087823D01*
X142824894Y-77087831D01*
X142885935Y-77328874D01*
X142885937Y-77328881D01*
X142898944Y-77358533D01*
X142984603Y-77553818D01*
X142985827Y-77556607D01*
X142996401Y-77572792D01*
X143121830Y-77764778D01*
X143121831Y-77764779D01*
X143121834Y-77764783D01*
X143121836Y-77764785D01*
X143284382Y-77941357D01*
X143334974Y-78024301D01*
X143349973Y-78120291D01*
X143327097Y-78214714D01*
X143284382Y-78278643D01*
X143121831Y-78455220D01*
X143121830Y-78455221D01*
X142985828Y-78663391D01*
X142985825Y-78663396D01*
X142885936Y-78891121D01*
X142885935Y-78891125D01*
X142824894Y-79132168D01*
X142824892Y-79132176D01*
X142809936Y-79312672D01*
X142804357Y-79380000D01*
X142806047Y-79400390D01*
X142824892Y-79627823D01*
X142824894Y-79627831D01*
X142884265Y-79862279D01*
X142885937Y-79868881D01*
X142892632Y-79884144D01*
X142985825Y-80096603D01*
X142985828Y-80096608D01*
X143121830Y-80304778D01*
X143121831Y-80304779D01*
X143121834Y-80304783D01*
X143121836Y-80304785D01*
X143262766Y-80457876D01*
X143284382Y-80481357D01*
X143334974Y-80564301D01*
X143349973Y-80660291D01*
X143327097Y-80754714D01*
X143284382Y-80818642D01*
X143257499Y-80847846D01*
X143121831Y-80995220D01*
X143121830Y-80995221D01*
X142985828Y-81203391D01*
X142985825Y-81203396D01*
X142885936Y-81431121D01*
X142885935Y-81431125D01*
X142824894Y-81672168D01*
X142824892Y-81672176D01*
X142804357Y-81920000D01*
X142824892Y-82167823D01*
X142824894Y-82167831D01*
X142885935Y-82408874D01*
X142885936Y-82408878D01*
X142985825Y-82636603D01*
X142985828Y-82636608D01*
X143121830Y-82844778D01*
X143121836Y-82844785D01*
X143290248Y-83027730D01*
X143290250Y-83027732D01*
X143290256Y-83027738D01*
X143290260Y-83027741D01*
X143290261Y-83027742D01*
X143486485Y-83180470D01*
X143486487Y-83180471D01*
X143486491Y-83180474D01*
X143705190Y-83298828D01*
X143774736Y-83322703D01*
X143940378Y-83379569D01*
X143940382Y-83379569D01*
X143940386Y-83379571D01*
X144185665Y-83420500D01*
X144434335Y-83420500D01*
X144679614Y-83379571D01*
X144679618Y-83379569D01*
X144679621Y-83379569D01*
X144807589Y-83335637D01*
X144914810Y-83298828D01*
X145133509Y-83180474D01*
X145329744Y-83027738D01*
X145357305Y-82997798D01*
X145435784Y-82940531D01*
X145530207Y-82917654D01*
X145626197Y-82932653D01*
X145709141Y-82983244D01*
X145766410Y-83061725D01*
X145789287Y-83156148D01*
X145789500Y-83166441D01*
X145789500Y-85753558D01*
X145770546Y-85848846D01*
X145716570Y-85929628D01*
X145635788Y-85983604D01*
X145540500Y-86002558D01*
X145445212Y-85983604D01*
X145364430Y-85929628D01*
X145357305Y-85922201D01*
X145329751Y-85892269D01*
X145329746Y-85892264D01*
X145329744Y-85892262D01*
X145329738Y-85892257D01*
X145133514Y-85739529D01*
X145133510Y-85739526D01*
X145133509Y-85739526D01*
X145019335Y-85677738D01*
X144914811Y-85621172D01*
X144679621Y-85540430D01*
X144679610Y-85540428D01*
X144434335Y-85499500D01*
X144185665Y-85499500D01*
X143940389Y-85540428D01*
X143940378Y-85540430D01*
X143705188Y-85621172D01*
X143486485Y-85739529D01*
X143290261Y-85892257D01*
X143290248Y-85892269D01*
X143121836Y-86075214D01*
X143121830Y-86075221D01*
X142985828Y-86283391D01*
X142985825Y-86283396D01*
X142885936Y-86511121D01*
X142885935Y-86511125D01*
X142824894Y-86752168D01*
X142824892Y-86752176D01*
X142804357Y-87000000D01*
X142824892Y-87247823D01*
X142824894Y-87247831D01*
X142885935Y-87488874D01*
X142885936Y-87488878D01*
X142985825Y-87716603D01*
X142985828Y-87716608D01*
X143121830Y-87924778D01*
X143121836Y-87924785D01*
X143290248Y-88107730D01*
X143290250Y-88107732D01*
X143290256Y-88107738D01*
X143290260Y-88107741D01*
X143290261Y-88107742D01*
X143486485Y-88260470D01*
X143486487Y-88260471D01*
X143486491Y-88260474D01*
X143705190Y-88378828D01*
X143774736Y-88402703D01*
X143940378Y-88459569D01*
X143940382Y-88459569D01*
X143940386Y-88459571D01*
X144185665Y-88500500D01*
X144434335Y-88500500D01*
X144679614Y-88459571D01*
X144679618Y-88459569D01*
X144679621Y-88459569D01*
X144814507Y-88413262D01*
X144914810Y-88378828D01*
X145133509Y-88260474D01*
X145329744Y-88107738D01*
X145357305Y-88077798D01*
X145435784Y-88020531D01*
X145530207Y-87997654D01*
X145626197Y-88012653D01*
X145709141Y-88063244D01*
X145766410Y-88141725D01*
X145789287Y-88236148D01*
X145789500Y-88246441D01*
X145789500Y-90957188D01*
X145786871Y-90993275D01*
X145784711Y-91008018D01*
X145784711Y-91008022D01*
X145789026Y-91057352D01*
X145789500Y-91068206D01*
X145789500Y-91073708D01*
X145793306Y-91106275D01*
X145800000Y-91182796D01*
X145802213Y-91193515D01*
X145804759Y-91204255D01*
X145831025Y-91276422D01*
X145855186Y-91349335D01*
X145859850Y-91359338D01*
X145864759Y-91369111D01*
X145864763Y-91369117D01*
X145906965Y-91433283D01*
X145947288Y-91498656D01*
X145947290Y-91498658D01*
X145954096Y-91507267D01*
X145961171Y-91515698D01*
X146017017Y-91568386D01*
X146987834Y-92539202D01*
X147011491Y-92566578D01*
X147020383Y-92578521D01*
X147020390Y-92578530D01*
X147020391Y-92578531D01*
X147020393Y-92578533D01*
X147058305Y-92610345D01*
X147066307Y-92617677D01*
X147070218Y-92621587D01*
X147070223Y-92621591D01*
X147095959Y-92641940D01*
X147154786Y-92691302D01*
X147154788Y-92691303D01*
X147163971Y-92697342D01*
X147173320Y-92703109D01*
X147173323Y-92703111D01*
X147210198Y-92720306D01*
X147242943Y-92735576D01*
X147311558Y-92770036D01*
X147311561Y-92770037D01*
X147311567Y-92770040D01*
X147311572Y-92770041D01*
X147321949Y-92773818D01*
X147332329Y-92777258D01*
X147387988Y-92788749D01*
X147407565Y-92792792D01*
X147417894Y-92795240D01*
X147482273Y-92810499D01*
X147482276Y-92810499D01*
X147482279Y-92810500D01*
X147482282Y-92810500D01*
X147493177Y-92811773D01*
X147504134Y-92812731D01*
X147504144Y-92812734D01*
X147578617Y-92810566D01*
X147580918Y-92810500D01*
X151137188Y-92810500D01*
X151173276Y-92813128D01*
X151188023Y-92815289D01*
X151220308Y-92812464D01*
X151237353Y-92810974D01*
X151248207Y-92810500D01*
X151253709Y-92810500D01*
X151286277Y-92806693D01*
X151337289Y-92802230D01*
X151362797Y-92799999D01*
X151362798Y-92799998D01*
X151373537Y-92797781D01*
X151384250Y-92795241D01*
X151384255Y-92795241D01*
X151456423Y-92768974D01*
X151529334Y-92744814D01*
X151529340Y-92744809D01*
X151539305Y-92740164D01*
X151549113Y-92735238D01*
X151549117Y-92735237D01*
X151613283Y-92693034D01*
X151678656Y-92652712D01*
X151678659Y-92652708D01*
X151687261Y-92645906D01*
X151695688Y-92638834D01*
X151695696Y-92638830D01*
X151748385Y-92582982D01*
X152934209Y-91397157D01*
X152961579Y-91373506D01*
X152973530Y-91364610D01*
X153005363Y-91326671D01*
X153012683Y-91318683D01*
X153016591Y-91314777D01*
X153016600Y-91314766D01*
X153036941Y-91289040D01*
X153059424Y-91262244D01*
X153086302Y-91230214D01*
X153086305Y-91230209D01*
X153092332Y-91221045D01*
X153098108Y-91211681D01*
X153098108Y-91211680D01*
X153098111Y-91211677D01*
X153124172Y-91155788D01*
X153130576Y-91142056D01*
X153147808Y-91107745D01*
X153207512Y-91031100D01*
X153292003Y-90983136D01*
X153370321Y-90970499D01*
X153402866Y-90970499D01*
X153402872Y-90970499D01*
X153462483Y-90964091D01*
X153597331Y-90913796D01*
X153712546Y-90827546D01*
X153798796Y-90712331D01*
X153849091Y-90577483D01*
X153854962Y-90522880D01*
X153883994Y-90430165D01*
X153946297Y-90355617D01*
X154032386Y-90310585D01*
X154102535Y-90300500D01*
X155323130Y-90300500D01*
X155418418Y-90319454D01*
X155499200Y-90373430D01*
X155553176Y-90454212D01*
X155572130Y-90549500D01*
X155572129Y-90550172D01*
X155558113Y-95741172D01*
X155538902Y-95836409D01*
X155484708Y-95917044D01*
X155403781Y-95970802D01*
X155309114Y-95989500D01*
X117749500Y-95989500D01*
X117654212Y-95970546D01*
X117573430Y-95916570D01*
X117519454Y-95835788D01*
X117500500Y-95740500D01*
X117500500Y-88084353D01*
X117519454Y-87989065D01*
X117553010Y-87931406D01*
X117558169Y-87924778D01*
X117613754Y-87839698D01*
X117694173Y-87716607D01*
X117794063Y-87488881D01*
X117855108Y-87247821D01*
X117875643Y-87000000D01*
X117855108Y-86752179D01*
X117794063Y-86511119D01*
X117694173Y-86283393D01*
X117640997Y-86202001D01*
X117558169Y-86075221D01*
X117558163Y-86075214D01*
X117389751Y-85892269D01*
X117389746Y-85892264D01*
X117389744Y-85892262D01*
X117389738Y-85892257D01*
X117193514Y-85739529D01*
X117193510Y-85739526D01*
X117193509Y-85739526D01*
X117079335Y-85677738D01*
X116974811Y-85621172D01*
X116739621Y-85540430D01*
X116739610Y-85540428D01*
X116494335Y-85499500D01*
X116245665Y-85499500D01*
X116000389Y-85540428D01*
X116000378Y-85540430D01*
X115765188Y-85621172D01*
X115546485Y-85739529D01*
X115350255Y-85892262D01*
X115350253Y-85892264D01*
X115325509Y-85919144D01*
X115247027Y-85976412D01*
X115152603Y-85999287D01*
X115142314Y-85999500D01*
X113297560Y-85999500D01*
X113202272Y-85980546D01*
X113121490Y-85926570D01*
X112209908Y-85014988D01*
X111283427Y-84088506D01*
X111229453Y-84007727D01*
X111210500Y-83912444D01*
X111210500Y-81047179D01*
X111229454Y-80951892D01*
X111283430Y-80871110D01*
X111310279Y-80847846D01*
X111343075Y-80823295D01*
X111417546Y-80767546D01*
X111503796Y-80652331D01*
X111554091Y-80517483D01*
X111560500Y-80457873D01*
X111560499Y-77862128D01*
X111554091Y-77802517D01*
X111503796Y-77667669D01*
X111417546Y-77552454D01*
X111302331Y-77466204D01*
X111183653Y-77421940D01*
X111167481Y-77415908D01*
X111107873Y-77409500D01*
X109312134Y-77409500D01*
X109312130Y-77409500D01*
X109312128Y-77409501D01*
X109299313Y-77410878D01*
X109252519Y-77415908D01*
X109252515Y-77415909D01*
X109117670Y-77466203D01*
X109002455Y-77552453D01*
X109002453Y-77552455D01*
X108916204Y-77667669D01*
X108865908Y-77802518D01*
X108859500Y-77862123D01*
X108859500Y-80457865D01*
X108859500Y-80457868D01*
X108859501Y-80457872D01*
X108861010Y-80471910D01*
X108865908Y-80517480D01*
X108865909Y-80517484D01*
X108916203Y-80652329D01*
X108916204Y-80652331D01*
X109002454Y-80767546D01*
X109002457Y-80767548D01*
X109002458Y-80767549D01*
X109109721Y-80847846D01*
X109174644Y-80920124D01*
X109206966Y-81011745D01*
X109209500Y-81047180D01*
X109209500Y-84417284D01*
X109207242Y-84506359D01*
X109207243Y-84506363D01*
X109217646Y-84564414D01*
X109218959Y-84573780D01*
X109224925Y-84632434D01*
X109234022Y-84661432D01*
X109237779Y-84676739D01*
X109240067Y-84689500D01*
X109243141Y-84706651D01*
X109243142Y-84706655D01*
X109265012Y-84761404D01*
X109268183Y-84770310D01*
X109283093Y-84817831D01*
X109285841Y-84826587D01*
X109285845Y-84826597D01*
X109300584Y-84853152D01*
X109307351Y-84867399D01*
X109318620Y-84895611D01*
X109318626Y-84895623D01*
X109351070Y-84944850D01*
X109355973Y-84952944D01*
X109384590Y-85004501D01*
X109404381Y-85027554D01*
X109413880Y-85040153D01*
X109430596Y-85065517D01*
X109472297Y-85107219D01*
X109478728Y-85114159D01*
X109517134Y-85158895D01*
X109517135Y-85158896D01*
X109541155Y-85177489D01*
X109552994Y-85187916D01*
X111464226Y-87099146D01*
X112063547Y-87698467D01*
X112080790Y-87716607D01*
X112124943Y-87763055D01*
X112173339Y-87796739D01*
X112180891Y-87802432D01*
X112226593Y-87839698D01*
X112253529Y-87853768D01*
X112267013Y-87861938D01*
X112291951Y-87879295D01*
X112291952Y-87879295D01*
X112291953Y-87879296D01*
X112346142Y-87902550D01*
X112354671Y-87906600D01*
X112406951Y-87933909D01*
X112436175Y-87942270D01*
X112451004Y-87947550D01*
X112478942Y-87959540D01*
X112536720Y-87971413D01*
X112545869Y-87973659D01*
X112602582Y-87989887D01*
X112632887Y-87992194D01*
X112648487Y-87994381D01*
X112678259Y-88000500D01*
X112737223Y-88000500D01*
X112746680Y-88000860D01*
X112805473Y-88005337D01*
X112805473Y-88005336D01*
X112805476Y-88005337D01*
X112835623Y-88001497D01*
X112851360Y-88000500D01*
X115142315Y-88000500D01*
X115237603Y-88019454D01*
X115318385Y-88073430D01*
X115325497Y-88080843D01*
X115350256Y-88107738D01*
X115403440Y-88149133D01*
X115466992Y-88222615D01*
X115497588Y-88314826D01*
X115499500Y-88345627D01*
X115499500Y-95740500D01*
X115480546Y-95835788D01*
X115426570Y-95916570D01*
X115345788Y-95970546D01*
X115250500Y-95989500D01*
X101819500Y-95989500D01*
X101724212Y-95970546D01*
X101643430Y-95916570D01*
X101589454Y-95835788D01*
X101570500Y-95740500D01*
X101570500Y-85795802D01*
X101589454Y-85700514D01*
X101636305Y-85627159D01*
X101758164Y-85494785D01*
X101894173Y-85286607D01*
X101994063Y-85058881D01*
X102055108Y-84817821D01*
X102075643Y-84570000D01*
X102055108Y-84322179D01*
X101994063Y-84081119D01*
X101894173Y-83853393D01*
X101828499Y-83752872D01*
X101792249Y-83662734D01*
X101793254Y-83565584D01*
X101831359Y-83476214D01*
X101887729Y-83417352D01*
X101927546Y-83387546D01*
X102013796Y-83272331D01*
X102064091Y-83137483D01*
X102070500Y-83077873D01*
X102070499Y-80982128D01*
X102064091Y-80922517D01*
X102039472Y-80856510D01*
X102023933Y-80760611D01*
X102046276Y-80666060D01*
X102103101Y-80587257D01*
X102185758Y-80536198D01*
X102272773Y-80520499D01*
X102357508Y-80520499D01*
X102460297Y-80509999D01*
X102626834Y-80454814D01*
X102776156Y-80362712D01*
X102900212Y-80238656D01*
X102992314Y-80089334D01*
X103047499Y-79922797D01*
X103058000Y-79820009D01*
X103057999Y-78469992D01*
X103047499Y-78367203D01*
X102992314Y-78200666D01*
X102900212Y-78051344D01*
X102776156Y-77927288D01*
X102626834Y-77835186D01*
X102626832Y-77835185D01*
X102626830Y-77835184D01*
X102626832Y-77835184D01*
X102460302Y-77780002D01*
X102460298Y-77780001D01*
X102460297Y-77780001D01*
X102357509Y-77769500D01*
X102357505Y-77769500D01*
X101632493Y-77769500D01*
X101529699Y-77780001D01*
X101363167Y-77835185D01*
X101213846Y-77927286D01*
X101089786Y-78051346D01*
X100997684Y-78200668D01*
X100942502Y-78367197D01*
X100942499Y-78367213D01*
X100934755Y-78443012D01*
X100906215Y-78535881D01*
X100868162Y-78588578D01*
X100836599Y-78622032D01*
X100090796Y-79367834D01*
X100063428Y-79391486D01*
X100051473Y-79400386D01*
X100051469Y-79400389D01*
X100019644Y-79438316D01*
X100012323Y-79446307D01*
X100008408Y-79450222D01*
X99988059Y-79475958D01*
X99938695Y-79534789D01*
X99932672Y-79543945D01*
X99926889Y-79553321D01*
X99894424Y-79622942D01*
X99859958Y-79691569D01*
X99856200Y-79701893D01*
X99852743Y-79712326D01*
X99837207Y-79787566D01*
X99819501Y-79862273D01*
X99818220Y-79873233D01*
X99817266Y-79884138D01*
X99819500Y-79960917D01*
X99819500Y-80280500D01*
X99800546Y-80375788D01*
X99746570Y-80456570D01*
X99665788Y-80510546D01*
X99570505Y-80529500D01*
X99522136Y-80529500D01*
X99522130Y-80529500D01*
X99522128Y-80529501D01*
X99509314Y-80530878D01*
X99462519Y-80535908D01*
X99462515Y-80535909D01*
X99327670Y-80586203D01*
X99212455Y-80672453D01*
X99212453Y-80672455D01*
X99126204Y-80787669D01*
X99075908Y-80922518D01*
X99069500Y-80982123D01*
X99069500Y-83077865D01*
X99069500Y-83077868D01*
X99069501Y-83077872D01*
X99071567Y-83097092D01*
X99075908Y-83137480D01*
X99075909Y-83137484D01*
X99119740Y-83255000D01*
X99126204Y-83272331D01*
X99212454Y-83387546D01*
X99212457Y-83387548D01*
X99252266Y-83417349D01*
X99317189Y-83489626D01*
X99349511Y-83581247D01*
X99344310Y-83678263D01*
X99311500Y-83752872D01*
X99245828Y-83853391D01*
X99245825Y-83853396D01*
X99145936Y-84081121D01*
X99145935Y-84081125D01*
X99084894Y-84322168D01*
X99084892Y-84322176D01*
X99064357Y-84570000D01*
X99084892Y-84817823D01*
X99084894Y-84817831D01*
X99134823Y-85014993D01*
X99145937Y-85058881D01*
X99176964Y-85129616D01*
X99236518Y-85265386D01*
X99245827Y-85286607D01*
X99249323Y-85291958D01*
X99381830Y-85494778D01*
X99381836Y-85494785D01*
X99498183Y-85621172D01*
X99503695Y-85627159D01*
X99554287Y-85710102D01*
X99569500Y-85795802D01*
X99569500Y-95740500D01*
X99550546Y-95835788D01*
X99496570Y-95916570D01*
X99415788Y-95970546D01*
X99320500Y-95989500D01*
X87417561Y-95989500D01*
X87322273Y-95970546D01*
X87241492Y-95916570D01*
X85366336Y-94041416D01*
X85304947Y-93976835D01*
X85304946Y-93976833D01*
X85275712Y-93956486D01*
X85256535Y-93943138D01*
X85248996Y-93937454D01*
X85203292Y-93900187D01*
X85176355Y-93886116D01*
X85162866Y-93877943D01*
X85137939Y-93860593D01*
X85137935Y-93860591D01*
X85137934Y-93860590D01*
X85137931Y-93860588D01*
X85137926Y-93860586D01*
X85083740Y-93837332D01*
X85075194Y-93833274D01*
X85022932Y-93805975D01*
X84993725Y-93797618D01*
X84978867Y-93792328D01*
X84950939Y-93780343D01*
X84893175Y-93768472D01*
X84883988Y-93766217D01*
X84827306Y-93749998D01*
X84797001Y-93747690D01*
X84781383Y-93745499D01*
X84751627Y-93739385D01*
X84751626Y-93739385D01*
X84692662Y-93739385D01*
X84683205Y-93739025D01*
X84624411Y-93734547D01*
X84624410Y-93734548D01*
X84624409Y-93734548D01*
X84594261Y-93738387D01*
X84578525Y-93739385D01*
X81666803Y-93739385D01*
X81571515Y-93720431D01*
X81490733Y-93666455D01*
X81472127Y-93645634D01*
X81365398Y-93511801D01*
X81167574Y-93328247D01*
X80944614Y-93176235D01*
X80944609Y-93176233D01*
X80701485Y-93059150D01*
X80701480Y-93059148D01*
X80701477Y-93059147D01*
X80443608Y-92979605D01*
X80176765Y-92939385D01*
X79906907Y-92939385D01*
X79706774Y-92969549D01*
X79640063Y-92979605D01*
X79382189Y-93059149D01*
X79139063Y-93176233D01*
X78916093Y-93328251D01*
X78718273Y-93511801D01*
X78550025Y-93722777D01*
X78550024Y-93722777D01*
X78415093Y-93956486D01*
X78415092Y-93956489D01*
X78316503Y-94207686D01*
X78316499Y-94207697D01*
X78256452Y-94470784D01*
X78236287Y-94739884D01*
X71737495Y-94739884D01*
X71689035Y-82860000D01*
X80824671Y-82860000D01*
X80843965Y-83154372D01*
X80843966Y-83154380D01*
X80901521Y-83443732D01*
X80996345Y-83723069D01*
X80996353Y-83723088D01*
X81126822Y-83987654D01*
X81126832Y-83987671D01*
X81290726Y-84232956D01*
X81399025Y-84356447D01*
X81485242Y-84454758D01*
X81707043Y-84649273D01*
X81952335Y-84813172D01*
X81952344Y-84813176D01*
X81952345Y-84813177D01*
X81979538Y-84826587D01*
X82216923Y-84943652D01*
X82311583Y-84975785D01*
X82496267Y-85038478D01*
X82496272Y-85038479D01*
X82496278Y-85038481D01*
X82785620Y-85096034D01*
X83080000Y-85115329D01*
X83374380Y-85096034D01*
X83663722Y-85038481D01*
X83663729Y-85038478D01*
X83663732Y-85038478D01*
X83763823Y-85004501D01*
X83943077Y-84943652D01*
X84207665Y-84813172D01*
X84452957Y-84649273D01*
X84674758Y-84454758D01*
X84869273Y-84232957D01*
X85033172Y-83987665D01*
X85163652Y-83723077D01*
X85242899Y-83489626D01*
X85258478Y-83443732D01*
X85258478Y-83443729D01*
X85258481Y-83443722D01*
X85316034Y-83154380D01*
X85335329Y-82860000D01*
X85316034Y-82565620D01*
X85258481Y-82276278D01*
X85258479Y-82276272D01*
X85258478Y-82276267D01*
X85163654Y-81996930D01*
X85163652Y-81996923D01*
X85033172Y-81732336D01*
X84869273Y-81487043D01*
X84869269Y-81487037D01*
X84674766Y-81265251D01*
X84674765Y-81265250D01*
X84674758Y-81265242D01*
X84674748Y-81265233D01*
X84452956Y-81070726D01*
X84207671Y-80906832D01*
X84207670Y-80906831D01*
X84207665Y-80906828D01*
X84207660Y-80906825D01*
X84207654Y-80906822D01*
X84158210Y-80882439D01*
X84081132Y-80823295D01*
X84032554Y-80739156D01*
X84019873Y-80642832D01*
X84020170Y-80641722D01*
X83964537Y-80691693D01*
X83872916Y-80724014D01*
X83775900Y-80718812D01*
X83757444Y-80713333D01*
X83663732Y-80681521D01*
X83374380Y-80623966D01*
X83374372Y-80623965D01*
X83115651Y-80607007D01*
X83080000Y-80604671D01*
X83079999Y-80604671D01*
X82785627Y-80623965D01*
X82785619Y-80623966D01*
X82496267Y-80681521D01*
X82216930Y-80776345D01*
X82216925Y-80776347D01*
X82216923Y-80776348D01*
X82034600Y-80866260D01*
X81952340Y-80906826D01*
X81952329Y-80906832D01*
X81707037Y-81070730D01*
X81485251Y-81265233D01*
X81485233Y-81265251D01*
X81290730Y-81487037D01*
X81126832Y-81732329D01*
X81126828Y-81732334D01*
X81126828Y-81732336D01*
X81034283Y-81920000D01*
X80996345Y-81996930D01*
X80901521Y-82276267D01*
X80843966Y-82565619D01*
X80843965Y-82565627D01*
X80824671Y-82860000D01*
X71689035Y-82860000D01*
X71619853Y-65899999D01*
X74449451Y-65899999D01*
X74469616Y-66169100D01*
X74529663Y-66432187D01*
X74529667Y-66432198D01*
X74564783Y-66521670D01*
X74627972Y-66682673D01*
X74628256Y-66683395D01*
X74628257Y-66683398D01*
X74763188Y-66917107D01*
X74918586Y-67111968D01*
X74931439Y-67128085D01*
X75129259Y-67311635D01*
X75352226Y-67463651D01*
X75595359Y-67580738D01*
X75853228Y-67660280D01*
X76120071Y-67700500D01*
X76120074Y-67700500D01*
X76389926Y-67700500D01*
X76389929Y-67700500D01*
X76656772Y-67660280D01*
X76914641Y-67580738D01*
X77157775Y-67463651D01*
X77380741Y-67311635D01*
X77578561Y-67128085D01*
X77669268Y-67014343D01*
X77685291Y-66994251D01*
X77759521Y-66931569D01*
X77852088Y-66902066D01*
X77879967Y-66900500D01*
X81410500Y-66900500D01*
X81505788Y-66919454D01*
X81586570Y-66973430D01*
X81640546Y-67054212D01*
X81659500Y-67149500D01*
X81659500Y-74727284D01*
X81657242Y-74816359D01*
X81657243Y-74816363D01*
X81667646Y-74874414D01*
X81668959Y-74883780D01*
X81674925Y-74942434D01*
X81684022Y-74971432D01*
X81687779Y-74986739D01*
X81690337Y-75001007D01*
X81693141Y-75016651D01*
X81693142Y-75016655D01*
X81715012Y-75071404D01*
X81718183Y-75080310D01*
X81720341Y-75087188D01*
X81735841Y-75136587D01*
X81735845Y-75136597D01*
X81750584Y-75163152D01*
X81757351Y-75177399D01*
X81768620Y-75205611D01*
X81768626Y-75205623D01*
X81801070Y-75254850D01*
X81805973Y-75262944D01*
X81834590Y-75314501D01*
X81854381Y-75337554D01*
X81863880Y-75350153D01*
X81880596Y-75375517D01*
X81922297Y-75417219D01*
X81928728Y-75424159D01*
X81960504Y-75461172D01*
X81967134Y-75468895D01*
X81991157Y-75487490D01*
X82002990Y-75497912D01*
X83756570Y-77251491D01*
X83810546Y-77332273D01*
X83829500Y-77427561D01*
X83829500Y-79957865D01*
X83829500Y-79957868D01*
X83829501Y-79957872D01*
X83831567Y-79977092D01*
X83835908Y-80017480D01*
X83835909Y-80017484D01*
X83886203Y-80152329D01*
X83886204Y-80152331D01*
X83972454Y-80267546D01*
X83986706Y-80278215D01*
X84051628Y-80350494D01*
X84083949Y-80442115D01*
X84080712Y-80502471D01*
X84104163Y-80471910D01*
X84188302Y-80423332D01*
X84275458Y-80411333D01*
X84275458Y-80410500D01*
X84281509Y-80410499D01*
X84281684Y-80410476D01*
X84282105Y-80410497D01*
X84282127Y-80410500D01*
X87877872Y-80410499D01*
X87937483Y-80404091D01*
X88072331Y-80353796D01*
X88187546Y-80267546D01*
X88273796Y-80152331D01*
X88324091Y-80017483D01*
X88330500Y-79957873D01*
X88330499Y-76362128D01*
X88324091Y-76302517D01*
X88273796Y-76167669D01*
X88187546Y-76052454D01*
X88072331Y-75966204D01*
X87992117Y-75936286D01*
X87937481Y-75915908D01*
X87877876Y-75909500D01*
X87877873Y-75909500D01*
X85347561Y-75909500D01*
X85252273Y-75890546D01*
X85171491Y-75836570D01*
X83733430Y-74398509D01*
X83679454Y-74317727D01*
X83660500Y-74222439D01*
X83660500Y-67679999D01*
X85444592Y-67679999D01*
X85464202Y-67966689D01*
X85464203Y-67966692D01*
X85522666Y-68248032D01*
X85594640Y-68450546D01*
X85618897Y-68518800D01*
X85618898Y-68518802D01*
X85713548Y-68701466D01*
X85751099Y-68773936D01*
X85916811Y-69008698D01*
X86112947Y-69218708D01*
X86335853Y-69400055D01*
X86581375Y-69549361D01*
X86844942Y-69663844D01*
X87121642Y-69741371D01*
X87121646Y-69741371D01*
X87121648Y-69741372D01*
X87201429Y-69752337D01*
X87406322Y-69780500D01*
X87406330Y-69780500D01*
X87693670Y-69780500D01*
X87693678Y-69780500D01*
X87978358Y-69741371D01*
X88255058Y-69663844D01*
X88518625Y-69549361D01*
X88764147Y-69400055D01*
X88987053Y-69218708D01*
X89183189Y-69008698D01*
X89348901Y-68773936D01*
X89481104Y-68518797D01*
X89577334Y-68248032D01*
X89635798Y-67966686D01*
X89655408Y-67680000D01*
X89635798Y-67393314D01*
X89577334Y-67111968D01*
X89481104Y-66841203D01*
X89348901Y-66586064D01*
X89183189Y-66351302D01*
X88987053Y-66141292D01*
X88764147Y-65959945D01*
X88764146Y-65959944D01*
X88518626Y-65810639D01*
X88255057Y-65696155D01*
X87978351Y-65618627D01*
X87693681Y-65579500D01*
X87693678Y-65579500D01*
X87406322Y-65579500D01*
X87406318Y-65579500D01*
X87121648Y-65618627D01*
X86844942Y-65696155D01*
X86581373Y-65810639D01*
X86335853Y-65959944D01*
X86143457Y-66116470D01*
X86112947Y-66141292D01*
X86043865Y-66215261D01*
X85916810Y-66351303D01*
X85916809Y-66351304D01*
X85751098Y-66586065D01*
X85618898Y-66841197D01*
X85618897Y-66841199D01*
X85522666Y-67111968D01*
X85464203Y-67393307D01*
X85464202Y-67393310D01*
X85444592Y-67679999D01*
X83660500Y-67679999D01*
X83660500Y-63502868D01*
X94289500Y-63502868D01*
X94289501Y-63502872D01*
X94290163Y-63509026D01*
X94295908Y-63562480D01*
X94295909Y-63562484D01*
X94337671Y-63674454D01*
X94346204Y-63697331D01*
X94432454Y-63812546D01*
X94547669Y-63898796D01*
X94682517Y-63949091D01*
X94742127Y-63955500D01*
X97837872Y-63955499D01*
X97897483Y-63949091D01*
X98032331Y-63898796D01*
X98147546Y-63812546D01*
X98190416Y-63755278D01*
X98262694Y-63690356D01*
X98354315Y-63658034D01*
X98389750Y-63655500D01*
X99945500Y-63655500D01*
X100040788Y-63674454D01*
X100121570Y-63728430D01*
X100175546Y-63809212D01*
X100194500Y-63904500D01*
X100194500Y-70382284D01*
X100192242Y-70471359D01*
X100192243Y-70471363D01*
X100202646Y-70529414D01*
X100203959Y-70538780D01*
X100209925Y-70597434D01*
X100209925Y-70597436D01*
X100209926Y-70597438D01*
X100213519Y-70608891D01*
X100219022Y-70626432D01*
X100222779Y-70641739D01*
X100224666Y-70652262D01*
X100228141Y-70671651D01*
X100228142Y-70671655D01*
X100250012Y-70726404D01*
X100253183Y-70735310D01*
X100258001Y-70750666D01*
X100270841Y-70791587D01*
X100270845Y-70791597D01*
X100285584Y-70818152D01*
X100292351Y-70832399D01*
X100303620Y-70860611D01*
X100303626Y-70860623D01*
X100330279Y-70901064D01*
X100334781Y-70907895D01*
X100336070Y-70909850D01*
X100340973Y-70917944D01*
X100369590Y-70969501D01*
X100389381Y-70992554D01*
X100398880Y-71005153D01*
X100415596Y-71030517D01*
X100457297Y-71072219D01*
X100463728Y-71079159D01*
X100496119Y-71116889D01*
X100502134Y-71123895D01*
X100526157Y-71142490D01*
X100537990Y-71152912D01*
X102937532Y-73552453D01*
X105243566Y-75858487D01*
X105304941Y-75923053D01*
X105353348Y-75956746D01*
X105360880Y-75962425D01*
X105406593Y-75999698D01*
X105433524Y-76013765D01*
X105447013Y-76021938D01*
X105471952Y-76039296D01*
X105526142Y-76062550D01*
X105534671Y-76066600D01*
X105586951Y-76093909D01*
X105616175Y-76102270D01*
X105631004Y-76107550D01*
X105658942Y-76119540D01*
X105716720Y-76131413D01*
X105725869Y-76133659D01*
X105782582Y-76149887D01*
X105812887Y-76152194D01*
X105828487Y-76154381D01*
X105858259Y-76160500D01*
X105917224Y-76160500D01*
X105926681Y-76160860D01*
X105985474Y-76165337D01*
X105985474Y-76165336D01*
X105985477Y-76165337D01*
X106015624Y-76161497D01*
X106031361Y-76160500D01*
X108610501Y-76160500D01*
X108705789Y-76179454D01*
X108786571Y-76233430D01*
X108840547Y-76314212D01*
X108859500Y-76409500D01*
X108859501Y-76457872D01*
X108859856Y-76461172D01*
X108865908Y-76517480D01*
X108865909Y-76517484D01*
X108916203Y-76652329D01*
X108916204Y-76652331D01*
X109002454Y-76767546D01*
X109117669Y-76853796D01*
X109252517Y-76904091D01*
X109312127Y-76910500D01*
X111107872Y-76910499D01*
X111167483Y-76904091D01*
X111302331Y-76853796D01*
X111417546Y-76767546D01*
X111503796Y-76652331D01*
X111554091Y-76517483D01*
X111560500Y-76457873D01*
X111560499Y-73862128D01*
X111554091Y-73802517D01*
X111503796Y-73667669D01*
X111417546Y-73552454D01*
X111302331Y-73466204D01*
X111222117Y-73436286D01*
X111167481Y-73415908D01*
X111107873Y-73409500D01*
X109312134Y-73409500D01*
X109312130Y-73409500D01*
X109312128Y-73409501D01*
X109299313Y-73410878D01*
X109252519Y-73415908D01*
X109252515Y-73415909D01*
X109117670Y-73466203D01*
X109002455Y-73552453D01*
X109002453Y-73552455D01*
X108916204Y-73667669D01*
X108865908Y-73802518D01*
X108859500Y-73862123D01*
X108859500Y-73910500D01*
X108840546Y-74005788D01*
X108786570Y-74086570D01*
X108705788Y-74140546D01*
X108610500Y-74159500D01*
X106477560Y-74159500D01*
X106382272Y-74140546D01*
X106301490Y-74086570D01*
X102268430Y-70053510D01*
X102214454Y-69972728D01*
X102195500Y-69877440D01*
X102195500Y-67680000D01*
X105444592Y-67680000D01*
X105464202Y-67966689D01*
X105464203Y-67966692D01*
X105522666Y-68248032D01*
X105594640Y-68450546D01*
X105618897Y-68518800D01*
X105618898Y-68518802D01*
X105713548Y-68701466D01*
X105751099Y-68773936D01*
X105916811Y-69008698D01*
X106112947Y-69218708D01*
X106335853Y-69400055D01*
X106581375Y-69549361D01*
X106844942Y-69663844D01*
X107121642Y-69741371D01*
X107121646Y-69741371D01*
X107121648Y-69741372D01*
X107201429Y-69752337D01*
X107406322Y-69780500D01*
X107406330Y-69780500D01*
X107693670Y-69780500D01*
X107693678Y-69780500D01*
X107978358Y-69741371D01*
X108255058Y-69663844D01*
X108518625Y-69549361D01*
X108764147Y-69400055D01*
X108987053Y-69218708D01*
X109183189Y-69008698D01*
X109348901Y-68773936D01*
X109481104Y-68518797D01*
X109577334Y-68248032D01*
X109635798Y-67966686D01*
X109655408Y-67680000D01*
X109635798Y-67393314D01*
X109577334Y-67111968D01*
X109481104Y-66841203D01*
X109348901Y-66586064D01*
X109183189Y-66351302D01*
X108987053Y-66141292D01*
X108764147Y-65959945D01*
X108764146Y-65959944D01*
X108518626Y-65810639D01*
X108255057Y-65696155D01*
X107978351Y-65618627D01*
X107693681Y-65579500D01*
X107693678Y-65579500D01*
X107406322Y-65579500D01*
X107406318Y-65579500D01*
X107121648Y-65618627D01*
X106844942Y-65696155D01*
X106581373Y-65810639D01*
X106335853Y-65959944D01*
X106143457Y-66116470D01*
X106112947Y-66141292D01*
X106043865Y-66215261D01*
X105916810Y-66351303D01*
X105916809Y-66351304D01*
X105751098Y-66586065D01*
X105618898Y-66841197D01*
X105618897Y-66841199D01*
X105522666Y-67111968D01*
X105464203Y-67393307D01*
X105464202Y-67393310D01*
X105444592Y-67680000D01*
X102195500Y-67680000D01*
X102195500Y-63904500D01*
X102214454Y-63809212D01*
X102268430Y-63728430D01*
X102349212Y-63674454D01*
X102444500Y-63655500D01*
X102712284Y-63655500D01*
X102801360Y-63657757D01*
X102801360Y-63657756D01*
X102801363Y-63657757D01*
X102859431Y-63647348D01*
X102868753Y-63646041D01*
X102927438Y-63640074D01*
X102956432Y-63630976D01*
X102971743Y-63627218D01*
X103001653Y-63621858D01*
X103056434Y-63599975D01*
X103065290Y-63596822D01*
X103121588Y-63579159D01*
X103148151Y-63564414D01*
X103162399Y-63557647D01*
X103190617Y-63546377D01*
X103239855Y-63513925D01*
X103247928Y-63509034D01*
X103299502Y-63480409D01*
X103322567Y-63460606D01*
X103335147Y-63451122D01*
X103360519Y-63434402D01*
X103402221Y-63392699D01*
X103409152Y-63386275D01*
X103453895Y-63347866D01*
X103472489Y-63323842D01*
X103482915Y-63312005D01*
X106648487Y-60146434D01*
X106688160Y-60108721D01*
X106713053Y-60085059D01*
X106746749Y-60036645D01*
X106752435Y-60029106D01*
X106789698Y-59983407D01*
X106803768Y-59956468D01*
X106811934Y-59942991D01*
X106829295Y-59918049D01*
X106852558Y-59863836D01*
X106856592Y-59855342D01*
X106883909Y-59803049D01*
X106892267Y-59773836D01*
X106897553Y-59758987D01*
X106909540Y-59731058D01*
X106921412Y-59673284D01*
X106923660Y-59664124D01*
X106939887Y-59607418D01*
X106942194Y-59577111D01*
X106944383Y-59561505D01*
X106950500Y-59531741D01*
X106950499Y-59472779D01*
X106950859Y-59463319D01*
X106953352Y-59430585D01*
X106979490Y-59337012D01*
X107039446Y-59260564D01*
X107124094Y-59212880D01*
X107201633Y-59200499D01*
X107250006Y-59200499D01*
X107250008Y-59200499D01*
X107352797Y-59189999D01*
X107519334Y-59134814D01*
X107668656Y-59042712D01*
X107792712Y-58918656D01*
X107884814Y-58769334D01*
X107939999Y-58602797D01*
X107950500Y-58500009D01*
X107950499Y-57299992D01*
X107939999Y-57197203D01*
X107933476Y-57177519D01*
X107908432Y-57101940D01*
X107884814Y-57030666D01*
X107792712Y-56881344D01*
X107668656Y-56757288D01*
X107519334Y-56665186D01*
X107519332Y-56665185D01*
X107519330Y-56665184D01*
X107519332Y-56665184D01*
X107352802Y-56610002D01*
X107352798Y-56610001D01*
X107352797Y-56610001D01*
X107250009Y-56599500D01*
X107250005Y-56599500D01*
X104649993Y-56599500D01*
X104547199Y-56610001D01*
X104380667Y-56665185D01*
X104231346Y-56757286D01*
X104107286Y-56881346D01*
X104015184Y-57030668D01*
X103960002Y-57197197D01*
X103960001Y-57197204D01*
X103949500Y-57299988D01*
X103949500Y-58500006D01*
X103960001Y-58602800D01*
X104015185Y-58769331D01*
X104015186Y-58769334D01*
X104107288Y-58918656D01*
X104231344Y-59042712D01*
X104368532Y-59127330D01*
X104390715Y-59141012D01*
X104461866Y-59207168D01*
X104502285Y-59295516D01*
X104505817Y-59392607D01*
X104471926Y-59483659D01*
X104436067Y-59529011D01*
X102383510Y-61581570D01*
X102302728Y-61635546D01*
X102207440Y-61654500D01*
X101223503Y-61654500D01*
X101217205Y-61654340D01*
X101183980Y-61652655D01*
X101144070Y-61650631D01*
X101144059Y-61650631D01*
X101137549Y-61651629D01*
X101099844Y-61654500D01*
X98389750Y-61654500D01*
X98294462Y-61635546D01*
X98213680Y-61581570D01*
X98190416Y-61554721D01*
X98147549Y-61497458D01*
X98147548Y-61497457D01*
X98147546Y-61497454D01*
X98032331Y-61411204D01*
X97952117Y-61381286D01*
X97897481Y-61360908D01*
X97837873Y-61354500D01*
X94742134Y-61354500D01*
X94742130Y-61354500D01*
X94742128Y-61354501D01*
X94729314Y-61355878D01*
X94682519Y-61360908D01*
X94682515Y-61360909D01*
X94547670Y-61411203D01*
X94432455Y-61497453D01*
X94432453Y-61497455D01*
X94346204Y-61612669D01*
X94295908Y-61747518D01*
X94289500Y-61807123D01*
X94289500Y-63502865D01*
X94289500Y-63502868D01*
X83660500Y-63502868D01*
X83660500Y-62787180D01*
X83679454Y-62691892D01*
X83733430Y-62611110D01*
X83760279Y-62587846D01*
X83797499Y-62559983D01*
X83867546Y-62507546D01*
X83953796Y-62392331D01*
X84004091Y-62257483D01*
X84010500Y-62197873D01*
X84010499Y-59602128D01*
X84004091Y-59542517D01*
X83953796Y-59407669D01*
X83867546Y-59292454D01*
X83752331Y-59206204D01*
X83620824Y-59157155D01*
X83617481Y-59155908D01*
X83557873Y-59149500D01*
X81762134Y-59149500D01*
X81762130Y-59149500D01*
X81762128Y-59149501D01*
X81749314Y-59150878D01*
X81702519Y-59155908D01*
X81702515Y-59155909D01*
X81567670Y-59206203D01*
X81452455Y-59292453D01*
X81452453Y-59292455D01*
X81366204Y-59407669D01*
X81315908Y-59542518D01*
X81309500Y-59602123D01*
X81309500Y-62197865D01*
X81309500Y-62197868D01*
X81309501Y-62197872D01*
X81310707Y-62209087D01*
X81315908Y-62257480D01*
X81315909Y-62257484D01*
X81350602Y-62350500D01*
X81366204Y-62392331D01*
X81452454Y-62507546D01*
X81452457Y-62507548D01*
X81452458Y-62507549D01*
X81559721Y-62587846D01*
X81624644Y-62660124D01*
X81656966Y-62751745D01*
X81659500Y-62787180D01*
X81659500Y-64650500D01*
X81640546Y-64745788D01*
X81586570Y-64826570D01*
X81505788Y-64880546D01*
X81410500Y-64899500D01*
X77879967Y-64899500D01*
X77784679Y-64880546D01*
X77703897Y-64826570D01*
X77685291Y-64805749D01*
X77578562Y-64671916D01*
X77380738Y-64488362D01*
X77157778Y-64336350D01*
X77157773Y-64336348D01*
X76914649Y-64219265D01*
X76914644Y-64219263D01*
X76914641Y-64219262D01*
X76656772Y-64139720D01*
X76389929Y-64099500D01*
X76120071Y-64099500D01*
X75919938Y-64129665D01*
X75853227Y-64139720D01*
X75595353Y-64219264D01*
X75352227Y-64336348D01*
X75129257Y-64488366D01*
X74931437Y-64671916D01*
X74763189Y-64882892D01*
X74763188Y-64882892D01*
X74628257Y-65116601D01*
X74628256Y-65116604D01*
X74529667Y-65367801D01*
X74529663Y-65367812D01*
X74469616Y-65630899D01*
X74449451Y-65899999D01*
X71619853Y-65899999D01*
X71565763Y-52640000D01*
X74434357Y-52640000D01*
X74454892Y-52887823D01*
X74454894Y-52887831D01*
X74515935Y-53128874D01*
X74515936Y-53128878D01*
X74599437Y-53319243D01*
X74615827Y-53356607D01*
X74642414Y-53397302D01*
X74751830Y-53564778D01*
X74751836Y-53564785D01*
X74920248Y-53747730D01*
X74920252Y-53747733D01*
X74920256Y-53747738D01*
X74920260Y-53747741D01*
X74920261Y-53747742D01*
X75116485Y-53900470D01*
X75116487Y-53900471D01*
X75116491Y-53900474D01*
X75335190Y-54018828D01*
X75404736Y-54042703D01*
X75570378Y-54099569D01*
X75570382Y-54099569D01*
X75570386Y-54099571D01*
X75815665Y-54140500D01*
X76064335Y-54140500D01*
X76309614Y-54099571D01*
X76309618Y-54099569D01*
X76309621Y-54099569D01*
X76407889Y-54065833D01*
X76544810Y-54018828D01*
X76763509Y-53900474D01*
X76959744Y-53747738D01*
X77128164Y-53564785D01*
X77135832Y-53553049D01*
X77182865Y-53481058D01*
X77264173Y-53356607D01*
X77364063Y-53128881D01*
X77425108Y-52887821D01*
X77445643Y-52640000D01*
X77425108Y-52392179D01*
X77364063Y-52151119D01*
X77264173Y-51923393D01*
X77152535Y-51752517D01*
X77128169Y-51715221D01*
X77128163Y-51715214D01*
X77114623Y-51700506D01*
X76965617Y-51538642D01*
X76915026Y-51455700D01*
X76900026Y-51359710D01*
X76922901Y-51265287D01*
X76965622Y-51201352D01*
X76974077Y-51192168D01*
X76984497Y-51180850D01*
X77062981Y-51123584D01*
X77157405Y-51100712D01*
X77167686Y-51100500D01*
X77492439Y-51100500D01*
X77587727Y-51119454D01*
X77668509Y-51173430D01*
X79623960Y-53128881D01*
X81443924Y-54948844D01*
X81497900Y-55029626D01*
X81516854Y-55124914D01*
X81497900Y-55220202D01*
X81460477Y-55276216D01*
X81463126Y-55278199D01*
X81452455Y-55292452D01*
X81452454Y-55292454D01*
X81442096Y-55306291D01*
X81366204Y-55407669D01*
X81315908Y-55542518D01*
X81309500Y-55602123D01*
X81309500Y-58197865D01*
X81309500Y-58197868D01*
X81309501Y-58197872D01*
X81311567Y-58217092D01*
X81315908Y-58257480D01*
X81315909Y-58257484D01*
X81347951Y-58343393D01*
X81366204Y-58392331D01*
X81452454Y-58507546D01*
X81567669Y-58593796D01*
X81702517Y-58644091D01*
X81762127Y-58650500D01*
X83557872Y-58650499D01*
X83617483Y-58644091D01*
X83752331Y-58593796D01*
X83867546Y-58507546D01*
X83953796Y-58392331D01*
X84004091Y-58257483D01*
X84010500Y-58197873D01*
X84010499Y-55602128D01*
X84004091Y-55542517D01*
X83953796Y-55407669D01*
X83867546Y-55292454D01*
X83867542Y-55292451D01*
X83867540Y-55292449D01*
X83760278Y-55212152D01*
X83695355Y-55139874D01*
X83663034Y-55048253D01*
X83660500Y-55012819D01*
X83660500Y-54762698D01*
X83662757Y-54673637D01*
X83652348Y-54615568D01*
X83651041Y-54606245D01*
X83645074Y-54547562D01*
X83635974Y-54518559D01*
X83632219Y-54503259D01*
X83626858Y-54473347D01*
X83604981Y-54418581D01*
X83601811Y-54409674D01*
X83584159Y-54353413D01*
X83584158Y-54353411D01*
X83569411Y-54326841D01*
X83562646Y-54312595D01*
X83551378Y-54284386D01*
X83551377Y-54284383D01*
X83518916Y-54235129D01*
X83514026Y-54227056D01*
X83485412Y-54175502D01*
X83485408Y-54175497D01*
X83465617Y-54152443D01*
X83456123Y-54139852D01*
X83439402Y-54114481D01*
X83424490Y-54099569D01*
X83397695Y-54072773D01*
X83391275Y-54065846D01*
X83352866Y-54021105D01*
X83328838Y-54002505D01*
X83317005Y-53992083D01*
X78726452Y-49401532D01*
X78665056Y-49336944D01*
X78635430Y-49316325D01*
X78616650Y-49303253D01*
X78609103Y-49297562D01*
X78563414Y-49260307D01*
X78563410Y-49260304D01*
X78563407Y-49260302D01*
X78536470Y-49246231D01*
X78522981Y-49238058D01*
X78498054Y-49220708D01*
X78498050Y-49220706D01*
X78498049Y-49220705D01*
X78498046Y-49220703D01*
X78498041Y-49220701D01*
X78443855Y-49197447D01*
X78435309Y-49193389D01*
X78383047Y-49166090D01*
X78353840Y-49157733D01*
X78338982Y-49152443D01*
X78311054Y-49140458D01*
X78253290Y-49128587D01*
X78244103Y-49126332D01*
X78187421Y-49110113D01*
X78157116Y-49107805D01*
X78141498Y-49105614D01*
X78111742Y-49099500D01*
X78111741Y-49099500D01*
X78052777Y-49099500D01*
X78043320Y-49099140D01*
X77984526Y-49094662D01*
X77984525Y-49094663D01*
X77984524Y-49094663D01*
X77954376Y-49098502D01*
X77938640Y-49099500D01*
X77631586Y-49099500D01*
X77536298Y-49080546D01*
X77455516Y-49026570D01*
X77401540Y-48945788D01*
X77382586Y-48850500D01*
X77398285Y-48763484D01*
X77413577Y-48722484D01*
X77464636Y-48639828D01*
X77543439Y-48583002D01*
X77637989Y-48560659D01*
X77646878Y-48560500D01*
X79832439Y-48560500D01*
X79927727Y-48579454D01*
X80008509Y-48633430D01*
X87703566Y-56328487D01*
X87764941Y-56393053D01*
X87813347Y-56426744D01*
X87820882Y-56432425D01*
X87866592Y-56469697D01*
X87893528Y-56483766D01*
X87907006Y-56491932D01*
X87931951Y-56509295D01*
X87986137Y-56532548D01*
X87994670Y-56536599D01*
X88046951Y-56563909D01*
X88076170Y-56572268D01*
X88091007Y-56577551D01*
X88118942Y-56589540D01*
X88176731Y-56601414D01*
X88185889Y-56603663D01*
X88208041Y-56610002D01*
X88242574Y-56619884D01*
X88242576Y-56619884D01*
X88242582Y-56619886D01*
X88272877Y-56622193D01*
X88288482Y-56624380D01*
X88318259Y-56630500D01*
X88377225Y-56630500D01*
X88386682Y-56630860D01*
X88403160Y-56632114D01*
X88445476Y-56635337D01*
X88475623Y-56631497D01*
X88491360Y-56630500D01*
X94157311Y-56630500D01*
X94252599Y-56649454D01*
X94333381Y-56703430D01*
X94387357Y-56784212D01*
X94406311Y-56879500D01*
X94387357Y-56974788D01*
X94356646Y-57028720D01*
X94346205Y-57042667D01*
X94295908Y-57177518D01*
X94289500Y-57237123D01*
X94289500Y-58932865D01*
X94289500Y-58932868D01*
X94289501Y-58932872D01*
X94291461Y-58951101D01*
X94295908Y-58992480D01*
X94295909Y-58992484D01*
X94321091Y-59059999D01*
X94346204Y-59127331D01*
X94432454Y-59242546D01*
X94547669Y-59328796D01*
X94682517Y-59379091D01*
X94742127Y-59385500D01*
X97837872Y-59385499D01*
X97897483Y-59379091D01*
X98032331Y-59328796D01*
X98147546Y-59242546D01*
X98233796Y-59127331D01*
X98284091Y-58992483D01*
X98290500Y-58932873D01*
X98290499Y-57237128D01*
X98284091Y-57177517D01*
X98233796Y-57042669D01*
X98224812Y-57030668D01*
X98172167Y-56960343D01*
X98130236Y-56872703D01*
X98125035Y-56775687D01*
X98157357Y-56684066D01*
X98222280Y-56611788D01*
X98279130Y-56579890D01*
X98291439Y-56574973D01*
X98300306Y-56571816D01*
X98356588Y-56554159D01*
X98383151Y-56539414D01*
X98397399Y-56532647D01*
X98425617Y-56521377D01*
X98474855Y-56488925D01*
X98482928Y-56484034D01*
X98534502Y-56455409D01*
X98557567Y-56435606D01*
X98570147Y-56426122D01*
X98595519Y-56409402D01*
X98637221Y-56367699D01*
X98644152Y-56361275D01*
X98688895Y-56322866D01*
X98707491Y-56298840D01*
X98717915Y-56287005D01*
X99901344Y-55103576D01*
X101108468Y-53896452D01*
X101173053Y-53835059D01*
X101206749Y-53786644D01*
X101212428Y-53779112D01*
X101249698Y-53733407D01*
X101263763Y-53706478D01*
X101271941Y-53692982D01*
X101276809Y-53685986D01*
X101289295Y-53668049D01*
X101312554Y-53613847D01*
X101316597Y-53605332D01*
X101343909Y-53553049D01*
X101352265Y-53523842D01*
X101357554Y-53508984D01*
X101369540Y-53481058D01*
X101381413Y-53423273D01*
X101383665Y-53414103D01*
X101399884Y-53357425D01*
X101399884Y-53357424D01*
X101399886Y-53357418D01*
X101402193Y-53327121D01*
X101404384Y-53311501D01*
X101410500Y-53281741D01*
X101410500Y-53222774D01*
X101410860Y-53213316D01*
X101412933Y-53186094D01*
X101415337Y-53154524D01*
X101411497Y-53124377D01*
X101410500Y-53108638D01*
X101410500Y-52869499D01*
X101429454Y-52774211D01*
X101483430Y-52693429D01*
X101564212Y-52639453D01*
X101659500Y-52620499D01*
X101710006Y-52620499D01*
X101710008Y-52620499D01*
X101812797Y-52609999D01*
X101979334Y-52554814D01*
X102128656Y-52462712D01*
X102252712Y-52338656D01*
X102344814Y-52189334D01*
X102399999Y-52022797D01*
X102410500Y-51920009D01*
X102410499Y-50719992D01*
X102399999Y-50617203D01*
X102399789Y-50616570D01*
X102366203Y-50515214D01*
X102344814Y-50450666D01*
X102252712Y-50301344D01*
X102128656Y-50177288D01*
X101979334Y-50085186D01*
X101979332Y-50085185D01*
X101979330Y-50085184D01*
X101979332Y-50085184D01*
X101812802Y-50030002D01*
X101812798Y-50030001D01*
X101812797Y-50030001D01*
X101710009Y-50019500D01*
X101710005Y-50019500D01*
X99109993Y-50019500D01*
X99007199Y-50030001D01*
X98840667Y-50085185D01*
X98691346Y-50177286D01*
X98567286Y-50301346D01*
X98475184Y-50450668D01*
X98420002Y-50617197D01*
X98420001Y-50617204D01*
X98409500Y-50719988D01*
X98409500Y-51920006D01*
X98420001Y-52022800D01*
X98475185Y-52189332D01*
X98546896Y-52305596D01*
X98567288Y-52338656D01*
X98691344Y-52462712D01*
X98840666Y-52554814D01*
X98840669Y-52554815D01*
X98840667Y-52554815D01*
X98951364Y-52591495D01*
X99007203Y-52609999D01*
X99007208Y-52609999D01*
X99019045Y-52612534D01*
X99108254Y-52651015D01*
X99175947Y-52720705D01*
X99211817Y-52810996D01*
X99210404Y-52908141D01*
X99171923Y-52997350D01*
X99142991Y-53032086D01*
X97618510Y-54556569D01*
X97537728Y-54610546D01*
X97442440Y-54629500D01*
X88937561Y-54629500D01*
X88842273Y-54610546D01*
X88761491Y-54556570D01*
X81066452Y-46861532D01*
X81005056Y-46796944D01*
X80975430Y-46776325D01*
X80956650Y-46763253D01*
X80949103Y-46757562D01*
X80903414Y-46720307D01*
X80903410Y-46720304D01*
X80903407Y-46720302D01*
X80876470Y-46706231D01*
X80862981Y-46698058D01*
X80838054Y-46680708D01*
X80838050Y-46680706D01*
X80838049Y-46680705D01*
X80838046Y-46680703D01*
X80838041Y-46680701D01*
X80783855Y-46657447D01*
X80775309Y-46653389D01*
X80723047Y-46626090D01*
X80693840Y-46617733D01*
X80678982Y-46612443D01*
X80651054Y-46600458D01*
X80593290Y-46588587D01*
X80584103Y-46586332D01*
X80527421Y-46570113D01*
X80497116Y-46567805D01*
X80481498Y-46565614D01*
X80451742Y-46559500D01*
X80451741Y-46559500D01*
X80392777Y-46559500D01*
X80383320Y-46559140D01*
X80324526Y-46554662D01*
X80324525Y-46554663D01*
X80324524Y-46554663D01*
X80294376Y-46558502D01*
X80278640Y-46559500D01*
X77646877Y-46559500D01*
X77551589Y-46540546D01*
X77470807Y-46486570D01*
X77416831Y-46405788D01*
X77413587Y-46397544D01*
X77383796Y-46317669D01*
X77297546Y-46202454D01*
X77182331Y-46116204D01*
X77102117Y-46086286D01*
X77047481Y-46065908D01*
X76987873Y-46059500D01*
X74892134Y-46059500D01*
X74892130Y-46059500D01*
X74892128Y-46059501D01*
X74879313Y-46060878D01*
X74832519Y-46065908D01*
X74832515Y-46065909D01*
X74697670Y-46116203D01*
X74582455Y-46202453D01*
X74582453Y-46202455D01*
X74496204Y-46317669D01*
X74445908Y-46452518D01*
X74439500Y-46512123D01*
X74439500Y-48607865D01*
X74439501Y-48607869D01*
X74445908Y-48667480D01*
X74445909Y-48667483D01*
X74496204Y-48802331D01*
X74582454Y-48917546D01*
X74620180Y-48945788D01*
X74622266Y-48947349D01*
X74687189Y-49019626D01*
X74719511Y-49111247D01*
X74714310Y-49208263D01*
X74681500Y-49282872D01*
X74615828Y-49383391D01*
X74615825Y-49383396D01*
X74515936Y-49611121D01*
X74515935Y-49611125D01*
X74454894Y-49852168D01*
X74454892Y-49852176D01*
X74434357Y-50100000D01*
X74454892Y-50347823D01*
X74454894Y-50347831D01*
X74515935Y-50588874D01*
X74515937Y-50588881D01*
X74528360Y-50617203D01*
X74615825Y-50816603D01*
X74615828Y-50816608D01*
X74751830Y-51024778D01*
X74751831Y-51024779D01*
X74751834Y-51024783D01*
X74751836Y-51024785D01*
X74914382Y-51201357D01*
X74964974Y-51284301D01*
X74979973Y-51380291D01*
X74957097Y-51474714D01*
X74914382Y-51538643D01*
X74751831Y-51715220D01*
X74751830Y-51715221D01*
X74615828Y-51923391D01*
X74615825Y-51923396D01*
X74515936Y-52151121D01*
X74515935Y-52151125D01*
X74454894Y-52392168D01*
X74454892Y-52392176D01*
X74434357Y-52640000D01*
X71565763Y-52640000D01*
X71533293Y-44680000D01*
X85444592Y-44680000D01*
X85447615Y-44724188D01*
X85464202Y-44966689D01*
X85464203Y-44966692D01*
X85473601Y-45011917D01*
X85522666Y-45248032D01*
X85592135Y-45443499D01*
X85618897Y-45518800D01*
X85618898Y-45518802D01*
X85704126Y-45683283D01*
X85751099Y-45773936D01*
X85916811Y-46008698D01*
X86112947Y-46218708D01*
X86234587Y-46317669D01*
X86335853Y-46400055D01*
X86520146Y-46512127D01*
X86581375Y-46549361D01*
X86844942Y-46663844D01*
X87121642Y-46741371D01*
X87121646Y-46741371D01*
X87121648Y-46741372D01*
X87201429Y-46752337D01*
X87406322Y-46780500D01*
X87406330Y-46780500D01*
X87693670Y-46780500D01*
X87693678Y-46780500D01*
X87978358Y-46741371D01*
X88255058Y-46663844D01*
X88518625Y-46549361D01*
X88764147Y-46400055D01*
X88987053Y-46218708D01*
X89183189Y-46008698D01*
X89348901Y-45773936D01*
X89481104Y-45518797D01*
X89577334Y-45248032D01*
X89635798Y-44966686D01*
X89655408Y-44680000D01*
X89635798Y-44393314D01*
X89577334Y-44111968D01*
X89481104Y-43841203D01*
X89348901Y-43586064D01*
X89183189Y-43351302D01*
X88987053Y-43141292D01*
X88764147Y-42959945D01*
X88764146Y-42959944D01*
X88518626Y-42810639D01*
X88255057Y-42696155D01*
X87978351Y-42618627D01*
X87693681Y-42579500D01*
X87693678Y-42579500D01*
X87406322Y-42579500D01*
X87406318Y-42579500D01*
X87121648Y-42618627D01*
X86844942Y-42696155D01*
X86581373Y-42810639D01*
X86335853Y-42959944D01*
X86112949Y-43141290D01*
X85916810Y-43351303D01*
X85916809Y-43351304D01*
X85751098Y-43586065D01*
X85618898Y-43841197D01*
X85618897Y-43841199D01*
X85522666Y-44111968D01*
X85464203Y-44393307D01*
X85464202Y-44393310D01*
X85444592Y-44679999D01*
X85444592Y-44680000D01*
X71533293Y-44680000D01*
X71527765Y-43324698D01*
X71546330Y-43229334D01*
X71599977Y-43148333D01*
X71680537Y-43094028D01*
X71775747Y-43074685D01*
X71815709Y-43077748D01*
X72052662Y-43115278D01*
X72440000Y-43135578D01*
X72827338Y-43115278D01*
X73210433Y-43054602D01*
X73585087Y-42954214D01*
X73947194Y-42815214D01*
X74292789Y-42639125D01*
X74618084Y-42427876D01*
X74919516Y-42183781D01*
X75193781Y-41909516D01*
X75437876Y-41608084D01*
X75649125Y-41282789D01*
X75825214Y-40937194D01*
X75964214Y-40575087D01*
X76064602Y-40200433D01*
X76125278Y-39817338D01*
X76145578Y-39430000D01*
X76125278Y-39042662D01*
X76064602Y-38659567D01*
X75964214Y-38284913D01*
X75825214Y-37922806D01*
X75649125Y-37577211D01*
X75461326Y-37288026D01*
X75425326Y-37197790D01*
X75426597Y-37100643D01*
X75464948Y-37011378D01*
X75534541Y-36943584D01*
X75624779Y-36907583D01*
X75669954Y-36903413D01*
X162103540Y-36836140D01*
X162198843Y-36855020D01*
G37*
%TD.AperFunction*%
%TD*%
%TA.AperFunction,Conductor*%
%TO.N,+5V*%
G36*
X164042775Y-45229829D02*
G01*
X164088664Y-45282517D01*
X164100000Y-45334314D01*
X164100000Y-83425500D01*
X164080315Y-83492539D01*
X164027511Y-83538294D01*
X163976000Y-83549500D01*
X163034770Y-83549500D01*
X162967731Y-83529815D01*
X162937823Y-83502813D01*
X162793557Y-83321910D01*
X162595741Y-83138365D01*
X162595740Y-83138365D01*
X162372775Y-82986349D01*
X162372769Y-82986346D01*
X162372768Y-82986345D01*
X162372767Y-82986344D01*
X162129643Y-82869263D01*
X162129645Y-82869263D01*
X161871773Y-82789720D01*
X161871767Y-82789718D01*
X161604936Y-82749500D01*
X161604929Y-82749500D01*
X161335071Y-82749500D01*
X161335063Y-82749500D01*
X161068232Y-82789718D01*
X161068226Y-82789720D01*
X160810358Y-82869262D01*
X160567230Y-82986346D01*
X160344258Y-83138365D01*
X160146442Y-83321910D01*
X159978185Y-83532898D01*
X159843258Y-83766599D01*
X159843256Y-83766603D01*
X159744666Y-84017804D01*
X159744664Y-84017811D01*
X159684616Y-84280898D01*
X159664451Y-84549995D01*
X159664451Y-84550004D01*
X159684616Y-84819101D01*
X159744612Y-85081958D01*
X159744666Y-85082195D01*
X159843257Y-85333398D01*
X159978185Y-85567102D01*
X160114080Y-85737509D01*
X160146442Y-85778089D01*
X160333183Y-85951358D01*
X160344259Y-85961635D01*
X160567226Y-86113651D01*
X160810359Y-86230738D01*
X161068228Y-86310280D01*
X161068229Y-86310280D01*
X161068232Y-86310281D01*
X161335063Y-86350499D01*
X161335068Y-86350499D01*
X161335071Y-86350500D01*
X161335072Y-86350500D01*
X161604928Y-86350500D01*
X161604929Y-86350500D01*
X161604936Y-86350499D01*
X161871767Y-86310281D01*
X161871768Y-86310280D01*
X161871772Y-86310280D01*
X162129641Y-86230738D01*
X162372775Y-86113651D01*
X162595741Y-85961635D01*
X162793561Y-85778085D01*
X162937822Y-85597187D01*
X162995012Y-85557047D01*
X163034770Y-85550500D01*
X163976000Y-85550500D01*
X164043039Y-85570185D01*
X164088794Y-85622989D01*
X164100000Y-85674500D01*
X164100000Y-96995382D01*
X164080315Y-97062421D01*
X164027511Y-97108176D01*
X163975383Y-97119380D01*
X156183717Y-97080615D01*
X156116776Y-97060598D01*
X156071285Y-97007567D01*
X156060334Y-96956282D01*
X156075470Y-91350499D01*
X156077971Y-90424163D01*
X156097837Y-90357179D01*
X156150764Y-90311567D01*
X156201971Y-90300500D01*
X157072279Y-90300500D01*
X159752672Y-90300500D01*
X159819711Y-90320185D01*
X159860058Y-90362499D01*
X159978185Y-90567102D01*
X160114080Y-90737509D01*
X160146442Y-90778089D01*
X160333183Y-90951358D01*
X160344259Y-90961635D01*
X160567226Y-91113651D01*
X160810359Y-91230738D01*
X161068228Y-91310280D01*
X161068229Y-91310280D01*
X161068232Y-91310281D01*
X161335063Y-91350499D01*
X161335068Y-91350499D01*
X161335071Y-91350500D01*
X161335072Y-91350500D01*
X161604928Y-91350500D01*
X161604929Y-91350500D01*
X161604936Y-91350499D01*
X161871767Y-91310281D01*
X161871768Y-91310280D01*
X161871772Y-91310280D01*
X162129641Y-91230738D01*
X162372775Y-91113651D01*
X162595741Y-90961635D01*
X162793561Y-90778085D01*
X162961815Y-90567102D01*
X163096743Y-90333398D01*
X163195334Y-90082195D01*
X163255383Y-89819103D01*
X163275549Y-89550000D01*
X163265716Y-89418790D01*
X163255383Y-89280898D01*
X163195335Y-89017811D01*
X163195334Y-89017805D01*
X163096743Y-88766602D01*
X162961815Y-88532898D01*
X162793561Y-88321915D01*
X162793560Y-88321914D01*
X162793557Y-88321910D01*
X162595741Y-88138365D01*
X162372775Y-87986349D01*
X162372769Y-87986346D01*
X162372768Y-87986345D01*
X162372767Y-87986344D01*
X162129643Y-87869263D01*
X162129645Y-87869263D01*
X161871773Y-87789720D01*
X161871767Y-87789718D01*
X161604936Y-87749500D01*
X161604929Y-87749500D01*
X161335071Y-87749500D01*
X161335063Y-87749500D01*
X161068232Y-87789718D01*
X161068226Y-87789720D01*
X160810358Y-87869262D01*
X160567230Y-87986346D01*
X160344258Y-88138365D01*
X160146442Y-88321910D01*
X159978185Y-88532898D01*
X159860059Y-88737500D01*
X159809492Y-88785715D01*
X159752672Y-88799500D01*
X156206694Y-88799500D01*
X156139655Y-88779815D01*
X156093900Y-88727011D01*
X156082694Y-88675165D01*
X156092395Y-85082188D01*
X156110615Y-78334163D01*
X156130481Y-78267179D01*
X156183408Y-78221567D01*
X156234615Y-78210500D01*
X157132279Y-78210500D01*
X157152279Y-78210500D01*
X159545501Y-78210500D01*
X159612540Y-78230185D01*
X159658295Y-78282989D01*
X159669501Y-78334500D01*
X159669501Y-78837876D01*
X159675908Y-78897483D01*
X159726202Y-79032328D01*
X159726206Y-79032335D01*
X159812452Y-79147544D01*
X159812455Y-79147547D01*
X159927664Y-79233793D01*
X159927671Y-79233797D01*
X160062517Y-79284091D01*
X160062516Y-79284091D01*
X160069444Y-79284835D01*
X160122127Y-79290500D01*
X162817872Y-79290499D01*
X162877483Y-79284091D01*
X163012331Y-79233796D01*
X163127546Y-79147546D01*
X163213796Y-79032331D01*
X163264091Y-78897483D01*
X163270500Y-78837873D01*
X163270499Y-76142128D01*
X163264091Y-76082517D01*
X163213796Y-75947669D01*
X163213795Y-75947668D01*
X163213793Y-75947664D01*
X163127547Y-75832455D01*
X163127544Y-75832452D01*
X163012335Y-75746206D01*
X163012328Y-75746202D01*
X162877482Y-75695908D01*
X162877483Y-75695908D01*
X162817883Y-75689501D01*
X162817881Y-75689500D01*
X162817873Y-75689500D01*
X162817864Y-75689500D01*
X160122129Y-75689500D01*
X160122123Y-75689501D01*
X160062516Y-75695908D01*
X159927671Y-75746202D01*
X159927664Y-75746206D01*
X159812455Y-75832452D01*
X159812452Y-75832455D01*
X159726206Y-75947664D01*
X159726202Y-75947671D01*
X159675908Y-76082517D01*
X159669501Y-76142116D01*
X159669501Y-76142123D01*
X159669500Y-76142135D01*
X159669500Y-76585500D01*
X159649815Y-76652539D01*
X159597011Y-76698294D01*
X159545500Y-76709500D01*
X156239338Y-76709500D01*
X156172299Y-76689815D01*
X156126544Y-76637011D01*
X156115338Y-76585165D01*
X156117756Y-75689500D01*
X156123832Y-73439221D01*
X156143697Y-73372240D01*
X156196624Y-73326628D01*
X156265809Y-73316871D01*
X156329286Y-73346068D01*
X156335512Y-73351880D01*
X156386344Y-73402712D01*
X156535666Y-73494814D01*
X156702203Y-73549999D01*
X156804991Y-73560500D01*
X158155008Y-73560499D01*
X158257797Y-73549999D01*
X158424334Y-73494814D01*
X158573656Y-73402712D01*
X158697712Y-73278656D01*
X158698233Y-73277810D01*
X158698795Y-73276901D01*
X158699849Y-73275952D01*
X158702193Y-73272989D01*
X158702699Y-73273389D01*
X158750744Y-73230177D01*
X158804332Y-73218000D01*
X159739681Y-73218000D01*
X159806720Y-73237685D01*
X159847068Y-73280000D01*
X159888568Y-73351880D01*
X159978185Y-73507102D01*
X160020768Y-73560499D01*
X160146442Y-73718089D01*
X160333183Y-73891358D01*
X160344259Y-73901635D01*
X160567226Y-74053651D01*
X160810359Y-74170738D01*
X161068228Y-74250280D01*
X161068229Y-74250280D01*
X161068232Y-74250281D01*
X161335063Y-74290499D01*
X161335068Y-74290499D01*
X161335071Y-74290500D01*
X161335072Y-74290500D01*
X161604928Y-74290500D01*
X161604929Y-74290500D01*
X161604936Y-74290499D01*
X161871767Y-74250281D01*
X161871768Y-74250280D01*
X161871772Y-74250280D01*
X162129641Y-74170738D01*
X162372775Y-74053651D01*
X162595741Y-73901635D01*
X162793561Y-73718085D01*
X162961815Y-73507102D01*
X163096743Y-73273398D01*
X163195334Y-73022195D01*
X163255383Y-72759103D01*
X163275549Y-72490000D01*
X163255383Y-72220897D01*
X163195334Y-71957805D01*
X163096743Y-71706602D01*
X162961815Y-71472898D01*
X162793561Y-71261915D01*
X162793560Y-71261914D01*
X162793557Y-71261910D01*
X162595741Y-71078365D01*
X162595740Y-71078364D01*
X162372775Y-70926349D01*
X162372769Y-70926346D01*
X162372768Y-70926345D01*
X162372767Y-70926344D01*
X162129643Y-70809263D01*
X162129645Y-70809263D01*
X161871773Y-70729720D01*
X161871767Y-70729718D01*
X161604936Y-70689500D01*
X161604929Y-70689500D01*
X161335071Y-70689500D01*
X161335063Y-70689500D01*
X161068232Y-70729718D01*
X161068226Y-70729720D01*
X160810358Y-70809262D01*
X160567230Y-70926346D01*
X160344258Y-71078365D01*
X160146442Y-71261910D01*
X159978185Y-71472898D01*
X159873049Y-71655000D01*
X159822482Y-71703215D01*
X159765662Y-71717000D01*
X158749730Y-71717000D01*
X158682691Y-71697315D01*
X158662049Y-71680681D01*
X158573657Y-71592289D01*
X158573656Y-71592289D01*
X158573656Y-71592288D01*
X158424334Y-71500186D01*
X158257797Y-71445001D01*
X158257795Y-71445000D01*
X158155010Y-71434500D01*
X156804998Y-71434500D01*
X156804981Y-71434501D01*
X156702203Y-71445000D01*
X156702200Y-71445001D01*
X156535668Y-71500185D01*
X156535663Y-71500187D01*
X156386342Y-71592289D01*
X156340613Y-71638018D01*
X156279290Y-71671502D01*
X156209598Y-71666517D01*
X156153665Y-71624645D01*
X156129249Y-71559181D01*
X156128933Y-71550001D01*
X156129142Y-71472898D01*
X156144420Y-65814165D01*
X156164287Y-65747179D01*
X156217214Y-65701567D01*
X156268421Y-65690500D01*
X156352279Y-65690500D01*
X159505501Y-65690500D01*
X159572540Y-65710185D01*
X159618295Y-65762989D01*
X159629501Y-65814500D01*
X159629501Y-66207876D01*
X159635908Y-66267483D01*
X159686202Y-66402328D01*
X159686206Y-66402335D01*
X159772452Y-66517544D01*
X159772455Y-66517547D01*
X159887664Y-66603793D01*
X159887671Y-66603797D01*
X160022517Y-66654091D01*
X160022516Y-66654091D01*
X160029444Y-66654835D01*
X160082127Y-66660500D01*
X162777872Y-66660499D01*
X162837483Y-66654091D01*
X162972331Y-66603796D01*
X163087546Y-66517546D01*
X163173796Y-66402331D01*
X163224091Y-66267483D01*
X163230500Y-66207873D01*
X163230499Y-63512128D01*
X163224091Y-63452517D01*
X163173796Y-63317669D01*
X163173795Y-63317668D01*
X163173793Y-63317664D01*
X163087547Y-63202455D01*
X163087544Y-63202452D01*
X162972335Y-63116206D01*
X162972328Y-63116202D01*
X162837482Y-63065908D01*
X162837483Y-63065908D01*
X162777883Y-63059501D01*
X162777881Y-63059500D01*
X162777873Y-63059500D01*
X162777864Y-63059500D01*
X160082129Y-63059500D01*
X160082123Y-63059501D01*
X160022516Y-63065908D01*
X159887671Y-63116202D01*
X159887664Y-63116206D01*
X159772455Y-63202452D01*
X159772452Y-63202455D01*
X159686206Y-63317664D01*
X159686202Y-63317671D01*
X159635908Y-63452517D01*
X159629501Y-63512116D01*
X159629501Y-63512123D01*
X159629500Y-63512135D01*
X159629500Y-64065500D01*
X159609815Y-64132539D01*
X159557011Y-64178294D01*
X159505500Y-64189500D01*
X156273144Y-64189500D01*
X156206105Y-64169815D01*
X156160350Y-64117011D01*
X156149144Y-64065165D01*
X156155636Y-61660499D01*
X156158273Y-60683665D01*
X156178139Y-60616682D01*
X156231066Y-60571070D01*
X156300251Y-60561313D01*
X156363728Y-60590510D01*
X156369954Y-60596322D01*
X156476344Y-60702712D01*
X156625666Y-60794814D01*
X156792203Y-60849999D01*
X156894991Y-60860500D01*
X158245008Y-60860499D01*
X158347797Y-60849999D01*
X158514334Y-60794814D01*
X158663656Y-60702712D01*
X158719548Y-60646819D01*
X158780872Y-60613334D01*
X158807230Y-60610500D01*
X159712672Y-60610500D01*
X159779711Y-60630185D01*
X159820058Y-60672499D01*
X159938185Y-60877102D01*
X160074080Y-61047509D01*
X160106442Y-61088089D01*
X160293183Y-61261358D01*
X160304259Y-61271635D01*
X160527226Y-61423651D01*
X160770359Y-61540738D01*
X161028228Y-61620280D01*
X161028229Y-61620280D01*
X161028232Y-61620281D01*
X161295063Y-61660499D01*
X161295068Y-61660499D01*
X161295071Y-61660500D01*
X161295072Y-61660500D01*
X161564928Y-61660500D01*
X161564929Y-61660500D01*
X161564936Y-61660499D01*
X161831767Y-61620281D01*
X161831768Y-61620280D01*
X161831772Y-61620280D01*
X162089641Y-61540738D01*
X162332775Y-61423651D01*
X162555741Y-61271635D01*
X162753561Y-61088085D01*
X162921815Y-60877102D01*
X163056743Y-60643398D01*
X163155334Y-60392195D01*
X163215383Y-60129103D01*
X163235549Y-59860000D01*
X163215383Y-59590897D01*
X163155334Y-59327805D01*
X163056743Y-59076602D01*
X162921815Y-58842898D01*
X162753561Y-58631915D01*
X162753560Y-58631914D01*
X162753557Y-58631910D01*
X162555741Y-58448365D01*
X162555740Y-58448365D01*
X162332775Y-58296349D01*
X162332769Y-58296346D01*
X162332768Y-58296345D01*
X162332767Y-58296344D01*
X162089643Y-58179263D01*
X162089645Y-58179263D01*
X161831773Y-58099720D01*
X161831767Y-58099718D01*
X161564936Y-58059500D01*
X161564929Y-58059500D01*
X161295071Y-58059500D01*
X161295063Y-58059500D01*
X161028232Y-58099718D01*
X161028226Y-58099720D01*
X160770358Y-58179262D01*
X160527230Y-58296346D01*
X160304258Y-58448365D01*
X160106442Y-58631910D01*
X159938185Y-58842898D01*
X159820059Y-59047500D01*
X159769492Y-59095715D01*
X159712672Y-59109500D01*
X158914378Y-59109500D01*
X158847339Y-59089815D01*
X158808839Y-59050597D01*
X158794507Y-59027361D01*
X158787712Y-59016344D01*
X158663656Y-58892288D01*
X158514334Y-58800186D01*
X158347797Y-58745001D01*
X158347795Y-58745000D01*
X158245010Y-58734500D01*
X156894998Y-58734500D01*
X156894981Y-58734501D01*
X156792203Y-58745000D01*
X156792200Y-58745001D01*
X156625668Y-58800185D01*
X156625663Y-58800187D01*
X156476345Y-58892287D01*
X156374755Y-58993877D01*
X156313432Y-59027361D01*
X156243740Y-59022377D01*
X156187807Y-58980505D01*
X156163390Y-58915040D01*
X156163074Y-58905860D01*
X156177308Y-53634165D01*
X156197174Y-53567179D01*
X156250101Y-53521567D01*
X156301308Y-53510500D01*
X156982279Y-53510500D01*
X158152279Y-53510500D01*
X159605501Y-53510500D01*
X159672540Y-53530185D01*
X159718295Y-53582989D01*
X159729501Y-53634500D01*
X159729501Y-54067876D01*
X159735908Y-54127483D01*
X159786202Y-54262328D01*
X159786206Y-54262335D01*
X159872452Y-54377544D01*
X159872455Y-54377547D01*
X159987664Y-54463793D01*
X159987671Y-54463797D01*
X160122517Y-54514091D01*
X160122516Y-54514091D01*
X160129444Y-54514835D01*
X160182127Y-54520500D01*
X162877872Y-54520499D01*
X162937483Y-54514091D01*
X163072331Y-54463796D01*
X163187546Y-54377546D01*
X163273796Y-54262331D01*
X163324091Y-54127483D01*
X163330500Y-54067873D01*
X163330499Y-51372128D01*
X163324091Y-51312517D01*
X163273796Y-51177669D01*
X163273795Y-51177668D01*
X163273793Y-51177664D01*
X163187547Y-51062455D01*
X163187544Y-51062452D01*
X163072335Y-50976206D01*
X163072328Y-50976202D01*
X162937482Y-50925908D01*
X162937483Y-50925908D01*
X162877883Y-50919501D01*
X162877881Y-50919500D01*
X162877873Y-50919500D01*
X162877864Y-50919500D01*
X160182129Y-50919500D01*
X160182123Y-50919501D01*
X160122516Y-50925908D01*
X159987671Y-50976202D01*
X159987664Y-50976206D01*
X159872455Y-51062452D01*
X159872452Y-51062455D01*
X159786206Y-51177664D01*
X159786202Y-51177671D01*
X159735908Y-51312517D01*
X159729501Y-51372116D01*
X159729501Y-51372123D01*
X159729500Y-51372135D01*
X159729500Y-51885500D01*
X159709815Y-51952539D01*
X159657011Y-51998294D01*
X159605500Y-52009500D01*
X156306031Y-52009500D01*
X156238992Y-51989815D01*
X156193237Y-51937011D01*
X156182031Y-51885165D01*
X156188415Y-49520499D01*
X156191214Y-48483651D01*
X156211080Y-48416668D01*
X156264007Y-48371056D01*
X156333192Y-48361299D01*
X156396669Y-48390496D01*
X156420752Y-48418892D01*
X156482285Y-48518652D01*
X156482287Y-48518655D01*
X156482288Y-48518656D01*
X156606344Y-48642712D01*
X156755666Y-48734814D01*
X156922203Y-48789999D01*
X157024991Y-48800500D01*
X158375008Y-48800499D01*
X158477797Y-48789999D01*
X158644334Y-48734814D01*
X158793656Y-48642712D01*
X158917712Y-48518656D01*
X158917714Y-48518651D01*
X158918559Y-48517585D01*
X158919326Y-48517041D01*
X158922819Y-48513549D01*
X158923416Y-48514146D01*
X158975582Y-48477211D01*
X159015822Y-48470500D01*
X159812672Y-48470500D01*
X159879711Y-48490185D01*
X159920058Y-48532499D01*
X160038185Y-48737102D01*
X160174080Y-48907509D01*
X160206442Y-48948089D01*
X160393183Y-49121358D01*
X160404259Y-49131635D01*
X160627226Y-49283651D01*
X160870359Y-49400738D01*
X161128228Y-49480280D01*
X161128229Y-49480280D01*
X161128232Y-49480281D01*
X161395063Y-49520499D01*
X161395068Y-49520499D01*
X161395071Y-49520500D01*
X161395072Y-49520500D01*
X161664928Y-49520500D01*
X161664929Y-49520500D01*
X161664936Y-49520499D01*
X161931767Y-49480281D01*
X161931768Y-49480280D01*
X161931772Y-49480280D01*
X162189641Y-49400738D01*
X162432775Y-49283651D01*
X162655741Y-49131635D01*
X162853561Y-48948085D01*
X163021815Y-48737102D01*
X163156743Y-48503398D01*
X163255334Y-48252195D01*
X163315383Y-47989103D01*
X163335549Y-47720000D01*
X163315383Y-47450897D01*
X163255334Y-47187805D01*
X163156743Y-46936602D01*
X163021815Y-46702898D01*
X162853561Y-46491915D01*
X162853560Y-46491914D01*
X162853557Y-46491910D01*
X162655741Y-46308365D01*
X162432775Y-46156349D01*
X162432769Y-46156346D01*
X162432768Y-46156345D01*
X162432767Y-46156344D01*
X162189643Y-46039263D01*
X162189645Y-46039263D01*
X161931773Y-45959720D01*
X161931767Y-45959718D01*
X161664936Y-45919500D01*
X161664929Y-45919500D01*
X161395071Y-45919500D01*
X161395063Y-45919500D01*
X161128232Y-45959718D01*
X161128226Y-45959720D01*
X160870358Y-46039262D01*
X160627230Y-46156346D01*
X160404258Y-46308365D01*
X160206442Y-46491910D01*
X160038185Y-46702898D01*
X159920059Y-46907500D01*
X159869492Y-46955715D01*
X159812672Y-46969500D01*
X158982231Y-46969500D01*
X158915192Y-46949815D01*
X158894550Y-46933182D01*
X158868868Y-46907500D01*
X158793656Y-46832288D01*
X158644334Y-46740186D01*
X158477797Y-46685001D01*
X158477795Y-46685000D01*
X158375010Y-46674500D01*
X157024998Y-46674500D01*
X157024981Y-46674501D01*
X156922203Y-46685000D01*
X156922200Y-46685001D01*
X156755668Y-46740185D01*
X156755663Y-46740187D01*
X156606342Y-46832289D01*
X156482288Y-46956343D01*
X156482285Y-46956347D01*
X156424801Y-47049543D01*
X156372853Y-47096268D01*
X156303890Y-47107489D01*
X156239808Y-47079646D01*
X156200953Y-47021577D01*
X156195263Y-46984115D01*
X156199666Y-45353348D01*
X156219532Y-45286366D01*
X156272459Y-45240754D01*
X156323348Y-45229687D01*
X163975688Y-45210314D01*
X164042775Y-45229829D01*
G37*
%TD.AperFunction*%
%TD*%
D32*
X66630000Y-34550000D02*
X171630000Y-34550000D01*
X171630000Y-106550000D01*
X66630000Y-106550000D01*
X66630000Y-34550000D01*
M02*
