M48
; DRILL file {KiCad 7.0.6} date Tue Mar  5 09:49:35 2024
; FORMAT={2:4/ absolute / inch / keep zeros}
; #@! TF.CreationDate,2024-03-05T09:49:35-05:00
; #@! TF.GenerationSoftware,Kicad,Pcbnew,7.0.6
; #@! TF.FileFunction,Plated,1,2,PTH
FMAT,2
INCH
; #@! TA.AperFunction,Plated,PTH,ComponentDrill
T1C0.0197
; #@! TA.AperFunction,Plated,PTH,ComponentDrill
T2C0.0354
; #@! TA.AperFunction,Plated,PTH,ComponentDrill
T3C0.0394
; #@! TA.AperFunction,Plated,PTH,ComponentDrill
T4C0.0512
; #@! TA.AperFunction,Plated,PTH,ComponentDrill
T5C0.0787
; #@! TA.AperFunction,Plated,PTH,ComponentDrill
T6C0.1260
%
G90
G05
T1
X027575Y-015524
X027685Y-040071
X027852Y-014855
X027852Y-016192
X027962Y-039403
X027962Y-040739
X028520Y-014579
X028520Y-016469
X028630Y-039126
X028630Y-041016
X029188Y-014855
X029188Y-016192
X029298Y-039403
X029298Y-040739
X029465Y-015524
X029575Y-040071
X064156Y-015483
X064189Y-040063
X064433Y-014815
X064433Y-016151
X064466Y-039395
X064466Y-040731
X065101Y-014538
X065101Y-016428
X065134Y-039118
X065134Y-041008
X065769Y-014815
X065769Y-016151
X065802Y-039395
X065802Y-040731
X066046Y-015483
X066079Y-040063
T2
X059010Y-025567
X059010Y-030496
X059022Y-035264
X059045Y-020772
X060010Y-025567
X060010Y-030496
X060022Y-035264
X060045Y-020772
T3
X029898Y-018724
X029898Y-019724
X029898Y-020724
X036906Y-017394
X037906Y-017394
X038906Y-017394
X039594Y-032295
X039594Y-033295
X039906Y-017394
X045815Y-020252
X045815Y-021252
X045815Y-022252
X045815Y-023252
X045815Y-024252
X045815Y-025252
X045815Y-026252
X045815Y-027252
X045815Y-028252
X045815Y-029252
X045815Y-030252
X045815Y-031252
X045815Y-032252
X045815Y-033252
X045815Y-034252
X056815Y-020252
X056815Y-021252
X056815Y-022252
X056815Y-023252
X056815Y-024252
X056815Y-025252
X056815Y-026252
X056815Y-027252
X056815Y-028252
X056815Y-029252
X056815Y-030252
X056815Y-031252
X056815Y-032252
X056815Y-033252
X056815Y-034252
T4
X030022Y-023976
X030022Y-025945
X031513Y-035331
X031513Y-037299
X063555Y-023567
X063555Y-025535
X063571Y-028539
X063571Y-030508
X063571Y-033287
X063571Y-035256
X063571Y-037224
X063594Y-018787
X063594Y-020756
T5
X031528Y-030772
X032709Y-032622
X033890Y-030772
T6
X028520Y-015524
X028630Y-040071
X065101Y-015483
X065134Y-040063
T0
M30
